<?xml version="1.0" encoding="utf-8"?>
<!-- Generator: Adobe Illustrator 16.0.0, SVG Export Plug-In . SVG Version: 6.00 Build 0)  -->
<!DOCTYPE svg PUBLIC "-//W3C//DTD SVG 1.1//EN" "http://www.w3.org/Graphics/SVG/1.1/DTD/svg11.dtd">
<svg version="1.1" xmlns="http://www.w3.org/2000/svg" xmlns:xlink="http://www.w3.org/1999/xlink" x="0px" y="0px"
	 width="70px" height="70px" viewBox="0 0 70 70" enable-background="new 0 0 70 70" xml:space="preserve">
<g display="none">
	<g display="inline">
		<g>
			<path fill="#030303" d="M31.768,5c-7.992,0-14.497,6.513-14.497,14.517c0,8.009,6.505,14.523,14.497,14.523
				c7.992,0,14.49-6.514,14.49-14.523C46.258,11.513,39.76,5,31.768,5z M31.768,30.953c-6.289,0-11.405-5.13-11.405-11.436
				c0-6.303,5.116-11.429,11.405-11.429c6.285,0,11.396,5.126,11.396,11.429C43.164,25.823,38.053,30.953,31.768,30.953z"/>
			<path fill="#030303" d="M41.982,37.984l-20.396-0.022l-0.012,0.002c-2.155,0.729-7.552,2.62-10.244,4.164
				c-3.61,2.071-5.44,4.319-5.44,6.692V65h51.748V49.077C57.639,44.682,47.488,39.934,41.982,37.984z M54.543,61.908H8.988V48.82
				c0-2.232,3.605-4.354,13.305-7.84l0.389-0.067l18.373,0.021l0.156,0.061c9.717,3.597,13.332,5.789,13.332,8.085V61.908z"/>
		</g>
	</g>
	<g display="inline">
		<path fill="#FFFFFF" stroke="#FFFFFF" stroke-width="2" stroke-miterlimit="10" d="M61.963,46.605h-2v-4.287
			c0-2.428-2.834-4.402-6.316-4.402c-3.426,0-6.316,1.718-6.316,3.75v4.939h-2v-4.939c0-3.225,3.652-5.75,8.316-5.75
			c4.586,0,8.316,2.872,8.316,6.402V46.605L61.963,46.605z"/>
	</g>
	<g display="inline">
		<path d="M61.107,65H46.184c-1.654,0-3-1.346-3-3V48.855c0-1.653,1.346-3,3-3h14.924c1.654,0,3,1.347,3,3V62
			C64.107,63.654,62.762,65,61.107,65z M46.184,47.855c-0.552,0-1,0.449-1,1V62c0,0.552,0.448,1,1,1h14.924c0.554,0,1-0.448,1-1
			V48.855c0-0.551-0.446-1-1-1H46.184z"/>
	</g>
	
		<rect x="44.204" y="46.605" display="inline" fill="#FFFFFF" stroke="#FFFFFF" stroke-width="2" stroke-miterlimit="10" width="18.546" height="17.061"/>
	<circle display="inline" cx="53.646" cy="53.188" r="1.608"/>
	<g display="inline">
		<rect x="53.109" y="53.188" width="1.072" height="5.896"/>
	</g>
	<g display="inline">
		<path d="M61.963,46.605h-2v-4.287c0-2.428-2.834-4.402-6.316-4.402c-3.426,0-6.316,1.718-6.316,3.75v4.939h-2v-4.939
			c0-3.225,3.652-5.75,8.316-5.75c4.586,0,8.316,2.872,8.316,6.402V46.605L61.963,46.605z"/>
	</g>
	<g display="inline">
		<path fill="#FFFFFF" stroke="#FFFFFF" stroke-width="2" stroke-miterlimit="10" d="M61.107,65H46.184c-1.654,0-3-1.346-3-3V48.855
			c0-1.654,1.346-3,3-3h14.924c1.654,0,3,1.346,3,3V62C64.107,63.654,62.762,65,61.107,65z M46.184,47.855c-0.552,0-1,0.449-1,1V62
			c0,0.551,0.448,1,1,1h14.924c0.554,0,1-0.449,1-1V48.855c0-0.551-0.446-1-1-1H46.184z"/>
	</g>
	<g display="inline">
		<path d="M61.107,65H46.184c-1.654,0-3-1.346-3-3V48.855c0-1.654,1.346-3,3-3h14.924c1.654,0,3,1.346,3,3V62
			C64.107,63.654,62.762,65,61.107,65z M46.184,47.855c-0.552,0-1,0.449-1,1V62c0,0.551,0.448,1,1,1h14.924c0.554,0,1-0.449,1-1
			V48.855c0-0.551-0.446-1-1-1H46.184z"/>
	</g>
</g>
<g display="none">
	<g display="inline">
		<path d="M35.001,35.095c4.231,0,7.675-3.45,7.675-7.691c0-4.239-3.441-7.688-7.675-7.688c-4.233,0-7.677,3.449-7.677,7.688
			C27.324,31.645,30.768,35.095,35.001,35.095z M35.001,22.364c2.771,0,5.024,2.261,5.024,5.041c0,2.782-2.254,5.044-5.024,5.044
			c-2.772,0-5.028-2.263-5.028-5.044C29.973,24.625,32.229,22.364,35.001,22.364z"/>
		<path d="M40.201,35.93l-10.193-0.043l-0.188,0.031c-1.354,0.458-3.822,1.341-5.125,2.088c-1.959,1.124-2.953,2.395-2.953,3.773
			v8.504h26.517v-8.379C48.259,38.87,41.025,36.223,40.201,35.93z M30.593,38.467l8.861,0.01c2.869,1.063,6.153,2.41,6.153,3.431
			v5.728H24.392v-5.855c0-1.104,4.47-2.709,6.058-3.288L30.593,38.467z"/>
	</g>
	<g display="inline">
		<path d="M35,66.5C17.631,66.5,3.5,52.369,3.5,35S17.631,3.5,35,3.5S66.5,17.631,66.5,35S52.369,66.5,35,66.5z M35,6.5
			C19.285,6.5,6.5,19.285,6.5,35S19.285,63.5,35,63.5S63.5,50.715,63.5,35S50.715,6.5,35,6.5z"/>
	</g>
</g>
<g display="none">
	<g display="inline">
		<path fill-rule="evenodd" clip-rule="evenodd" fill="none" stroke="#000000" stroke-width="2" stroke-miterlimit="10" d="M35,5
			c16.568,0,30,13.431,30,30c0,16.569-13.432,30-30,30S5,51.568,5,35C5,18.431,18.432,5,35,5z"/>
	</g>
	<g display="inline">
		<path d="M35,34.994c4.663,0,8.456-3.725,8.456-8.3c0-4.57-3.793-8.292-8.456-8.292c-4.662,0-8.457,3.722-8.457,8.292
			C26.543,31.269,30.338,34.994,35,34.994z M35,21.07c3.158,0,5.728,2.524,5.728,5.623c0,3.107-2.569,5.629-5.728,5.629
			c-3.159,0-5.729-2.522-5.729-5.629C29.271,23.595,31.841,21.07,35,21.07z"/>
		<path d="M40.685,36.094l-11.332-0.012l-0.077,0.02c-1.217,0.404-4.214,1.434-5.725,2.281c-2.152,1.213-3.241,2.564-3.241,4.033
			v9.182h29.38v-9.045C49.689,39.273,41.607,36.408,40.685,36.094z M30.023,38.68l9.971,0.01c3.446,1.25,6.964,2.686,6.964,3.863
			v6.377H23.039v-6.514c0-1.133,3.519-2.521,6.947-3.73L30.023,38.68z"/>
	</g>
</g>
<g>
	<g>
		<path d="M35,5C18.458,5,5,18.458,5,35s13.458,30,30,30s30-13.458,30-30S51.542,5,35,5z M35,62.6C19.781,62.6,7.4,50.219,7.4,35
			S19.781,7.4,35,7.4S62.6,19.781,62.6,35S50.219,62.6,35,62.6z"/>
		<path d="M35,35.234c4.608,0,8.357-3.683,8.357-8.209c0-4.521-3.749-8.2-8.357-8.2c-4.609,0-8.359,3.678-8.359,8.2
			C26.641,31.552,30.391,35.234,35,35.234z M35,21.868c2.899,0,5.259,2.313,5.259,5.158c0,2.848-2.359,5.165-5.259,5.165
			c-2.9,0-5.26-2.317-5.26-5.165C29.74,24.181,32.1,21.868,35,21.868z"/>
		<path d="M40.535,35.823L29.52,35.807l-0.091,0.023c-1.466,0.487-4.136,1.422-5.538,2.208c-2.146,1.21-3.234,2.582-3.234,4.081
			v9.055h28.685v-8.923C49.342,38.92,41.436,36.13,40.535,35.823z M23.757,48.133v-6.014c0-1.06,4.899-2.787,6.467-3.344
			l0.017-0.003l9.511,0.01c1.815,0.658,6.487,2.361,6.487,3.469v5.882H23.757z"/>
	</g>
</g>
</svg>
