<?xml version="1.0" encoding="utf-8"?>
<!-- Generator: Adobe Illustrator 16.0.0, SVG Export Plug-In . SVG Version: 6.00 Build 0)  -->
<!DOCTYPE svg PUBLIC "-//W3C//DTD SVG 1.1//EN" "http://www.w3.org/Graphics/SVG/1.1/DTD/svg11.dtd">
<svg version="1.1" xmlns="http://www.w3.org/2000/svg" xmlns:xlink="http://www.w3.org/1999/xlink" x="0px" y="0px"
	 width="70px" height="70px" viewBox="0 0 70 70" enable-background="new 0 0 70 70" xml:space="preserve">
<g>
	<path d="M15.026,36.907h38.259c0.687,0,1.244-0.642,1.244-1.43c0-0.786-0.558-1.424-1.244-1.424H15.026
		c-0.688,0-1.247,0.638-1.247,1.424C13.779,36.266,14.338,36.907,15.026,36.907z"/>
	<path d="M15.026,43.977h38.052c0.687,0,1.243-0.638,1.243-1.426c0-0.784-0.557-1.426-1.243-1.426H15.026
		c-0.688,0-1.247,0.642-1.247,1.426C13.779,43.339,14.338,43.977,15.026,43.977z"/>
	<path d="M15.026,51.046h19.489c0.686,0,1.243-0.638,1.243-1.424c0-0.787-0.557-1.428-1.243-1.428H15.026
		c-0.688,0-1.247,0.641-1.247,1.428C13.779,50.408,14.338,51.046,15.026,51.046z"/>
	<path d="M60.483,8.089H9.478c-2.538,0-4.603,2.349-4.603,5.712v43.354c0,2.408,2.065,4.756,4.603,4.756h51.005
		c2.56,0,4.642-2.346,4.642-4.752V13.801C65.125,10.438,63.043,8.089,60.483,8.089z M7.63,25.301
		c0.035,0.003,0.069,0.005,0.104,0.005H62.37v31.377c0,1.229-0.864,2.268-1.887,2.268H9.478c-1.001,0-1.848-1.04-1.848-2.271V25.301
		z M9.478,11.055h51.005c1.022,0,1.887,1.039,1.887,2.269v9.356H7.734c-0.034,0-0.069,0.001-0.104,0.005v-9.361
		C7.63,12.094,8.477,11.055,9.478,11.055z"/>
	<path d="M14.447,18.521h7.942c0.639,0,1.159-0.591,1.159-1.318c0-0.725-0.52-1.315-1.159-1.315h-7.942
		c-0.638,0-1.157,0.59-1.157,1.315C13.291,17.93,13.81,18.521,14.447,18.521z"/>
	<path d="M35.45,18.521h0.663c0.638,0,1.155-0.591,1.155-1.318c0-0.725-0.518-1.315-1.155-1.315H35.45
		c-0.639,0-1.158,0.59-1.158,1.315C34.292,17.93,34.811,18.521,35.45,18.521z"/>
	<path d="M26.833,18.521h0.662c0.64,0,1.16-0.591,1.16-1.318c-0.001-0.725-0.522-1.315-1.16-1.315h-0.662
		c-0.639,0-1.159,0.59-1.159,1.315C25.674,17.93,26.194,18.521,26.833,18.521z"/>
	<path d="M31.14,18.521h0.663c0.638,0,1.158-0.591,1.158-1.318c0-0.725-0.52-1.315-1.158-1.315H31.14
		c-0.639,0-1.157,0.59-1.157,1.315C29.982,17.93,30.501,18.521,31.14,18.521z"/>
	<path d="M52.935,19.561c0.146,0.148,0.319,0.223,0.515,0.223c0.196,0,0.37-0.074,0.515-0.223l3.653-3.68
		c0.218-0.221,0.27-0.493,0.149-0.795c-0.12-0.301-0.351-0.462-0.664-0.462h-7.308c-0.313,0-0.542,0.161-0.663,0.463
		c-0.119,0.301-0.067,0.573,0.149,0.793L52.935,19.561z"/>
</g>
</svg>
