<?xml version="1.0" encoding="utf-8"?>
<!-- Generator: Adobe Illustrator 16.0.0, SVG Export Plug-In . SVG Version: 6.00 Build 0)  -->
<!DOCTYPE svg PUBLIC "-//W3C//DTD SVG 1.1//EN" "http://www.w3.org/Graphics/SVG/1.1/DTD/svg11.dtd">
<svg version="1.1" xmlns="http://www.w3.org/2000/svg" xmlns:xlink="http://www.w3.org/1999/xlink" x="0px" y="0px"
	 width="70px" height="70px" viewBox="0 0 70 70" enable-background="new 0 0 70 70" xml:space="preserve">
<g>
	<g>
		<g>
			<g>
				<path fill="#030303" d="M58.252,19.224c0-0.673-0.551-1.224-1.223-1.224H12.971c-0.673,0-1.224,0.551-1.224,1.224v1.056
					c0,0.673,0.55,1.224,1.224,1.224h44.058c0.672,0,1.223-0.551,1.223-1.224V19.224z"/>
			</g>
			<g>
				<path fill="#030303" d="M52.582,34.412c0-0.673-0.551-1.224-1.225-1.224H18.643c-0.674,0-1.224,0.551-1.224,1.224v1.057
					c0,0.674,0.55,1.225,1.224,1.225h32.714c0.674,0,1.225-0.551,1.225-1.225V34.412z"/>
			</g>
			<g>
				<path fill="#030303" d="M25.538,48.496c-0.673,0-1.224,0.551-1.224,1.225v1.057c0,0.673,0.55,1.224,1.224,1.224h18.923
					c0.674,0,1.225-0.551,1.225-1.224v-1.057c0-0.674-0.551-1.225-1.225-1.225H25.538z"/>
			</g>
		</g>
	</g>
</g>
</svg>
