<?xml version="1.0" encoding="utf-8"?>
<!-- Generator: Adobe Illustrator 16.0.0, SVG Export Plug-In . SVG Version: 6.00 Build 0)  -->
<!DOCTYPE svg PUBLIC "-//W3C//DTD SVG 1.1//EN" "http://www.w3.org/Graphics/SVG/1.1/DTD/svg11.dtd">
<svg version="1.1" xmlns="http://www.w3.org/2000/svg" xmlns:xlink="http://www.w3.org/1999/xlink" x="0px" y="0px"
	 width="70px" height="70px" viewBox="0 0 70 70" enable-background="new 0 0 70 70" xml:space="preserve">
<g display="none">
	<path display="inline" fill="none" stroke="#000000" stroke-width="3" stroke-miterlimit="10" d="M15.64,22.183
		c-2.171,1.688-3.336,5.233-2.588,7.88l2.279,8.065c0.748,2.646,3.153,3.454,5.346,1.794c0,0,4.005-3.031,13.866-3.148
		c11.145-0.133,14.754,2.932,14.754,2.932c2.098,1.779,4.342,1.049,4.989-1.624l1.931-7.97c0.646-2.672-0.547-6.305-2.654-8.073
		c0,0-3.52-2.953-19.021-2.953C19.625,19.085,15.64,22.183,15.64,22.183z"/>
	<path display="inline" fill="none" stroke="#000000" stroke-width="2" stroke-miterlimit="10" d="M55.227,33.801
		c0.248-0.041,0.395-0.063,0.395-0.063s10.359-1.646,9.305,0.49C60.1,43.982,63.171,49.094,61.23,48.91
		c-4.317-0.412-9.035-1.789-12.228-3.434c-2.308-1.188-2.253-3.427-1.558-5.765"/>
	<path display="inline" fill="none" stroke="#000000" stroke-width="2" stroke-miterlimit="10" d="M14.774,33.801
		c-0.248-0.041-0.394-0.063-0.394-0.063s-10.361-1.646-9.305,0.49C9.901,43.982,6.83,49.094,8.771,48.91
		c4.318-0.412,9.034-1.789,12.227-3.434c2.307-1.188,2.253-3.427,1.557-5.765"/>
</g>
<g>
	<g>
		<path d="M64.734,34.103c-0.312-0.422-1.198-0.926-3.655-0.926c-1.579,0-3.598,0.199-6.169,0.606l-0.367,0.058l0.305,1.844
			l0.346-0.055c2.205-0.351,4.668-0.578,6.274-0.578c0.311,0,0.563,0.009,0.768,0.02l0.742,0.041l-0.307,0.676
			c-2.453,5.409-2.446,9.341-2.442,11.453L60.22,48.34l-0.565-0.071c-3.691-0.467-7.731-1.655-10.542-3.104
			c-1.058-0.545-1.912-1.458-1.038-4.418l-1.791-0.531c-0.963,3.27-0.317,5.43,1.973,6.608c3.307,1.703,7.942,3.006,12.101,3.4
			c0.542,0.054,0.956-0.168,1.162-0.354c0.554-0.507,0.579-1.25,0.577-2.627c-0.004-2.133-0.012-6.096,2.736-11.648
			C65.085,35.078,65.05,34.534,64.734,34.103z"/>
		<path d="M5.261,34.106c-0.31,0.422-0.346,0.979-0.095,1.487c2.745,5.547,2.738,9.514,2.735,11.646
			c-0.001,1.38,0.024,2.123,0.581,2.631c0.203,0.184,0.602,0.405,1.159,0.353c4.164-0.397,8.799-1.701,12.099-3.4
			c2.293-1.182,2.939-3.343,1.973-6.61l-1.79,0.533c0.876,2.967-0.032,3.898-1.037,4.418c-2.815,1.449-6.855,2.638-10.544,3.104
			L9.773,48.34L9.77,47.242c0.002-2.118,0.005-6.053-2.44-11.446l-0.305-0.673l0.738-0.044c0.213-0.013,0.474-0.021,0.796-0.021
			c1.656,0,3.995,0.215,6.258,0.576l0.333,0.053l0.306-1.842l-0.358-0.058c-2.571-0.409-4.591-0.608-6.174-0.608
			C6.462,33.178,5.573,33.683,5.261,34.106z"/>
	</g>
	<path d="M58.052,26.112c0.217-0.801,0.106-1.639-0.311-2.36c-0.416-0.721-1.086-1.234-1.891-1.447
		c-0.094-0.026-9.683-2.537-20.84-2.537c-12.3,0-20.404,2.389-20.744,2.491c-1.627,0.486-2.592,2.214-2.152,3.853L16.1,40.921
		c0.358,1.33,1.565,2.258,2.936,2.258c0.303,0,0.604-0.045,0.895-0.135c0.337-0.1,8.122-2.384,14.814-2.384
		c0.213,0,0.423,0.003,0.633,0.008c7.198,0.158,14.09,2.149,14.853,2.376c0.293,0.09,0.595,0.135,0.897,0.135
		c1.371,0,2.579-0.928,2.937-2.257L58.052,26.112z M51.771,40.303c-0.088,0.34-0.512,0.579-0.849,0.465
		c-0.306-0.092-7.682-2.303-15.49-2.478c-0.232-0.006-0.463-0.008-0.695-0.008c-7.286,0-15.159,2.386-15.491,2.487
		c-0.065,0.02-0.129,0.028-0.195,0.028c-0.306,0.001-0.576-0.203-0.655-0.495l-3.985-14.809c-0.107-0.402,0.138-0.841,0.535-0.958
		c0.349-0.1,8.475-2.392,20.066-2.392c10.724,0,19.845,2.356,20.229,2.456c0.188,0.049,0.347,0.17,0.445,0.343
		c0.096,0.168,0.123,0.364,0.074,0.55L51.771,40.303z"/>
</g>
<g>
</g>
</svg>
