<?xml version="1.0" encoding="utf-8"?>
<!-- Generator: Adobe Illustrator 16.0.0, SVG Export Plug-In . SVG Version: 6.00 Build 0)  -->
<!DOCTYPE svg PUBLIC "-//W3C//DTD SVG 1.1//EN" "http://www.w3.org/Graphics/SVG/1.1/DTD/svg11.dtd">
<svg version="1.1" xmlns="http://www.w3.org/2000/svg" xmlns:xlink="http://www.w3.org/1999/xlink" x="0px" y="0px" width="70px"
	 height="70px" viewBox="0 0 70 70" enable-background="new 0 0 70 70" xml:space="preserve">
<g display="none">
	<g display="inline">
		<path fill="none" stroke="#030303" stroke-width="0.25" stroke-miterlimit="10" d="M29.288,26.573"/>
	</g>
	<g display="inline">
		<path fill="#030303" d="M47.602,38.406c-3.246,0-5.887-2.641-5.887-5.887c0-0.436,0.049-0.869,0.144-1.292h-5.161
			c-1.315,0-2.385-1.157-2.385-2.579V23.48c-0.631,0.227-1.3,0.345-1.98,0.345l0,0c-3.25,0-5.891-2.641-5.891-5.886
			s2.641-5.886,5.887-5.886c0.68,0,1.352,0.119,1.984,0.345V6.895c0-1.259,1.136-2.245,2.584-2.245h6.811
			c0.654,0,1.23,0.296,1.542,0.792c0.306,0.487,0.322,1.093,0.047,1.663l-0.168,0.263c-0.466,0.574-0.713,1.27-0.713,2.011
			c0,1.756,1.429,3.186,3.187,3.186c1.756,0,3.185-1.429,3.185-3.186c0-0.713-0.229-1.387-0.663-1.949l-0.098-0.146
			c-0.505-0.865-0.281-1.514-0.104-1.824c0.174-0.303,0.607-0.811,1.557-0.811h6.633c1.533,0,2.779,1.151,2.779,2.565v6.57
			c0,1.209-1.146,2.033-2.291,1.574l-0.225-0.114c-0.506-0.322-1.096-0.493-1.701-0.493c-1.758,0-3.188,1.429-3.188,3.186
			s1.43,3.186,3.188,3.186c0.648,0,1.273-0.193,1.805-0.56l0.193-0.111c0.23-0.107,0.465-0.162,0.701-0.162
			c0.063,0,1.518,0.021,1.518,1.767v6.71c0,1.356-1.168,2.458-2.602,2.458h-4.945c0.094,0.422,0.143,0.855,0.143,1.292
			C53.486,35.766,50.846,38.406,47.602,38.406z M37.012,28.528h6.256c0.607,0,1.157,0.281,1.472,0.752
			c0.308,0.46,0.354,1.038,0.128,1.583l-0.064,0.133c-0.258,0.469-0.388,0.981-0.388,1.523c0,1.758,1.429,3.188,3.187,3.188
			c1.756,0,3.185-1.43,3.185-3.188c0-0.545-0.14-1.082-0.404-1.553c-0.292-0.54-0.286-1.139,0.003-1.624
			c0.358-0.601,0.998-0.815,1.477-0.815h6.33v-4.9c-0.492,0.13-1,0.197-1.518,0.197c-3.246,0-5.888-2.641-5.888-5.886
			s2.642-5.886,5.888-5.886c0.516,0,1.025,0.067,1.518,0.198V7.359c-0.021-0.005-0.049-0.009-0.08-0.009h-4.982
			c0.236,0.642,0.357,1.325,0.357,2.029c0,3.245-2.641,5.886-5.885,5.886c-3.246,0-5.887-2.641-5.887-5.886
			c0-0.695,0.125-1.383,0.361-2.029h-5.064v6.755c0,0.839-0.625,1.744-1.633,1.744c-0.34,0-0.673-0.111-0.964-0.322
			c-0.632-0.518-1.35-0.775-2.086-0.775c-1.757,0-3.187,1.429-3.187,3.186s1.429,3.186,3.187,3.186c0.782,0,1.531-0.285,2.115-0.802
			c0.37-0.337,0.77-0.41,1.037-0.41c0.859,0,1.532,0.741,1.532,1.687V28.528z"/>
	</g>
	<g display="inline">
		<path fill="#030303" d="M45.918,67.35h-6.57c-0.593,0-1.131-0.271-1.438-0.726c-0.305-0.451-0.354-1.021-0.137-1.565l0.114-0.224
			c0.322-0.506,0.492-1.095,0.492-1.701c0-1.757-1.43-3.187-3.186-3.187c-1.757,0-3.186,1.43-3.186,3.187
			c0,0.649,0.193,1.272,0.56,1.803l0.114,0.198c0.236,0.508,0.21,1.054-0.071,1.495c-0.459,0.72-1.27,0.72-1.536,0.72h-6.71
			c-1.356,0-2.459-1.166-2.459-2.6v-4.945c-0.421,0.094-0.855,0.143-1.292,0.143c-3.246,0-5.887-2.64-5.887-5.886
			c0.001-3.246,2.643-5.887,5.888-5.887c0.437,0.001,0.871,0.05,1.292,0.145v-5.162c0-1.315,1.157-2.385,2.579-2.385h5.168
			c-0.227-0.633-0.345-1.303-0.344-1.985c0-3.245,2.64-5.886,5.885-5.886s5.886,2.641,5.886,5.887c0,0.681-0.118,1.352-0.345,1.984
			h5.502c1.26,0,2.246,1.135,2.246,2.585v6.811c0,1.017-0.707,1.784-1.643,1.784c-0.271,0-0.543-0.065-0.811-0.195l-0.268-0.169
			c-0.563-0.459-1.277-0.712-2.011-0.714c-1.755,0-3.184,1.43-3.184,3.188c0,1.757,1.429,3.187,3.187,3.187
			c0.713,0,1.387-0.23,1.947-0.664l0.148-0.1c0.356-0.208,0.695-0.309,1.035-0.309c0.77,0,1.598,0.552,1.598,1.764v6.632
			C48.482,66.104,47.332,67.35,45.918,67.35z M40.881,64.65h4.893c0.005-0.021,0.009-0.048,0.009-0.079v-4.98
			c-0.642,0.235-1.325,0.356-2.028,0.356c-3.246,0-5.887-2.64-5.887-5.886s2.641-5.887,5.887-5.887
			c0.696,0.001,1.383,0.126,2.028,0.362v-5.065h-6.755c-0.547,0-1.246-0.286-1.574-0.928c-0.273-0.535-0.218-1.158,0.149-1.667
			c0.521-0.635,0.776-1.352,0.776-2.089c0-1.758-1.43-3.188-3.186-3.188c-1.756,0-3.185,1.43-3.185,3.188
			c-0.001,0.78,0.284,1.53,0.802,2.113c0.414,0.457,0.527,1.086,0.285,1.631c-0.308,0.693-1.033,0.939-1.562,0.939h-6.929v6.255
			c0,0.978-0.723,1.743-1.646,1.743c-0.23,0-0.462-0.048-0.689-0.142l-0.132-0.063c-0.469-0.258-0.983-0.389-1.528-0.391
			c-1.753,0-3.184,1.431-3.184,3.188c0,1.756,1.429,3.186,3.187,3.186c0.544,0,1.081-0.141,1.552-0.406
			c1.19-0.636,2.441,0.257,2.441,1.48v6.328h4.9c-0.13-0.49-0.197-0.999-0.197-1.517c0-3.246,2.641-5.886,5.886-5.886
			c3.245,0,5.886,2.64,5.886,5.886C41.079,63.649,41.012,64.159,40.881,64.65z"/>
	</g>
	<g display="inline">
		<path fill="#030303" d="M23.304,38.58c-3.218,0-5.837-2.618-5.837-5.836c0-0.521,0.069-1.037,0.205-1.535h-4.051
			c-1.384,0-2.51-1.148-2.51-2.561V7.059c0-1.294,1.126-2.347,2.51-2.347h5.926c0.484,0,1.136,0.217,1.511,0.825
			c0.194,0.314,0.452,0.975,0.004,1.866l-0.17,0.259c-0.467,0.559-0.724,1.271-0.724,2.005c0,1.729,1.407,3.137,3.137,3.137
			s3.137-1.407,3.137-3.137c0-0.784-0.29-1.534-0.817-2.112l-0.067-0.08c-0.633-0.813-0.393-1.532-0.26-1.803
			c0.214-0.438,0.709-0.96,1.853-0.96h7.298c1.761,0,2.564,1.131,2.564,2.183h-2.7c0,0.281,0.216,0.498,0.332,0.536
			c0,0-0.058-0.018-0.196-0.018h-5.759c0.296,0.708,0.452,1.473,0.452,2.255c0,3.218-2.619,5.837-5.837,5.837
			s-5.837-2.619-5.837-5.837c0-0.779,0.157-1.546,0.453-2.255h-4.11v21.097h5.162c0.653,0,1.263,0.321,1.591,0.839
			c0.324,0.511,0.349,1.145,0.068,1.741l-0.052,0.099c-0.27,0.468-0.413,1.006-0.413,1.557c0,1.729,1.407,3.137,3.137,3.137
			s3.137-1.407,3.137-3.137c0-0.548-0.142-1.084-0.412-1.555c-0.407-0.552-0.477-1.203-0.182-1.766
			c0.324-0.62,1.035-0.964,1.849-0.915h6.752c0.104,0,0.148-0.011,0.148-0.011c-0.066,0.018-0.146,0.079-0.207,0.15h2.622
			c0,1.604-0.958,2.561-2.564,2.561h-5.512c0.135,0.498,0.205,1.014,0.205,1.535C29.141,35.962,26.522,38.58,23.304,38.58z"/>
	</g>
</g>
<g display="none">
	<path display="inline" fill="none" stroke="#030303" stroke-width="3" stroke-miterlimit="10" d="M54.363,34.864v-13.62
		c0-1.314-0.894-2.377-1.998-2.377H39.672c-0.377,0-0.968-0.215-0.683-0.903c0.686-1.249,1.073-2.68,1.073-4.2
		C40.063,8.922,36.141,5,31.298,5c-4.84,0-8.763,3.923-8.763,8.766c0,1.556,0.406,3.015,1.117,4.276
		c0.308,0.571-0.262,0.827-0.583,0.827H10.651c-1.337,0-2.419,0.958-2.419,2.144v12.964c0,0.408,0,1.004,0.572,0.738
		c1.411-0.974,3.121-1.542,4.967-1.542c4.842,0,8.764,3.922,8.764,8.762s-3.922,8.764-8.764,8.764c-1.724,0-3.333-0.498-4.688-1.36
		c-0.679-0.271-0.851,0.277-0.851,0.621v12.692C8.232,63.95,9.469,65,10.994,65h9.761h3.052c0.308,0,1.237,0,0.557-1.168
		c-1.147-1.483-1.828-3.341-1.828-5.359c0-4.84,3.923-8.764,8.763-8.764c4.842,0,8.764,3.924,8.764,8.764
		c0,2.097-0.737,4.021-1.962,5.529C37.697,64.832,38.423,65,38.82,65h2.483h10.672c1.319,0,2.388-0.775,2.388-1.729V49.342
		c0-0.354,0.313-1.048,0.881-0.636c1.512,1.246,3.45,1.992,5.562,1.992c4.841,0,8.765-3.924,8.765-8.764s-3.924-8.762-8.765-8.762
		c-2.232-0.002-4.268,0.833-5.814,2.206C54.533,35.794,54.363,35.149,54.363,34.864"/>
</g>
<g>
	<g>
		<path fill="#030303" d="M47.789,65.846H34.921c-0.886,0-1.623-0.366-2.023-1.006c-0.224-0.357-0.525-1.108-0.03-2.127l0.185-0.29
			c1.021-1.256,1.583-2.841,1.583-4.462c0-3.9-3.173-7.073-7.072-7.073s-7.072,3.173-7.072,7.073c0,1.581,0.51,3.077,1.475,4.324
			l0.11,0.163c0.651,1.118,0.462,1.919,0.189,2.394c-0.383,0.666-1.066,1.004-2.03,1.004H7.701c-2.316,0-4.201-1.704-4.201-3.798
			V49.633c0-1.554,1.412-2.591,2.887-2.001l0.25,0.128c1.128,0.717,2.436,1.096,3.781,1.096c3.9,0,7.073-3.173,7.073-7.072
			c0-3.898-3.173-7.071-7.073-7.071c-1.443,0-2.828,0.43-4.007,1.243L6.193,36.08c-0.292,0.136-0.587,0.205-0.876,0.205
			c-0.426,0-1.817-0.165-1.817-2.287V21.317c0-1.983,1.734-3.597,3.866-3.597h10.748c-0.409-1.106-0.623-2.293-0.623-3.491
			c0-5.555,4.519-10.074,10.072-10.074s10.072,4.519,10.072,10.074c0,1.194-0.214,2.379-0.625,3.491H48.17
			c1.905,0,3.455,1.716,3.455,3.825V32.93c1.465-0.795,3.107-1.217,4.792-1.217c5.564,0,10.083,4.518,10.083,10.071
			c0,5.554-4.519,10.072-10.073,10.072c-1.685,0-3.338-0.425-4.802-1.218v12.016C51.625,64.443,49.94,65.846,47.789,65.846z
			 M36.372,62.846h11.417c0.461,0,0.75-0.175,0.836-0.265V49.029c0-1.08,0.778-2.246,2.035-2.246c0.421,0,0.839,0.142,1.208,0.411
			c1.328,1.091,2.922,1.661,4.559,1.661c3.9,0,7.073-3.173,7.073-7.072c0-3.898-3.173-7.071-7.073-7.071
			c-1.736,0-3.399,0.632-4.693,1.78c-0.461,0.42-0.942,0.511-1.263,0.511c-1.052,0-1.846-0.918-1.846-2.136V21.545
			c0-0.496-0.273-0.825-0.455-0.825H35.754c-0.797,0-1.511-0.356-1.91-0.953c-0.382-0.571-0.435-1.302-0.145-2.003l0.071-0.149
			c0.566-1.03,0.865-2.201,0.865-3.386c0-3.901-3.173-7.074-7.072-7.074s-7.072,3.173-7.072,7.074c0,1.21,0.311,2.402,0.899,3.447
			c0.371,0.686,0.37,1.412,0.011,2.015c-0.453,0.76-1.3,1.029-1.888,1.029H7.366c-0.51,0-0.866,0.315-0.866,0.597v11.185
			c1.229-0.52,2.556-0.789,3.918-0.789c5.554,0,10.073,4.518,10.073,10.071c0,5.554-4.519,10.072-10.073,10.072
			c-1.356,0-2.686-0.271-3.918-0.792v10.984c0,0.377,0.493,0.798,1.201,0.798H18.75c-0.828-1.485-1.259-3.149-1.259-4.885
			c0-5.555,4.519-10.073,10.072-10.073s10.072,4.519,10.072,10.073C37.636,59.674,37.194,61.359,36.372,62.846z"/>
	</g>
</g>
</svg>
