<?xml version="1.0" encoding="utf-8"?>
<!-- Generator: Adobe Illustrator 16.0.0, SVG Export Plug-In . SVG Version: 6.00 Build 0)  -->
<!DOCTYPE svg PUBLIC "-//W3C//DTD SVG 1.1//EN" "http://www.w3.org/Graphics/SVG/1.1/DTD/svg11.dtd">
<svg version="1.1" xmlns="http://www.w3.org/2000/svg" xmlns:xlink="http://www.w3.org/1999/xlink" x="0px" y="0px"
	 width="70px" height="70px" viewBox="0 0 70 70" enable-background="new 0 0 70 70" xml:space="preserve">
<g>
	<path fill="#030303" d="M61.666,7H8.334C6.496,7,5,8.485,5,10.31v35.493c0,1.826,1.496,3.309,3.334,3.309h31.029l-0.563-2.836
		H8.334c-0.258,0-0.477-0.215-0.477-0.473V10.31c0-0.257,0.219-0.473,0.477-0.473h53.332c0.26,0,0.478,0.217,0.478,0.473v35.491
		c0,0.258-0.218,0.473-0.478,0.473H61.39l-0.619,2.838h0.896c1.838,0,3.334-1.481,3.334-3.309V10.31C65,8.485,63.504,7,61.666,7z"/>
	<path fill="#030303" d="M58.18,42.945H42.064l-0.102-0.48c-0.146-0.971-0.84-1.551-1.846-1.551h-3.896
		c-0.006,0-0.008-0.002-0.012-0.002c-0.523,0-0.953,0.424-0.953,0.945c0,0.521,0.43,0.947,0.953,0.947
		c0.004,0,0.006-0.003,0.012-0.003l3.871,0.007l2.779,13.461c0.203,0.793,0.631,1.231,1.274,1.371
		c-1.104,0.36-1.905,1.389-1.905,2.604c0,1.521,1.241,2.756,2.772,2.756c1.528,0,2.774-1.234,2.774-2.756
		c0-1.143-0.705-2.123-1.705-2.541h8.763c-0.998,0.418-1.703,1.398-1.703,2.541c0,1.521,1.243,2.756,2.774,2.756
		c1.529,0,2.773-1.234,2.773-2.756c0-1.143-0.705-2.123-1.705-2.541h0.385c0.008,0,0.012,0.004,0.021,0.004
		c0.524,0,0.952-0.424,0.952-0.945c0-0.52-0.42-0.938-0.938-0.945v-0.004L44.72,55.811l-0.229-1.104h11.48
		c0.551-0.002,1.57-0.002,1.896-1.49l1.826-8.359c0.135-0.459,0.055-0.93-0.223-1.293C59.182,43.176,58.697,42.945,58.18,42.945z
		 M55.924,59.381c0.479,0,0.869,0.387,0.869,0.863s-0.392,0.863-0.869,0.863c-0.48,0-0.871-0.387-0.871-0.863
		S55.443,59.381,55.924,59.381z M45.02,59.381c0.48,0,0.869,0.387,0.869,0.863s-0.391,0.863-0.869,0.863s-0.871-0.387-0.871-0.863
		S44.541,59.381,45.02,59.381z M56.01,52.814c-0.01,0-0.021,0-0.033,0H44.104l-1.646-7.979h15.299L56.01,52.814z"/>
</g>
<g>
	<path fill="#030303" d="M25.789,20.385h-8c-0.275,0-0.5,0.224-0.5,0.5v1c0,0.276,0.225,0.5,0.5,0.5h8c0.276,0,0.5-0.224,0.5-0.5v-1
		C26.289,20.609,26.065,20.385,25.789,20.385z"/>
	<path fill="#030303" d="M52.209,20.385h-8c-0.274,0-0.5,0.224-0.5,0.5v1c0,0.276,0.226,0.5,0.5,0.5h8c0.275,0,0.5-0.224,0.5-0.5v-1
		C52.709,20.609,52.485,20.385,52.209,20.385z"/>
	<polygon fill="#030303" points="31.065,16.653 35.504,21.092 31.065,25.532 32.479,26.946 38.334,21.092 32.479,15.239 	"/>
</g>
</svg>
