<?xml version="1.0" encoding="utf-8"?>
<!-- Generator: Adobe Illustrator 16.0.0, SVG Export Plug-In . SVG Version: 6.00 Build 0)  -->
<!DOCTYPE svg PUBLIC "-//W3C//DTD SVG 1.1//EN" "http://www.w3.org/Graphics/SVG/1.1/DTD/svg11.dtd">
<svg version="1.1" xmlns="http://www.w3.org/2000/svg" xmlns:xlink="http://www.w3.org/1999/xlink" x="0px" y="0px" width="70px"
	 height="70px" viewBox="0 0 70 70" enable-background="new 0 0 70 70" xml:space="preserve">
<g display="none">
	
		<image display="inline" overflow="visible" width="56" height="31" xlink:href="A8E96761.jpg"  transform="matrix(0.9999 0 0 0.9999 8.3506 18.0566)">
	</image>
</g>
<g>
	<g>
		<path d="M60.714,41.639H53.14l-3.973-2.857h11.547c0.788,0,1.429-0.64,1.429-1.428V15.921c0-0.788-0.641-1.429-1.429-1.429H9.286
			c-0.788,0-1.429,0.641-1.429,1.429v21.432c0,0.788,0.641,1.428,1.429,1.428H28.11l0.164,2.857H9.286
			C6.922,41.639,5,39.717,5,37.354V15.921c0-2.363,1.922-4.286,4.286-4.286h51.428c2.363,0,4.286,1.922,4.286,4.286v21.432
			C65,39.717,63.077,41.639,60.714,41.639z"/>
	</g>
</g>
<g>
	<g>
		<path d="M43.183,58.365l-5.904-9.773l-6.579,5.91L29.505,26.54l22.273,16.157l-8.462,2.576l5.945,9.105L43.183,58.365z
			 M37.718,45.636l6.073,10.053l2.837-1.86l-6.293-9.639l7.225-2.199L31.576,30.396l0.854,19.991L37.718,45.636z"/>
	</g>
</g>
</svg>
