<?xml version="1.0" encoding="utf-8"?>
<!-- Generator: Adobe Illustrator 16.0.0, SVG Export Plug-In . SVG Version: 6.00 Build 0)  -->
<!DOCTYPE svg PUBLIC "-//W3C//DTD SVG 1.1//EN" "http://www.w3.org/Graphics/SVG/1.1/DTD/svg11.dtd">
<svg version="1.1" xmlns="http://www.w3.org/2000/svg" xmlns:xlink="http://www.w3.org/1999/xlink" x="0px" y="0px"
	 width="70px" height="70px" viewBox="0 0 70 70" enable-background="new 0 0 70 70" xml:space="preserve">
<g display="none">
	<g display="inline">
	</g>
	<g display="inline">
		<g>
			<path d="M54.998,54.5H15.001c-1.93,0-3.5-1.557-3.5-3.471V18.971c0-1.914,1.57-3.471,3.5-3.471h39.997
				c1.93,0,3.5,1.557,3.5,3.471v32.058C58.498,52.943,56.928,54.5,54.998,54.5z M15.001,18.475c-0.271,0-0.5,0.228-0.5,0.496v32.058
				c0,0.27,0.229,0.496,0.5,0.496h39.997c0.271,0,0.5-0.229,0.5-0.496V18.971c0-0.269-0.229-0.496-0.5-0.496H15.001z"/>
		</g>
		<path d="M63.813,20.975H68.5V19h-4.688c-1.654,0-3,1.333-3,2.971v26.058c0,1.638,1.346,2.971,3,2.971H68.5v-1.975h-4.688
			c-0.554,0-1-0.447-1-0.996V21.971C62.813,21.422,63.262,20.975,63.813,20.975z"/>
		<path d="M9.186,21.971c0-1.638-1.346-2.971-3-2.971H1.5v1.975h4.686c0.551,0,1,0.447,1,0.996v26.058c0,0.549-0.449,0.996-1,0.996
			H1.5V51h4.686c1.654,0,3-1.333,3-2.971V21.971z"/>
	</g>
	<g display="inline">
		<g>
			<path d="M47.135,37.57c-0.734-0.456-3.33-1.752-5.88,0.736l-3.284,3.172l-8.307-6.729c-2.787-2.208-5.172-0.938-6.71,0.543
				L12.299,46.215l1.783,1.689L24.708,37.01c1.744-1.682,2.744-0.888,3.454-0.322L42.124,48l1.571-1.884l-3.803-3.079l3.103-2.993
				c0.896-0.879,1.845-1.019,2.799-0.426l9.903,6.438l1.363-2.037L47.135,37.57z"/>
			<path d="M41.844,34.297c2.325,0,4.219-1.866,4.219-4.158s-1.894-4.158-4.219-4.158c-2.324,0-4.216,1.866-4.216,4.158
				S39.52,34.297,41.844,34.297z M41.844,28.42c0.963,0,1.745,0.771,1.745,1.719c0,0.948-0.782,1.719-1.745,1.719
				c-0.961,0-1.742-0.772-1.742-1.719C40.102,29.191,40.883,28.42,41.844,28.42z"/>
		</g>
	</g>
</g>
<g>
	<g>
		<path d="M54.157,22.694c0-1.636-1.343-2.967-2.993-2.967H18.835c-1.651,0-2.994,1.331-2.994,2.966v27.612
			c0,1.635,1.343,2.966,2.994,2.966h32.329c1.65,0,2.993-1.331,2.993-2.966V22.694z M51.977,50.309c0,0.438-0.372,0.807-0.813,0.807
			H18.835c-0.441,0-0.814-0.369-0.814-0.807V22.694c0-0.439,0.373-0.81,0.814-0.81h32.329c0.44,0,0.813,0.371,0.813,0.81V50.309z"/>
		<path d="M59.57,23.634H65v-1.88h-5.43c-1.575,0-2.854,1.269-2.854,2.828v23.835c0,1.56,1.279,2.828,2.854,2.828H65v-1.878h-5.43
			c-0.524,0-0.951-0.428-0.951-0.948V24.583C58.617,24.06,59.046,23.634,59.57,23.634z"/>
		<path d="M13.284,24.583c0-1.559-1.281-2.828-2.856-2.828H5v1.88h5.428c0.525,0,0.952,0.425,0.952,0.948v23.836
			c0,0.521-0.427,0.948-0.952,0.948H5v1.878h5.428c1.575,0,2.856-1.269,2.856-2.828V24.583z"/>
	</g>
	<g>
		<g>
			<path d="M44.979,38.406c-0.604-0.391-2.735-1.497-4.834,0.629l-2.699,2.714l-6.827-5.754c-2.292-1.889-4.251-0.803-5.516,0.463
				l-8.756,9.339l1.465,1.444l8.734-9.313c1.433-1.438,2.255-0.759,2.838-0.277l11.477,9.675l1.291-1.611l-3.123-2.633l2.549-2.558
				c0.736-0.752,1.517-0.871,2.299-0.364l8.141,5.504l1.121-1.741L44.979,38.406z"/>
			<path d="M40.632,35.607c1.91,0,3.468-1.594,3.468-3.554c0-1.96-1.558-3.553-3.468-3.553c-1.913,0-3.466,1.594-3.466,3.554
				C37.166,34.013,38.719,35.607,40.632,35.607z M40.632,30.584c0.79,0,1.435,0.658,1.435,1.47s-0.643,1.469-1.435,1.469
				c-0.791,0-1.433-0.659-1.433-1.469S39.841,30.584,40.632,30.584z"/>
		</g>
	</g>
</g>
<g display="none" opacity="0.4">
	<g display="inline">
		<path d="M53.297,21.723c0-1.502-1.232-2.725-2.75-2.725H19.121c-1.517,0-2.75,1.222-2.75,2.725v23.48
			c0,1.502,1.233,2.725,2.75,2.725h31.426c1.518,0,2.75-1.223,2.75-2.725V21.723z M51.227,45.203c0,0.365-0.312,0.674-0.68,0.674
			H19.121c-0.368,0-0.679-0.309-0.679-0.674v-23.48c0-0.366,0.311-0.675,0.679-0.675h31.426c0.368,0,0.68,0.309,0.68,0.675V45.203z"
			/>
		<path d="M55.632,44.203c0,1.348,1.108,2.445,2.47,2.445h5.916v-1.49h-5.916c-0.52,0-0.959-0.438-0.959-0.955v-21.48
			c0-0.518,0.439-0.955,0.959-0.955h5.916v-1.49h-5.916c-1.36,0-2.47,1.097-2.47,2.445V44.203L55.632,44.203z"/>
		<path d="M14.035,22.723c0-1.348-1.108-2.445-2.47-2.445H5.65v1.49h5.915c0.52,0,0.959,0.438,0.959,0.955v21.48
			c0,0.518-0.439,0.955-0.959,0.955H5.65v1.49h5.915c1.361,0,2.469-1.099,2.47-2.445V22.723z"/>
	</g>
	<path display="inline" d="M46.003,51.498H23.289c-0.689,0-1.25,0.465-1.25,1.035s0.561,1.035,1.25,1.035h22.714
		c0.688,0,1.25-0.465,1.25-1.035S46.691,51.498,46.003,51.498z"/>
	<g display="inline">
		<polygon fill="#030303" points="9.458,29.461 5.436,33.484 9.458,37.506 10.436,36.529 7.39,33.484 10.436,30.438 		"/>
		<polygon fill="#030303" points="60.21,29.418 59.232,30.396 62.279,33.443 59.232,36.488 60.21,37.465 64.232,33.443 		"/>
	</g>
	<path display="inline" d="M58.922,52.568h5.376v-2.07h-5.376c-0.689,0-1.25,0.465-1.25,1.035S58.232,52.568,58.922,52.568z"/>
	<path display="inline" d="M10.746,50.498H5.37v2.07h5.376c0.689,0,1.25-0.465,1.25-1.035S11.436,50.498,10.746,50.498z"/>
</g>
</svg>
