<?xml version="1.0" encoding="utf-8"?>
<!-- Generator: Adobe Illustrator 16.0.0, SVG Export Plug-In . SVG Version: 6.00 Build 0)  -->
<!DOCTYPE svg PUBLIC "-//W3C//DTD SVG 1.1//EN" "http://www.w3.org/Graphics/SVG/1.1/DTD/svg11.dtd">
<svg version="1.1" xmlns="http://www.w3.org/2000/svg" xmlns:xlink="http://www.w3.org/1999/xlink" x="0px" y="0px" width="70px"
	 height="70px" viewBox="0 0 70 70" enable-background="new 0 0 70 70" xml:space="preserve">
<g display="none">
	<path display="inline" opacity="0.5" d="M62.703,22.919c0-2.635-1.24-3.97-3.685-3.97H49.69l-0.014-0.503
		C49.48,11.032,42.983,5,35.191,5C27.4,5,20.903,11.032,20.709,18.446l-0.014,0.503h-9.741c-2.495,0-3.657,1.262-3.657,3.97v32.839
		c0,5.378,4.607,9.241,9.666,9.241h37.55c5.32,0,8.19-4.26,8.19-9.241V22.919z M24.513,18.409c0.221-5.042,5.312-9.635,10.68-9.635
		c5.369,0,10.461,4.592,10.683,9.635l0.024,0.54H24.488L24.513,18.409z M59.518,55.756c0,2.941-1.913,6.117-5.005,6.117h-37.55
		c-3.21,0-6.479-3.087-6.479-6.117V22.292h9.87v8.674c0,0.991,0.998,1.894,2.095,1.894c1.096,0,2.094-0.903,2.094-1.894v-8.674
		h20.94v8.674c0,0.991,1,1.894,2.099,1.894c1.094,0,2.09-0.903,2.09-1.894v-8.674h9.847V55.756z"/>
</g>
<g display="none">
	<path display="inline" fill="none" stroke="#000000" stroke-width="3" stroke-miterlimit="10" d="M47.52,32.859V19.258
		c0-7.129-5.67-12.42-12.536-12.42c-6.992,0-12.536,5.292-12.536,12.42v13.602"/>
	<path display="inline" fill="none" stroke="#000000" stroke-width="3" stroke-miterlimit="10" d="M60.975,55.449
		c0,4.797-3.169,8.156-7.086,8.156H18.254c-5.193,0-9.031-3.431-9.031-8.315V22.85c0-1.1,0.9-2,2-2h47.751c1.1,0,2,0.9,2,2V55.449z"
		/>
</g>
<g>
	<path d="M58.876,19.004h-9.83c-0.018-7.86-6.225-14.013-14.145-14.013c-7.938,0-14.159,6.152-14.177,14.013h-9.601
		c-1.999,0-3.625,1.626-3.625,3.625v32.439c0,5.76,4.481,9.94,10.656,9.94H53.79c4.966,0,8.711-4.205,8.711-9.781V22.629
		C62.501,20.63,60.875,19.004,58.876,19.004z M53.79,61.759H18.155c-4.36,0-7.406-2.751-7.406-6.69V22.629
		c0-0.203,0.172-0.375,0.375-0.375h9.601v9.103l0.016,0.125h0.014c0.118,0.784,0.8,1.383,1.6,1.383c0.799,0,1.48-0.599,1.6-1.383
		h0.021l0.004-0.242c0-0.013-0.002-0.025-0.004-0.038v-8.947h21.821v9.103l0.012,0.125h0.014c0.118,0.784,0.8,1.383,1.6,1.383
		s1.481-0.599,1.6-1.383h0.025v-9.228h9.83c0.203,0,0.375,0.172,0.375,0.375v32.599C59.251,58.951,56.903,61.759,53.79,61.759z
		 M34.901,8.241c6.098,0,10.877,4.725,10.895,10.763H23.975C23.991,12.865,28.683,8.241,34.901,8.241z"/>
</g>
</svg>
