<?xml version="1.0" encoding="utf-8"?>
<!-- Generator: Adobe Illustrator 16.0.0, SVG Export Plug-In . SVG Version: 6.00 Build 0)  -->
<!DOCTYPE svg PUBLIC "-//W3C//DTD SVG 1.1//EN" "http://www.w3.org/Graphics/SVG/1.1/DTD/svg11.dtd">
<svg version="1.1" xmlns="http://www.w3.org/2000/svg" xmlns:xlink="http://www.w3.org/1999/xlink" x="0px" y="0px"
	 width="70px" height="70px" viewBox="0 0 70 70" enable-background="new 0 0 70 70" xml:space="preserve">
<g display="none">
	
		<image display="inline" overflow="visible" enable-background="new    " width="57" height="45" xlink:href="E5573DAF.jpg"  transform="matrix(-4.370701e-008 -0.9999 -0.9999 4.370701e-008 55.4287 62.8262)">
	</image>
	<path display="inline" fill="none" stroke="#000000" stroke-width="3" stroke-miterlimit="10" d="M46.331,5.937v54.551
		c0,1.506-1.363,2.724-3.048,2.724H14.678c-1.686,0-3.05-1.218-3.05-2.724V5.937c0-1.506,1.364-2.724,3.049-2.724h28.605
		C44.968,3.213,46.331,4.431,46.331,5.937z"/>
	<path display="inline" fill="none" stroke="#000000" stroke-width="3" stroke-miterlimit="10" d="M46.331,6.222h2.917
		c1.686,0,3.049,1.137,3.049,2.542v26.763c0,0.976,0.354,1.548,1.047,1.766l3.779,1.486c0.874,0.437,1.249,1.019,1.249,2.277v18.539
		c0,1.678-1.213,2.607-2.713,2.607h-9.806"/>
	<g display="inline">
		<g>
			<g>
				<path fill="none" stroke="#000000" stroke-width="2" stroke-miterlimit="10" d="M19.479,30.298c0,0.55,0.45,1,1,1h6
					c0.55,0,1-0.45,1-1v-6c0-0.55-0.45-1-1-1h-6c-0.55,0-1,0.45-1,1V30.298z"/>
			</g>
			<g>
				<path fill="none" stroke="#000000" stroke-width="2" stroke-miterlimit="10" d="M32,23.298c-0.55,0-1,0.45-1,1v6
					c0,0.55,0.45,1,1,1h6c0.55,0,1-0.45,1-1v-6c0-0.55-0.45-1-1-1H32z"/>
			</g>
			<g>
				<path fill="none" stroke="#000000" stroke-width="2" stroke-miterlimit="10" d="M19.479,42.127c0,0.55,0.45,1,1,1h6
					c0.55,0,1-0.45,1-1v-6c0-0.55-0.45-1-1-1h-6c-0.55,0-1,0.45-1,1V42.127z"/>
			</g>
			<g>
				<path fill="none" stroke="#000000" stroke-width="2" stroke-miterlimit="10" d="M31,42.127c0,0.55,0.45,1,1,1h6
					c0.55,0,1-0.45,1-1v-6c0-0.55-0.45-1-1-1h-6c-0.55,0-1,0.45-1,1V42.127z"/>
			</g>
		</g>
	</g>
</g>
<g>
	<g>
		<g>
			<g>
				<path d="M12.234,12.728h15.94c0.689,0,0.894,0.09,1.094,0.482l1.407,3.579c0.233,0.686,0.908,1.819,2.851,1.819h23.898
					c0.604,0,1.252,0.699,1.252,1.741v2.581h2.419v-2.581c0-2.294-1.646-4.16-3.671-4.16H33.525c-0.157,0-0.29-0.013-0.394-0.04
					l-0.119-0.03l-1.561-3.95c-0.647-1.297-1.631-1.859-3.277-1.859h-15.94c-2.164,0-3.735,1.612-3.735,3.835v9.246h2.42v-9.246
					C10.92,13.244,11.399,12.728,12.234,12.728z"/>
			</g>
		</g>
		<path d="M64.377,25.545c0-2.371-1.783-4.299-3.975-4.299H9.853c-2.191,0-3.975,1.928-3.975,4.297v28.605
			c0,2.371,1.782,4.301,3.974,4.301h50.551c2.191,0,3.975-1.929,3.975-4.299V25.545z M61.877,54.148c0,0.976-0.675,1.8-1.475,1.8
			H9.852c-0.799,0-1.474-0.824-1.474-1.8V25.543c0-0.975,0.676-1.798,1.475-1.798h50.55c0.8,0,1.475,0.824,1.475,1.799V54.148z"/>
	</g>
	<g>
		<g>
			<g>
				<path d="M32.457,40.898h-6.773c-1.067,0-1.935-0.868-1.935-1.935v-8.709c0-1.067,0.867-1.935,1.935-1.935h6.773
					c1.067,0,1.935,0.868,1.935,1.935v8.709C34.392,40.029,33.524,40.898,32.457,40.898z M32.457,38.964v0.967V38.964L32.457,38.964
					L32.457,38.964z M25.684,30.255v8.709h6.77l0.004-8.709H25.684L25.684,30.255z"/>
			</g>
		</g>
		<g>
			<g>
				<path d="M44.572,37.028H37.8c-1.068,0-1.936-0.868-1.936-1.936v-4.838c0-1.067,0.867-1.935,1.936-1.935h6.772
					c1.066,0,1.935,0.868,1.935,1.935v4.838C46.507,36.159,45.638,37.028,44.572,37.028z M44.572,35.093v0.968V35.093L44.572,35.093
					L44.572,35.093z M37.8,30.255v4.838h6.769l0.004-4.838H37.8L37.8,30.255z"/>
			</g>
		</g>
		<g>
			<g>
				<path d="M32.457,51.375h-6.773c-1.067,0-1.935-0.867-1.935-1.935v-4.838c0-1.066,0.867-1.936,1.935-1.936h6.773
					c1.067,0,1.935,0.869,1.935,1.936v4.838C34.392,50.507,33.524,51.375,32.457,51.375z M32.457,49.44v0.968V49.44L32.457,49.44
					L32.457,49.44z M25.684,44.603v4.838h6.77l0.004-4.838H25.684z"/>
			</g>
		</g>
		<g>
			<g>
				<path d="M44.572,51.375H37.8c-1.068,0-1.936-0.867-1.936-1.935v-8.708c0-1.067,0.867-1.936,1.936-1.936h6.772
					c1.066,0,1.935,0.868,1.935,1.936v8.708C46.507,50.507,45.638,51.375,44.572,51.375z M44.572,49.44v0.968V49.44L44.572,49.44
					L44.572,49.44z M37.8,40.732v8.708h6.769l0.004-8.708H37.8z"/>
			</g>
		</g>
	</g>
</g>
</svg>
