<?xml version="1.0" encoding="utf-8"?>
<!-- Generator: Adobe Illustrator 16.0.0, SVG Export Plug-In . SVG Version: 6.00 Build 0)  -->
<!DOCTYPE svg PUBLIC "-//W3C//DTD SVG 1.1//EN" "http://www.w3.org/Graphics/SVG/1.1/DTD/svg11.dtd">
<svg version="1.1" xmlns="http://www.w3.org/2000/svg" xmlns:xlink="http://www.w3.org/1999/xlink" x="0px" y="0px"
	 width="70px" height="70px" viewBox="0 0 70 70" enable-background="new 0 0 70 70" xml:space="preserve">
<g display="none">
	
		<image display="inline" overflow="visible" enable-background="new    " width="57" height="45" xlink:href="6C9C0E47.jpg"  transform="matrix(-4.370701e-008 -0.9999 -0.9999 4.370701e-008 55.4287 62.8262)">
	</image>
	<path display="inline" fill="none" stroke="#000000" stroke-width="3" stroke-miterlimit="10" d="M46.331,5.937v54.551
		c0,1.506-1.363,2.724-3.048,2.724H14.678c-1.686,0-3.05-1.218-3.05-2.724V5.937c0-1.506,1.364-2.724,3.049-2.724h28.605
		C44.968,3.213,46.331,4.431,46.331,5.937z"/>
	<path display="inline" fill="none" stroke="#000000" stroke-width="3" stroke-miterlimit="10" d="M46.331,6.222h2.917
		c1.686,0,3.049,1.137,3.049,2.542v26.763c0,0.976,0.354,1.548,1.047,1.766l3.779,1.486c0.874,0.437,1.249,1.019,1.249,2.277v18.539
		c0,1.678-1.213,2.607-2.713,2.607h-9.806"/>
	<g display="inline">
		<g>
			<g>
				<path fill="none" stroke="#000000" stroke-width="2" stroke-miterlimit="10" d="M19.479,30.298c0,0.55,0.45,1,1,1h6
					c0.55,0,1-0.45,1-1v-6c0-0.55-0.45-1-1-1h-6c-0.55,0-1,0.45-1,1V30.298z"/>
			</g>
			<g>
				<path fill="none" stroke="#000000" stroke-width="2" stroke-miterlimit="10" d="M32,23.298c-0.55,0-1,0.45-1,1v6
					c0,0.55,0.45,1,1,1h6c0.55,0,1-0.45,1-1v-6c0-0.55-0.45-1-1-1H32z"/>
			</g>
			<g>
				<path fill="none" stroke="#000000" stroke-width="2" stroke-miterlimit="10" d="M19.479,42.127c0,0.55,0.45,1,1,1h6
					c0.55,0,1-0.45,1-1v-6c0-0.55-0.45-1-1-1h-6c-0.55,0-1,0.45-1,1V42.127z"/>
			</g>
			<g>
				<path fill="none" stroke="#000000" stroke-width="2" stroke-miterlimit="10" d="M31,42.127c0,0.55,0.45,1,1,1h6
					c0.55,0,1-0.45,1-1v-6c0-0.55-0.45-1-1-1h-6c-0.55,0-1,0.45-1,1V42.127z"/>
			</g>
		</g>
	</g>
</g>
<g>
	<g>
		<g>
			<g>
				<path d="M11.45,12.728h15.941c0.689,0,0.893,0.09,1.093,0.482l1.408,3.579c0.233,0.686,0.908,1.819,2.85,1.819h23.898
					c0.604,0,1.252,0.699,1.252,1.741v2.581h2.42v-2.581c0-2.294-1.646-4.16-3.672-4.16H32.741c-0.157,0-0.29-0.013-0.393-0.04
					l-0.12-0.03l-1.56-3.95c-0.648-1.297-1.631-1.859-3.277-1.859H11.45c-2.164,0-3.735,1.612-3.735,3.835v9.246h2.42v-9.246
					C10.136,13.244,10.615,12.728,11.45,12.728z"/>
			</g>
		</g>
		<path d="M63.593,25.545c0-2.371-1.783-4.299-3.975-4.299H9.068c-2.191,0-3.974,1.928-3.974,4.297v28.605
			c0,2.371,1.782,4.301,3.973,4.301h50.551c2.191,0,3.975-1.929,3.975-4.299V25.545z M61.093,54.148c0,0.976-0.675,1.8-1.475,1.8
			H9.067c-0.798,0-1.473-0.824-1.473-1.8V25.543c0-0.975,0.675-1.798,1.474-1.798h50.55c0.8,0,1.475,0.824,1.475,1.799V54.148z"/>
	</g>
	<g>
		<path d="M45.719,50.583h-22.75V29.917h22.75V50.583z M24.968,48.583h18.75V31.917h-18.75V48.583z"/>
	</g>
	<g>
		<rect x="29.968" y="34.5" width="8.75" height="2"/>
	</g>
	<g>
		<g>
			<polygon fill="#030303" points="16.539,35.07 10.715,40.895 16.539,46.718 17.953,45.305 13.543,40.895 17.953,36.484 			"/>
		</g>
		<g>
			<polygon fill="#030303" points="52.213,35.022 50.799,36.438 55.207,40.848 50.799,45.255 52.213,46.669 58.035,40.848 			"/>
		</g>
	</g>
</g>
</svg>
