<?xml version="1.0" encoding="utf-8"?>
<!-- Generator: Adobe Illustrator 16.0.0, SVG Export Plug-In . SVG Version: 6.00 Build 0)  -->
<!DOCTYPE svg PUBLIC "-//W3C//DTD SVG 1.1//EN" "http://www.w3.org/Graphics/SVG/1.1/DTD/svg11.dtd">
<svg version="1.1" xmlns="http://www.w3.org/2000/svg" xmlns:xlink="http://www.w3.org/1999/xlink" x="0px" y="0px"
	 width="70px" height="70px" viewBox="0 0 70 70" enable-background="new 0 0 70 70" xml:space="preserve">
<g display="none">
	<g display="inline" opacity="0.5">
		<path d="M63.986,44.26c-0.041-0.939-0.278-1.916-0.746-2.865l-7.609-15.377c-0.852-1.728-2.14-2.721-3.511-2.721
			c-1.361,0-2.636,0.978-3.498,2.68l-7.771,15.418c-0.479,0.949-0.729,1.926-0.771,2.865h-0.02v2.338
			c0,5.479,5.256,9.776,11.974,9.776c6.713,0,11.979-4.298,11.979-9.776V44.26H63.986z M51.986,53.34
			c-6.156,0-8.764-3.689-8.764-6.201h17.621C60.563,50.255,58.238,53.34,51.986,53.34z M60.618,44.26H43.402
			c-0.114,0-0.213-0.004-0.289-0.023c0.035-0.084,0.084-0.187,0.141-0.303l8.387-16.036c0.237-0.453,0.43-0.565,0.467-0.567
			c0.035,0.002,0.238,0.114,0.467,0.568l8.213,15.992c0.063,0.133,0.111,0.246,0.146,0.342C60.846,44.251,60.745,44.26,60.618,44.26
			z"/>
		<path d="M29.192,41.395l-7.608-15.377c-0.851-1.728-2.141-2.721-3.51-2.721c-1.364,0-2.639,0.978-3.5,2.68L6.803,41.395
			c-0.477,0.949-0.728,1.926-0.771,2.865h-0.02v2.338c0,5.479,5.256,9.776,11.974,9.776c6.713,0,11.979-4.298,11.979-9.776V44.26
			h-0.026C29.898,43.32,29.66,42.344,29.192,41.395z M17.938,53.34c-6.155,0-8.762-3.689-8.762-6.201h17.622
			C26.516,50.255,24.191,53.34,17.938,53.34z M26.57,44.26H9.355c-0.115,0-0.21-0.004-0.289-0.023
			c0.034-0.084,0.083-0.187,0.14-0.303l8.386-16.036c0.238-0.453,0.43-0.565,0.467-0.567c0.036,0.002,0.237,0.114,0.467,0.568
			l8.213,15.992c0.063,0.133,0.11,0.246,0.147,0.342C26.798,44.251,26.698,44.26,26.57,44.26z"/>
		<path d="M36.852,28.796c0,1.015-0.828,1.839-1.839,1.839l0,0c-1.012,0-1.839-0.824-1.839-1.839v-8.261
			c0-1.01,0.827-1.838,1.839-1.838l0,0c1.011,0,1.839,0.828,1.839,1.838V28.796z"/>
		<path d="M58.459,16.939H11.564c-0.971,0-1.761,0.789-1.761,1.758v0.414c0,0.97,0.79,1.762,1.761,1.762h46.895
			c0.971,0,1.762-0.792,1.762-1.762v-0.414C60.221,17.729,59.43,16.939,58.459,16.939z"/>
		<path d="M39.568,18.907c0,2.514-2.041,4.555-4.556,4.555c-2.518,0-4.558-2.041-4.558-4.555c0-2.521,2.041-4.557,4.558-4.557
			C37.527,14.351,39.568,16.386,39.568,18.907z"/>
	</g>
</g>
<g display="none">
	<line display="inline" fill="none" stroke="#000000" stroke-miterlimit="10" x1="39.5" y1="18.488" x2="60.499" y2="18.488"/>
	<line display="inline" fill="none" stroke="#000000" stroke-miterlimit="10" x1="10.499" y1="18.488" x2="31.438" y2="18.488"/>
	<line display="inline" fill="none" stroke="#000000" stroke-miterlimit="10" x1="35.499" y1="22.688" x2="35.499" y2="29.909"/>
	<line display="inline" fill="none" stroke="#000000" stroke-miterlimit="10" x1="7.796" y1="45.25" x2="29.125" y2="45.25"/>
	<path display="inline" fill="none" stroke="#000000" stroke-miterlimit="10" d="M29.125,45.25c0-1.25-0.301-2.37-0.938-3.656
		c-1.977-3.998-8.391-15.828-8.391-15.828c-0.374-0.657-0.641-1.356-1.321-1.356c-0.627,0-0.968,0.79-1.135,1.127
		c0,0-7.31,13.089-8.622,16.152c-0.448,1.045-0.942,2.736-0.942,3.972c0,4.875,4.732,8.646,9.995,8.646
		C24.113,54.307,29.125,51.893,29.125,45.25z"/>
	<line display="inline" fill="none" stroke="#000000" stroke-miterlimit="10" x1="41.868" y1="45.25" x2="63.197" y2="45.25"/>
	<path display="inline" fill="none" stroke="#000000" stroke-miterlimit="10" d="M63.197,45.25c0-1.25-0.301-2.37-0.938-3.656
		c-1.977-3.998-8.391-15.828-8.391-15.828c-0.374-0.657-0.642-1.356-1.321-1.356c-0.627,0-0.968,0.79-1.135,1.127
		c0,0-7.311,13.089-8.622,16.152c-0.447,1.045-0.94,2.736-0.94,3.972c0,4.875,4.731,8.646,9.993,8.646
		C58.186,54.307,63.197,51.893,63.197,45.25z"/>
	<circle display="inline" fill="none" stroke="#000000" stroke-miterlimit="10" cx="35.5" cy="18.545" r="3.747"/>
</g>
<g display="none">
	
		<line display="inline" fill="none" stroke="#000000" stroke-width="3" stroke-miterlimit="10" x1="40.039" y1="17.608" x2="60.609" y2="17.608"/>
	
		<line display="inline" fill="none" stroke="#000000" stroke-width="3" stroke-miterlimit="10" x1="8.917" y1="17.608" x2="29.487" y2="17.608"/>
	
		<line display="inline" fill="none" stroke="#000000" stroke-width="3" stroke-miterlimit="10" x1="34.763" y1="22.155" x2="34.763" y2="28.707"/>
	<path display="inline" fill="none" stroke="#000000" stroke-width="3" stroke-miterlimit="10" d="M27.862,46.581
		c0-1.353-0.326-2.563-1.015-3.958c-2.14-4.328-9.084-17.136-9.084-17.136c-0.405-0.711-0.693-1.469-1.43-1.469
		c-0.679,0-1.048,0.855-1.229,1.22c0,0-7.914,14.17-9.334,17.489c-0.484,1.131-1.02,2.963-1.02,4.299
		c0,5.277,5.124,9.36,10.821,9.36C22.436,56.387,27.862,53.771,27.862,46.581z"/>
	<path display="inline" fill="none" stroke="#000000" stroke-width="3" stroke-miterlimit="10" d="M64.75,46.581
		c0-1.353-0.325-2.563-1.016-3.958c-2.141-4.328-9.084-17.136-9.084-17.136c-0.404-0.711-0.693-1.469-1.43-1.469
		c-0.68,0-1.049,0.855-1.229,1.22c0,0-7.914,14.17-9.335,17.489c-0.484,1.131-1.02,2.963-1.02,4.299c0,5.277,5.123,9.36,10.819,9.36
		C59.324,56.387,64.75,53.771,64.75,46.581z"/>
	
		<circle display="inline" fill="none" stroke="#000000" stroke-width="3" stroke-miterlimit="10" cx="34.763" cy="17.67" r="4.057"/>
	<circle display="inline" cx="60.609" cy="17.603" r="1.5"/>
	<circle display="inline" cx="34.75" cy="28.707" r="1.5"/>
</g>
<g>
	<g>
		<path d="M28.33,42.013c-2.179-4.404-9.055-17.083-9.124-17.208l-0.15-0.273c-0.384-0.708-1.024-1.887-2.474-1.887
			c-1.501,0-2.197,1.444-2.425,1.918c-0.083,0.149-7.958,14.252-9.402,17.623c-0.563,1.316-1.13,3.323-1.13,4.841
			c0,5.92,5.471,10.735,12.196,10.735c8.685,0,13.666-4.075,13.666-11.181C29.487,45.042,29.13,43.633,28.33,42.013z M6.686,45.05
			c0.168-0.643,0.38-1.275,0.598-1.783c1.352-3.156,8.901-16.695,9.222-17.27l0.11-0.198l0.188,0.343
			c0.284,0.524,6.979,12.881,9.06,17.09c0.32,0.648,0.544,1.243,0.685,1.819l0.038,0.154H6.646L6.686,45.05z M26.626,48.099
			c-0.639,4.587-4.274,6.913-10.805,6.913c-4.591,0-8.696-3.035-9.345-6.91l-0.024-0.146h20.194L26.626,48.099z"/>
		<path d="M65.218,42.014c-2.166-4.379-9.057-17.086-9.123-17.209l-0.149-0.273c-0.385-0.708-1.025-1.887-2.475-1.887
			c-1.505,0-2.197,1.443-2.425,1.918c-0.082,0.147-7.957,14.249-9.401,17.623c-0.563,1.315-1.131,3.322-1.131,4.841
			c0,5.92,5.471,10.736,12.194,10.736c8.686,0,13.667-4.075,13.667-11.181C66.375,45.041,66.019,43.632,65.218,42.014z
			 M43.572,45.051c0.166-0.636,0.378-1.268,0.599-1.782c1.345-3.14,8.901-16.696,9.223-17.271l0.11-0.197l0.188,0.342
			c0.07,0.129,6.969,12.861,9.061,17.091c0.318,0.645,0.543,1.239,0.685,1.819l0.038,0.154H43.531L43.572,45.051z M63.515,48.099
			c-0.64,4.587-4.275,6.913-10.807,6.913c-4.59,0-8.695-3.035-9.345-6.91l-0.024-0.146h20.195L63.515,48.099z"/>
		<path d="M36.389,22.92l0.091-0.025c1.834-0.515,3.28-1.978,3.774-3.819l0.025-0.093l20.58-0.006c0.758,0,1.375-0.617,1.375-1.375
			s-0.617-1.375-1.375-1.375l-0.054,0.006H40.249l-0.026-0.09c-0.675-2.299-2.817-3.905-5.208-3.905
			c-2.393,0-4.535,1.606-5.21,3.905l-0.026,0.09L9.182,16.229c-0.001,0-0.002,0-0.003,0c-0.771,0-1.386,0.616-1.386,1.373
			c0,0.758,0.617,1.375,1.375,1.375l0.125,0.006h20.456l0.025,0.093c0.494,1.839,1.94,3.303,3.774,3.819l0.091,0.025v5.66
			c-0.002,0.029-0.004,0.048-0.007,0.067c-0.002,0.02-0.006,0.039-0.006,0.059c0,0.758,0.617,1.375,1.375,1.375
			c0.758,0,1.375-0.617,1.375-1.375L36.389,22.92z M35.014,20.352c-1.479,0-2.682-1.203-2.682-2.682s1.203-2.682,2.682-2.682
			c1.478,0,2.681,1.203,2.681,2.682S36.492,20.352,35.014,20.352z"/>
	</g>
</g>
</svg>
