<?xml version="1.0" encoding="utf-8"?>
<!-- Generator: Adobe Illustrator 16.0.0, SVG Export Plug-In . SVG Version: 6.00 Build 0)  -->
<!DOCTYPE svg PUBLIC "-//W3C//DTD SVG 1.1//EN" "http://www.w3.org/Graphics/SVG/1.1/DTD/svg11.dtd">
<svg version="1.1" xmlns="http://www.w3.org/2000/svg" xmlns:xlink="http://www.w3.org/1999/xlink" x="0px" y="0px"
	 width="70px" height="70px" viewBox="0 0 70 70" enable-background="new 0 0 70 70" xml:space="preserve">
<g display="none">
	<g display="inline">
		
			<image overflow="visible" enable-background="new    " width="45" height="46" xlink:href="953623B4.jpg"  transform="matrix(0.9779 0 0 0.9779 11.418 8.5117)">
		</image>
	</g>
	<g display="inline">
		<path fill="none" stroke="#000000" stroke-width="3" stroke-miterlimit="10" d="M35.609,38.08c-1.751,0.6-3.775,0.203-5.167-1.188
			l-1.453-1.456c-1.945-1.945-1.945-5.126,0-7.071l5.656-5.656c1.945-1.945,5.126-1.945,7.071,0l1.454,1.453
			c1.943,1.945,1.943,5.126,0,7.071l-2.873,2.874"/>
		<circle cx="40.328" cy="34.094" r="1.5"/>
		<circle cx="35.563" cy="38.109" r="1.5"/>
	</g>
	<g display="inline">
		<ellipse transform="matrix(-0.9999 0.0156 -0.0156 -0.9999 48.9091 66.7995)" cx="24.194" cy="33.591" rx="1.5" ry="1.531"/>
		<ellipse transform="matrix(-0.9999 0.0155 -0.0155 -0.9999 63.4933 60.9003)" cx="31.511" cy="30.696" rx="1.5" ry="1.531"/>
		<path fill="none" stroke="#000000" stroke-width="3" stroke-miterlimit="10" d="M31.771,30.695
			c0.844-0.014,1.521,0.281,2.21,0.902c0.382,0.344,1.37,1.533,1.37,1.533c1.838,2.047,1.663,5.224-0.387,7.06l-5.958,5.338
			c-2.048,1.834-5.225,1.66-7.06-0.387l-1.372-1.531c-1.836-2.049-1.662-5.227,0.388-7.063l3.229-2.954"/>
		<ellipse transform="matrix(0.9993 0.0376 -0.0376 0.9993 1.319 -1.4868)" cx="40.192" cy="34.329" rx="1.5" ry="1.531"/>
		<ellipse transform="matrix(0.9993 0.0371 -0.0371 0.9993 1.4039 -1.1939)" cx="32.865" cy="37.222" rx="1.5" ry="1.531"/>
		<path fill="none" stroke="#000000" stroke-width="3" stroke-miterlimit="10" d="M32.797,37.221
			c-0.844-0.031-1.773,0.027-2.916-1.006c-0.381-0.345-1.288-1.603-1.288-1.603c-1.726-2.142-1.382-5.305,0.76-7.03l6.232-5.015
			c2.144-1.724,5.306-1.38,7.03,0.761l1.287,1.601c1.727,2.143,1.385,5.307-0.76,7.031l-2.902,2.349"/>
	</g>
	<g display="inline">
		<ellipse transform="matrix(-0.9999 0.0152 -0.0152 -0.9999 40.3918 58.3587)" cx="19.974" cy="29.333" rx="1.476" ry="1.507"/>
		<ellipse transform="matrix(-0.9999 0.0156 -0.0156 -0.9999 63.8752 48.9388)" cx="31.747" cy="24.719" rx="1.47" ry="1.5"/>
		<path fill="none" stroke="#000000" stroke-width="3" stroke-miterlimit="10" d="M31.747,24.719c3.659-1.5,6.817,0.397,8.425,1.847
			c0.895,0.802,3.2,3.577,3.2,3.577c4.291,4.781,3.881,12.197-0.901,16.482L28.559,59.088c-4.782,4.281-14.465,2.514-18.424-2.54
			C6.09,51.385,4.025,44.242,9.78,38.121l10.252-8.841"/>
		<ellipse transform="matrix(0.9993 0.0375 -0.0375 0.9993 1.3405 -1.9276)" cx="52.092" cy="34.796" rx="1.485" ry="1.516"/>
		<ellipse transform="matrix(0.9993 0.0369 -0.0369 0.9993 1.4475 -1.4674)" cx="40.504" cy="38.506" rx="1.47" ry="1.5"/>
		<path fill="none" stroke="#000000" stroke-width="3" stroke-miterlimit="10" d="M40.502,38.506
			c-2.908,0.963-6.658,1.838-9.9-1.158c-0.881-0.813-3.006-3.744-3.006-3.744c-4.028-5-3.226-12.383,1.774-16.41L42.43,6.686
			c6.174-5.042,13.432-3.413,17.902,0.578c6.43,5.739,7.376,14.775,1.234,20.153l-9.474,7.365"/>
	</g>
	<g display="inline">
		<g>
			<path d="M40.139,28.175c-1.117-1.009-3.445-2.7-6.485-2.7c-1.08,0-2.161,0.219-3.215,0.651l-0.218,0.096l0.008,0.019
				c-0.494,0.3-0.797,0.843-0.789,1.441c0.015,0.898,0.744,1.629,1.65,1.629c0.129-0.002,0.258-0.021,0.384-0.054l0.008,0.017
				l0.21-0.086c0.63-0.259,1.281-0.39,1.935-0.39c1.966,0,3.536,1.15,4.296,1.836c0.612,0.551,2.298,2.532,2.897,3.255
				c1.666,1.856,2.509,4.259,2.369,6.769c-0.139,2.51-1.235,4.809-3.094,6.473l-13.15,11.78c-1.719,1.539-3.94,2.388-6.254,2.388
				c-2.668,0-5.216-1.135-6.99-3.113l-3.027-3.379c-1.665-1.855-2.505-4.264-2.368-6.772c0.137-2.511,1.23-4.806,3.071-6.455
				l9.691-8.355l0.17-0.163l-0.02-0.023c0.229-0.297,0.35-0.661,0.345-1.043c-0.014-0.902-0.747-1.636-1.657-1.636
				c-0.283,0.005-0.556,0.085-0.799,0.233l-0.023-0.025l-9.89,8.531c-2.517,2.254-4.005,5.363-4.191,8.758
				c-0.187,3.394,0.953,6.646,3.207,9.164l3.027,3.377c2.399,2.678,5.846,4.213,9.455,4.213c3.128,0,6.133-1.146,8.459-3.229
				l13.15-11.78c2.517-2.256,4.005-5.363,4.19-8.757c0.186-3.395-0.941-6.633-3.17-9.113C43.096,31.449,41.044,28.988,40.139,28.175
				z"/>
			<path d="M62.121,13.491l-2.874-3.508c-2.419-2.948-6.001-4.639-9.827-4.639c-2.921,0-5.771,1.019-8.027,2.868l-13.657,11.19
				c-2.61,2.142-4.233,5.183-4.568,8.563c-0.335,3.382,0.644,6.661,2.75,9.227c0.218,0.293,2.155,2.902,3.091,3.754
				c1.705,1.549,3.745,2.332,6.063,2.332h0.1c2.037-0.019,3.799-0.62,4.85-0.979l0.229-0.086l-0.007-0.021
				c0.52-0.272,0.854-0.807,0.872-1.416c0.022-0.909-0.687-1.672-1.62-1.696c-0.1,0-0.199,0.009-0.301,0.026l-0.006-0.021
				l-0.233,0.08c-1.644,0.56-2.856,0.81-3.94,0.81c-1.468,0-2.669-0.471-3.782-1.479c-0.517-0.469-1.897-2.246-2.706-3.336
				c-1.581-1.926-2.315-4.365-2.067-6.866c0.248-2.5,1.446-4.75,3.375-6.332L43.488,10.77c1.668-1.367,3.775-2.12,5.935-2.12
				c2.83,0,5.479,1.25,7.267,3.431l2.873,3.508c1.582,1.929,2.317,4.369,2.069,6.872c-0.248,2.502-1.44,4.745-3.354,6.314
				l-8.891,7.04l-0.176,0.16l0.014,0.017c-0.276,0.296-0.438,0.684-0.451,1.093c-0.012,0.443,0.146,0.868,0.444,1.189
				c0.302,0.326,0.708,0.514,1.196,0.524c0.436,0,0.848-0.176,1.139-0.476l8.799-6.971c2.613-2.142,4.237-5.183,4.572-8.565
				C65.258,19.405,64.264,16.104,62.121,13.491z"/>
		</g>
	</g>
</g>
<path fill="#1A1818" d="M44.332,23.912c-1.058-1.137-2.248-2.093-3.443-2.762c-1.914-1.073-6.96-2.228-10.348,1.069l-1.001,0.996
	l-0.757-0.754c-4.007-3.901-9.517-2.479-12.887,0.94c-3.171,3.216-4.75,8.511-0.722,12.534l1.688,1.686l-0.243,0.242
	c-0.547,0.547-0.848,1.276-0.847,2.054s0.302,1.506,0.847,2.051l0.226,0.227c0.554,0.555,1.303,0.902,2.092,0.845
	c0.018,0.721,0.301,1.436,0.85,1.984l0.223,0.222c0.601,0.6,1.442,0.9,2.283,0.838c0.056,0.659,0.334,1.303,0.837,1.806l0.226,0.228
	c0.581,0.579,1.37,0.877,2.2,0.842c0.051,0.669,0.331,1.324,0.842,1.835l0.223,0.222c0.546,0.546,1.275,0.847,2.054,0.847
	c0.779,0,1.508-0.301,2.053-0.847l1.948-1.946c0.217-0.217,0.382-0.468,0.518-0.733c0.52,0.385,1.103,0.565,1.684,0.565
	c0.842,0,1.671-0.356,2.262-0.932c0.44-0.428,0.765-1.007,0.861-1.653c0.938,0.079,1.89-0.308,2.557-0.956
	c0.507-0.491,0.866-1.173,0.918-1.92c0.694-0.036,1.329-0.347,1.797-0.795c1.019-0.98,1.434-2.743,0.482-4.073l1.646-1.643
	C49.354,32.978,47.712,27.544,44.332,23.912z M19.605,40.846c-0.373,0.374-1.042,0.372-1.412,0.002l-0.226-0.228
	c-0.187-0.186-0.29-0.436-0.29-0.705c0-0.269,0.102-0.519,0.29-0.706l2.905-2.907c0.187-0.187,0.438-0.289,0.706-0.289
	c0.27,0,0.521,0.103,0.706,0.288l0.226,0.227c0.186,0.186,0.288,0.437,0.288,0.706s-0.103,0.52-0.29,0.706L19.605,40.846z
	 M22.769,43.896c-0.372,0.372-1.038,0.374-1.414-0.001l-0.223-0.222c-0.383-0.383-0.383-1.03,0-1.414l4.628-4.628
	c0.188-0.187,0.438-0.29,0.707-0.29c0.268,0,0.519,0.104,0.705,0.289l0.226,0.227c0.187,0.187,0.29,0.438,0.289,0.707
	c0,0.269-0.103,0.519-0.289,0.704L22.769,43.896z M26.117,46.767c-0.374,0.373-1.043,0.372-1.413,0.001l-0.226-0.226
	c-0.389-0.39-0.389-1.022,0-1.412l3.173-3.173c0.188-0.188,0.438-0.29,0.707-0.29c0.269,0,0.519,0.103,0.705,0.289l0.227,0.227
	c0.186,0.187,0.289,0.437,0.289,0.704c0,0.269-0.103,0.521-0.29,0.707L26.117,46.767z M31.328,47.72l-1.949,1.948
	c-0.37,0.372-1.038,0.373-1.414-0.003l-0.222-0.222c-0.383-0.383-0.383-1.03,0-1.413l1.949-1.947
	c0.187-0.188,0.438-0.291,0.707-0.291c0.103,0,0.197,0.028,0.292,0.058c0.019,0.022,0.027,0.052,0.049,0.074l0.83,0.836
	c0.021,0.084,0.049,0.165,0.049,0.254C31.617,47.282,31.514,47.533,31.328,47.72z M41.951,41.27c-0.433,0.416-0.91,0.36-1.419-0.166
	l-4.108-4.238c-0.364-0.378-0.969-0.388-1.347-0.021c-0.377,0.365-0.387,0.968-0.021,1.347l0.24,0.248
	c0.014,0.016,0.029,0.031,0.043,0.047l3.825,3.944c0.67,0.691,0.405,1.231,0.064,1.562c-0.381,0.371-1.146,0.661-1.651,0.143
	l-4.203-4.319c-0.366-0.376-0.969-0.386-1.347-0.019c-0.376,0.368-0.385,0.971-0.019,1.347l3.483,3.58
	c0.043,0.125,0.113,0.243,0.211,0.345c0.669,0.703,0.428,1.223,0.106,1.534c-0.361,0.353-1.104,0.614-1.62,0.097l-0.997-1.005
	c-0.136-0.266-0.301-0.517-0.517-0.732l-0.225-0.226c-0.338-0.339-0.747-0.584-1.193-0.721c0.147-0.353,0.225-0.734,0.225-1.129
	c-0.001-0.778-0.302-1.507-0.847-2.051l-0.226-0.226c-0.327-0.327-0.718-0.565-1.146-0.705c0.212-0.407,0.325-0.865,0.325-1.341
	c0.001-0.777-0.3-1.507-0.846-2.053l-0.226-0.227c-1.061-1.061-2.905-1.1-4.006-0.096c-0.143-0.375-0.364-0.717-0.655-1.008
	l-0.226-0.227c-1.094-1.093-3.013-1.094-4.107,0l-1.316,1.318l-1.689-1.687c-3.108-3.104-1.799-7.281,0.732-9.848
	c2.627-2.665,6.941-4.087,10.194-0.921l0.744,0.74l-3.985,3.965c-0.866,0.862-0.897,1.997-0.079,2.823
	c1.328,1.34,4.394,1.517,6.209-0.273l1.567-1.545c0.576-0.523,1.179-0.452,2.434-0.083c-0.13,0.043-0.254,0.114-0.36,0.216
	c-0.38,0.363-0.395,0.965-0.032,1.347l8.158,8.552C42.635,40.115,42.326,40.908,41.951,41.27z M42.459,37.172l-7.081-7.423
	c1.529,0.412,3.449,0.66,5.488-0.948c0.413-0.327,0.483-0.925,0.158-1.338c-0.326-0.412-0.926-0.483-1.338-0.157
	c-1.616,1.275-2.963,0.869-4.526,0.396c-1.436-0.434-3.062-0.926-4.565,0.441l-1.596,1.573c-0.737,0.726-1.807,0.837-2.564,0.699
	c-0.655-0.119-0.965-0.387-1-0.394c0,0,0.019-0.053,0.115-0.148l6.328-6.296c2.637-2.564,6.844-1.458,8.08-0.766
	c1.026,0.575,2.056,1.403,2.98,2.398c2.556,2.746,4.38,7.111,1.116,10.371L42.459,37.172z"/>
<g>
	<path fill="#1A1818" d="M50.326,65H11.07c-2.74,0-4.969-2.229-4.969-4.969V9.97C6.101,7.23,8.331,5,11.07,5h39.256
		c2.672,0,4.857,2.117,4.967,4.761c0.002,0,0.004,0,0.006,0h6.163c1.344,0,2.437,1.125,2.437,2.506v36.956
		c0,1.381-1.093,2.506-2.437,2.506h-6.163h-0.001v8.303C55.298,62.771,53.067,65,50.326,65z M11.07,7.857
		c-1.164,0-2.112,0.948-2.112,2.113v50.061c0,1.165,0.948,2.111,2.112,2.111h39.256c1.166,0,2.114-0.946,2.114-2.111V9.97
		c0-1.166-0.948-2.113-2.114-2.113H11.07z M55.298,41.951v6.92h0.001h5.743v-6.92H55.298L55.298,41.951z M55.298,32.173v6.92h0.001
		h5.743v-6.92H55.298L55.298,32.173z M55.298,22.395v6.921h0.001h5.743v-6.921H55.298L55.298,22.395z M55.298,12.618v6.919h0.001
		h5.743v-6.919H55.298L55.298,12.618z"/>
</g>
</svg>
