<?xml version="1.0" encoding="utf-8"?>
<!-- Generator: Adobe Illustrator 16.0.0, SVG Export Plug-In . SVG Version: 6.00 Build 0)  -->
<!DOCTYPE svg PUBLIC "-//W3C//DTD SVG 1.1//EN" "http://www.w3.org/Graphics/SVG/1.1/DTD/svg11.dtd">
<svg version="1.1" xmlns="http://www.w3.org/2000/svg" xmlns:xlink="http://www.w3.org/1999/xlink" x="0px" y="0px" width="70px"
	 height="70px" viewBox="0 0 70 70" enable-background="new 0 0 70 70" xml:space="preserve">
<g display="none">
	
		<image display="inline" overflow="visible" width="53" height="31" xlink:href="12258627.jpg"  transform="matrix(0.9999 0 0 0.9999 6 17.1973)">
	</image>
</g>
<g>
	<g>
		<g>
			<path d="M5,32.458v-2.41h5.458v20.584H7.787V32.458H5z"/>
		</g>
		<g>
			<path d="M20.446,43.665c1.394-1.258,2.569-2.57,3.528-3.934c0.958-1.365,1.437-2.695,1.437-3.993c0-1.199-0.31-2.163-0.929-2.889
				c-0.62-0.726-1.597-1.089-2.932-1.089c-1.318,0-2.338,0.412-3.063,1.234c-0.727,0.822-1.118,1.921-1.178,3.295h-2.555
				c0.077-2.167,0.736-3.842,1.975-5.022s2.835-1.771,4.791-1.771c1.993,0,3.576,0.546,4.748,1.641
				c1.17,1.093,1.756,2.588,1.756,4.485c0,1.548-0.479,3.077-1.438,4.587c-0.958,1.511-2.046,2.831-3.265,3.963
				c-1.221,1.133-2.779,2.474-4.676,4.022h9.988v2.206H14.667v-1.888C17.126,46.539,19.053,44.923,20.446,43.665z"/>
		</g>
		<g>
			<path d="M33.685,30.745c1.238-1.007,2.845-1.51,4.821-1.51c1.314,0,2.452,0.236,3.411,0.711c0.958,0.475,1.684,1.117,2.177,1.931
				c0.494,0.813,0.74,1.732,0.74,2.759c0,1.2-0.344,2.234-1.031,3.106c-0.687,0.871-1.581,1.433-2.685,1.685v0.145
				c1.257,0.31,2.256,0.92,2.99,1.829c0.735,0.91,1.104,2.101,1.104,3.572c0,1.102-0.253,2.094-0.757,2.976
				c-0.502,0.882-1.257,1.574-2.264,2.077c-1.006,0.502-2.217,0.753-3.629,0.753c-2.052,0-3.736-0.539-5.053-1.612
				s-2.051-2.598-2.207-4.571h2.555c0.136,1.161,0.61,2.109,1.423,2.845c0.813,0.736,1.897,1.103,3.252,1.103
				c1.354,0,2.386-0.353,3.092-1.06c0.706-0.705,1.06-1.62,1.06-2.742c0-1.453-0.483-2.497-1.451-3.137
				c-0.968-0.639-2.43-0.958-4.385-0.958h-0.667v-2.207h0.697c1.779-0.019,3.125-0.314,4.035-0.886
				c0.91-0.569,1.364-1.455,1.364-2.656c0-1.025-0.334-1.848-1.001-2.467c-0.668-0.62-1.622-0.93-2.86-0.93
				c-1.201,0-2.168,0.31-2.904,0.93c-0.735,0.619-1.17,1.45-1.306,2.496h-2.584C31.759,33.146,32.446,31.751,33.685,30.745z"/>
		</g>
	</g>
	<g>
		<polygon points="62.837,26.494 55.003,18.014 48.312,26.413 46.008,24.577 54.838,13.493 65,24.496 		"/>
	</g>
	<g>
		<rect x="53.447" y="17.228" width="2.946" height="39.279"/>
	</g>
</g>
</svg>
