<?xml version="1.0" encoding="utf-8"?>
<!-- Generator: Adobe Illustrator 16.0.0, SVG Export Plug-In . SVG Version: 6.00 Build 0)  -->
<!DOCTYPE svg PUBLIC "-//W3C//DTD SVG 1.1//EN" "http://www.w3.org/Graphics/SVG/1.1/DTD/svg11.dtd">
<svg version="1.1" xmlns="http://www.w3.org/2000/svg" xmlns:xlink="http://www.w3.org/1999/xlink" x="0px" y="0px"
	 width="70px" height="70px" viewBox="0 0 70 70" enable-background="new 0 0 70 70" xml:space="preserve">
<g display="none">
	<path display="inline" fill="none" stroke="#000000" stroke-width="3" stroke-miterlimit="10" d="M22.444,54.279
		c0.636-0.396,1.17-0.584,3.149-0.334c3.392,0.427,6.806,1.546,10.5,1.546c16.569,0,30-10.985,30-24.537
		c0-13.552-13.431-24.539-30-24.539c-16.568,0-30,10.986-30,24.539c-0.001,5.649,2.334,10.854,6.257,15.001
		c0.728,0.688,1.336,1.295,1.128,2.863c-0.413,3.13-2.088,5.546-6.209,10.033C16.059,58.482,18.662,56.634,22.444,54.279z"/>
	<g display="inline">
		<path d="M45.025,40.154c-0.685,1.166-1.69,2.121-3.021,2.869c-1.33,0.746-2.895,1.172-4.693,1.271v3.078h-2.127v-3.078
			c-2.559-0.201-4.63-0.961-6.213-2.278c-1.583-1.316-2.4-3.104-2.451-5.357h5.7c0.076,0.912,0.367,1.652,0.874,2.223
			c0.506,0.57,1.203,0.943,2.09,1.121v-7.258c-1.925-0.506-3.439-0.981-4.541-1.425c-1.102-0.443-2.065-1.171-2.888-2.185
			c-0.824-1.013-1.235-2.394-1.235-4.142c0-2.229,0.804-4.041,2.413-5.434s3.692-2.179,6.251-2.356v-3.078h2.127v3.078
			c2.457,0.178,4.435,0.906,5.93,2.185c1.494,1.28,2.33,3.034,2.508,5.263H40.01c-0.076-0.76-0.349-1.418-0.816-1.976
			c-0.469-0.557-1.096-0.937-1.881-1.14v7.182c1.951,0.507,3.478,0.976,4.578,1.406c1.104,0.431,2.071,1.153,2.907,2.166
			c0.836,1.013,1.254,2.394,1.254,4.142C46.052,37.748,45.71,38.988,45.025,40.154z M32.866,26.797
			c0.532,0.52,1.305,0.957,2.318,1.311V21.42c-0.963,0.127-1.723,0.469-2.28,1.026c-0.558,0.558-0.836,1.317-0.836,2.28
			C32.068,25.587,32.334,26.278,32.866,26.797z M39.688,38.9c0.569-0.609,0.854-1.355,0.854-2.242c0-0.836-0.278-1.514-0.836-2.033
			s-1.354-0.956-2.396-1.311v6.725C38.325,39.889,39.117,39.508,39.688,38.9z"/>
	</g>
</g>
<g>
	<path d="M35.709,8.1C19.462,8.1,6.245,19.016,6.245,32.432C6.244,37.92,8.417,43.116,12.529,47.46
		c0.58,0.547,0.776,0.733,0.664,1.584c-0.327,2.475-1.562,4.431-5.504,8.723l-2.097,2.281l3.097-0.128
		c8.25-0.345,10.981-2.052,14.439-4.214l0.436-0.272c0.251-0.154,0.392-0.227,0.901-0.227c0.306,0,0.705,0.031,1.219,0.095
		c1.137,0.145,2.263,0.371,3.455,0.611l0.043,0.008c2.077,0.415,4.225,0.845,6.527,0.845c16.246,0,29.463-10.915,29.463-24.333
		S51.955,8.1,35.709,8.1z M35.708,54.197c-2.072,0-4.102-0.408-6.065-0.804c-1.202-0.241-2.423-0.487-3.639-0.64
		c-0.593-0.073-1.091-0.109-1.521-0.109c-1.083,0-1.654,0.223-2.275,0.608l-0.437,0.271c-2.676,1.676-4.79,2.999-9.775,3.573
		l-0.31,0.036l0.2-0.24c2.446-2.934,3.526-5.04,3.852-7.513c0.285-2.154-0.766-3.144-1.394-3.734
		c-3.622-3.826-5.533-8.394-5.532-13.212c0-12.002,12.065-21.766,26.896-21.766c14.83,0,26.896,9.765,26.896,21.767
		C62.604,44.435,50.538,54.197,35.708,54.197z"/>
	<path d="M43.398,41.851c0.628-1.074,0.945-2.23,0.943-3.437c0-1.604-0.387-2.887-1.149-3.811c-0.769-0.932-1.671-1.604-2.68-1.997
		c-1.017-0.399-2.459-0.842-4.287-1.316l-0.094-0.024v-7.004l0.156,0.04c0.759,0.195,1.375,0.569,1.831,1.111
		c0.434,0.515,0.698,1.124,0.785,1.812h5.143c-0.185-1.986-0.958-3.575-2.299-4.723c-1.379-1.178-3.229-1.859-5.498-2.023
		l-0.116-0.008v-2.882h-1.748v2.883l-0.116,0.008c-2.365,0.165-4.316,0.899-5.799,2.184c-1.475,1.278-2.223,2.963-2.223,5.01
		c0,1.606,0.381,2.888,1.132,3.812c0.756,0.933,1.652,1.61,2.662,2.015c1.021,0.412,2.452,0.861,4.25,1.335l0.093,0.025v7.066
		l-0.15-0.03c-0.857-0.173-1.541-0.541-2.032-1.095c-0.469-0.527-0.752-1.215-0.841-2.044h-5.111
		c0.074,2.01,0.831,3.628,2.253,4.811c1.459,1.216,3.399,1.926,5.766,2.111l0.115,0.01v2.884h1.748v-2.887l0.118-0.007
		c1.657-0.091,3.122-0.486,4.354-1.177C41.832,43.811,42.771,42.919,43.398,41.851z M34.385,30.775l-0.167-0.058
		c-0.964-0.338-1.712-0.762-2.223-1.26c-0.521-0.51-0.787-1.195-0.788-2.035c0-0.936,0.276-1.686,0.822-2.23
		c0.541-0.541,1.286-0.876,2.213-1l0.142-0.019V30.775z M38.579,40.822c-0.55,0.59-1.325,0.962-2.302,1.106l-0.144,0.021v-6.632
		l0.165,0.056c0.991,0.337,1.764,0.76,2.294,1.257c0.548,0.51,0.825,1.184,0.825,2.001C39.418,39.492,39.136,40.229,38.579,40.822z"
		/>
</g>
</svg>
