<?xml version="1.0" encoding="utf-8"?>
<!-- Generator: Adobe Illustrator 16.0.0, SVG Export Plug-In . SVG Version: 6.00 Build 0)  -->
<!DOCTYPE svg PUBLIC "-//W3C//DTD SVG 1.1//EN" "http://www.w3.org/Graphics/SVG/1.1/DTD/svg11.dtd">
<svg version="1.1" xmlns="http://www.w3.org/2000/svg" xmlns:xlink="http://www.w3.org/1999/xlink" x="0px" y="0px"
	 width="70px" height="70px" viewBox="0 0 70 70" enable-background="new 0 0 70 70" xml:space="preserve">
<path fill="#1A1818" d="M61.961,13.954c0-1.769-1.439-3.208-3.209-3.208H11.419c-1.769,0-3.208,1.439-3.208,3.208v41.904
	c0,1.77,1.439,3.209,3.208,3.209h47.335c1.769,0,3.207-1.439,3.207-3.209V13.954z M59.354,55.857c0,0.326-0.275,0.602-0.602,0.602
	H11.419c-0.326,0-0.602-0.275-0.602-0.602V13.954c0-0.327,0.276-0.603,0.602-0.603h47.333c0.326,0,0.602,0.276,0.602,0.603V55.857z"
	/>
<path d="M43.698,26.276V20.15H26.473v29.511h17.225v-6.188H32.672v-5.607h8.941v-6.214h-8.941v-5.375H43.698z M39.494,33.768v1.976
	h-8.94v9.848h11.025v1.95H28.592V22.269h12.987v1.889H30.554v9.61H39.494z"/>
</svg>
