<?xml version="1.0" encoding="utf-8"?>
<!-- Generator: Adobe Illustrator 16.0.0, SVG Export Plug-In . SVG Version: 6.00 Build 0)  -->
<!DOCTYPE svg PUBLIC "-//W3C//DTD SVG 1.1//EN" "http://www.w3.org/Graphics/SVG/1.1/DTD/svg11.dtd">
<svg version="1.1" xmlns="http://www.w3.org/2000/svg" xmlns:xlink="http://www.w3.org/1999/xlink" x="0px" y="0px"
	 width="70px" height="70px" viewBox="0 0 70 70" enable-background="new 0 0 70 70" xml:space="preserve">
<g display="none">
	<g display="inline">
		<path fill="#030303" d="M41.85,59.848H7.694c-1.884,0-3.416-1.533-3.416-3.418V13.494c0-1.884,1.532-3.416,3.416-3.416h34.154
			c1.885,0,3.416,1.532,3.416,3.416V56.43C45.264,58.313,43.732,59.848,41.85,59.848z M7.694,13.005
			c-0.265,0-0.488,0.223-0.488,0.488V56.43c0,0.266,0.224,0.488,0.488,0.488h34.154c0.266,0,0.487-0.223,0.487-0.488V13.494
			c0-0.265-0.224-0.488-0.487-0.488L7.694,13.005L7.694,13.005z"/>
	</g>
	<g display="inline">
		<g>
			<path fill="#040404" d="M35.959,53.664L19.628,38.243c-0.798-0.759-1.285-1.009-2.322-0.03L4.818,50.007l0.114-2.671
				l11.349-10.718c1.919-1.813,3.293-1,4.38,0.032l18.058,17.014H35.959L35.959,53.664z"/>
		</g>
	</g>
	<g display="inline">
		<g>
			<path fill="#040404" d="M44.991,50.984l-9.041-8.092c-0.994-0.895-1.623-1.074-2.95,0.125l-3.504,3.139l-1.085-1.596l3.503-3.135
				c1.836-1.665,3.366-1.703,5.12-0.128l7.739,6.929L44.991,50.984z"/>
		</g>
	</g>
	<g display="inline">
		<g>
			<path fill="#040404" d="M31.045,35.001c-2.651,0-4.804-2.155-4.804-4.805c0-2.648,2.153-4.804,4.804-4.804
				c2.649,0,4.805,2.156,4.805,4.804C35.85,32.846,33.693,35.001,31.045,35.001z M31.045,27.415c-1.536,0-2.782,1.248-2.782,2.781
				c0,1.533,1.247,2.781,2.782,2.781c1.537,0,2.782-1.248,2.782-2.781C33.827,28.663,32.576,27.415,31.045,27.415z"/>
		</g>
	</g>
	
		<line display="inline" fill="none" stroke="#000000" stroke-width="2" stroke-miterlimit="10" x1="56.895" y1="13.567" x2="56.895" y2="56.145"/>
	<polyline display="inline" fill="none" stroke="#000000" stroke-width="2" stroke-miterlimit="10" points="64.279,21.511 
		56.895,13.151 50.248,21.511 	"/>
	<polyline display="inline" fill="none" stroke="#000000" stroke-width="2" stroke-miterlimit="10" points="64.279,48.412 
		56.895,56.771 50.248,48.412 	"/>
</g>
<g>
	<g>
		<path d="M45.859,13.531c0-1.814-1.477-3.291-3.291-3.291H8.415c-1.814,0-3.29,1.477-3.29,3.291v42.937
			c0,1.815,1.476,3.292,3.29,3.292h34.153c1.814,0,3.291-1.477,3.291-3.292V13.531z M43.182,56.468c0,0.332-0.281,0.613-0.613,0.613
			H8.415c-0.333,0-0.613-0.281-0.613-0.613v-8.731l0.039-0.037l10.101-9.539c0.495-0.467,0.881-0.676,1.252-0.676
			c0.418,0,0.772,0.259,1.242,0.706l16.293,15.387h2.395l-8.449-7.96l2.963-2.653c0.673-0.608,1.187-0.88,1.666-0.88
			c0.508,0,0.948,0.302,1.452,0.755l6.426,5.752V56.468z M43.182,46.361l-5.51-4.932c-0.84-0.754-1.618-1.12-2.382-1.12
			c-0.804,0-1.645,0.408-2.571,1.248l-3.258,2.917l-8.167-7.694c-0.525-0.499-1.238-1.071-2.101-1.071
			c-0.678,0-1.367,0.34-2.106,1.039l-9.286,8.769V13.531c0.001-0.333,0.283-0.613,0.614-0.613h34.153
			c0.332,0,0.613,0.281,0.613,0.613V46.361z"/>
		<path d="M31.766,35.039c2.648,0,4.804-2.155,4.804-4.805c0-2.648-2.153-4.805-4.804-4.805s-4.803,2.156-4.803,4.805
			C26.963,32.884,29.115,35.039,31.766,35.039z M31.766,27.453c1.531,0,2.782,1.247,2.782,2.781c0,1.533-1.245,2.781-2.782,2.781
			c-1.535,0-2.781-1.248-2.781-2.781C28.984,28.7,30.23,27.453,31.766,27.453z"/>
		<g>
			<polygon points="56.615,16.054 56.615,31.731 58.615,31.731 58.615,15.832 64.251,22.211 65.749,20.887 57.575,11.633 
				50.186,20.926 51.752,22.171 			"/>
			<polygon points="58.615,54.167 58.615,38.27 56.615,38.27 56.615,53.945 51.752,47.828 50.186,49.072 57.575,58.367 
				65.749,49.111 64.251,47.788 			"/>
		</g>
	</g>
</g>
<g display="none">
	<polygon display="inline" points="58.615,54.205 58.615,15.871 64.251,22.25 65.749,20.925 57.575,11.672 50.186,20.965 
		51.752,22.21 56.615,16.092 56.615,53.984 51.752,47.867 50.186,49.111 57.575,58.406 65.749,49.15 64.251,47.826 	"/>
</g>
</svg>
