<?xml version="1.0" encoding="utf-8"?>
<!-- Generator: Adobe Illustrator 16.0.0, SVG Export Plug-In . SVG Version: 6.00 Build 0)  -->
<!DOCTYPE svg PUBLIC "-//W3C//DTD SVG 1.1//EN" "http://www.w3.org/Graphics/SVG/1.1/DTD/svg11.dtd">
<svg version="1.1" xmlns="http://www.w3.org/2000/svg" xmlns:xlink="http://www.w3.org/1999/xlink" x="0px" y="0px"
	 width="70px" height="70px" viewBox="0 0 70 70" enable-background="new 0 0 70 70" xml:space="preserve">
<g>
</g>
<path d="M27.607,64.834c0.865-0.175,1.403-0.873,1.403-1.822v-2c0-1.114-0.74-1.863-1.841-1.863h-1.072
	c-0.554,0-0.802-0.136-0.847-1.433c-0.069-5.789-0.134-15.777-0.134-17.854v-1.178h19.772v1.178c0,2.169-0.065,12.2-0.135,17.815
	c-0.046,1.331-0.295,1.47-0.85,1.47h-1.07c-1.101,0-1.841,0.748-1.841,1.862v2c0,0.55,0.179,1.016,0.518,1.347
	c0.113,0.083,0.344,0.245,0.427,0.279c0.487,0.199,0.639,0.207,0.814,0.216c0.039,0.002,0.078,0.004,0.122,0.007
	c0.057,0.006,0.231,0.002,0.451-0.003l0.389-0.013c1.948-0.14,4.504-0.21,7.597-0.21c5.639,0,6.525,0.119,6.903,0.17
	c0.056,0.007,0.101,0.013,0.148,0.017l0.361,0.027c0.056,0.006,0.108,0.009,0.161,0.009c0.382,0,0.732-0.136,1.014-0.391
	c0.533-0.485,0.533-1.165,0.533-1.455v-2.083c0-1.015-0.763-1.779-1.773-1.779h-1.743c-0.07,0-0.168,0-0.207-0.063
	c-0.148-0.17-0.372-0.723-0.372-2.505c-0.065-3.673-0.201-16.995-0.201-19.121V30.57c-0.006-3.024,0.046-8.595,0.092-12.447
	c0.023-1.797,0.035-2.965,0.035-3.376c0-3.757,0.315-3.9,1.654-3.9h0.936c0.514,0,1.709-0.189,1.709-1.943V6.981
	c0-0.338,0-0.967-0.502-1.438c-0.307-0.29-0.718-0.433-1.188-0.405l-1.165,0.087c-0.098,0.008-0.175,0.017-0.252,0.025
	c-0.466,0.052-0.946,0.106-6.148,0.106c-4.666,0-7.583-0.096-8.664-0.178l-0.647-0.054l-0.134,0.023
	c-0.895,0.134-1.473,0.791-1.473,1.673v2.081c0,1.435,0.992,1.943,1.842,1.943h1.205c1.024,0,1.319,0.139,1.319,3.259
	c0,0.376,0.015,1.559,0.034,3.136c0.04,3.118,0.1,8.836,0.1,11.81v0.697l-19.771-0.001V29.05c0-3.112,0.064-9.086,0.099-11.81
	l0.001-0.104c0.019-1.524,0.034-2.664,0.034-3.032c0-3.12,0.295-3.259,1.318-3.259h1.207c0.849,0,1.84-0.509,1.84-1.943V6.821
	c0-0.882-0.578-1.539-1.471-1.673l-0.164-0.024l-0.605,0.055c-1.092,0.083-4.019,0.178-8.677,0.178c-5.193,0-5.68-0.054-6.151-0.105
	c-0.079-0.009-0.158-0.018-0.259-0.026l-1.182-0.09c-0.027-0.001-0.057-0.002-0.086-0.002c-0.413,0-0.796,0.146-1.077,0.41
	c-0.5,0.472-0.5,1.1-0.5,1.438v1.921c0,1.754,1.194,1.943,1.708,1.943h0.936c1.339,0,1.655,0.143,1.655,3.9
	c0,0.434,0.015,1.698,0.035,3.376c0.037,3.034,0.098,9.07,0.098,12.448v6.889c0,1.954-0.131,15.257-0.202,19.148
	c0,1.928-0.271,2.385-0.387,2.491l-0.028,0.02c-0.021,0.011-0.07,0.028-0.163,0.028H11.35c-1.011,0-1.774,0.765-1.774,1.778v2.083
	c0,0.289,0,0.967,0.533,1.457c0.307,0.277,0.72,0.424,1.144,0.383l0.405-0.031c0.048-0.003,0.092-0.01,0.148-0.017
	c0.382-0.051,1.279-0.169,6.889-0.169c3.243,0,5.92,0.08,7.958,0.236l0.57,0.008L27.232,65l-0.003-0.125
	C27.362,64.871,27.489,64.857,27.607,64.834z M26.406,62.241l-0.133-0.009c-1.923-0.132-4.541-0.201-7.572-0.201
	c-3.742,0-4.735,0.053-5.992,0.12l-0.521,0.027v-0.424h0.91c1.353,0,2.288-0.693,2.779-2.062c0.407-1.133,0.406-2.435,0.406-3.06
	c0.065-3.604,0.202-16.975,0.202-19.174v-6.889c0-3.341-0.062-9.417-0.098-12.479l0-0.036c-0.02-1.645-0.035-2.883-0.035-3.309
	c0-3.662-0.308-6.466-4.175-6.507l-0.124-0.001V7.822l0.134,0.01c0.119,0.009,0.217,0.018,0.315,0.027
	c0.593,0.054,1.154,0.105,6.198,0.105c4.652,0,7.12-0.091,8.177-0.146l0.131-0.007v0.426H26.57c-3.926,0-3.926,3.53-3.926,5.866
	c0,0.362-0.014,1.478-0.034,2.974l-0.001,0.129c-0.04,3.14-0.1,8.885-0.1,11.843v1.36c0,0.968,0.653,1.944,2.112,1.944h20.763
	c1.458,0,2.111-0.976,2.111-1.944v-1.36c0-3.046-0.062-8.88-0.101-11.843c-0.022-1.666-0.033-2.759-0.033-3.103
	c0-2.336,0-5.866-3.928-5.866h-0.438V7.812l0.132,0.007c1.05,0.055,3.508,0.146,8.178,0.146c5.063,0,5.616-0.051,6.203-0.106
	c0.096-0.009,0.193-0.018,0.31-0.026l0.135-0.01v0.416l-0.124,0.001c-3.868,0.041-4.176,2.845-4.176,6.507
	c0,0.429-0.014,1.683-0.034,3.345c-0.037,3.056-0.099,9.123-0.099,12.479v6.889c0.002,2.076,0.135,15.432,0.203,19.146
	c0,1.274,0,5.147,3.188,5.147h0.905v0.419l-0.615-0.032c-1.257-0.064-2.249-0.116-5.896-0.116c-3.065,0-5.613,0.068-7.571,0.203
	L43.6,62.235v-0.48h0.305c1.237,0,3.332-0.521,3.457-4.015c0.07-5.936,0.136-15.885,0.136-17.879V38.18
	c0-1.317-0.84-2.104-2.246-2.104H24.756c-1.406,0-2.246,0.786-2.246,2.104v1.682c0,2.107,0.066,12.146,0.136,17.914
	c0.122,3.464,2.216,3.981,3.454,3.981h0.306V62.241z"/>
<g display="none">
	<path display="inline" d="M54.51,21.082l0.002-0.163c0.016-1.305,0.027-2.282,0.027-2.626c0-2.866,0.175-2.866,1.014-2.866h0.771
		c0.851,0,1.761-0.513,1.761-1.954v-1.585c0-0.308,0-0.95-0.524-1.441c-0.301-0.283-0.689-0.433-1.134-0.433l-1.075,0.076
		c-0.555,0.046-1.869,0.107-6.9,0.107c-3.846,0-6.238-0.079-7.118-0.146l-0.589-0.043l-0.137,0.021
		c-0.904,0.135-1.515,0.829-1.515,1.727v1.716c0,1.349,0.938,1.954,1.869,1.954h0.995c0.581,0,0.736,0,0.736,2.338
		c0,0.31,0.013,1.288,0.029,2.591c0.029,2.404,0.082,6.428,0.082,8.912v0.225l-15.609-0.001v-0.224c0-2.463,0.049-6.344,0.081-8.913
		l0.002-0.209c0.016-1.198,0.026-2.088,0.026-2.381c0-2.338,0.156-2.338,0.737-2.338h0.996c0.93,0,1.868-0.604,1.868-1.954v-1.716
		c0-0.911-0.594-1.589-1.513-1.728l-0.192-0.021l-0.521,0.044c-0.891,0.067-3.292,0.146-7.13,0.146c-5.02,0-6.347-0.062-6.91-0.108
		l-0.982-0.075l-0.089-0.002c-0.432,0-0.833,0.154-1.131,0.434c-0.523,0.493-0.523,1.134-0.523,1.441v1.584
		c0,1.44,0.909,1.954,1.759,1.954h0.772c0.84,0,1.015,0,1.015,2.867c0,0.358,0.012,1.402,0.028,2.789
		c0.033,2.677,0.082,6.723,0.082,9.439v6.507c0,1.617-0.108,12.591-0.167,15.795c0,1.169-0.124,1.604-0.18,1.744H13.84
		c-1.034,0-1.813,0.783-1.813,1.818v1.721c0,0.26,0,0.951,0.554,1.459c0.326,0.295,0.772,0.443,1.207,0.406l0.334-0.027
		c0.452-0.033,2.323-0.149,7.427-0.149c2.659,0,4.859,0.065,6.554,0.195l0.493,0.005c0.138-0.003,0.262-0.02,0.373-0.042
		c0.887-0.179,1.438-0.886,1.438-1.847v-1.648c0-1.111-0.769-1.889-1.869-1.889h-0.884c-0.232,0-0.319,0-0.348-0.836
		c-0.057-4.768-0.11-13.006-0.11-14.725v-0.619h15.611v0.619c0,1.702-0.056,9.918-0.111,14.688
		c-0.029,0.869-0.117,0.869-0.353,0.869H41.46c-1.101,0-1.868,0.777-1.868,1.891v1.648c0,0.511,0.158,0.953,0.46,1.285
		c0,0,0.399,0.371,0.746,0.494c0.544,0.192,1.195,0.1,1.195,0.1l0,0l0.216-0.019c1.602-0.114,3.7-0.172,6.24-0.172
		c5.312,0,7.127,0.127,7.438,0.151l0.295,0.021c0.453,0.039,0.901-0.103,1.235-0.403c0.556-0.504,0.556-1.197,0.556-1.459v-1.719
		c0-1.035-0.781-1.818-1.813-1.818l-1.383-0.002c-0.063-0.15-0.184-0.597-0.184-1.771c-0.055-3.035-0.166-14.021-0.166-15.77v-6.506
		C54.43,27.713,54.482,23.4,54.51,21.082z M45.547,53.766c0.059-4.851,0.11-13.08,0.11-14.756v-1.387
		c0-1.286-0.845-2.086-2.203-2.086H26.548c-1.359,0-2.203,0.8-2.203,2.086v1.387c0,1.725,0.054,9.999,0.112,14.788
		c0.066,1.859,0.793,2.776,1.578,3.22c-1.294-0.047-2.793-0.072-4.481-0.072c-2.067,0-3.612,0.021-4.742,0.044
		c0.482-0.323,0.852-0.827,1.093-1.5c0.356-0.99,0.356-2.106,0.355-2.638c0.054-2.984,0.167-14.017,0.167-15.822v-6.506
		c0-2.734-0.049-6.79-0.082-9.473l-0.004-0.419c-0.014-1.159-0.024-2.02-0.024-2.336c0-2.358-0.165-4.409-1.776-5.277
		c1.058,0.021,2.625,0.034,5.013,0.034c1.98,0,3.482-0.021,4.594-0.046c-1.69,0.948-1.69,3.249-1.69,4.76
		c0,0.306-0.012,1.27-0.029,2.554c-0.031,2.411-0.082,6.445-0.082,8.949v1.123c0,0.941,0.655,1.954,2.093,1.954h17.126
		c1.438,0,2.092-1.013,2.092-1.954v-1.123c0-2.613-0.057-6.892-0.083-8.957c-0.017-1.281-0.027-2.241-0.027-2.546
		c0-1.51,0-3.812-1.69-4.759c1.109,0.025,2.611,0.045,4.595,0.045c2.389,0,3.955-0.014,5.013-0.034
		c-1.611,0.868-1.775,2.919-1.775,5.277c0,0.353-0.013,1.386-0.027,2.755c-0.03,2.514-0.082,6.722-0.082,9.473v6.506
		c0.002,1.736,0.111,12.768,0.168,15.796c0,2.114,0.482,3.509,1.438,4.161c-1.134-0.022-2.679-0.043-4.73-0.043
		c-1.688,0-3.189,0.024-4.487,0.074C44.75,56.57,45.479,55.646,45.547,53.766z"/>
</g>
</svg>
