<?xml version="1.0" encoding="utf-8"?>
<!-- Generator: Adobe Illustrator 16.0.0, SVG Export Plug-In . SVG Version: 6.00 Build 0)  -->
<!DOCTYPE svg PUBLIC "-//W3C//DTD SVG 1.1//EN" "http://www.w3.org/Graphics/SVG/1.1/DTD/svg11.dtd">
<svg version="1.1" xmlns="http://www.w3.org/2000/svg" xmlns:xlink="http://www.w3.org/1999/xlink" x="0px" y="0px"
	 width="70px" height="70px" viewBox="0 0 70 70" enable-background="new 0 0 70 70" xml:space="preserve">
<g display="none">
</g>
<g display="none">
	<g display="inline">
		<path d="M61.667,57.857H8.333C6.496,57.857,5,56.361,5,54.523V15.476c0-1.838,1.496-3.333,3.333-3.333h53.333
			c1.838,0,3.333,1.495,3.333,3.333v39.047C65,56.361,63.505,57.857,61.667,57.857z M8.333,15c-0.258,0-0.477,0.218-0.477,0.476
			v39.047C7.857,54.782,8.075,55,8.333,55h53.333c0.258,0,0.477-0.218,0.477-0.477V15.476c0-0.258-0.219-0.476-0.477-0.476H8.333z"
			/>
	</g>
	<g display="inline">
		<g>
			<path fill="#030303" d="M49.086,48.371L29.788,33.32c-0.942-0.74-1.518-0.984-2.743-0.029L7.858,48.256l-1.213-1.557
				l19.187-14.965c2.268-1.769,3.893-0.976,5.176,0.032l21.34,16.604H49.086L49.086,48.371z"/>
		</g>
	</g>
	<g display="inline">
		<g>
			<path fill="#030303" d="M62.14,48.781l-10.128-7.898c-1.113-0.871-1.818-1.049-3.305,0.123l-3.926,3.063l-1.215-1.557
				l3.924-3.059c2.058-1.625,3.771-1.664,5.736-0.125l10.127,7.896L62.14,48.781z"/>
		</g>
	</g>
	<g display="inline">
		<g>
			<path fill="#030303" d="M47.093,34.211c-2.588,0-4.688-2.104-4.688-4.689c0-2.584,2.102-4.688,4.688-4.688
				c2.585,0,4.688,2.104,4.688,4.688C51.781,32.107,49.677,34.211,47.093,34.211z M47.093,26.808c-1.499,0-2.716,1.217-2.716,2.714
				c0,1.497,1.217,2.715,2.716,2.715s2.714-1.218,2.714-2.715C49.807,28.025,48.587,26.808,47.093,26.808z"/>
		</g>
	</g>
	<g display="inline">
		<path fill="#FFFFFF" d="M76.617,55.025c0,7.324-5.937,13.263-13.266,13.263c-7.325,0-13.264-5.938-13.264-13.263
			c0-7.326,5.938-13.269,13.264-13.269C70.681,41.757,76.617,47.699,76.617,55.025z"/>
		<g>
			<polygon points="64.724,50.218 61.979,50.218 61.979,53.65 58.551,53.65 58.551,56.394 61.979,56.394 61.979,59.824 
				64.724,59.824 64.724,56.394 68.154,56.394 68.154,53.65 64.724,53.65 			"/>
			<path d="M63.352,44.044c-6.055,0-10.979,4.925-10.979,10.977C52.372,61.077,57.297,66,63.352,66
				c6.057,0,10.979-4.923,10.979-10.979C74.33,48.969,69.408,44.044,63.352,44.044z M63.352,63.254c-4.54,0-8.235-3.692-8.235-8.231
				c0-4.541,3.695-8.233,8.235-8.233c4.542,0,8.234,3.692,8.234,8.233C71.586,59.562,67.894,63.254,63.352,63.254z"/>
		</g>
	</g>
</g>
<g>
	<g>
		<g>
			<path fill="#030303" d="M42.562,28.652c-2.234,0-4.047-1.816-4.047-4.048c0-2.231,1.813-4.047,4.047-4.047
				c2.231,0,4.047,1.816,4.047,4.047C46.608,26.836,44.792,28.652,42.562,28.652z M42.562,22.261c-1.294,0-2.345,1.051-2.345,2.343
				c0,1.292,1.051,2.344,2.345,2.344s2.343-1.051,2.343-2.344C44.904,23.312,43.852,22.261,42.562,22.261z"/>
		</g>
	</g>
	<path fill="#030303" d="M45.498,47.854c0-0.136,0.016-0.268,0.021-0.401H9.102c-0.222,0-0.411-0.188-0.412-0.412v-6.269
		l0.002,0.004l16.563-12.918c1.058-0.824,1.555-0.614,2.368,0.025l16.659,12.993h2.815l-5.654-4.399l2.512-1.959
		c1.283-1.012,1.892-0.858,2.853-0.106l4.633,3.613c0.573-0.302,1.174-0.557,1.801-0.756l-5.385-4.199
		c-1.696-1.328-3.176-1.295-4.952,0.108l-2.848,2.22l-11.38-8.855c-1.107-0.87-2.51-1.554-4.468-0.028L8.69,38.618V13.334
		c0-0.223,0.189-0.411,0.412-0.411h46.039c0.223,0,0.411,0.188,0.411,0.411V36.8c0.348-0.033,0.698-0.053,1.054-0.053
		c0.48,0,0.949,0.04,1.412,0.099V13.334c0-1.587-1.29-2.877-2.877-2.877H9.102c-1.585,0-2.877,1.291-2.877,2.877v33.707
		c0,1.587,1.292,2.879,2.877,2.879h36.596C45.572,49.249,45.498,48.561,45.498,47.854z"/>
	<g>
		<polygon points="57.809,43.646 55.403,43.646 55.403,46.652 52.402,46.652 52.402,49.057 55.403,49.057 55.403,52.061 
			57.809,52.061 57.809,49.057 60.813,49.057 60.813,46.652 57.809,46.652 		"/>
		<path d="M56.605,38.238c-5.303,0-9.617,4.313-9.617,9.615c0,5.305,4.314,9.617,9.617,9.617c5.307,0,9.619-4.313,9.619-9.617
			C66.225,42.552,61.912,38.238,56.605,38.238z M56.605,55.066c-3.976,0-7.213-3.236-7.213-7.212c0-3.978,3.237-7.213,7.213-7.213
			c3.98,0,7.214,3.235,7.214,7.213C63.819,51.83,60.586,55.066,56.605,55.066z"/>
	</g>
</g>
</svg>
