<?xml version="1.0" encoding="utf-8"?>
<!-- Generator: Adobe Illustrator 16.0.0, SVG Export Plug-In . SVG Version: 6.00 Build 0)  -->
<!DOCTYPE svg PUBLIC "-//W3C//DTD SVG 1.1//EN" "http://www.w3.org/Graphics/SVG/1.1/DTD/svg11.dtd">
<svg version="1.1" xmlns="http://www.w3.org/2000/svg" xmlns:xlink="http://www.w3.org/1999/xlink" x="0px" y="0px"
	 width="70px" height="70px" viewBox="0 0 70 70" enable-background="new 0 0 70 70" xml:space="preserve">
<g display="none">
	<polyline display="inline" fill="none" stroke="#000000" stroke-width="3" stroke-miterlimit="10" points="12.291,20.328 
		16.037,26.322 27.709,17.963 	"/>
	
		<line display="inline" fill="none" stroke="#000000" stroke-width="3" stroke-miterlimit="10" x1="32.709" y1="22.143" x2="57.709" y2="22.143"/>
	<polyline display="inline" fill="none" stroke="#000000" stroke-width="3" stroke-miterlimit="10" points="12.291,33.127 
		16.037,39.121 27.709,30.762 	"/>
	
		<line display="inline" fill="none" stroke="#000000" stroke-width="3" stroke-miterlimit="10" x1="32.709" y1="34.941" x2="57.709" y2="34.941"/>
	<polyline display="inline" fill="none" stroke="#000000" stroke-width="3" stroke-miterlimit="10" points="12.291,46.043 
		16.037,52.037 27.709,43.678 	"/>
	
		<line display="inline" fill="none" stroke="#000000" stroke-width="3" stroke-miterlimit="10" x1="32.709" y1="47.857" x2="57.709" y2="47.857"/>
</g>
<g>
	<polygon points="26.139,13.494 24.351,10.998 12.265,19.652 8.76,14.044 6.156,15.671 11.395,24.054 	"/>
	<path d="M31.056,19.314h30.9c0.989,0,1.794-0.805,1.794-1.794s-0.805-1.794-1.794-1.794h-30.9c-0.989,0-1.793,0.805-1.793,1.794
		S30.067,19.314,31.056,19.314z"/>
	<polygon points="12.265,37.054 8.759,31.441 6.155,33.069 11.395,41.452 26.14,30.894 24.352,28.396 	"/>
	<path d="M61.956,33.127h-30.9c-0.989,0-1.793,0.804-1.793,1.793c0,0.988,0.804,1.793,1.793,1.793h30.9
		c0.989,0,1.794-0.805,1.794-1.793C63.75,33.931,62.945,33.127,61.956,33.127z"/>
	<polygon points="12.265,54.613 8.759,49.003 6.155,50.628 11.394,59.012 26.14,48.452 24.352,45.955 	"/>
	<path d="M61.956,50.685h-30.9c-0.989,0-1.793,0.805-1.793,1.794s0.804,1.794,1.793,1.794h30.9c0.989,0,1.794-0.805,1.794-1.794
		S62.945,50.685,61.956,50.685z"/>
</g>
</svg>
