<?xml version="1.0" encoding="utf-8"?>
<!-- Generator: Adobe Illustrator 16.0.0, SVG Export Plug-In . SVG Version: 6.00 Build 0)  -->
<!DOCTYPE svg PUBLIC "-//W3C//DTD SVG 1.1//EN" "http://www.w3.org/Graphics/SVG/1.1/DTD/svg11.dtd">
<svg version="1.1" xmlns="http://www.w3.org/2000/svg" xmlns:xlink="http://www.w3.org/1999/xlink" x="0px" y="0px" width="70px"
	 height="70px" viewBox="0 0 70 70" enable-background="new 0 0 70 70" xml:space="preserve">
<g>
	<g>
		<g>
			<path fill="#030303" d="M32,39.596H14c-1.378,0-2.5-1.121-2.5-2.5v-23c0-1.378,1.122-2.5,2.5-2.5h18c1.378,0,2.5,1.122,2.5,2.5
				v23C34.5,38.475,33.378,39.596,32,39.596z M14.5,36.596h17v-22h-17V36.596z"/>
		</g>
		<g>
			<path fill="#030303" d="M32,60.5H14c-1.378,0-2.5-1.121-2.5-2.5V45c0-1.379,1.122-2.5,2.5-2.5h18c1.378,0,2.5,1.121,2.5,2.5v13
				C34.5,59.379,33.378,60.5,32,60.5z M14.5,57.5h17v-12h-17V57.5z"/>
		</g>
		<g>
			<path fill="#030303" d="M58,29.5H40c-1.379,0-2.5-1.122-2.5-2.5V14c0-1.378,1.121-2.5,2.5-2.5h18c1.379,0,2.5,1.122,2.5,2.5v13
				C60.5,28.378,59.379,29.5,58,29.5z M40.5,26.5h17v-12h-17V26.5z"/>
		</g>
		<g>
			<path fill="#030303" d="M58,60.5H40c-1.379,0-2.5-1.121-2.5-2.5V35c0-1.378,1.121-2.5,2.5-2.5h18c1.379,0,2.5,1.122,2.5,2.5v23
				C60.5,59.379,59.379,60.5,58,60.5z M40.5,57.5h17v-22h-17V57.5z"/>
		</g>
	</g>
</g>
<g display="none">
	<path display="inline" fill="none" stroke="#000000" stroke-miterlimit="10" d="M13.563,29.875l4.279-4.279
		c1.033-1.002,1.986,0,1.986,0l6.266,6.186"/>
	<path display="inline" fill="none" stroke="#000000" stroke-miterlimit="10" d="M23.22,29.175l2.259-2.259
		c0.896-0.775,1.756,0,2.098,0.32l5.736,5.736"/>
	<circle display="inline" fill="none" stroke="#000000" stroke-miterlimit="10" cx="25.243" cy="20.88" r="2.023"/>
	<path display="inline" fill="none" stroke="#000000" stroke-miterlimit="10" d="M39.58,51.107l4.279-4.279
		c1.033-1.002,1.986,0,1.986,0l6.266,6.186"/>
	<path display="inline" fill="none" stroke="#000000" stroke-miterlimit="10" d="M49.237,50.407l2.259-2.259
		c0.896-0.775,1.756,0,2.098,0.32l5.736,5.736"/>
	<circle display="inline" fill="none" stroke="#000000" stroke-miterlimit="10" cx="51.261" cy="42.113" r="2.023"/>
	<path display="inline" fill="none" stroke="#000000" stroke-miterlimit="10" d="M39.592,23.904l4.274-3.678
		c1.031-0.861,1.984,0,1.984,0l6.258,5.317"/>
	<path display="inline" fill="none" stroke="#000000" stroke-miterlimit="10" d="M49.237,23.302l2.256-1.941
		c0.896-0.667,1.754,0,2.096,0.275l5.729,4.931"/>
	<circle display="inline" fill="none" stroke="#000000" stroke-miterlimit="10" cx="52.108" cy="17.357" r="1.5"/>
	<path display="inline" fill="none" stroke="#000000" stroke-miterlimit="10" d="M13.356,55.158l4.274-3.679
		c1.031-0.861,1.984,0,1.984,0l6.258,5.317"/>
	<path display="inline" fill="none" stroke="#000000" stroke-miterlimit="10" d="M23.002,54.556l2.256-1.941
		c0.896-0.667,1.754,0,2.096,0.275l5.729,4.931"/>
	<circle display="inline" fill="none" stroke="#000000" stroke-miterlimit="10" cx="25.873" cy="48.611" r="1.5"/>
</g>
<g display="none">
	<path display="inline" fill="none" stroke="#000000" stroke-width="3" stroke-miterlimit="10" d="M14.192,47.463l10.345-10.344
		c2.497-2.423,4.802,0,4.802,0L44.484,52.07"/>
	<path display="inline" fill="none" stroke="#000000" stroke-width="3" stroke-miterlimit="10" d="M37.537,45.77l5.46-5.459
		c2.167-1.875,4.245,0,5.071,0.773l13.866,13.867"/>
	
		<circle display="inline" fill="none" stroke="#000000" stroke-width="3" stroke-miterlimit="10" cx="42.428" cy="25.721" r="4.891"/>
</g>
<g>
	<g display="none">
		<path display="inline" d="M32.979,34.456h-18c-1.378,0-2.5-1.122-2.5-2.5v-18c0-1.378,1.122-2.5,2.5-2.5h18
			c1.378,0,2.5,1.122,2.5,2.5v18C35.479,33.334,34.357,34.456,32.979,34.456z M15.479,31.456h17v-17h-17V31.456z"/>
	</g>
	<g display="none">
		<path display="inline" d="M57.979,34.456h-18c-1.379,0-2.5-1.122-2.5-2.5v-18c0-1.378,1.121-2.5,2.5-2.5h18
			c1.379,0,2.5,1.122,2.5,2.5v18C60.479,33.334,59.357,34.456,57.979,34.456z M40.479,31.456h17v-17h-17V31.456z"/>
	</g>
	<g>
		<path fill="#030303" d="M27.404,32.593l-6.758-5.596c-0.35-0.275-0.564-0.366-1.02-0.011l-5.884,5.564l-0.451-0.579l5.884-5.564
			c0.843-0.657,1.446-0.362,1.924,0.013l7.518,6.173H27.404z"/>
	</g>
	<g>
		<path fill="#030303" d="M32.257,32.745l-3.766-2.936c-0.414-0.324-0.676-0.39-1.228,0.045l-1.46,1.139l-0.451-0.579l1.459-1.137
			c0.764-0.604,1.401-0.619,2.133-0.047l3.765,2.937L32.257,32.745z"/>
	</g>
	<g>
		<path fill="#030303" d="M26.663,27.328c-0.962,0-1.743-0.782-1.743-1.743c0-0.961,0.781-1.743,1.743-1.743
			c0.961,0,1.744,0.782,1.744,1.743C28.406,26.546,27.624,27.328,26.663,27.328z M26.663,24.576c-0.557,0-1.01,0.453-1.01,1.009
			s0.453,1.009,1.01,1.009c0.558,0,1.009-0.452,1.009-1.009S27.219,24.576,26.663,24.576z"/>
	</g>
	<g>
		<path fill="#030303" d="M53.403,25.585l-6.758-5.596c-0.351-0.274-0.564-0.365-1.02-0.011l-5.884,5.563l-0.451-0.578l5.884-5.564
			c0.843-0.657,1.445-0.361,1.924,0.014l7.518,6.172H53.403z"/>
	</g>
	<g>
		<path fill="#030303" d="M58.257,25.737l-3.766-2.936c-0.414-0.324-0.676-0.391-1.229,0.045l-1.459,1.139l-0.451-0.578l1.459-1.137
			c0.764-0.604,1.4-0.619,2.133-0.047l3.764,2.936L58.257,25.737z"/>
	</g>
	<g>
		<path fill="#030303" d="M52.662,20.321c-0.962,0-1.743-0.782-1.743-1.743c0-0.961,0.781-1.743,1.743-1.743
			c0.961,0,1.743,0.782,1.743,1.743C54.405,19.539,53.623,20.321,52.662,20.321z M52.662,17.569c-0.558,0-1.01,0.453-1.01,1.009
			s0.452,1.009,1.01,1.009s1.009-0.452,1.009-1.009S53.218,17.569,52.662,17.569z"/>
	</g>
	<g display="none">
		<path display="inline" d="M32.979,59.456h-18c-1.378,0-2.5-1.121-2.5-2.5v-18c0-1.379,1.122-2.5,2.5-2.5h18
			c1.378,0,2.5,1.121,2.5,2.5v18C35.479,58.335,34.357,59.456,32.979,59.456z M15.479,56.456h17v-17h-17V56.456z"/>
	</g>
	<g display="none">
		<path display="inline" d="M57.979,59.456h-18c-1.379,0-2.5-1.121-2.5-2.5v-18c0-1.379,1.121-2.5,2.5-2.5h18
			c1.379,0,2.5,1.121,2.5,2.5v18C60.479,58.335,59.357,59.456,57.979,59.456z M40.479,56.456h17v-17h-17V56.456z"/>
	</g>
	<g>
		<path fill="#030303" d="M27.404,55.813l-6.758-5.596c-0.35-0.274-0.564-0.365-1.02-0.011l-5.884,5.563l-0.451-0.578l5.884-5.564
			c0.843-0.656,1.446-0.361,1.924,0.014l7.518,6.172H27.404z"/>
	</g>
	<g>
		<path fill="#030303" d="M32.257,55.966l-3.766-2.936c-0.414-0.324-0.676-0.391-1.228,0.045l-1.46,1.139l-0.451-0.578l1.459-1.137
			c0.764-0.604,1.401-0.619,2.133-0.047l3.765,2.936L32.257,55.966z"/>
	</g>
	<g>
		<path fill="#030303" d="M26.663,50.55c-0.962,0-1.743-0.782-1.743-1.743c0-0.962,0.781-1.743,1.743-1.743
			c0.961,0,1.744,0.781,1.744,1.743C28.406,49.768,27.624,50.55,26.663,50.55z M26.663,47.798c-0.557,0-1.01,0.452-1.01,1.009
			s0.453,1.009,1.01,1.009c0.558,0,1.009-0.452,1.009-1.009S27.219,47.798,26.663,47.798z"/>
	</g>
	<g>
		<path fill="#030303" d="M53.837,53.293l-6.758-5.596c-0.351-0.274-0.564-0.365-1.02-0.011l-5.884,5.563l-0.451-0.578l5.884-5.564
			c0.843-0.656,1.445-0.361,1.924,0.014l7.518,6.172H53.837z"/>
	</g>
	<g>
		<path fill="#030303" d="M58.69,53.445l-3.766-2.936c-0.414-0.324-0.676-0.391-1.229,0.045l-1.459,1.139l-0.451-0.578l1.459-1.137
			c0.764-0.604,1.4-0.619,2.133-0.047l3.764,2.936L58.69,53.445z"/>
	</g>
	<g>
		<path fill="#030303" d="M53.096,48.029c-0.962,0-1.743-0.782-1.743-1.743c0-0.962,0.781-1.743,1.743-1.743
			c0.961,0,1.743,0.781,1.743,1.743C54.839,47.247,54.057,48.029,53.096,48.029z M53.096,45.277c-0.558,0-1.01,0.452-1.01,1.009
			s0.452,1.009,1.01,1.009s1.009-0.452,1.009-1.009S53.651,45.277,53.096,45.277z"/>
	</g>
</g>
</svg>
