<?xml version="1.0" encoding="utf-8"?>
<!-- Generator: Adobe Illustrator 16.0.0, SVG Export Plug-In . SVG Version: 6.00 Build 0)  -->
<!DOCTYPE svg PUBLIC "-//W3C//DTD SVG 1.1//EN" "http://www.w3.org/Graphics/SVG/1.1/DTD/svg11.dtd">
<svg version="1.1" xmlns="http://www.w3.org/2000/svg" xmlns:xlink="http://www.w3.org/1999/xlink" x="0px" y="0px"
	 width="70px" height="70px" viewBox="0 0 70 70" enable-background="new 0 0 70 70" xml:space="preserve">
<g>
	<path d="M19,32.75H6c-1.378,0-2.5-1.122-2.5-2.5v-13c0-1.378,1.122-2.5,2.5-2.5h13c1.378,0,2.5,1.122,2.5,2.5v13
		C21.5,31.628,20.378,32.75,19,32.75z M6.5,29.75h12v-12h-12V29.75z"/>
</g>
<g>
	<path d="M41.5,32.75h-13c-1.378,0-2.5-1.122-2.5-2.5v-13c0-1.378,1.122-2.5,2.5-2.5h13c1.379,0,2.5,1.122,2.5,2.5v13
		C44,31.628,42.879,32.75,41.5,32.75z M29,29.75h12v-12H29V29.75z"/>
</g>
<g>
	<path d="M64,32.75H51c-1.379,0-2.5-1.122-2.5-2.5v-13c0-1.378,1.121-2.5,2.5-2.5h13c1.379,0,2.5,1.122,2.5,2.5v13
		C66.5,31.628,65.379,32.75,64,32.75z M51.5,29.75h12v-12h-12V29.75z"/>
</g>
<g>
	<path d="M19,55.25H6c-1.378,0-2.5-1.121-2.5-2.5v-13c0-1.379,1.122-2.5,2.5-2.5h13c1.378,0,2.5,1.121,2.5,2.5v13
		C21.5,54.129,20.378,55.25,19,55.25z M6.5,52.25h12v-12h-12V52.25z"/>
</g>
<g>
	<path d="M41.5,55.25h-13c-1.378,0-2.5-1.121-2.5-2.5v-13c0-1.379,1.122-2.5,2.5-2.5h13c1.379,0,2.5,1.121,2.5,2.5v13
		C44,54.129,42.879,55.25,41.5,55.25z M29,52.25h12v-12H29V52.25z"/>
</g>
<g>
	<path d="M64,55.25H51c-1.379,0-2.5-1.121-2.5-2.5v-13c0-1.379,1.121-2.5,2.5-2.5h13c1.379,0,2.5,1.121,2.5,2.5v13
		C66.5,54.129,65.379,55.25,64,55.25z M51.5,52.25h12v-12h-12V52.25z"/>
</g>
</svg>
