<?xml version="1.0" encoding="utf-8"?>
<!-- Generator: Adobe Illustrator 16.0.0, SVG Export Plug-In . SVG Version: 6.00 Build 0)  -->
<!DOCTYPE svg PUBLIC "-//W3C//DTD SVG 1.1//EN" "http://www.w3.org/Graphics/SVG/1.1/DTD/svg11.dtd">
<svg version="1.1" xmlns="http://www.w3.org/2000/svg" xmlns:xlink="http://www.w3.org/1999/xlink" x="0px" y="0px"
	 width="70px" height="70px" viewBox="0 0 70 70" enable-background="new 0 0 70 70" xml:space="preserve">
<g display="none">
	
		<line display="inline" fill="none" stroke="#000000" stroke-width="3" stroke-miterlimit="10" x1="15.748" y1="48.779" x2="53.145" y2="48.779"/>
	
		<line display="inline" fill="none" stroke="#000000" stroke-width="3" stroke-miterlimit="10" x1="15.748" y1="54.861" x2="53.145" y2="54.861"/>
	<g display="inline">
		<path fill="none" stroke="#000000" stroke-width="3" stroke-miterlimit="10" d="M58.578,39.961c0,1.1-0.9,2-2,2H12.314
			c-1.1,0-2-0.9-2-2V11.213c0-1.1,0.9-2,2-2h44.264c1.1,0,2,0.9,2,2V39.961z"/>
	</g>
	<g display="inline">
		<path fill="#030303" d="M46.518,36.723l-16.35-12.75c-0.799-0.627-1.288-0.834-2.325-0.025L11.586,36.624l-1.028-1.318
			l16.257-12.678c1.922-1.499,3.296-0.827,4.385,0.026l18.082,14.069H46.518z"/>
	</g>
	<g display="inline">
		<path fill="#030303" d="M57.578,37.07l-8.581-6.692c-0.944-0.738-1.542-0.889-2.799,0.104l-3.327,2.596l-1.029-1.318l3.324-2.592
			c1.743-1.375,3.195-1.409,4.861-0.106l8.58,6.693L57.578,37.07z"/>
	</g>
	<g display="inline">
		<path fill="#030303" d="M44.828,24.726c-2.189,0-3.973-1.782-3.973-3.973s1.781-3.973,3.973-3.973s3.973,1.782,3.973,3.973
			S47.02,24.726,44.828,24.726z M44.828,18.453c-1.27,0-2.301,1.031-2.301,2.3s1.031,2.3,2.301,2.3s2.3-1.031,2.3-2.3
			S46.096,18.453,44.828,18.453z"/>
	</g>
</g>
<g>
	<path d="M55.295,53.241H14.703c-0.837,0-1.518,0.68-1.518,1.518c0,0.837,0.681,1.519,1.518,1.519h40.592
		c0.837,0,1.52-0.682,1.52-1.519C56.813,53.921,56.132,53.241,55.295,53.241z"/>
	<path d="M55.295,60.421H14.703c-0.837,0-1.518,0.683-1.518,1.519c0,0.838,0.681,1.519,1.518,1.519h40.592
		c0.837,0,1.52-0.681,1.52-1.519C56.814,61.104,56.132,60.421,55.295,60.421z"/>
	<path d="M64.95,10.422c0-2.111-1.719-3.829-3.83-3.829H8.879c-2.112,0-3.829,1.718-3.829,3.829v33.93
		c0,2.111,1.718,3.829,3.829,3.829H61.12c2.111,0,3.83-1.718,3.83-3.829V10.422z M62.012,44.352c0,0.492-0.399,0.892-0.892,0.892
		H8.879c-0.483,0-0.892-0.408-0.892-0.892v-33.93c0-0.484,0.408-0.893,0.892-0.893H61.12c0.492,0,0.892,0.4,0.892,0.893V44.352z"/>
	<g>
		<g>
			<path fill="#030303" d="M49.248,40.529L29.95,25.479c-0.942-0.741-1.518-0.985-2.743-0.03L8.02,40.414l-1.213-1.557
				l19.187-14.965c2.268-1.768,3.892-0.975,5.176,0.033l21.34,16.604H49.248L49.248,40.529z"/>
		</g>
	</g>
	<g>
		<g>
			<path fill="#030303" d="M62.302,40.939l-10.128-7.897c-1.113-0.872-1.818-1.049-3.305,0.122l-3.926,3.063l-1.215-1.556
				l3.924-3.06c2.058-1.624,3.771-1.663,5.736-0.125l10.127,7.898L62.302,40.939z"/>
		</g>
	</g>
	<g>
		<g>
			<path fill="#030303" d="M47.255,26.369c-2.588,0-4.688-2.103-4.688-4.689c0-2.585,2.102-4.689,4.688-4.689
				c2.585,0,4.688,2.104,4.688,4.689C51.943,24.266,49.839,26.369,47.255,26.369z M47.255,18.966c-1.499,0-2.716,1.217-2.716,2.714
				c0,1.497,1.217,2.714,2.716,2.714s2.714-1.217,2.714-2.714C49.969,20.183,48.749,18.966,47.255,18.966z"/>
		</g>
	</g>
</g>
</svg>
