<?xml version="1.0" encoding="utf-8"?>
<!-- Generator: Adobe Illustrator 16.0.0, SVG Export Plug-In . SVG Version: 6.00 Build 0)  -->
<!DOCTYPE svg PUBLIC "-//W3C//DTD SVG 1.1//EN" "http://www.w3.org/Graphics/SVG/1.1/DTD/svg11.dtd">
<svg version="1.1" xmlns="http://www.w3.org/2000/svg" xmlns:xlink="http://www.w3.org/1999/xlink" x="0px" y="0px"
	 width="70px" height="70px" viewBox="0 0 70 70" enable-background="new 0 0 70 70" xml:space="preserve">
<g>
	<path d="M63.753,21.714h-6.258v1.926h6.258c0.175,0,0.321,0.147,0.321,0.321v18.455c0,0.175-0.146,0.32-0.321,0.32h-6.258v1.927
		h6.258c1.239,0,2.247-1.009,2.247-2.247V23.961C66,22.722,64.992,21.714,63.753,21.714z"/>
	<path d="M12.504,42.736H6.246c-0.173,0-0.32-0.146-0.32-0.32V23.961c0-0.174,0.147-0.321,0.32-0.321h6.258v-1.926H6.246
		C5.008,21.714,4,22.722,4,23.961v18.455c0,1.238,1.008,2.247,2.246,2.247h6.258V42.736z"/>
	<g>
		<path d="M56.255,18.809c0-1.646-1.339-2.985-2.985-2.985H16.732c-1.646,0-2.986,1.339-2.986,2.985v25.955
			c0,1.646,1.34,2.985,2.986,2.985H53.27c1.646,0,2.985-1.339,2.985-2.985V18.809z M53.896,44.764c0,0.34-0.286,0.626-0.626,0.626
			H16.732c-0.34,0-0.627-0.286-0.627-0.626V18.808c0-0.34,0.287-0.627,0.627-0.627l36.538,0.001c0.34,0,0.626,0.287,0.626,0.627
			V44.764z"/>
		<g>
			<path fill="#030303" d="M44.186,41.841L30.279,30.327c-0.721-0.566-1.162-0.754-2.098-0.023L16.075,41.752l-0.928-1.189
				l12.106-11.447c1.735-1.354,2.977-0.745,3.959,0.025l15.47,12.702L44.186,41.841L44.186,41.841z"/>
		</g>
		<g>
			<path fill="#030303" d="M54.172,42.152l-7.749-6.041c-0.853-0.667-1.391-0.802-2.526,0.094l-3.004,2.344l-0.929-1.189
				l3.002-2.339c1.572-1.242,2.884-1.272,4.39-0.097l7.746,6.043L54.172,42.152z"/>
		</g>
		<g>
			<path fill="#030303" d="M42.66,31.008c-1.979,0-3.587-1.608-3.587-3.586s1.606-3.587,3.587-3.587
				c1.977,0,3.587,1.609,3.587,3.587S44.637,31.008,42.66,31.008z M42.66,25.346c-1.146,0-2.078,0.931-2.078,2.076
				s0.932,2.076,2.078,2.076s2.074-0.931,2.074-2.076S43.805,25.346,42.66,25.346z"/>
		</g>
	</g>
	<g>
		<path d="M34.302,55.708c-1.377,0-2.5-1.12-2.5-2.499s1.121-2.499,2.5-2.499c1.38,0,2.501,1.12,2.501,2.499
			S35.68,55.708,34.302,55.708z M34.302,51.709c-0.827,0-1.5,0.673-1.5,1.5s0.673,1.5,1.5,1.5c0.828,0,1.5-0.673,1.5-1.5
			S35.129,51.709,34.302,51.709z"/>
	</g>
	<g>
		<g>
			<path d="M28.885,53.209c0,0.825-0.674,1.501-1.5,1.501h-2c-0.825,0-1.5-0.676-1.5-1.501l0,0c0-0.825,0.675-1.501,1.5-1.501h2
				C28.211,51.708,28.885,52.384,28.885,53.209L28.885,53.209z"/>
		</g>
	</g>
	<g>
		<g>
			<path d="M44.803,53.209c0,0.825-0.675,1.501-1.5,1.501h-2c-0.824,0-1.5-0.676-1.5-1.501l0,0c0-0.825,0.676-1.501,1.5-1.501h2
				C44.128,51.708,44.803,52.384,44.803,53.209L44.803,53.209z"/>
		</g>
	</g>
</g>
<g display="none">
	<g display="inline">
		<g>
			<path d="M13.753,44.663H6.246C5.008,44.663,4,43.654,4,42.416V23.961c0-1.239,1.008-2.247,2.246-2.247h7.507
				c1.239,0,2.247,1.008,2.247,2.247v18.455C16,43.654,14.992,44.663,13.753,44.663z M6.246,23.64c-0.173,0-0.32,0.147-0.32,0.321
				v18.455c0,0.176,0.147,0.32,0.32,0.32h7.507c0.175,0,0.321-0.146,0.321-0.32V23.961c0-0.174-0.146-0.321-0.321-0.321H6.246z"/>
		</g>
	</g>
	<g display="inline">
		<g>
			<path d="M63.753,44.663h-7.507c-1.238,0-2.246-1.009-2.246-2.247V23.961c0-1.239,1.008-2.247,2.246-2.247h7.507
				c1.239,0,2.247,1.008,2.247,2.247v18.455C66,43.654,64.992,44.663,63.753,44.663z M56.246,23.64c-0.173,0-0.32,0.147-0.32,0.321
				v18.455c0,0.176,0.147,0.32,0.32,0.32h7.507c0.175,0,0.321-0.146,0.321-0.32V23.961c0-0.174-0.146-0.321-0.321-0.321H56.246z"/>
		</g>
	</g>
</g>
</svg>
