<?xml version="1.0" encoding="utf-8"?>
<!-- Generator: Adobe Illustrator 16.0.0, SVG Export Plug-In . SVG Version: 6.00 Build 0)  -->
<!DOCTYPE svg PUBLIC "-//W3C//DTD SVG 1.1//EN" "http://www.w3.org/Graphics/SVG/1.1/DTD/svg11.dtd">
<svg version="1.1" xmlns="http://www.w3.org/2000/svg" xmlns:xlink="http://www.w3.org/1999/xlink" x="0px" y="0px"
	 width="70px" height="70px" viewBox="0 0 70 70" enable-background="new 0 0 70 70" xml:space="preserve">
<g display="none">
	<g display="inline">
		<path fill="none" stroke="#000000" stroke-width="3" stroke-miterlimit="10" d="M55.162,50.141c0,1.1-0.9,2-2,2H16
			c-1.1,0-2-0.9-2-2V21.146c0-1.1,0.9-2,2-2h37.162c1.1,0,2,0.9,2,2V50.141z"/>
	</g>
	<g display="inline">
		<path d="M20.848,49.311v-0.897c0.549-0.05,0.957-0.171,1.223-0.362c0.266-0.189,0.549-0.557,0.849-1.098
			c0.299-0.541,0.724-1.502,1.273-2.883l5.191-12.979c0.116-0.083,0.387-0.158,0.811-0.225c0.424-0.066,0.72-0.1,0.886-0.1
			c4.259,10.533,6.459,15.933,6.603,16.198c0.141,0.267,0.272,0.479,0.397,0.638c0.125,0.157,0.328,0.32,0.61,0.486
			c0.283,0.166,0.617,0.273,1,0.324v0.898h-7.138v-0.85c1.481-0.115,2.221-0.482,2.221-1.1c0-0.448-0.174-1.072-0.524-1.87
			l-0.474-1.099c-0.2-0.449-0.375-0.883-0.524-1.299H26.04c-0.299,0.684-0.632,1.502-0.998,2.458
			c-0.366,0.957-0.549,1.521-0.549,1.687c0,0.599,0.749,0.965,2.247,1.098v0.975H20.848L20.848,49.311z M26.389,42.021h6.54
			l-3.32-8.211L26.389,42.021z"/>
	</g>
	<path display="inline" d="M42.662,21.806l1.911,1.035c0,0-2.31,5.334-2.946,6.449c-0.636,1.115-0.637,1.115-0.637,1.115
		s1.033,0.558,4.697,2.468C49.35,34.783,50.066,35,50.066,35s-0.637,0.893-0.955,1.412s-0.318,0.521-0.318,0.521
		s-6.131-3.822-7.803-4.937c-1.672-1.115-1.672-1.115-1.672-1.115c1.793-4.304,0.937-2.215,2.109-5.441
		C42.021,23.808,42.662,21.806,42.662,21.806z"/>
	<rect x="36.004" y="26.093" display="inline" width="14.805" height="1.917"/>
	<path display="inline" d="M45.346,28.01c0,0-0.531,4.132-3.836,5.635c-3.304,1.503-5.017,1.625-5.017,1.625
		s0.815,1.328,0.979,1.664s6.566-1.459,8.238-4.845c1.672-3.385,1.553-4.079,1.553-4.079H45.346z"/>
</g>
<g>
	<path d="M64.875,14.875c0-2.25-1.83-4.081-4.08-4.081H9.205c-2.25,0-4.08,1.831-4.08,4.081v40.249c0,2.25,1.83,4.08,4.08,4.08
		h51.59c2.25,0,4.08-1.83,4.08-4.08V14.875z M62.268,55.124c0,0.813-0.66,1.474-1.473,1.474H9.205c-0.813,0-1.473-0.661-1.473-1.474
		V14.875c0-0.813,0.661-1.473,1.473-1.473h51.59c0.813,0,1.473,0.661,1.473,1.473V55.124z"/>
	<g>
		<g>
			<path d="M15.511,53.254v-1.177c0.72-0.065,1.253-0.226,1.603-0.478c0.348-0.248,0.719-0.729,1.112-1.438
				c0.392-0.71,0.948-1.969,1.668-3.778l6.804-17.011c0.151-0.109,0.507-0.207,1.063-0.295c0.555-0.086,0.943-0.13,1.162-0.13
				c5.582,13.806,8.468,20.881,8.652,21.229c0.185,0.353,0.358,0.628,0.521,0.835c0.166,0.209,0.432,0.424,0.801,0.639
				c0.373,0.219,0.812,0.36,1.312,0.427v1.177h-9.354v-1.113c1.94-0.149,2.91-0.632,2.91-1.438c0-0.589-0.228-1.408-0.686-2.451
				l-0.622-1.442c-0.262-0.588-0.492-1.154-0.688-1.699h-9.453c-0.393,0.895-0.829,1.971-1.309,3.222
				c-0.48,1.254-0.72,1.991-0.72,2.207c0,0.787,0.981,1.267,2.944,1.44v1.275H15.511z M22.772,43.701h8.571l-4.35-10.761
				L22.772,43.701z"/>
		</g>
	</g>
	<g>
		<path d="M48.24,16.981l2.354,1.274c0,0-2.845,6.567-3.629,7.94c-0.783,1.372-0.783,1.372-0.783,1.372s1.272,0.687,5.783,3.04
			c4.512,2.352,5.393,2.62,5.393,2.62s-0.784,1.097-1.176,1.738c-0.393,0.641-0.393,0.641-0.393,0.641s-7.549-4.706-9.607-6.078
			c-2.059-1.372-2.059-1.372-2.059-1.372c2.207-5.3,1.152-2.728,2.6-6.7C47.452,19.447,48.24,16.981,48.24,16.981z"/>
	</g>
	<g>
		<rect x="40.042" y="22.26" width="18.229" height="2.36"/>
	</g>
	<g>
		<path d="M51.545,24.62c0,0-0.656,5.087-4.725,6.938c-4.067,1.851-6.176,2.001-6.176,2.001s1.004,1.634,1.205,2.046
			c0.199,0.414,8.084-1.795,10.145-5.962c2.059-4.168,1.91-5.022,1.91-5.022L51.545,24.62L51.545,24.62z"/>
	</g>
</g>
</svg>
