<?xml version="1.0" encoding="utf-8"?>
<!-- Generator: Adobe Illustrator 16.0.0, SVG Export Plug-In . SVG Version: 6.00 Build 0)  -->
<!DOCTYPE svg PUBLIC "-//W3C//DTD SVG 1.1//EN" "http://www.w3.org/Graphics/SVG/1.1/DTD/svg11.dtd">
<svg version="1.1" xmlns="http://www.w3.org/2000/svg" xmlns:xlink="http://www.w3.org/1999/xlink" x="0px" y="0px"
	 width="70px" height="70px" viewBox="0 0 70 70" enable-background="new 0 0 70 70" xml:space="preserve">
<g display="none">
	
		<image display="inline" overflow="visible" enable-background="new    " width="38" height="43" xlink:href="9A9BE67D.jpg"  transform="matrix(0.9884 0 0 0.9884 14.1763 12.2466)">
	</image>
</g>
<g display="none">
	<path display="inline" fill="none" stroke="#000000" stroke-width="0.5" stroke-miterlimit="10" d="M28.721,43.473"/>
	<path display="inline" fill="none" stroke="#000000" stroke-width="0.5" stroke-miterlimit="10" d="M30.233,45.41"/>
	<path display="inline" fill="none" stroke="#000000" stroke-width="0.5" stroke-miterlimit="10" d="M26.69,45.41"/>
	<path display="inline" fill="none" stroke="#000000" stroke-width="3" stroke-miterlimit="10" d="M47.1,57.954"/>
	<path display="inline" fill="none" stroke="#000000" stroke-width="0.5" stroke-miterlimit="10" d="M30.233,45.41"/>
	<path display="inline" fill="none" stroke="#000000" stroke-width="3" stroke-miterlimit="10" d="M47.827,4.501"/>
	<path display="inline" fill="none" stroke="#000000" stroke-width="3" stroke-miterlimit="10" d="M48.189,64.997l-34.018-11.5
		c-0.524-0.245-1.049-0.968-1.049-2.163V19.17c0-1.24,0-1.946,0.984-2.242L48.275,5"/>
	<path display="inline" fill="none" stroke="#000000" stroke-width="3" stroke-miterlimit="10" d="M52.078,5.926l-3.211-0.865
		C47.895,4.8,47.1,5.41,47.1,6.417v57.29c0,1.007,0.771,1.539,1.713,1.184l3.515-1.328c0.377-0.223,0.655-0.549,0.655-1.229
		l0.013-55.314C52.994,6.414,52.615,6.138,52.078,5.926z"/>
	<path display="inline" fill="none" stroke="#000000" stroke-width="3" stroke-miterlimit="10" d="M54.826,7.936l3.115,0.724
		c0.225,0.1,0.521,0.413,0.521,0.924v50.393c0,0.477-0.285,0.729-0.571,0.86l-3.076,1.058"/>
	<path display="inline" fill="none" stroke="#000000" stroke-width="3" stroke-miterlimit="10" d="M60.311,10.479l2.979,0.622
		c0.422,0.188,0.66,0.345,0.66,0.772v45.156c0,0.546-0.316,0.853-0.636,0.986l-3.014,0.928"/>
	<path display="inline" fill="#030303" d="M25.722,46.439H9.607l-0.101-0.48c-0.147-0.971-0.839-1.551-1.845-1.551H3.763
		c-0.002,0-0.004-0.002-0.009-0.002c-0.526,0-0.954,0.425-0.954,0.945c0,0.521,0.428,0.948,0.954,0.948
		c0.005,0,0.007-0.002,0.009-0.002l3.873,0.007l2.78,13.461c0.202,0.793,0.631,1.231,1.276,1.37
		c-1.104,0.362-1.908,1.39-1.908,2.604c0,1.521,1.244,2.756,2.775,2.756c1.528,0,2.773-1.235,2.773-2.756
		c0-1.143-0.705-2.124-1.705-2.541h8.764c-0.998,0.417-1.703,1.398-1.703,2.541c0,1.521,1.244,2.756,2.773,2.756
		c1.529,0,2.774-1.235,2.774-2.756c0-1.143-0.704-2.124-1.704-2.541h0.384c0.007,0,0.013,0.004,0.021,0.004
		c0.524,0,0.953-0.426,0.953-0.946s-0.422-0.938-0.94-0.944v-0.004H12.267l-0.229-1.104h11.48c0.549-0.001,1.568-0.001,1.895-1.488
		l1.827-8.36c0.133-0.459,0.053-0.93-0.222-1.293C26.724,46.672,26.24,46.439,25.722,46.439z M23.465,62.876
		c0.479,0,0.87,0.39,0.87,0.864s-0.391,0.861-0.87,0.861s-0.87-0.387-0.87-0.861S22.986,62.876,23.465,62.876z M12.562,62.876
		c0.479,0,0.869,0.39,0.869,0.864s-0.392,0.861-0.869,0.861c-0.479,0-0.871-0.387-0.871-0.861S12.083,62.876,12.562,62.876z
		 M23.552,56.311c-0.011,0-0.021,0-0.033,0H11.646l-1.647-7.979h15.3L23.552,56.311z"/>
</g>
<g display="none">
	<path display="inline" fill="none" stroke="#000000" stroke-width="3" stroke-miterlimit="10" d="M43.1,65.954"/>
	<g display="inline">
		<path d="M16.248,44.169h-3V18.422c0-1.292,0-3.062,2.052-3.679L49.406,2.836l0.988,2.832L16.268,17.582
			c-0.02,0.211-0.02,0.552-0.02,0.84V44.169z"/>
	</g>
	<g display="inline">
		
			<rect x="28.258" y="59.204" transform="matrix(-0.9473 -0.3203 0.3203 -0.9473 57.1348 130.8071)" width="22.134" height="3.001"/>
	</g>
	<g display="inline">
		<path d="M49.87,65.752L49.87,65.752c-1.509,0-2.646-1.201-2.646-2.794V5.668c0-1.663,1.215-2.916,2.825-2.916
			c0.274,0,0.556,0.038,0.83,0.112l3.373,0.918c1.542,0.608,1.865,1.688,1.865,2.487l-0.013,55.314c0,1.112-0.481,1.983-1.396,2.521
			l-0.229,0.11l-3.515,1.329C50.604,65.684,50.232,65.752,49.87,65.752z M50.229,5.796l-0.004,56.818l2.877-1.085l0.018-54.956
			L50.229,5.796z"/>
	</g>
	<g display="inline">
		<path d="M57.105,61.973v-2.113l1.98-0.68l0.005-50.351L56.96,8.314l-0.019-2.1l3.031,0.785c0.555,0.248,1.113,0.911,1.113,1.837
			v50.393c0,0.791-0.422,1.436-1.156,1.771L57.105,61.973z"/>
	</g>
	<g display="inline">
		<path d="M62.221,59.15l-0.015-2.09l2.438-0.75l-0.07-45.009l-2.438-0.509l0.002-2.042l3.182,0.687
			c0.375,0.167,1.254,0.557,1.254,1.686v45.157c0,0.865-0.467,1.578-1.247,1.906L62.221,59.15z"/>
	</g>
	<path display="inline" fill="#030303" d="M27.347,45.691H11.232l-0.101-0.48c-0.147-0.971-0.839-1.551-1.845-1.551H5.388
		c-0.002,0-0.004-0.002-0.009-0.002c-0.526,0-0.954,0.425-0.954,0.945c0,0.521,0.427,0.947,0.954,0.947
		c0.005,0,0.007-0.002,0.009-0.002l3.873,0.006l2.78,13.461c0.202,0.793,0.631,1.232,1.276,1.371
		c-1.104,0.362-1.908,1.389-1.908,2.604c0,1.521,1.244,2.756,2.775,2.756c1.528,0,2.773-1.235,2.773-2.756
		c0-1.142-0.705-2.124-1.705-2.541h8.764c-0.998,0.417-1.703,1.399-1.703,2.541c0,1.521,1.244,2.756,2.773,2.756
		c1.529,0,2.774-1.235,2.774-2.756c0-1.142-0.704-2.124-1.704-2.541h0.384c0.007,0,0.013,0.004,0.021,0.004
		c0.524,0,0.953-0.425,0.953-0.946c0-0.52-0.422-0.938-0.94-0.945v-0.002H13.892l-0.229-1.104h11.48
		c0.549-0.001,1.568-0.001,1.895-1.488l1.827-8.36c0.133-0.459,0.053-0.93-0.222-1.293C28.349,45.924,27.865,45.691,27.347,45.691z
		 M25.09,62.128c0.479,0,0.87,0.39,0.87,0.864s-0.391,0.861-0.87,0.861s-0.87-0.387-0.87-0.861S24.611,62.128,25.09,62.128z
		 M14.187,62.128c0.479,0,0.869,0.39,0.869,0.864s-0.392,0.861-0.869,0.861c-0.479,0-0.871-0.387-0.871-0.861
		S13.708,62.128,14.187,62.128z M25.177,55.563c-0.011,0-0.021,0-0.033,0H13.271l-1.647-7.979h15.3L25.177,55.563z"/>
</g>
<g display="none">
	<path display="inline" fill="#030303" d="M25.222,44.941H9.107l-0.101-0.48C8.859,43.49,8.167,42.91,7.162,42.91H3.263
		c-0.002,0-0.004-0.002-0.009-0.002c-0.526,0-0.954,0.425-0.954,0.945c0,0.521,0.427,0.947,0.954,0.947
		c0.005,0,0.007-0.002,0.009-0.002l3.873,0.006l2.78,13.461c0.202,0.793,0.631,1.232,1.276,1.371
		C10.088,60,9.285,61.025,9.285,62.242c0,1.521,1.244,2.756,2.775,2.756c1.528,0,2.773-1.234,2.773-2.756
		c0-1.143-0.705-2.124-1.705-2.541h8.764c-0.998,0.417-1.703,1.398-1.703,2.541c0,1.521,1.244,2.756,2.773,2.756
		c1.529,0,2.774-1.234,2.774-2.756c0-1.143-0.704-2.124-1.704-2.541h0.384c0.007,0,0.013,0.004,0.021,0.004
		c0.524,0,0.953-0.426,0.953-0.946c0-0.52-0.422-0.938-0.94-0.944v-0.004H11.767l-0.229-1.104h11.48
		c0.549-0.001,1.568-0.001,1.895-1.488l1.827-8.36c0.133-0.459,0.053-0.93-0.222-1.293C26.224,45.174,25.74,44.941,25.222,44.941z
		 M22.965,61.378c0.479,0,0.87,0.39,0.87,0.864s-0.391,0.861-0.87,0.861s-0.87-0.387-0.87-0.861S22.486,61.378,22.965,61.378z
		 M12.062,61.378c0.479,0,0.869,0.39,0.869,0.864s-0.392,0.861-0.869,0.861c-0.479,0-0.871-0.387-0.871-0.861
		S11.583,61.378,12.062,61.378z M23.052,54.813c-0.011,0-0.021,0-0.033,0H11.146l-1.647-7.979h15.3L23.052,54.813z"/>
</g>
<g display="none">
	<path display="inline" fill="none" stroke="#000000" stroke-width="3" stroke-miterlimit="10" d="M47.75,7.021
		c0-1.486-0.963-3.161-2.598-2.689L15.948,14.477C14.28,15.245,13,16.435,13,18.855v24.053"/>
	<path display="inline" fill="none" stroke="#000000" stroke-width="3" stroke-miterlimit="10" d="M47.75,7.021V59.65
		c0,1.348-1.771,2.94-3.613,2.437l-17.333-5.922"/>
	<path display="inline" fill="none" stroke="#000000" stroke-width="3" stroke-miterlimit="10" d="M50.561,58.521l2.223,0.672
		c1.16,0.302,1.953-0.688,1.953-1.537V8.501c0-0.821-0.793-1.939-1.805-1.485l-2.371,0.668"/>
	<path display="inline" fill="none" stroke="#000000" stroke-width="3" stroke-miterlimit="10" d="M57.939,56.736l2.151,0.621
		c1.125,0.277,1.894-0.637,1.894-1.418V10.583c0-0.757-0.769-1.79-1.748-1.37l-2.297,0.616"/>
</g>
<path d="M52.338,16.642c0-1.659-1.351-3.009-3.01-3.009H8.134c-1.659,0-3.009,1.35-3.009,3.009v36.717
	c0,1.659,1.35,3.009,3.009,3.009h41.194c1.659,0,3.01-1.35,3.01-3.009V16.642z M49.901,53.358c0,0.311-0.263,0.572-0.573,0.572
	H8.134c-0.311,0-0.573-0.262-0.573-0.572V16.642c0-0.311,0.262-0.573,0.573-0.573h41.194c0.311,0,0.573,0.262,0.573,0.573V53.358z"
	/>
<g>
	<rect x="31.805" y="14.765" width="1.791" height="40.298"/>
</g>
<g>
	<path d="M36.653,23.461h7.259c0.493,0,0.896-0.403,0.896-0.896s-0.402-0.896-0.896-0.896h-7.259c-0.492,0-0.896,0.403-0.896,0.896
		S36.161,23.461,36.653,23.461z"/>
	<path d="M46.912,29.628H36.653c-0.492,0-0.896,0.403-0.896,0.896c0,0.493,0.403,0.896,0.896,0.896h10.259
		c0.493,0,0.896-0.403,0.896-0.896C47.808,30.032,47.405,29.628,46.912,29.628z"/>
	<path d="M46.912,37.584H36.653c-0.492,0-0.896,0.404-0.896,0.896c0,0.493,0.403,0.896,0.896,0.896h10.259
		c0.493,0,0.896-0.402,0.896-0.896C47.808,37.988,47.405,37.584,46.912,37.584z"/>
	<path d="M44.912,45.539h-8.259c-0.492,0-0.896,0.404-0.896,0.896c0,0.493,0.403,0.896,0.896,0.896h8.259
		c0.493,0,0.896-0.402,0.896-0.896C45.808,45.943,45.405,45.539,44.912,45.539z"/>
</g>
<g>
	<g>
		<path fill="#030303" d="M32.022,45.34l-6.897-7.072c-0.758-0.781-1.238-0.939-2.25,0.109l-2.673,2.742l-0.827-1.394l2.672-2.739
			c1.4-1.455,2.568-1.49,3.906-0.112l6.896,7.072L32.022,45.34z"/>
	</g>
</g>
<path fill="#030303" d="M23.572,22.744c-2.191,0-3.975,1.783-3.975,3.975c0,2.192,1.783,3.976,3.975,3.976
	c2.192,0,3.975-1.783,3.975-3.976C27.547,24.527,25.764,22.744,23.572,22.744z M23.572,29.374c-1.464,0-2.656-1.191-2.656-2.655
	c0-1.463,1.191-2.654,2.656-2.654c1.464,0,2.654,1.191,2.654,2.654C26.227,28.183,25.036,29.374,23.572,29.374z"/>
<path fill="#030303" d="M15.199,33.651c-0.814-0.902-1.844-1.612-3.283-0.029l-5.573,6.138v2.241l6.342-6.985
	c0.777-0.855,1.142-0.637,1.74,0.026l10.652,11.656h2.068L15.199,33.651z"/>
<g>
	<path d="M63.209,14.288h-7.164c-0.987,0-1.791,0.803-1.791,1.791v8.955c0,0.987,0.804,1.791,1.791,1.791h7.164
		c0.987,0,1.791-0.804,1.791-1.791v-8.955C65,15.09,64.196,14.288,63.209,14.288z M63.206,25.034h-7.161v-8.955h7.164L63.206,25.034
		z"/>
	<path d="M63.209,28.619h-7.164c-0.987,0-1.791,0.804-1.791,1.791v8.956c0,0.987,0.804,1.791,1.791,1.791h7.164
		c0.987,0,1.791-0.804,1.791-1.791V30.41C65,29.422,64.196,28.619,63.209,28.619z M63.206,39.365h-7.161V30.41h7.164L63.206,39.365z
		"/>
	<path d="M63.209,43.004h-7.164c-0.987,0-1.791,0.803-1.791,1.791v8.955c0,0.986,0.804,1.791,1.791,1.791h7.164
		c0.987,0,1.791-0.805,1.791-1.791v-8.955C65,43.807,64.196,43.004,63.209,43.004z M63.206,53.75h-7.161v-8.955h7.164L63.206,53.75z
		"/>
</g>
</svg>
