<?xml version="1.0" encoding="utf-8"?>
<!-- Generator: Adobe Illustrator 16.0.0, SVG Export Plug-In . SVG Version: 6.00 Build 0)  -->
<!DOCTYPE svg PUBLIC "-//W3C//DTD SVG 1.1//EN" "http://www.w3.org/Graphics/SVG/1.1/DTD/svg11.dtd">
<svg version="1.1" xmlns="http://www.w3.org/2000/svg" xmlns:xlink="http://www.w3.org/1999/xlink" x="0px" y="0px" width="70px"
	 height="70px" viewBox="0 0 70 70" enable-background="new 0 0 70 70" xml:space="preserve">
<g>
	<g display="none">
		<g display="inline">
			<path fill="none" stroke="#000000" stroke-width="3" stroke-miterlimit="10" d="M65,59c0,1.1-0.9,2-2,2H7c-1.1,0-2-0.9-2-2V11
				c0-1.1,0.9-2,2-2h56c1.1,0,2,0.9,2,2V59z"/>
		</g>
		
			<line display="inline" fill="none" stroke="#000000" stroke-width="2" stroke-miterlimit="10" x1="5.398" y1="20.781" x2="65" y2="20.781"/>
		
			<line display="inline" fill="none" stroke="#000000" stroke-width="2" stroke-miterlimit="10" x1="13.742" y1="32.77" x2="55.461" y2="32.77"/>
		
			<line display="inline" fill="none" stroke="#000000" stroke-width="2" stroke-miterlimit="10" x1="13.742" y1="49.012" x2="55.461" y2="49.012"/>
		<g display="inline">
			<path d="M18.118,44.012h3.22v1.498h-5.18v-9.771h1.96V44.012z"/>
			<path d="M24.6,44.964c-0.765-0.43-1.372-1.024-1.82-1.784c-0.448-0.762-0.672-1.621-0.672-2.584c0-0.951,0.224-1.809,0.672-2.568
				c0.448-0.76,1.055-1.355,1.82-1.784c0.765-0.431,1.605-0.646,2.52-0.646c0.924,0,1.766,0.215,2.527,0.646
				c0.761,0.429,1.363,1.024,1.806,1.784c0.443,0.761,0.665,1.617,0.665,2.568c0,0.963-0.222,1.822-0.665,2.584
				c-0.443,0.76-1.048,1.354-1.813,1.784c-0.765,0.431-1.605,0.644-2.52,0.644S25.365,45.395,24.6,44.964z M28.674,43.402
				c0.448-0.267,0.798-0.639,1.05-1.119c0.252-0.481,0.378-1.043,0.378-1.688s-0.126-1.207-0.378-1.688
				c-0.252-0.481-0.602-0.852-1.05-1.113c-0.448-0.262-0.966-0.393-1.554-0.393s-1.108,0.131-1.561,0.393s-0.805,0.632-1.057,1.113
				c-0.252,0.48-0.378,1.043-0.378,1.688s0.126,1.205,0.378,1.688c0.252,0.48,0.604,0.854,1.057,1.119
				c0.453,0.267,0.973,0.398,1.561,0.398S28.226,43.669,28.674,43.402z"/>
			<path d="M33.75,38.025c0.434-0.76,1.031-1.353,1.792-1.777c0.76-0.424,1.608-0.637,2.541-0.637c1.103,0,2.06,0.27,2.87,0.806
				c0.813,0.536,1.372,1.29,1.681,2.261h-2.255c-0.225-0.41-0.531-0.724-0.924-0.938c-0.393-0.215-0.85-0.322-1.372-0.322
				c-0.578,0-1.092,0.131-1.539,0.393c-0.448,0.262-0.798,0.635-1.051,1.119c-0.252,0.485-0.378,1.047-0.378,1.68
				c0,0.654,0.128,1.225,0.385,1.709c0.256,0.484,0.613,0.858,1.07,1.119c0.457,0.263,0.99,0.394,1.597,0.394
				c0.747,0,1.36-0.201,1.842-0.603c0.479-0.401,0.791-0.957,0.931-1.666H37.58v-1.483h5.292v1.708
				c-0.131,0.681-0.41,1.313-0.84,1.89c-0.431,0.579-0.982,1.044-1.659,1.394c-0.678,0.351-1.436,0.525-2.273,0.525
				c-0.943,0-1.795-0.213-2.556-0.638s-1.358-1.017-1.792-1.771c-0.434-0.756-0.651-1.614-0.651-2.576
				C33.099,39.648,33.315,38.787,33.75,38.025z"/>
			<path d="M46.343,44.964c-0.766-0.43-1.372-1.024-1.819-1.784c-0.448-0.762-0.672-1.621-0.672-2.584
				c0-0.951,0.224-1.809,0.672-2.568c0.447-0.76,1.055-1.355,1.819-1.784c0.765-0.431,1.604-0.646,2.521-0.646
				c0.924,0,1.767,0.215,2.527,0.646c0.76,0.429,1.361,1.024,1.805,1.784c0.443,0.761,0.666,1.617,0.666,2.568
				c0,0.963-0.223,1.822-0.666,2.584c-0.442,0.76-1.047,1.354-1.813,1.784c-0.766,0.431-1.605,0.644-2.521,0.644
				S47.107,45.395,46.343,44.964z M50.416,43.402c0.447-0.267,0.798-0.639,1.051-1.119c0.252-0.481,0.379-1.043,0.379-1.688
				s-0.127-1.207-0.379-1.688c-0.253-0.481-0.604-0.852-1.051-1.113s-0.966-0.393-1.555-0.393c-0.588,0-1.107,0.131-1.561,0.393
				s-0.806,0.632-1.058,1.113c-0.252,0.48-0.378,1.043-0.378,1.688s0.126,1.205,0.378,1.688c0.252,0.48,0.604,0.854,1.058,1.119
				c0.452,0.267,0.973,0.398,1.561,0.398C49.45,43.801,49.969,43.669,50.416,43.402z"/>
		</g>
		<circle display="inline" fill="none" stroke="#000000" stroke-width="2" stroke-miterlimit="10" cx="13" cy="15.499" r="2"/>
		<circle display="inline" fill="none" stroke="#000000" stroke-width="2" stroke-miterlimit="10" cx="21" cy="15.499" r="2"/>
		<circle display="inline" fill="none" stroke="#000000" stroke-width="2" stroke-miterlimit="10" cx="29" cy="15.499" r="2"/>
	</g>
	<g>
		<g>
			<path d="M61.667,8.81H8.333C6.496,8.81,5,10.305,5,12.143v45.714c0,1.838,1.496,3.332,3.333,3.332h53.333
				c1.838,0,3.333-1.494,3.333-3.332V12.143C65,10.305,63.505,8.81,61.667,8.81z M8.333,11.667h53.333
				c0.258,0,0.477,0.218,0.477,0.477v8.363H7.857v-8.363C7.857,11.885,8.075,11.667,8.333,11.667z M61.667,58.333H8.333
				c-0.258,0-0.477-0.218-0.477-0.476V22.411h54.287v35.446C62.143,58.115,61.925,58.333,61.667,58.333z"/>
			<rect x="15.134" y="28.923" width="39.732" height="1.905"/>
			<rect x="15.134" y="50.393" width="39.732" height="1.904"/>
			<g>
				<polygon points="17.459,35.284 15.424,35.284 15.424,45.434 20.803,45.434 20.803,43.877 17.459,43.877 				"/>
				<path d="M29.432,35.807c-0.79-0.445-1.665-0.667-2.625-0.667c-0.949,0-1.822,0.223-2.617,0.667
					c-0.794,0.446-1.425,1.064-1.89,1.854c-0.466,0.79-0.698,1.68-0.698,2.668c0,0.999,0.232,1.893,0.698,2.683
					c0.465,0.79,1.095,1.408,1.89,1.854c0.795,0.445,1.667,0.669,2.617,0.669c0.95,0,1.823-0.224,2.618-0.669
					c0.794-0.445,1.422-1.063,1.882-1.854c0.46-0.79,0.69-1.684,0.69-2.683c0-0.988-0.23-1.878-0.69-2.668
					C30.847,36.871,30.222,36.253,29.432,35.807z M29.512,42.081c-0.262,0.498-0.625,0.886-1.09,1.162
					c-0.465,0.276-1.003,0.415-1.614,0.415c-0.61,0-1.15-0.139-1.621-0.415s-0.836-0.664-1.098-1.162
					c-0.262-0.5-0.393-1.083-0.393-1.753c0-0.667,0.13-1.252,0.393-1.751c0.262-0.5,0.627-0.884,1.098-1.155
					c0.47-0.273,1.011-0.408,1.621-0.408c0.611,0,1.149,0.135,1.614,0.408c0.465,0.271,0.829,0.655,1.09,1.155
					c0.262,0.499,0.393,1.084,0.393,1.751C29.904,40.998,29.773,41.581,29.512,42.081z"/>
				<path d="M37.667,41.332h3.49c-0.146,0.736-0.468,1.313-0.966,1.729c-0.502,0.418-1.139,0.625-1.914,0.625
					c-0.629,0-1.182-0.135-1.656-0.406c-0.475-0.271-0.846-0.658-1.112-1.163c-0.267-0.503-0.399-1.095-0.399-1.773
					c0-0.657,0.131-1.239,0.392-1.743c0.262-0.504,0.625-0.893,1.091-1.164c0.466-0.271,0.998-0.406,1.599-0.406
					c0.543,0,1.019,0.111,1.426,0.335c0.406,0.223,0.729,0.548,0.959,0.974h2.342c-0.32-1.008-0.902-1.791-1.745-2.348
					c-0.844-0.557-1.837-0.836-2.979-0.836c-0.969,0-1.85,0.221-2.639,0.661c-0.791,0.442-1.411,1.059-1.862,1.848
					c-0.451,0.79-0.676,1.686-0.676,2.684s0.225,1.891,0.676,2.676c0.451,0.783,1.071,1.396,1.862,1.838
					c0.789,0.442,1.674,0.662,2.652,0.662c0.872,0,1.659-0.182,2.361-0.545c0.703-0.363,1.277-0.846,1.724-1.447
					c0.446-0.6,0.735-1.256,0.872-1.963v-1.772h-5.496L37.667,41.332L37.667,41.332z"/>
				<path d="M53.887,37.66c-0.462-0.789-1.086-1.407-1.875-1.854c-0.791-0.445-1.666-0.667-2.625-0.667
					c-0.951,0-1.822,0.223-2.617,0.667c-0.795,0.446-1.424,1.064-1.89,1.854c-0.466,0.79-0.698,1.68-0.698,2.668
					c0,0.999,0.232,1.893,0.698,2.683s1.095,1.408,1.89,1.854c0.795,0.445,1.666,0.669,2.617,0.669c0.949,0,1.821-0.224,2.616-0.669
					s1.422-1.063,1.884-1.854c0.459-0.79,0.688-1.684,0.688-2.683C54.575,39.34,54.346,38.45,53.887,37.66z M52.091,42.081
					c-0.264,0.498-0.627,0.886-1.092,1.162c-0.464,0.276-1.003,0.415-1.612,0.415c-0.611,0-1.152-0.139-1.621-0.415
					c-0.472-0.276-0.838-0.664-1.099-1.162c-0.263-0.5-0.394-1.083-0.394-1.753c0-0.667,0.131-1.252,0.394-1.751
					c0.261-0.5,0.627-0.884,1.099-1.155c0.469-0.273,1.01-0.408,1.621-0.408c0.609,0,1.148,0.135,1.612,0.408
					c0.465,0.271,0.828,0.655,1.092,1.155c0.263,0.499,0.394,1.084,0.394,1.751C52.482,40.998,52.354,41.581,52.091,42.081z"/>
			</g>
			<path d="M14.235,19.285c1.575,0,2.857-1.282,2.857-2.857c0-1.576-1.282-2.857-2.857-2.857c-1.576,0-2.857,1.282-2.857,2.857
				C11.378,18.003,12.66,19.285,14.235,19.285z M14.235,15.475c0.525,0,0.952,0.428,0.952,0.953c0,0.525-0.427,0.952-0.952,0.952
				s-0.953-0.427-0.953-0.952C13.282,15.903,13.71,15.475,14.235,15.475z"/>
			<path d="M21.854,19.285c1.576,0,2.857-1.282,2.857-2.857c0-1.576-1.282-2.857-2.857-2.857s-2.857,1.282-2.857,2.857
				C18.997,18.003,20.279,19.285,21.854,19.285z M21.854,15.475c0.525,0,0.953,0.428,0.953,0.953c0,0.525-0.427,0.952-0.953,0.952
				c-0.525,0-0.952-0.427-0.952-0.952C20.902,15.903,21.329,15.475,21.854,15.475z"/>
			<path d="M29.473,19.285c1.576,0,2.857-1.282,2.857-2.857c0-1.576-1.282-2.857-2.857-2.857c-1.575,0-2.857,1.282-2.857,2.857
				C26.616,18.003,27.897,19.285,29.473,19.285z M29.473,15.475c0.525,0,0.953,0.428,0.953,0.953c0,0.525-0.428,0.952-0.953,0.952
				s-0.952-0.427-0.952-0.952C28.521,15.903,28.948,15.475,29.473,15.475z"/>
		</g>
	</g>
</g>
<g>
</g>
<g>
</g>
</svg>
