<?xml version="1.0" encoding="utf-8"?>
<!-- Generator: Adobe Illustrator 16.0.0, SVG Export Plug-In . SVG Version: 6.00 Build 0)  -->
<!DOCTYPE svg PUBLIC "-//W3C//DTD SVG 1.1//EN" "http://www.w3.org/Graphics/SVG/1.1/DTD/svg11.dtd">
<svg version="1.1" xmlns="http://www.w3.org/2000/svg" xmlns:xlink="http://www.w3.org/1999/xlink" x="0px" y="0px"
	 width="70px" height="70px" viewBox="0 0 70 70" enable-background="new 0 0 70 70" xml:space="preserve">
<g display="none">
	<path display="inline" fill="none" stroke="#000000" stroke-width="3" stroke-miterlimit="10" d="M32,36.096c0,0.551-0.45,1-1,1H13
		c-0.55,0-1-0.449-1-1v-23c0-0.55,0.45-1,1-1h18c0.55,0,1,0.45,1,1V36.096z"/>
	<path display="inline" fill="none" stroke="#000000" stroke-width="3" stroke-miterlimit="10" d="M32,57c0,0.55-0.45,1-1,1H13
		c-0.55,0-1-0.45-1-1V44c0-0.55,0.45-1,1-1h18c0.55,0,1,0.45,1,1V57z"/>
	<path display="inline" fill="none" stroke="#000000" stroke-width="3" stroke-miterlimit="10" d="M58,26c0,0.55-0.45,1-1,1H39
		c-0.55,0-1-0.45-1-1V13c0-0.55,0.45-1,1-1h18c0.55,0,1,0.45,1,1V26z"/>
	<path display="inline" fill="none" stroke="#000000" stroke-width="3" stroke-miterlimit="10" d="M58,57c0,0.55-0.45,1-1,1H39
		c-0.55,0-1-0.45-1-1V34c0-0.55,0.45-1,1-1h18c0.55,0,1,0.45,1,1V57z"/>
</g>
<g>
	<path d="M33.366,9.279c0-1.469-1.195-2.664-2.664-2.664H9.164C7.695,6.615,6.5,7.81,6.5,9.279V36.8
		c0,1.469,1.195,2.664,2.664,2.664h21.538c1.469,0,2.664-1.195,2.664-2.664V9.279z M30.431,36.528H9.435V9.55h20.996V36.528z"/>
	<path d="M33.366,45.28c0-1.469-1.195-2.664-2.664-2.664H9.164c-1.469,0-2.664,1.195-2.664,2.664v15.556
		c0,1.469,1.195,2.664,2.664,2.664h21.538c1.469,0,2.664-1.195,2.664-2.664V45.28z M30.431,60.564H9.435V45.552h20.996V60.564z"/>
	<path d="M63.5,9.164c0-1.469-1.195-2.664-2.664-2.664H39.298c-1.469,0-2.664,1.195-2.664,2.664v15.555
		c0,1.469,1.195,2.665,2.664,2.665h21.538c1.469,0,2.664-1.195,2.664-2.665V9.164z M60.564,24.448H39.568V9.435h20.996V24.448z"/>
	<path d="M63.5,33.315c0-1.469-1.195-2.664-2.664-2.664H39.298c-1.469,0-2.664,1.195-2.664,2.664v27.521
		c0,1.469,1.195,2.664,2.664,2.664h21.538c1.469,0,2.664-1.195,2.664-2.664V33.315z M60.564,60.564H39.568V33.586h20.996V60.564z"/>
</g>
</svg>
