<?xml version="1.0" encoding="utf-8"?>
<!-- Generator: Adobe Illustrator 18.0.0, SVG Export Plug-In . SVG Version: 6.00 Build 0)  -->
<!DOCTYPE svg PUBLIC "-//W3C//DTD SVG 1.1//EN" "http://www.w3.org/Graphics/SVG/1.1/DTD/svg11.dtd">
<svg version="1.1" xmlns="http://www.w3.org/2000/svg" xmlns:xlink="http://www.w3.org/1999/xlink" x="0px" y="0px" width="70px" height="70px"
	 viewBox="0 0 70 70" enable-background="new 0 0 70 70" xml:space="preserve">
<g>
	<path d="M57.7,13H13.3c-1.5,0-2.8,1.3-2.8,2.8v38.4c0,1.5,1.2,2.8,2.8,2.8h44.4c1.5,0,2.8-1.3,2.8-2.8V15.8
		C60.5,14.2,59.3,13,57.7,13z M13.3,15.4h44.4c0.2,0,0.4,0.2,0.4,0.4v7H12.9v-7C12.9,15.6,13.1,15.4,13.3,15.4z M57.7,54.6H13.3
		c-0.2,0-0.4-0.2-0.4-0.4V24.4h45.2v29.8C58.1,54.4,57.9,54.6,57.7,54.6z"/>
	<path d="M20.1,19.2c0,0.5-0.4,0.8-0.8,0.8h-2.5c-0.5,0-0.8-0.4-0.8-0.8l0,0c0-0.5,0.4-0.8,0.8-0.8h2.5
		C19.7,18.3,20.1,18.7,20.1,19.2L20.1,19.2z"/>
	<path d="M25.9,19.2c0,0.5-0.4,0.8-0.8,0.8h-2.5c-0.5,0-0.8-0.4-0.8-0.8l0,0c0-0.5,0.4-0.8,0.8-0.8h2.5
		C25.5,18.3,25.9,18.7,25.9,19.2L25.9,19.2z"/>
	<path d="M31.8,19.2c0,0.5-0.4,0.8-0.8,0.8h-2.5c-0.5,0-0.8-0.4-0.8-0.8l0,0c0-0.5,0.4-0.8,0.8-0.8h2.5
		C31.4,18.3,31.8,18.7,31.8,19.2L31.8,19.2z"/>
	<path d="M30.9,43.7H16.8c-0.9,0-1.7-0.8-1.7-1.7V24.5c0-0.9,0.7-1.7,1.7-1.7h14.2c0.9,0,1.7,0.8,1.7,1.7V42
		C32.6,42.9,31.8,43.7,30.9,43.7z M30.9,42v0.8V42L30.9,42L30.9,42z M16.8,24.5V42h14.2l0-17.5H16.8z"/>
	<path d="M28,27.4h-8.9c-0.5,0-0.8,0.4-0.8,0.8c0,0.5,0.4,0.8,0.8,0.8H28c0.5,0,0.8-0.4,0.8-0.8C28.8,27.7,28.5,27.4,28,27.4z"/>
	<path d="M19.1,32.4h6.8c0.5,0,0.8-0.4,0.8-0.8c0-0.5-0.4-0.8-0.8-0.8h-6.8c-0.5,0-0.8,0.4-0.8,0.8C18.3,32,18.7,32.4,19.1,32.4z"/>
	<path d="M27.2,34.1h-8.1c-0.5,0-0.8,0.4-0.8,0.8v0c0,0.5,0.4,0.8,0.8,0.8h8.1c0.5,0,0.8-0.4,0.8-0.8v0C28,34.5,27.7,34.1,27.2,34.1
		z"/>
	<path d="M24.3,37.5h-5.1c-0.5,0-0.8,0.4-0.8,0.8c0,0.5,0.4,0.8,0.8,0.8h5.1c0.5,0,0.8-0.4,0.8-0.8C25.1,37.8,24.7,37.5,24.3,37.5z"
		/>
</g>
</svg>
