<?xml version="1.0" encoding="utf-8"?>
<!-- Generator: Adobe Illustrator 16.0.0, SVG Export Plug-In . SVG Version: 6.00 Build 0)  -->
<!DOCTYPE svg PUBLIC "-//W3C//DTD SVG 1.1//EN" "http://www.w3.org/Graphics/SVG/1.1/DTD/svg11.dtd">
<svg version="1.1" xmlns="http://www.w3.org/2000/svg" xmlns:xlink="http://www.w3.org/1999/xlink" x="0px" y="0px"
	 width="70px" height="70px" viewBox="0 0 70 70" enable-background="new 0 0 70 70" xml:space="preserve">
<g>
</g>
<g display="none">
	
		<image display="inline" overflow="visible" enable-background="new    " width="35" height="30" xlink:href="F195A216.jpg"  transform="matrix(1.5188 0 0 1.5188 7.457 12.2188)">
	</image>
</g>
<g>
	<g>
		<g>
			<g>
				<path d="M58.252,19.224c0-0.673-0.551-1.224-1.224-1.224H12.971c-0.673,0-1.224,0.551-1.224,1.224v1.056
					c0,0.673,0.55,1.224,1.224,1.224h44.058c0.673,0,1.224-0.551,1.224-1.224V19.224z"/>
			</g>
			<g>
				<path d="M58.253,34.412c0-0.673-0.551-1.224-1.224-1.224H12.971c-0.673,0-1.224,0.551-1.224,1.224v1.057
					c0,0.673,0.55,1.224,1.224,1.224h44.059c0.673,0,1.224-0.551,1.224-1.224V34.412z"/>
			</g>
			<g>
				<path d="M12.971,48.496c-0.673,0-1.224,0.551-1.224,1.224v1.057c0,0.673,0.55,1.224,1.224,1.224h44.058
					c0.673,0,1.224-0.551,1.224-1.224V49.72c0-0.673-0.551-1.224-1.224-1.224H12.971z"/>
			</g>
		</g>
	</g>
</g>
</svg>
