<?xml version="1.0" encoding="utf-8"?>
<!-- Generator: Adobe Illustrator 16.0.0, SVG Export Plug-In . SVG Version: 6.00 Build 0)  -->
<!DOCTYPE svg PUBLIC "-//W3C//DTD SVG 1.1//EN" "http://www.w3.org/Graphics/SVG/1.1/DTD/svg11.dtd">
<svg version="1.1" xmlns="http://www.w3.org/2000/svg" xmlns:xlink="http://www.w3.org/1999/xlink" x="0px" y="0px"
	 width="70px" height="70px" viewBox="0 0 70 70" enable-background="new 0 0 70 70" xml:space="preserve">
<g display="none">
	<g display="inline">
		<g>
			<g>
				<path fill="#030303" d="M50.998,49.5H19.001c-1.93,0-3.5-1.557-3.5-3.471V20.971c0-1.914,1.57-3.471,3.5-3.471h31.997
					c1.93,0,3.5,1.557,3.5,3.471v25.058C54.498,47.943,52.928,49.5,50.998,49.5z M19.001,20.475c-0.271,0-0.5,0.228-0.5,0.496
					v25.058c0,0.27,0.229,0.496,0.5,0.496h31.997c0.271,0,0.5-0.229,0.5-0.496V20.971c0-0.269-0.229-0.496-0.5-0.496H19.001z"/>
			</g>
			<g>
				<path fill="#030303" d="M65,49.5h-5.188c-1.933,0-3.5-1.557-3.5-3.471V20.971c0-1.914,1.567-3.471,3.5-3.471H65v2.975h-5.188
					c-0.271,0-0.5,0.228-0.5,0.496v25.058c0,0.27,0.229,0.496,0.5,0.496H65V49.5z"/>
			</g>
			<g>
				<path fill="#030303" d="M10.186,49.5H5v-2.975h5.186c0.271,0,0.5-0.229,0.5-0.496V20.971c0-0.269-0.229-0.496-0.5-0.496H5V17.5
					h5.186c1.93,0,3.5,1.557,3.5,3.471v25.058C13.686,47.943,12.116,49.5,10.186,49.5z"/>
			</g>
		</g>
		<g>
			<g>
				<g>
					<path d="M49.779,54.5c0,0.825-0.674,1.5-1.5,1.5h-27c-0.825,0-1.5-0.675-1.5-1.5l0,0c0-0.825,0.675-1.5,1.5-1.5h27
						C49.105,53,49.779,53.675,49.779,54.5L49.779,54.5z"/>
				</g>
			</g>
		</g>
	</g>
	<g display="inline">
	</g>
	<g display="inline">
		<g>
			<g>
				<path fill="#030303" d="M51.713,45.859H18.287c-1.655,0-3-1.334-3-2.977V19.404c0-1.641,1.345-2.975,3-2.975h33.426
					c1.653,0,3,1.334,3,2.975v23.479C54.713,44.525,53.366,45.859,51.713,45.859z M18.287,18.979c-0.232,0-0.429,0.195-0.429,0.425
					v23.479c0,0.229,0.197,0.426,0.429,0.426h33.426c0.232,0,0.43-0.195,0.43-0.426V19.404c0-0.23-0.197-0.425-0.43-0.425H18.287z"
					/>
			</g>
			<path fill="#030303" d="M55.548,41.884c0,1.486,1.22,2.695,2.72,2.695h2.166v-1.99h-2.166c-0.384,0-0.709-0.323-0.709-0.705
				v-21.48c0-0.382,0.325-0.705,0.709-0.705h2.166v-1.99h-2.166c-1.5,0-2.72,1.209-2.72,2.695V41.884z"/>
			<path d="M14.451,20.404c0-1.486-1.22-2.695-2.72-2.695H9.566v1.99h2.165c0.384,0,0.709,0.323,0.709,0.705v21.479
				c0,0.383-0.325,0.705-0.709,0.705H9.566v1.99h2.165c1.499,0,2.719-1.209,2.72-2.695V20.404z"/>
		</g>
		<g>
			<g>
				<g>
					<path d="M47.669,50.215c0,0.707-0.675,1.285-1.5,1.285H23.455c-0.825,0-1.5-0.578-1.5-1.285c0-0.708,0.675-1.285,1.5-1.285
						h22.714C46.994,48.93,47.669,49.507,47.669,50.215z"/>
				</g>
			</g>
		</g>
		<g>
			<g>
				<g>
					<path d="M44.669,55.785c0,0.707-0.675,1.285-1.5,1.285H26.455c-0.825,0-1.5-0.578-1.5-1.285c0-0.708,0.675-1.285,1.5-1.285
						h16.714C43.994,54.5,44.669,55.077,44.669,55.785z"/>
				</g>
			</g>
		</g>
		<g>
			<polygon fill="#030303" points="9.991,26.174 5,31.165 9.991,36.156 11.204,34.944 7.424,31.165 11.204,27.386 			"/>
			<polygon fill="#030303" points="60.01,26.132 58.798,27.345 62.576,31.125 58.798,34.902 60.01,36.114 65,31.125 			"/>
		</g>
		<path d="M60.714,47.93h-1.626c-0.824,0-1.5,0.577-1.5,1.285c0,0.707,0.676,1.285,1.5,1.285h1.626V47.93z"/>
		<path d="M9.286,47.93h1.626c0.825,0,1.5,0.577,1.5,1.285c0,0.707-0.675,1.285-1.5,1.285H9.286V47.93z"/>
	</g>
</g>
<g>
	<g>
		<g>
			<path d="M53.388,20.439c0-1.461-1.2-2.65-2.675-2.65H19.287c-1.475,0-2.675,1.188-2.675,2.65v23.479
				c0,1.462,1.2,2.651,2.675,2.651h31.426c1.475,0,2.675-1.189,2.675-2.651V20.439z M51.468,43.919c0,0.406-0.346,0.75-0.755,0.75
				H19.287c-0.409,0-0.754-0.344-0.754-0.75v-23.48c0-0.406,0.346-0.75,0.754-0.75h31.426c0.409,0,0.755,0.344,0.755,0.75V43.919z"
				/>
			<path d="M55.798,42.919c0,1.349,1.108,2.445,2.47,2.445h5.916v-1.49h-5.916c-0.52,0-0.959-0.438-0.959-0.955v-21.48
				c0-0.518,0.439-0.955,0.959-0.955h5.916v-1.49h-5.916c-1.36,0-2.47,1.097-2.47,2.445V42.919z"/>
			<path d="M14.201,21.439c0-1.348-1.108-2.445-2.47-2.445H5.816v1.49h5.915c0.52,0,0.959,0.438,0.959,0.955v21.479
				c0,0.518-0.439,0.955-0.959,0.955H5.816v1.49h5.915c1.361,0,2.469-1.098,2.47-2.445V21.439z"/>
		</g>
		<path d="M46.169,50.215H23.455c-0.689,0-1.25,0.465-1.25,1.035s0.561,1.035,1.25,1.035h22.714c0.688,0,1.25-0.465,1.25-1.035
			S46.857,50.215,46.169,50.215z"/>
		<g>
			<polygon fill="#030303" points="9.625,28.178 5.602,32.2 9.625,36.223 10.602,35.246 7.556,32.2 10.602,29.154 			"/>
			<polygon fill="#030303" points="60.376,28.134 59.398,29.112 62.445,32.16 59.398,35.205 60.376,36.182 64.398,32.16 			"/>
		</g>
		<path d="M59.088,51.285h5.376v-2.07h-5.376c-0.689,0-1.25,0.465-1.25,1.035S58.398,51.285,59.088,51.285z"/>
		<path d="M10.912,49.215H5.536v2.07h5.376c0.689,0,1.25-0.465,1.25-1.035S11.602,49.215,10.912,49.215z"/>
	</g>
</g>
</svg>
