<?xml version="1.0" encoding="utf-8"?>
<!-- Generator: Adobe Illustrator 16.0.0, SVG Export Plug-In . SVG Version: 6.00 Build 0)  -->
<!DOCTYPE svg PUBLIC "-//W3C//DTD SVG 1.1//EN" "http://www.w3.org/Graphics/SVG/1.1/DTD/svg11.dtd">
<svg version="1.1" xmlns="http://www.w3.org/2000/svg" xmlns:xlink="http://www.w3.org/1999/xlink" x="0px" y="0px"
	 width="70px" height="70px" viewBox="0 0 70 70" enable-background="new 0 0 70 70" xml:space="preserve">
<g display="none">
	<path display="inline" fill="none" stroke="#000000" stroke-width="2" stroke-miterlimit="10" d="M23.158,27.263
		c0,0.724-0.593,1.316-1.316,1.316H11.316c-0.724,0-1.316-0.592-1.316-1.316V16.737c0-0.724,0.592-1.316,1.316-1.316h10.526
		c0.724,0,1.316,0.592,1.316,1.316V27.263z"/>
	<g display="inline">
		<rect x="11.275" y="31.367" width="10.606" height="2"/>
	</g>
	<path display="inline" fill="none" stroke="#000000" stroke-width="2" stroke-miterlimit="10" d="M41.579,27.263
		c0,0.724-0.593,1.316-1.315,1.316H29.737c-0.724,0-1.315-0.592-1.315-1.316V16.737c0-0.724,0.592-1.316,1.315-1.316h10.527
		c0.723,0,1.315,0.592,1.315,1.316V27.263L41.579,27.263z"/>
	<g display="inline">
		<rect x="29.696" y="31.367" width="10.606" height="2"/>
	</g>
	<path display="inline" fill="none" stroke="#000000" stroke-width="2" stroke-miterlimit="10" d="M60,27.263
		c0,0.724-0.593,1.316-1.316,1.316H48.157c-0.724,0-1.314-0.592-1.314-1.316V16.737c0-0.724,0.591-1.316,1.314-1.316h10.526
		c0.724,0,1.314,0.592,1.314,1.316L60,27.263L60,27.263z"/>
	<g display="inline">
		<rect x="48.117" y="31.367" width="10.605" height="2"/>
	</g>
	<path display="inline" fill="none" stroke="#000000" stroke-width="2" stroke-miterlimit="10" d="M23.158,49.475
		c0,0.725-0.593,1.314-1.316,1.314H11.316c-0.724,0-1.316-0.592-1.316-1.314V38.947c0-0.723,0.592-1.315,1.316-1.315h10.526
		c0.724,0,1.316,0.593,1.316,1.315V49.475z"/>
	<g display="inline">
		<rect x="11.275" y="53.579" width="10.606" height="2"/>
	</g>
	<path display="inline" fill="none" stroke="#000000" stroke-width="2" stroke-miterlimit="10" d="M41.579,49.475
		c0,0.725-0.593,1.314-1.315,1.314H29.737c-0.724,0-1.315-0.592-1.315-1.314V38.947c0-0.723,0.592-1.315,1.315-1.315h10.527
		c0.723,0,1.315,0.593,1.315,1.315V49.475L41.579,49.475z"/>
	<g display="inline">
		<rect x="29.696" y="53.579" width="10.606" height="2"/>
	</g>
	<path display="inline" fill="none" stroke="#000000" stroke-width="2" stroke-miterlimit="10" d="M60,49.475
		c0,0.725-0.593,1.314-1.316,1.314H48.157c-0.724,0-1.314-0.592-1.314-1.314V38.947c0-0.723,0.591-1.315,1.314-1.315h10.526
		c0.724,0,1.314,0.593,1.314,1.315L60,49.475L60,49.475z"/>
	<g display="inline">
		<rect x="48.117" y="53.579" width="10.605" height="2"/>
	</g>
</g>
<g>
	<path d="M22.738,12.233c0-1.541-1.254-2.795-2.795-2.795H7.897c-1.541,0-2.795,1.254-2.795,2.795v12.048
		c0,1.54,1.254,2.792,2.795,2.792h12.046c1.541,0,2.795-1.252,2.795-2.792V12.233z M20.162,24.399h-0.099v0.1H7.679V12.016h12.483
		V24.399z"/>
	<path d="M43.82,12.233c-0.001-1.541-1.255-2.794-2.795-2.794H28.979c-1.541,0-2.794,1.254-2.794,2.795v12.048
		c0,1.54,1.253,2.792,2.794,2.792h12.046c1.541,0,2.795-1.252,2.795-2.792V12.233z M41.242,24.499H28.761V12.016h12.481V24.499z"/>
	<path d="M64.9,12.233c0-1.541-1.253-2.795-2.793-2.795H50.061c-1.54,0-2.794,1.254-2.794,2.795v12.048
		c0,1.54,1.254,2.792,2.794,2.792h12.047c1.54,0,2.794-1.252,2.794-2.792L64.9,12.233z M62.324,24.499h-12.48V12.016h12.48V24.499z"
		/>
	<path d="M18.843,29.2h-9.85c-0.71,0-1.287,0.578-1.287,1.288c0,0.71,0.577,1.288,1.287,1.288h9.85c0.711,0,1.289-0.578,1.289-1.288
		C20.132,29.778,19.554,29.2,18.843,29.2z"/>
	<path d="M39.926,29.2h-9.85c-0.71,0-1.288,0.578-1.288,1.288c0,0.71,0.578,1.288,1.288,1.288h9.85c0.711,0,1.289-0.578,1.289-1.288
		C41.215,29.778,40.637,29.2,39.926,29.2z"/>
	<path d="M61.007,29.2h-9.851c-0.71,0-1.287,0.578-1.287,1.288c0,0.71,0.577,1.288,1.287,1.288h9.851
		c0.709,0,1.286-0.578,1.286-1.288C62.293,29.778,61.716,29.2,61.007,29.2z"/>
	<path d="M22.736,39.884c0-1.541-1.254-2.796-2.795-2.796H7.895c-1.541,0-2.795,1.255-2.795,2.796V51.93
		c0,1.541,1.254,2.795,2.795,2.795h12.047c0.746,0,1.447-0.291,1.975-0.818c0.529-0.527,0.82-1.229,0.82-1.977L22.736,39.884z
		 M20.161,52.047h-0.099v0.1H7.678v-12.48h12.483V52.047z"/>
	<path d="M18.845,56.984H8.997c-0.71,0-1.288,0.577-1.288,1.287c0,0.712,0.578,1.291,1.288,1.291h9.849
		c0.71,0,1.288-0.579,1.288-1.291C20.133,57.563,19.555,56.984,18.845,56.984z"/>
	<path d="M43.818,39.884c0-1.541-1.254-2.796-2.795-2.796H28.977c-1.541,0-2.794,1.255-2.794,2.796V51.93
		c0,1.541,1.253,2.795,2.794,2.795h12.046c1.541,0,2.796-1.254,2.796-2.795L43.818,39.884z M41.242,52.146H28.76v-12.48h12.482
		V52.146z"/>
	<path d="M39.93,56.984h-9.852c-0.71,0-1.287,0.577-1.287,1.287c0,0.712,0.577,1.291,1.287,1.291h9.852
		c0.711,0,1.289-0.579,1.289-1.291C41.217,57.563,40.639,56.984,39.93,56.984z"/>
	<path d="M64.899,39.884c0-1.541-1.254-2.796-2.794-2.796H50.059c-1.54,0-2.794,1.255-2.794,2.796V51.93
		c0,1.541,1.254,2.795,2.794,2.795h12.047c1.541,0,2.795-1.254,2.795-2.795L64.899,39.884z M62.322,52.047h-0.098v0.1H49.84v-12.48
		h12.482V52.047z"/>
	<path d="M61.009,56.984h-9.848c-0.711,0-1.29,0.577-1.29,1.287c0,0.712,0.579,1.291,1.29,1.291h9.848
		c0.711,0,1.29-0.579,1.29-1.291C62.297,57.563,61.718,56.984,61.009,56.984z"/>
</g>
</svg>
