<?xml version="1.0" encoding="utf-8"?>
<!-- Generator: Adobe Illustrator 16.0.0, SVG Export Plug-In . SVG Version: 6.00 Build 0)  -->
<!DOCTYPE svg PUBLIC "-//W3C//DTD SVG 1.1//EN" "http://www.w3.org/Graphics/SVG/1.1/DTD/svg11.dtd">
<svg version="1.1" xmlns="http://www.w3.org/2000/svg" xmlns:xlink="http://www.w3.org/1999/xlink" x="0px" y="0px" width="70px"
	 height="70px" viewBox="0 0 70 70" enable-background="new 0 0 70 70" xml:space="preserve">
<g display="none">
	<g display="inline">
	</g>
	<g>
		
			<rect x="4.953" y="13.266" display="inline" fill="none" stroke="#000000" stroke-width="3" stroke-miterlimit="10" width="60" height="6.841"/>
		
			<rect x="8.374" y="25.522" display="inline" fill="none" stroke="#000000" stroke-width="3" stroke-miterlimit="10" width="53.159" height="33.35"/>
		
			<line display="inline" fill="none" stroke="#000000" stroke-width="3" stroke-miterlimit="10" x1="25.048" y1="33.932" x2="44.857" y2="33.932"/>
	</g>
	<g display="inline">
		<g>
			<path d="M33.716,35.716H9V11.533h24.716V35.716z M11.566,33.149h19.583V14.1H11.566V33.149z"/>
		</g>
		<g>
			<rect x="16.531" y="17.479" width="9.653" height="2.566"/>
		</g>
		<g>
			<path d="M61,35.716H36.282V11.533H61V35.716z M38.85,33.149h19.584V14.1H38.85V33.149z"/>
		</g>
		<g>
			<rect x="43.814" y="17.479" width="10.651" height="2.566"/>
		</g>
		<g>
			<path d="M33.716,62.467H9V38.283h24.716V62.467z M11.566,59.898h19.583V40.85H11.566V59.898z"/>
		</g>
		<g>
			<rect x="16.531" y="44.229" width="9.653" height="2.566"/>
		</g>
		<g>
			<path d="M61,62.467H36.282V38.283H61V62.467z M38.85,59.898h19.584V40.85H38.85V59.898z"/>
		</g>
		<g>
			<rect x="43.814" y="44.229" width="9.651" height="2.566"/>
		</g>
	</g>
</g>
<g>
	<path fill="#1A1818" d="M8.982,11.533h1.156h22.438h1.156v1.193v4.772v1.193h-1.156v15.832v1.193H31.42H11.295h-1.156v-1.193
		V18.691H8.982v-1.193v-4.772V11.533z M11.295,13.919v2.386H31.42v-2.386H11.295z M12.451,18.691V33.33h17.813V18.691H12.451z"/>
	<path fill="#1A1818" d="M18.744,20.765h0.072c0.047,0,0.096,0,0.145,0h4.938c0.336,0,0.614,0.112,0.831,0.335
		c0.217,0.224,0.325,0.511,0.325,0.858c0,0.348-0.108,0.634-0.325,0.857s-0.495,0.335-0.831,0.335h-4.938c-0.048,0-0.097,0-0.145,0
		c-0.289,0-0.554-0.112-0.795-0.335c-0.242-0.224-0.361-0.509-0.361-0.857c0-0.298,0.108-0.56,0.325-0.783
		S18.455,20.814,18.744,20.765z"/>
	<path fill="#1A1818" d="M36.732,11.533h1.156h22.438h1.156v1.193v4.772v1.193h-1.156v15.832v1.193H59.17H39.045h-1.156v-1.193
		V18.691h-1.156v-1.193v-4.772V11.533z M39.045,13.919v2.386H59.17v-2.386H39.045z M40.201,18.691V33.33h17.813V18.691H40.201z"/>
	<path fill="#1A1818" d="M46.494,20.765h0.072c0.047,0,0.096,0,0.145,0h4.938c0.336,0,0.614,0.112,0.831,0.335
		c0.217,0.224,0.325,0.511,0.325,0.858c0,0.348-0.108,0.634-0.325,0.857s-0.495,0.335-0.831,0.335h-4.938c-0.049,0-0.098,0-0.145,0
		c-0.289,0-0.555-0.112-0.795-0.335c-0.242-0.224-0.361-0.509-0.361-0.857c0-0.298,0.108-0.56,0.325-0.783
		S46.205,20.814,46.494,20.765z"/>
	<path fill="#1A1818" d="M8.982,38.716h1.156h22.438h1.156v1.192v4.772v1.193h-1.156v15.831v1.193H31.42H11.295h-1.156v-1.193
		V45.874H8.982v-1.193v-4.772V38.716z M11.295,41.102v2.387H31.42v-2.387H11.295z M12.451,45.874v14.638h17.813V45.874H12.451z"/>
	<path fill="#1A1818" d="M18.744,47.947h0.072c0.047,0,0.096,0,0.145,0h4.938c0.336,0,0.614,0.111,0.831,0.336
		c0.217,0.224,0.325,0.51,0.325,0.857s-0.108,0.634-0.325,0.857s-0.495,0.336-0.831,0.336h-4.938c-0.048,0-0.097,0-0.145,0
		c-0.289,0-0.554-0.112-0.795-0.336c-0.242-0.224-0.361-0.51-0.361-0.857c0-0.299,0.108-0.56,0.325-0.783
		S18.455,47.997,18.744,47.947z"/>
	<path fill="#1A1818" d="M36.732,38.716h1.156h22.438h1.156v1.192v4.772v1.193h-1.156v15.831v1.193H59.17H39.045h-1.156v-1.193
		V45.874h-1.156v-1.193v-4.772V38.716z M39.045,41.102v2.387H59.17v-2.387H39.045z M40.201,45.874v14.638h17.813V45.874H40.201z"/>
	<path fill="#1A1818" d="M46.494,47.947h0.072c0.047,0,0.096,0,0.145,0h4.938c0.336,0,0.614,0.111,0.831,0.336
		c0.217,0.224,0.325,0.51,0.325,0.857s-0.108,0.634-0.325,0.857s-0.495,0.336-0.831,0.336h-4.938c-0.049,0-0.098,0-0.145,0
		c-0.289,0-0.555-0.112-0.795-0.336c-0.242-0.224-0.361-0.51-0.361-0.857c0-0.299,0.108-0.56,0.325-0.783
		S46.205,47.997,46.494,47.947z"/>
</g>
</svg>
