<?xml version="1.0" encoding="utf-8"?>
<!-- Generator: Adobe Illustrator 16.0.0, SVG Export Plug-In . SVG Version: 6.00 Build 0)  -->
<!DOCTYPE svg PUBLIC "-//W3C//DTD SVG 1.1//EN" "http://www.w3.org/Graphics/SVG/1.1/DTD/svg11.dtd">
<svg version="1.1" xmlns="http://www.w3.org/2000/svg" xmlns:xlink="http://www.w3.org/1999/xlink" x="0px" y="0px" width="70px"
	 height="70px" viewBox="0 0 70 70" enable-background="new 0 0 70 70" xml:space="preserve">
<g display="none">
	
		<image display="inline" overflow="visible" opacity="0.3" width="419" height="125" xlink:href="BEF9D852.jpg"  transform="matrix(1.202665e-004 -0.1519 0.1519 1.202665e-004 24.8472 67.8623)">
	</image>
	<line display="inline" fill="none" x1="23.56" y1="53.95" x2="23.127" y2="29.034"/>
</g>
<g display="none">
	<path fill="none" stroke="#000000" stroke-width="0.5" stroke-miterlimit="10" d="M42.188,26.563c0,0-2.832-2.307-4.047-3.234
		c-0.54-0.412-1.347-1.016-2.328-1.016c-1.147,0-2.723,1.372-3.094,1.656c-0.877,0.673-3.281,2.594-3.281,2.594V48.75h12.75V26.563z
		"/>
	<circle fill="none" stroke="#000000" stroke-width="0.5" stroke-miterlimit="10" cx="35.852" cy="24.695" r="0.852"/>
	
		<image overflow="visible" opacity="0.4" width="70" height="62" xlink:href="BEF9D856.jpg"  transform="matrix(0.6304 0 0 0.6304 12.3003 13.75)">
	</image>
	<path display="inline" fill="none" stroke="#000000" stroke-miterlimit="10" d="M48.275,22.453v12.048
		c0,0.874-0.203,1.347-0.603,1.807L29.282,54.698c-1.972,2.116-3.614,0-3.614,0l-11.36-11.359c-1.373-1.774,0-3.356,0-3.356
		l18.821-18.821c0.269-0.31,1.059-0.602,1.871-0.602h11.382"/>
	<line display="inline" fill="none" stroke="#000000" stroke-miterlimit="10" x1="44.859" y1="24.31" x2="51.6" y2="17.569"/>
	<circle display="inline" fill="none" stroke="#000000" stroke-miterlimit="10" cx="43.563" cy="25.625" r="2.063"/>
	
		<text transform="matrix(0.7303 -0.7497 0.7164 0.6977 25.1494 48.1016)" display="inline" font-family="'LucidaHandwriting-Italic'" font-size="8.9855">Sale</text>
</g>
<g>
	<g>
		<path d="M24.117,43.908l-0.882,0.067c-0.848,0.067-1.419,0.097-1.625,0.068c-0.066-0.01-0.21-0.057-0.434-0.274
			c-0.271-0.264-0.386-0.572-0.362-0.973c0.025-0.421,0.2-0.794,0.536-1.14c0.546-0.56,1.125-0.732,1.811-0.535l0.752,0.214
			l-0.133-0.771c-0.096-0.555-0.277-0.956-0.554-1.226c-0.337-0.328-0.818-0.398-1.397-0.187c-0.459,0.172-0.914,0.493-1.39,0.983
			c-0.87,0.892-1.365,1.872-1.474,2.912c-0.112,1.086,0.214,2.009,0.968,2.744c0.658,0.64,1.746,0.904,3.28,0.796l1.076-0.078
			c0.299-0.021,0.575-0.032,0.828-0.032c1.171,0,1.534,0.23,1.635,0.329c0.267,0.26,0.371,0.62,0.317,1.102
			c-0.059,0.53-0.284,0.989-0.687,1.403c-0.451,0.462-0.906,0.691-1.422,0.699c-0.476,0-0.924-0.211-1.368-0.645l-0.686-0.668
			l-0.145,0.947c-0.15,0.979-0.027,1.647,0.376,2.041c0.403,0.392,0.898,0.589,1.473,0.589c0.177,0,0.362-0.018,0.556-0.058
			c0.746-0.148,1.455-0.564,2.109-1.234c0.947-0.972,1.487-2.051,1.606-3.206c0.122-1.198-0.232-2.212-1.054-3.011
			C27.104,44.062,25.915,43.784,24.117,43.908z"/>
		<path d="M47.382,20.541l-0.144-0.485l-1.581,0.512l0.099,0.438c0.396,1.758,0.5,3.417,0.308,4.933
			c-0.185,1.462-0.61,2.545-1.267,3.218c-0.559,0.576-1.06,0.624-1.685,0.174c0.819-0.949,1.364-2.001,1.621-3.135
			c0.313-1.381,0.104-2.441-0.626-3.15c-0.472-0.461-1.031-0.663-1.677-0.581c-0.594,0.074-1.159,0.381-1.679,0.915
			c-1.006,1.033-1.492,2.303-1.445,3.775c0.032,1.008,0.327,1.916,0.845,2.726c0.187,1.007,0.293,1.765,0.314,2.25
			c0.033,0.725-0.107,1.253-0.416,1.571c-0.137,0.139-0.223,0.139-0.251,0.139c-0.078,0-0.253-0.042-0.542-0.324
			c-0.123-0.121-0.38-0.423-0.9-1.182l-5.519-8.077l-0.235,1.133c-0.115,0.553-0.392,1.048-0.846,1.515
			c-0.457,0.469-0.971,0.795-1.527,0.969L29.44,28.12l0.707,0.689c0.809,0.787,1.809,0.731,2.763-0.2l2.583,3.828
			c0.2,1.181,0.292,2.278,0.264,3.262c-0.042,1.462-0.311,1.951-0.529,2.143c-0.046,0-0.306-0.027-0.869-0.576
			c-0.61-0.595-1.1-1.167-1.457-1.702l-0.341-0.507c-0.366-0.542-0.594-1.03-0.678-1.448l-0.177-0.881l-0.863,0.836
			c-0.573,0.588-0.856,1.126-0.848,1.606c-0.792,0.318-1.438,0.731-1.924,1.23c-0.957,0.98-1.357,2.283-1.192,3.874
			c0.162,1.556,0.817,2.902,1.948,4.003c0.599,0.583,1.224,0.931,1.856,1.032c0.126,0.021,0.249,0.029,0.368,0.029
			c0.544,0,1.019-0.202,1.41-0.604c0.573-0.587,0.862-1.559,0.884-2.967c0.011-0.733-0.054-1.478-0.194-2.228
			c1.299,1.137,2.456,1.223,3.314,0.339c0.678-0.696,1.047-1.859,1.128-3.557c0.016-0.319,0.011-0.646,0.003-0.974
			c0.018,0.019,0.038,0.042,0.056,0.059c0.572,0.558,1.2,0.866,1.865,0.918c0.064,0.006,0.128,0.008,0.19,0.008
			c0.623,0,1.17-0.238,1.626-0.707c0.652-0.67,0.951-1.782,0.913-3.4c-0.003-0.142-0.022-0.299-0.03-0.446
			c0.399,0.179,0.812,0.277,1.234,0.284l0.05,0c0.864,0,1.656-0.363,2.354-1.079c1.031-1.059,1.696-2.601,1.979-4.583
			C48.106,24.456,47.956,22.483,47.382,20.541z M30.836,37.089c0.995,4.789,0.53,5.435,0.474,5.492
			c-0.121,0.124-0.209,0.138-0.265,0.138c-0.104,0-0.339-0.058-0.734-0.441c-0.774-0.755-1.276-1.589-1.491-2.479
			c-0.199-0.818-0.104-1.413,0.291-1.818C29.45,37.632,30.029,37.333,30.836,37.089z M42.062,24.538c0.072,0,0.181,0.066,0.297,0.18
			c0.359,0.35,0.477,0.869,0.356,1.587c-0.1,0.597-0.342,1.176-0.724,1.725c-0.323-0.543-0.519-1.115-0.583-1.705
			c-0.078-0.734,0.059-1.271,0.42-1.641C41.881,24.628,41.98,24.538,42.062,24.538z M43.497,31.568L43.497,31.568v0.004V31.568z"/>
	</g>
	<g>
		<path d="M61.672,14.785c0-0.816-0.661-1.477-1.478-1.477c-0.815,0-1.477,0.661-1.477,1.477c0,0.151,0.029,0.293,0.071,0.43v15.506
			c0,1.056-0.223,1.425-0.541,1.798L29.711,61.056c-0.629,0.676-1.239,0.978-1.781,0.989c-0.728-0.026-1.393-0.657-1.58-0.889
			L8.672,43.463c-1.173-1.588-0.268-2.931-0.022-3.24l29.2-29.205c0.154-0.134,0.897-0.454,1.815-0.454h15.889v-0.016
			c0.741-0.079,1.321-0.699,1.321-1.461c0-0.762-0.58-1.382-1.321-1.461V7.61H39.665c-1.599,0-3.219,0.571-3.976,1.394L6.512,38.184
			L6.44,38.26c-1.011,1.165-2.323,4.145-0.053,7.079l17.698,17.715c0.338,0.403,1.684,1.851,3.698,1.941
			C27.845,64.998,27.908,65,27.973,65c1.001,0,2.434-0.356,3.864-1.894l28.539-28.537l0.071-0.076
			c0.921-1.061,1.297-2.154,1.297-3.772V14.906h-0.084C61.663,14.866,61.672,14.827,61.672,14.785z"/>
		<path d="M64.866,6.477C64.866,5.661,64.204,5,63.389,5c-0.423,0-0.802,0.179-1.069,0.463l-7.306,7.307
			c-0.624-0.31-1.318-0.5-2.061-0.5c-2.58,0-4.679,2.098-4.679,4.677s2.099,4.677,4.679,4.677c2.578,0,4.677-2.098,4.677-4.677
			c0-0.758-0.198-1.464-0.52-2.098l7.328-7.329l-0.003-0.003C64.702,7.251,64.866,6.883,64.866,6.477z M52.953,18.671
			c-0.951,0-1.725-0.773-1.725-1.724s0.773-1.724,1.725-1.724c0.949,0,1.723,0.773,1.723,1.724S53.902,18.671,52.953,18.671z"/>
	</g>
</g>
</svg>
