<?xml version="1.0" encoding="utf-8"?>
<!-- Generator: Adobe Illustrator 16.0.0, SVG Export Plug-In . SVG Version: 6.00 Build 0)  -->
<!DOCTYPE svg PUBLIC "-//W3C//DTD SVG 1.1//EN" "http://www.w3.org/Graphics/SVG/1.1/DTD/svg11.dtd">
<svg version="1.1" xmlns="http://www.w3.org/2000/svg" xmlns:xlink="http://www.w3.org/1999/xlink" x="0px" y="0px" width="70px"
	 height="70px" viewBox="0 0 70 70" enable-background="new 0 0 70 70" xml:space="preserve">
<g display="none">
	<path display="inline" d="M15.717,17.01v35.979h38.565V17.01H15.717z M51.879,50.587H18.12V19.413h33.759V50.587z"/>
	<rect x="27.358" y="25.589" display="inline" width="15.283" height="2.403"/>
	<polygon display="inline" points="64.75,21.251 64.75,18.849 57.366,18.849 57.366,51.15 64.75,51.15 64.75,48.748 59.77,48.748 
		59.77,21.251 	"/>
	<polygon display="inline" points="5.25,48.748 5.25,51.15 12.633,51.15 12.633,18.849 5.25,18.849 5.25,21.251 10.23,21.251 
		10.23,48.748 	"/>
</g>
<g>
	<path fill="#1A1818" d="M15.717,17.01h1.156h35.438h1.156v1.193v4.772v1.193h-1.156V52v1.192h-1.156H18.029h-1.156V52V24.168
		h-1.156v-1.193v-4.772V17.01z M18.029,19.396v2.386h33.125v-2.386H18.029z M19.186,24.168v26.639h30.813V24.168H19.186z"/>
	<path fill="#1A1818" d="M29.479,28.241h0.072c0.047,0,0.096,0,0.145,0h10.938c0.336,0,0.614,0.112,0.831,0.335
		c0.217,0.225,0.325,0.512,0.325,0.858c0,0.349-0.108,0.634-0.325,0.857s-0.495,0.335-0.831,0.335H29.695c-0.049,0-0.098,0-0.145,0
		c-0.289,0-0.555-0.111-0.795-0.335c-0.242-0.224-0.361-0.509-0.361-0.857c0-0.298,0.108-0.56,0.325-0.783
		S29.189,28.291,29.479,28.241z"/>
	<polygon fill="#1A1818" points="64.75,48.807 59.936,48.807 59.936,26.168 64.75,26.168 64.75,23.782 58.779,23.782 58.779,21.396 
		64.75,21.396 64.75,19.01 57.623,19.01 56.467,19.01 56.467,20.203 56.467,24.975 56.467,26.168 57.623,26.168 57.623,50 
		57.623,51.192 58.779,51.192 64.75,51.192 	"/>
	<polygon fill="#1A1818" points="4.35,48.807 9.164,48.807 9.164,26.168 4.35,26.168 4.35,23.782 10.32,23.782 10.32,21.396 
		4.35,21.396 4.35,19.01 11.477,19.01 12.633,19.01 12.633,20.203 12.633,24.975 12.633,26.168 11.477,26.168 11.477,50 
		11.477,51.192 10.32,51.192 4.35,51.192 	"/>
</g>
</svg>
