<?xml version="1.0" encoding="utf-8"?>
<!-- Generator: Adobe Illustrator 16.0.0, SVG Export Plug-In . SVG Version: 6.00 Build 0)  -->
<!DOCTYPE svg PUBLIC "-//W3C//DTD SVG 1.1//EN" "http://www.w3.org/Graphics/SVG/1.1/DTD/svg11.dtd">
<svg version="1.1" xmlns="http://www.w3.org/2000/svg" xmlns:xlink="http://www.w3.org/1999/xlink" x="0px" y="0px" width="70px"
	 height="70px" viewBox="0 0 70 70" enable-background="new 0 0 70 70" xml:space="preserve">
<g display="none" opacity="0.3">
	<g>
		<path display="inline" d="M33.716,37.717H5V11.533h28.716V37.717z M7.566,35.149h23.583V14.1H7.566V35.149z"/>
	</g>
	<g>
		<rect x="13.531" y="17.479" display="inline" width="11.653" height="2.566"/>
	</g>
	<g>
		<path display="inline" d="M65,29.716H36.282V11.533H65V29.716z M38.85,27.149h23.584V14.1H38.85V27.149z"/>
	</g>
	<g>
		<rect x="44.814" y="17.479" display="inline" width="11.651" height="2.566"/>
	</g>
	<g>
		<path display="inline" d="M33.716,58.467H5V40.283h28.716V58.467z M7.566,55.898h23.583V42.85H7.566V55.898z"/>
	</g>
	<g>
		<rect x="13.531" y="46.229" display="inline" width="11.653" height="2.566"/>
	</g>
	<g>
		<path display="inline" d="M65,58.467H36.282V32.283H65V58.467z M38.85,55.898h23.584V34.85H38.85V55.898z"/>
	</g>
	<g>
		<rect x="44.814" y="38.229" display="inline" width="11.651" height="2.566"/>
	</g>
	<g display="inline">
		<g>
			<path d="M33.716,37.716H9V9.533h24.716V37.716z M11.566,35.149h19.583V12.1H11.566V35.149z"/>
		</g>
		<g>
			<rect x="16.531" y="15.479" width="9.653" height="2.566"/>
		</g>
		<g>
			<path d="M61,29.716H36.282V9.533H61V29.716z M38.85,27.149h19.584V12.1H38.85V27.149z"/>
		</g>
		<g>
			<rect x="43.814" y="15.479" width="10.651" height="2.566"/>
		</g>
		<g>
			<path d="M33.716,60.467H9V40.283h24.716V60.467z M11.566,57.898h19.583V42.85H11.566V57.898z"/>
		</g>
		<g>
			<rect x="16.531" y="46.229" width="9.653" height="2.566"/>
		</g>
		<g>
			<path d="M61,60.467H36.282V32.283H61V60.467z M38.85,57.898h19.584V34.85H38.85V57.898z"/>
		</g>
		<g>
			<rect x="43.814" y="38.229" width="9.651" height="2.566"/>
		</g>
	</g>
</g>
<g>
	<path fill="#1A1818" d="M8.982,9.533h1.156h22.438h1.156v1.193v4.772v1.193h-1.156v18.832v1.192H31.42H11.295h-1.156v-1.192V16.691
		H8.982v-1.193v-4.772V9.533z M11.295,11.919v2.386H31.42v-2.386H11.295z M12.451,16.691V34.33h17.813V16.691H12.451z"/>
	<path fill="#1A1818" d="M18.744,18.765h0.072c0.047,0,0.096,0,0.145,0h4.938c0.336,0,0.614,0.112,0.831,0.335
		c0.217,0.224,0.325,0.511,0.325,0.858c0,0.348-0.108,0.634-0.325,0.857s-0.495,0.335-0.831,0.335h-4.938c-0.048,0-0.097,0-0.145,0
		c-0.289,0-0.554-0.112-0.795-0.335c-0.242-0.224-0.361-0.509-0.361-0.857c0-0.298,0.108-0.56,0.325-0.783
		S18.455,18.814,18.744,18.765z"/>
	<path fill="#1A1818" d="M36.732,9.533h1.156h22.438h1.156v1.193v4.772v1.193h-1.156v12.832v1.193H59.17H39.045h-1.156v-1.193
		V16.691h-1.156v-1.193v-4.772V9.533z M39.045,11.919v2.386H59.17v-2.386H39.045z M40.201,16.691V28.33h17.813V16.691H40.201z"/>
	<path fill="#1A1818" d="M46.494,18.765h0.072c0.047,0,0.096,0,0.145,0h4.938c0.336,0,0.614,0.112,0.831,0.335
		c0.217,0.224,0.325,0.511,0.325,0.858c0,0.348-0.108,0.634-0.325,0.857s-0.495,0.335-0.831,0.335h-4.938c-0.049,0-0.098,0-0.145,0
		c-0.289,0-0.555-0.112-0.795-0.335c-0.242-0.224-0.361-0.509-0.361-0.857c0-0.298,0.108-0.56,0.325-0.783
		S46.205,18.814,46.494,18.765z"/>
	<path fill="#1A1818" d="M8.982,39.716h1.156h22.438h1.156v1.192v4.772v1.193h-1.156v12.831v1.193H31.42H11.295h-1.156v-1.193
		V46.874H8.982v-1.193v-4.772V39.716z M11.295,42.102v2.387H31.42v-2.387H11.295z M12.451,46.874v11.638h17.813V46.874H12.451z"/>
	<path fill="#1A1818" d="M18.744,48.947h0.072c0.047,0,0.096,0,0.145,0h4.938c0.336,0,0.614,0.111,0.831,0.336
		c0.217,0.224,0.325,0.51,0.325,0.857s-0.108,0.634-0.325,0.857s-0.495,0.336-0.831,0.336h-4.938c-0.048,0-0.097,0-0.145,0
		c-0.289,0-0.554-0.112-0.795-0.336c-0.242-0.224-0.361-0.51-0.361-0.857c0-0.299,0.108-0.56,0.325-0.783
		S18.455,48.997,18.744,48.947z"/>
	<path fill="#1A1818" d="M36.732,33.716h1.156h22.438h1.156v1.192v4.772v1.193h-1.156v18.831v1.193H59.17H39.045h-1.156v-1.193
		V40.874h-1.156v-1.193v-4.772V33.716z M39.045,36.102v2.387H59.17v-2.387H39.045z M40.201,40.874v17.638h17.813V40.874H40.201z"/>
	<path fill="#1A1818" d="M46.494,42.947h0.072c0.047,0,0.096,0,0.145,0h4.938c0.336,0,0.614,0.111,0.831,0.336
		c0.217,0.224,0.325,0.51,0.325,0.857s-0.108,0.634-0.325,0.857s-0.495,0.336-0.831,0.336h-4.938c-0.049,0-0.098,0-0.145,0
		c-0.289,0-0.555-0.112-0.795-0.336c-0.242-0.224-0.361-0.51-0.361-0.857c0-0.299,0.108-0.56,0.325-0.783
		S46.205,42.997,46.494,42.947z"/>
</g>
</svg>
