<?xml version="1.0" encoding="utf-8"?>
<!-- Generator: Adobe Illustrator 16.0.0, SVG Export Plug-In . SVG Version: 6.00 Build 0)  -->
<!DOCTYPE svg PUBLIC "-//W3C//DTD SVG 1.1//EN" "http://www.w3.org/Graphics/SVG/1.1/DTD/svg11.dtd">
<svg version="1.1" xmlns="http://www.w3.org/2000/svg" xmlns:xlink="http://www.w3.org/1999/xlink" x="0px" y="0px" width="70px"
	 height="70px" viewBox="0 0 70 70" enable-background="new 0 0 70 70" xml:space="preserve">
<g display="none">
	
		<image display="inline" overflow="visible" width="42" height="42" xlink:href="BD87742A.jpg"  transform="matrix(0.9999 0 0 0.9999 12.8374 14.0029)">
	</image>
</g>
<g>
	<path d="M59.729,5H8.301C5.938,5,4.016,6.922,4.016,9.286v51.429c0,2.363,1.922,4.286,4.286,4.286h51.428
		c2.363,0,4.286-1.923,4.286-4.286V9.286C64.016,6.922,62.093,5,59.729,5z M59.729,62.144H8.301c-0.788,0-1.429-0.641-1.429-1.429
		V9.286c0-0.788,0.641-1.429,1.429-1.429h51.428c0.788,0,1.429,0.641,1.429,1.429v51.429C61.158,61.503,60.518,62.144,59.729,62.144
		z"/>
	<g>
		<path d="M48.984,30.799h-1.478c-0.545-7.25-3.892-13.926-10.844-13.926H26.379c-5.728,0-10.389,4.295-10.389,9.575v17.513
			c0,5.055,3.519,9.167,7.844,9.167h19.04c5.056,0,9.167-4.523,9.167-10.082v-9.086C52.041,32.217,50.669,30.799,48.984,30.799z
			 M49.184,43.046c0,3.983-2.83,7.225-6.31,7.225h-19.04c-2.75,0-4.987-2.83-4.987-6.31V26.448c0-3.704,3.379-6.717,7.532-6.717
			h10.284c5.133-0.178,8.041,6.154,8.041,12.497v1.429h4.28c0.094,0,0.199,0.129,0.199,0.303V43.046z"/>
		<path d="M28.51,33.539h5.583c1.962,0,3.56-1.496,3.56-3.333v-0.609c0-1.837-1.598-3.333-3.56-3.333H28.51
			c-1.962,0-3.56,1.496-3.56,3.333v0.609C24.95,32.043,26.547,33.539,28.51,33.539z M28.001,29.596c0-0.258,0.233-0.476,0.509-0.476
			h5.583c0.276,0,0.508,0.218,0.508,0.476v0.609c0,0.258-0.232,0.476-0.508,0.476H28.51c-0.276,0-0.509-0.218-0.509-0.476V29.596z"
			/>
		<path d="M39.532,37.892h-11.21c-1.838,0-3.333,1.495-3.333,3.333v0.62c0,1.837,1.496,3.333,3.333,3.333h11.21
			c1.837,0,3.333-1.496,3.333-3.333v-0.62C42.865,39.387,41.369,37.892,39.532,37.892z M40.008,41.845
			c0,0.258-0.218,0.476-0.476,0.476h-11.21c-0.258,0-0.476-0.218-0.476-0.476v-0.62c0-0.258,0.218-0.476,0.476-0.476h11.21
			c0.258,0,0.476,0.218,0.476,0.476V41.845z"/>
	</g>
</g>
</svg>
