<?xml version="1.0" encoding="utf-8"?>
<!-- Generator: Adobe Illustrator 16.0.0, SVG Export Plug-In . SVG Version: 6.00 Build 0)  -->
<!DOCTYPE svg PUBLIC "-//W3C//DTD SVG 1.1//EN" "http://www.w3.org/Graphics/SVG/1.1/DTD/svg11.dtd">
<svg version="1.1" xmlns="http://www.w3.org/2000/svg" xmlns:xlink="http://www.w3.org/1999/xlink" x="0px" y="0px"
	 width="70px" height="70px" viewBox="0 0 70 70" enable-background="new 0 0 70 70" xml:space="preserve">
<g>
	<path fill="#030303" d="M62.795,7.999H9.462c-1.838,0-3.334,1.485-3.334,3.31v35.493c0,1.825,1.496,3.31,3.334,3.31h31.029
		l-0.56-2.836H9.462c-0.258,0-0.477-0.215-0.477-0.474V11.309c0-0.257,0.219-0.473,0.477-0.473h53.333
		c0.26,0,0.477,0.217,0.477,0.473v35.492c0,0.258-0.217,0.473-0.477,0.473h-0.277l-0.619,2.838h0.896
		c1.838,0,3.334-1.484,3.334-3.31V11.309C66.129,9.484,64.633,7.999,62.795,7.999z"/>
	<path fill="#030303" d="M59.309,43.943H43.193l-0.101-0.481c-0.147-0.971-0.839-1.551-1.845-1.551H37.35
		c-0.002,0-0.004-0.002-0.009-0.002c-0.526,0-0.954,0.425-0.954,0.946s0.428,0.947,0.954,0.947c0.005,0,0.007-0.002,0.009-0.002
		l3.873,0.006l2.78,13.461c0.202,0.793,0.631,1.232,1.276,1.371c-1.104,0.362-1.908,1.389-1.908,2.604
		c0,1.521,1.244,2.756,2.775,2.756c1.528,0,2.773-1.235,2.773-2.756c0-1.142-0.705-2.124-1.705-2.541h8.764
		c-0.998,0.417-1.703,1.399-1.703,2.541c0,1.521,1.244,2.756,2.773,2.756s2.774-1.235,2.774-2.756c0-1.142-0.704-2.124-1.704-2.541
		h0.384c0.007,0,0.013,0.004,0.021,0.004c0.524,0,0.953-0.425,0.953-0.946c0-0.52-0.422-0.938-0.94-0.945v-0.004H45.854
		l-0.229-1.104h11.48c0.549-0.001,1.568-0.001,1.895-1.488l1.827-8.36c0.133-0.459,0.053-0.93-0.222-1.293
		C60.311,44.175,59.826,43.943,59.309,43.943z M57.052,60.379c0.479,0,0.87,0.389,0.87,0.864s-0.391,0.862-0.87,0.862
		c-0.479,0-0.87-0.387-0.87-0.862S56.572,60.379,57.052,60.379z M46.148,60.379c0.479,0,0.869,0.389,0.869,0.864
		s-0.392,0.862-0.869,0.862c-0.479,0-0.871-0.387-0.871-0.862S45.669,60.379,46.148,60.379z M57.139,53.813
		c-0.011,0-0.021,0-0.033,0H45.232l-1.647-7.979h15.3L57.139,53.813z"/>
</g>
<g>
	<g>
		<g>
			<path fill="#030303" d="M19.452,26.147v-1.34h3.033v11.443h-1.484V26.147H19.452z"/>
		</g>
		<g>
			<path fill="#030303" d="M28.038,32.377c0.775-0.699,1.428-1.428,1.961-2.187s0.8-1.498,0.8-2.22c0-0.667-0.173-1.202-0.517-1.606
				c-0.345-0.403-0.889-0.605-1.631-0.605c-0.732,0-1.299,0.229-1.702,0.686c-0.404,0.457-0.621,1.068-0.655,1.832h-1.42
				c0.043-1.205,0.409-2.136,1.098-2.792c0.688-0.656,1.576-0.984,2.664-0.984c1.107,0,1.987,0.304,2.639,0.912
				c0.65,0.607,0.977,1.439,0.977,2.493c0,0.861-0.267,1.711-0.8,2.55c-0.532,0.84-1.138,1.574-1.814,2.203
				c-0.679,0.63-1.545,1.376-2.6,2.235h5.552v1.228h-7.764v-1.051C26.192,33.976,27.264,33.077,28.038,32.377z"/>
		</g>
		<g>
			<path fill="#030303" d="M35.397,25.195c0.688-0.56,1.581-0.84,2.68-0.84c0.731,0,1.364,0.131,1.896,0.396
				s0.937,0.621,1.211,1.073s0.411,0.963,0.411,1.534c0,0.667-0.191,1.242-0.573,1.728c-0.382,0.483-0.878,0.796-1.492,0.937v0.081
				c0.699,0.171,1.253,0.511,1.661,1.016c0.409,0.505,0.614,1.168,0.614,1.986c0,0.612-0.141,1.164-0.42,1.654
				c-0.279,0.49-0.699,0.875-1.259,1.155c-0.56,0.278-1.232,0.418-2.019,0.418c-1.141,0-2.076-0.299-2.809-0.896
				c-0.732-0.598-1.14-1.445-1.227-2.542h1.42c0.075,0.646,0.339,1.173,0.791,1.582s1.055,0.613,1.808,0.613
				c0.754,0,1.327-0.197,1.72-0.589c0.393-0.393,0.589-0.901,0.589-1.525c0-0.808-0.269-1.388-0.807-1.743
				c-0.538-0.356-1.351-0.534-2.438-0.534h-0.369v-1.226h0.387c0.989-0.011,1.737-0.174,2.243-0.492
				c0.507-0.317,0.759-0.809,0.759-1.477c0-0.57-0.187-1.027-0.557-1.371c-0.372-0.345-0.902-0.517-1.59-0.517
				c-0.668,0-1.206,0.172-1.615,0.517c-0.407,0.344-0.65,0.806-0.726,1.387h-1.437C34.327,26.53,34.709,25.754,35.397,25.195z"/>
		</g>
	</g>
	<g>
		<polygon fill="#030303" points="51.604,22.832 47.249,18.118 43.529,22.787 42.248,21.767 47.157,15.605 52.806,21.722 		"/>
	</g>
	<g>
		<rect x="46.384" y="17.681" fill="#030303" width="1.638" height="21.834"/>
	</g>
</g>
</svg>
