<?xml version="1.0" encoding="utf-8"?>
<!-- Generator: Adobe Illustrator 16.0.0, SVG Export Plug-In . SVG Version: 6.00 Build 0)  -->
<!DOCTYPE svg PUBLIC "-//W3C//DTD SVG 1.1//EN" "http://www.w3.org/Graphics/SVG/1.1/DTD/svg11.dtd">
<svg version="1.1" xmlns="http://www.w3.org/2000/svg" xmlns:xlink="http://www.w3.org/1999/xlink" x="0px" y="0px"
	 width="70px" height="70px" viewBox="0 0 70 70" enable-background="new 0 0 70 70" xml:space="preserve">
<g display="none">
	
		<image display="inline" overflow="visible" enable-background="new    " width="57" height="45" xlink:href="EC042F20.jpg"  transform="matrix(-4.370701e-008 -0.9999 -0.9999 4.370701e-008 55.4287 62.8262)">
	</image>
	<path display="inline" fill="none" stroke="#000000" stroke-width="3" stroke-miterlimit="10" d="M46.331,5.937v54.551
		c0,1.506-1.363,2.724-3.048,2.724H14.678c-1.686,0-3.05-1.218-3.05-2.724V5.937c0-1.506,1.364-2.724,3.049-2.724h28.605
		C44.968,3.213,46.331,4.431,46.331,5.937z"/>
	<path display="inline" fill="none" stroke="#000000" stroke-width="3" stroke-miterlimit="10" d="M46.331,6.222h2.917
		c1.686,0,3.049,1.137,3.049,2.542v26.763c0,0.976,0.354,1.548,1.047,1.766l3.779,1.486c0.874,0.437,1.249,1.019,1.249,2.277v18.539
		c0,1.678-1.213,2.605-2.713,2.605h-9.806"/>
	<g display="inline">
		<g>
			<g>
				<path fill="none" stroke="#000000" stroke-width="2" stroke-miterlimit="10" d="M19.479,30.298c0,0.55,0.45,1,1,1h6
					c0.55,0,1-0.45,1-1v-6c0-0.55-0.45-1-1-1h-6c-0.55,0-1,0.45-1,1V30.298z"/>
			</g>
			<g>
				<path fill="none" stroke="#000000" stroke-width="2" stroke-miterlimit="10" d="M32,23.298c-0.55,0-1,0.45-1,1v6
					c0,0.55,0.45,1,1,1h6c0.55,0,1-0.45,1-1v-6c0-0.55-0.45-1-1-1H32z"/>
			</g>
			<g>
				<path fill="none" stroke="#000000" stroke-width="2" stroke-miterlimit="10" d="M19.479,42.127c0,0.55,0.45,1,1,1h6
					c0.55,0,1-0.45,1-1v-6c0-0.55-0.45-1-1-1h-6c-0.55,0-1,0.45-1,1V42.127z"/>
			</g>
			<g>
				<path fill="none" stroke="#000000" stroke-width="2" stroke-miterlimit="10" d="M31,42.127c0,0.55,0.45,1,1,1h6
					c0.55,0,1-0.45,1-1v-6c0-0.55-0.45-1-1-1h-6c-0.55,0-1,0.45-1,1V42.127z"/>
			</g>
		</g>
	</g>
	<path display="inline" fill="#030303" d="M45.449,31.286H29.334l-0.101-0.481c-0.147-0.971-0.839-1.551-1.845-1.551H23.49
		c-0.002,0-0.004-0.002-0.009-0.002c-0.526,0-0.954,0.425-0.954,0.946c0,0.521,0.427,0.947,0.954,0.947
		c0.005,0,0.007-0.002,0.009-0.002l3.873,0.006l2.78,13.46c0.202,0.793,0.631,1.229,1.276,1.371
		c-1.104,0.36-1.908,1.389-1.908,2.604c0,1.521,1.244,2.756,2.775,2.756c1.528,0,2.773-1.234,2.773-2.756
		c0-1.145-0.705-2.125-1.705-2.541h8.764c-0.998,0.416-1.703,1.396-1.703,2.541c0,1.521,1.244,2.756,2.772,2.756
		c1.527,0,2.772-1.234,2.772-2.756c0-1.145-0.704-2.125-1.704-2.541h0.387c0.006,0,0.012,0.004,0.021,0.004
		c0.524,0,0.953-0.426,0.953-0.945c0-0.521-0.423-0.938-0.94-0.944v-0.005H31.994l-0.229-1.104h11.48
		c0.549-0.002,1.567-0.002,1.896-1.486l1.826-8.36c0.133-0.459,0.053-0.93-0.222-1.293C46.451,31.517,45.967,31.286,45.449,31.286z
		 M43.191,47.721c0.479,0,0.871,0.389,0.871,0.865c0,0.475-0.394,0.861-0.871,0.861c-0.479,0-0.869-0.387-0.869-0.861
		C42.322,48.109,42.713,47.721,43.191,47.721z M32.289,47.721c0.479,0,0.869,0.389,0.869,0.865c0,0.475-0.392,0.861-0.869,0.861
		c-0.479,0-0.871-0.387-0.871-0.861C31.418,48.109,31.81,47.721,32.289,47.721z M43.279,41.154c-0.012,0-0.021,0-0.033,0H31.373
		l-1.647-7.979h15.299L43.279,41.154z"/>
	<g display="inline">
		<g>
			<g>
				<path d="M33.151,39.934h-6c-1.103,0-2-0.896-2-2v-6c0-1.103,0.897-2,2-2h6c1.103,0,2,0.897,2,2v6
					C35.151,39.035,34.254,39.934,33.151,39.934z M33.151,37.934v1V37.934L33.151,37.934L33.151,37.934z M27.151,31.933v6h5.997
					l0.003-6H27.151L27.151,31.933z"/>
			</g>
		</g>
		<g>
			<g>
				<path d="M44.672,39.934h-6c-1.104,0-2-0.896-2-2v-6c0-1.103,0.896-2,2-2h6c1.104,0,2,0.897,2,2v6
					C46.672,39.035,45.773,39.934,44.672,39.934z M44.672,37.934v1V37.934L44.672,37.934L44.672,37.934z M38.672,31.933v6h5.997
					l0.003-6H38.672L38.672,31.933z"/>
			</g>
		</g>
		<g>
			<g>
				<path d="M33.151,51.762h-6c-1.103,0-2-0.896-2-2v-6c0-1.103,0.897-2,2-2h6c1.103,0,2,0.897,2,2v6
					C35.151,50.864,34.254,51.762,33.151,51.762z M33.151,49.762v1V49.762L33.151,49.762L33.151,49.762z M27.151,43.762v6h5.997
					l0.003-6H27.151z"/>
			</g>
		</g>
		<g>
			<g>
				<path d="M44.672,51.762h-6c-1.104,0-2-0.896-2-2v-6c0-1.103,0.896-2,2-2h6c1.104,0,2,0.897,2,2v6
					C46.672,50.864,45.773,51.762,44.672,51.762z M44.672,49.762v1V49.762L44.672,49.762L44.672,49.762z M38.672,43.762v6h5.997
					l0.003-6H38.672z"/>
			</g>
		</g>
	</g>
</g>
<g>
	<g>
		<g>
			<path d="M11.772,12.728h15.941c0.689,0,0.893,0.09,1.093,0.482l1.408,3.579c0.233,0.686,0.908,1.819,2.85,1.819h23.899
				c0.604,0,1.252,0.699,1.252,1.741v2.581h2.419v-2.581c0-2.294-1.646-4.16-3.671-4.16h-23.9c-0.157,0-0.29-0.013-0.393-0.04
				l-0.12-0.03l-1.56-3.95c-0.648-1.297-1.631-1.859-3.277-1.859H11.772c-2.164,0-3.735,1.612-3.735,3.835v9.246h2.42v-9.246
				C10.458,13.244,10.938,12.728,11.772,12.728z"/>
		</g>
		<path d="M63.966,25.545c0-2.398-1.806-4.349-4.024-4.349H9.391c-2.219,0-4.024,1.95-4.024,4.347v28.605
			c0,2.398,1.805,4.351,4.023,4.351h50.552c2.219,0,4.024-1.951,4.024-4.349V25.545L63.966,25.545z M61.365,54.148
			c0,0.947-0.651,1.75-1.424,1.75H9.39c-0.771,0-1.423-0.803-1.423-1.75V25.543c0-0.947,0.652-1.748,1.424-1.748h50.548
			c0.718,0,1.332,0.691,1.416,1.549h0.011l0.002,0.2v28.604H61.365z"/>
	</g>
	<g>
		<path d="M44.875,46.021c-1.063,1.81-2.498,3.244-4.308,4.309c-1.81,1.063-3.774,1.594-5.901,1.594
			c-2.127,0-4.093-0.531-5.901-1.594c-1.809-1.063-3.244-2.499-4.307-4.309s-1.594-3.774-1.594-5.9s0.531-4.094,1.594-5.901
			c1.063-1.808,2.499-3.244,4.307-4.307s3.775-1.594,5.901-1.594s4.093,0.531,5.901,1.594s3.244,2.499,4.308,4.307
			c1.063,1.809,1.594,3.775,1.594,5.901S45.938,44.214,44.875,46.021z M44.424,34.481c-1.017-1.729-2.389-3.102-4.117-4.117
			c-1.729-1.015-3.608-1.523-5.639-1.523c-2.031,0-3.911,0.508-5.64,1.523c-1.729,1.015-3.102,2.388-4.117,4.117
			c-1.015,1.729-1.523,3.609-1.523,5.64s0.508,3.91,1.523,5.64c1.015,1.73,2.388,3.104,4.117,4.117
			c1.729,1.015,3.609,1.522,5.64,1.522c2.03,0,3.91-0.508,5.639-1.522c1.729-1.017,3.103-2.388,4.117-4.117
			c1.016-1.729,1.521-3.608,1.521-5.64C45.945,38.089,45.438,36.211,44.424,34.481z M30.239,49.211
			c-1.713-0.824-3.093-2.054-4.14-3.688c-1.047-1.635-1.571-3.437-1.571-5.401c0-1.429,0.301-2.808,0.904-4.142L30.239,49.211z
			 M41.233,37.979c-0.127-0.315-0.317-0.696-0.57-1.143l-0.096-0.189c-0.317-0.508-0.522-0.873-0.618-1.095
			c-0.189-0.381-0.286-0.745-0.286-1.095c0-0.476,0.167-0.896,0.5-1.261c0.333-0.365,0.737-0.547,1.214-0.547h0.145
			c-0.922-0.825-1.969-1.475-3.143-1.951c-1.175-0.476-2.412-0.714-3.711-0.714c-1.745,0-3.363,0.413-4.854,1.237
			c-1.491,0.825-2.697,1.936-3.617,3.332h0.666c0.444,0,1.031-0.016,1.761-0.048l0.952-0.047c0.159-0.032,0.277,0.024,0.357,0.167
			c0.079,0.143,0.087,0.286,0.024,0.43c-0.063,0.144-0.175,0.213-0.333,0.213l-1.142,0.096l3.665,10.994l2.237-6.664l-1.57-4.33
			c-0.381,0-0.746-0.03-1.095-0.096c-0.159,0-0.27-0.069-0.333-0.213s-0.056-0.287,0.023-0.43c0.08-0.143,0.214-0.198,0.405-0.167
			l0.952,0.047c0.73,0.032,1.309,0.048,1.737,0.048c0.428,0,0.991-0.016,1.69-0.048l0.95-0.047c0.189-0.032,0.324,0.024,0.404,0.167
			c0.08,0.143,0.088,0.286,0.023,0.43s-0.175,0.213-0.333,0.213l-1.144,0.096l3.617,10.898l1.143-3.713
			c0.223-0.761,0.381-1.301,0.477-1.617c0.127-0.508,0.19-0.951,0.19-1.332C41.52,39.059,41.424,38.52,41.233,37.979z M31.81,49.83
			c0.952,0.285,1.904,0.428,2.855,0.428c1.144,0,2.269-0.189,3.38-0.57l-0.096-0.144l-3.094-8.519L31.81,49.83z M43.613,36.313
			c0,1.145-0.254,2.35-0.762,3.617l-3.094,8.947c1.521-0.889,2.744-2.109,3.664-3.664s1.381-3.253,1.381-5.093
			c0-1.745-0.412-3.363-1.237-4.854C43.598,35.584,43.613,35.934,43.613,36.313z"/>
	</g>
</g>
</svg>
