<?xml version="1.0" encoding="utf-8"?>
<!-- Generator: Adobe Illustrator 16.0.0, SVG Export Plug-In . SVG Version: 6.00 Build 0)  -->
<!DOCTYPE svg PUBLIC "-//W3C//DTD SVG 1.1//EN" "http://www.w3.org/Graphics/SVG/1.1/DTD/svg11.dtd">
<svg version="1.1" xmlns="http://www.w3.org/2000/svg" xmlns:xlink="http://www.w3.org/1999/xlink" x="0px" y="0px"
	 width="70px" height="70px" viewBox="0 0 70 70" enable-background="new 0 0 70 70" xml:space="preserve">
<path d="M63.529,59.94L53.112,49.525c-0.358-0.36-0.835-0.603-1.359-0.694c8.9-10.402,8.306-26.069-1.396-35.771
	c-4.974-4.972-11.598-7.71-18.65-7.71c-7.052,0-13.675,2.738-18.648,7.71c-10.282,10.283-10.282,27.015,0,37.298
	c4.971,4.971,11.592,7.708,18.642,7.708c6.289,0,12.358-2.236,17.118-6.302c0.094,0.511,0.339,0.984,0.704,1.354l10.416,10.414
	c0.438,0.437,1.092,0.687,1.796,0.687c0.703,0,1.358-0.25,1.798-0.688c0.477-0.479,0.739-1.116,0.739-1.795
	C64.271,61.057,64.008,60.419,63.529,59.94z M31.711,54.48c-6.091,0-11.812-2.367-16.109-6.665C11.306,43.521,8.94,37.8,8.94,31.71
	c0-6.091,2.366-11.812,6.662-16.108C19.899,11.306,25.62,8.94,31.711,8.94s11.812,2.366,16.107,6.662s6.662,10.017,6.662,16.109
	c0,6.092-2.367,11.813-6.665,16.109C43.522,52.115,37.803,54.48,31.711,54.48z"/>
</svg>
