<?xml version="1.0" encoding="utf-8"?>
<!-- Generator: Adobe Illustrator 16.0.0, SVG Export Plug-In . SVG Version: 6.00 Build 0)  -->
<!DOCTYPE svg PUBLIC "-//W3C//DTD SVG 1.1//EN" "http://www.w3.org/Graphics/SVG/1.1/DTD/svg11.dtd">
<svg version="1.1" xmlns="http://www.w3.org/2000/svg" xmlns:xlink="http://www.w3.org/1999/xlink" x="0px" y="0px"
	 width="70px" height="70px" viewBox="0 0 70 70" enable-background="new 0 0 70 70" xml:space="preserve">
<path d="M58.171,18.842c0.704,0,1.403-0.108,2.079-0.321c3.656-1.15,5.7-5.074,4.557-8.746c-0.913-2.931-3.579-4.9-6.634-4.9
	c-0.704,0-1.404,0.108-2.081,0.321c-3.474,1.092-5.514,4.708-4.68,8.262L26.065,26.515c-2.352-2.429-5.487-3.765-8.839-3.765
	c-6.811,0-12.351,5.567-12.351,12.411s5.541,12.412,12.351,12.412c3.503,0,6.85-1.515,9.201-4.159l22.791,12.975
	c-0.805,3.122,0.662,6.452,3.515,7.946c0.99,0.517,2.099,0.79,3.207,0.79c2.607,0,4.974-1.441,6.174-3.763
	c1.765-3.414,0.439-7.637-2.956-9.412c-0.988-0.518-2.097-0.791-3.206-0.791c-2.045,0-3.969,0.9-5.295,2.475l-22.46-12.788
	c0.903-1.752,1.38-3.715,1.38-5.684c0-2.135-0.562-4.249-1.625-6.122L52.778,16.25C54.104,17.898,56.063,18.842,58.171,18.842z
	 M17.226,44.466c-5.097,0-9.244-4.174-9.244-9.305c0-5.13,4.147-9.304,9.244-9.304s9.244,4.174,9.244,9.304
	C26.469,40.292,22.322,44.466,17.226,44.466z M58.173,7.982c1.688,0,3.162,1.092,3.667,2.716c0.636,2.042-0.496,4.221-2.521,4.859
	c-0.377,0.118-0.764,0.177-1.148,0.177c-1.688,0-3.162-1.091-3.668-2.716c-0.634-2.042,0.497-4.221,2.522-4.859
	C57.398,8.042,57.785,7.982,58.173,7.982z M52.536,56.35c0.665-1.285,1.974-2.084,3.414-2.084c0.619,0,1.213,0.147,1.766,0.437
	c1.884,0.986,2.618,3.332,1.637,5.23c-0.664,1.286-1.973,2.085-3.413,2.085c-0.62,0-1.215-0.147-1.769-0.437
	C52.288,60.593,51.555,58.246,52.536,56.35z"/>
</svg>
