<?xml version="1.0" encoding="utf-8"?>
<!-- Generator: Adobe Illustrator 16.0.0, SVG Export Plug-In . SVG Version: 6.00 Build 0)  -->
<!DOCTYPE svg PUBLIC "-//W3C//DTD SVG 1.1//EN" "http://www.w3.org/Graphics/SVG/1.1/DTD/svg11.dtd">
<svg version="1.1" xmlns="http://www.w3.org/2000/svg" xmlns:xlink="http://www.w3.org/1999/xlink" x="0px" y="0px" width="70px"
	 height="70px" viewBox="0 0 70 70" enable-background="new 0 0 70 70" xml:space="preserve">
<g display="none">
	<g>
		<g display="inline">
			<g>
				<path fill="#030303" d="M61.666,49.111H60.77l0.619-2.838h0.277c0.26,0,0.477-0.215,0.477-0.474V10.31
					c0-0.256-0.217-0.473-0.477-0.473H8.333c-0.258,0-0.477,0.216-0.477,0.473v35.493c0,0.258,0.219,0.473,0.477,0.473h30.469
					l0.562,2.836H8.333C6.496,49.111,5,47.629,5,45.803V10.31C5,8.484,6.496,7,8.333,7h53.333C63.504,7,65,8.484,65,10.31v35.493
					C65,47.627,63.504,49.111,61.666,49.111z"/>
			</g>
			<path fill="#030303" d="M57.871,53.217l1.828-8.359c0.133-0.459,0.053-0.93-0.223-1.293c-0.295-0.389-0.779-0.619-1.297-0.619
				H42.064l-0.101-0.481c-0.147-0.971-0.84-1.551-1.846-1.551h-3.897c-0.005,0-0.007-0.002-0.011-0.002
				c-0.524,0-0.954,0.426-0.954,0.946c0,0.521,0.43,0.947,0.954,0.947c0.004,0,0.006-0.002,0.011-0.002l3.872,0.006l2.779,13.461
				c0.203,0.793,0.631,1.232,1.274,1.371c-1.104,0.361-1.905,1.389-1.905,2.604c0,1.521,1.241,2.756,2.772,2.756
				c1.529,0,2.775-1.233,2.775-2.756c0-1.142-0.705-2.123-1.705-2.541h8.762c-0.998,0.418-1.703,1.399-1.703,2.541
				c0,1.521,1.244,2.756,2.775,2.756c1.529,0,2.773-1.233,2.773-2.756c0-1.142-0.705-2.123-1.705-2.541h0.385
				c0.008,0,0.012,0.004,0.02,0.004c0.525,0,0.953-0.424,0.953-0.944s-0.42-0.938-0.939-0.945v-0.004l-12.684-0.002l-0.229-1.104
				h11.48C56.525,54.705,57.547,54.705,57.871,53.217z M55.924,61.107c-0.48,0-0.871-0.387-0.871-0.863s0.391-0.865,0.871-0.865
				c0.479,0,0.869,0.389,0.869,0.865S56.402,61.107,55.924,61.107z M45.02,61.107c-0.479,0-0.871-0.387-0.871-0.863
				s0.394-0.865,0.871-0.865c0.48,0,0.869,0.389,0.869,0.865S45.498,61.107,45.02,61.107z M42.457,44.836h15.299l-1.746,7.979
				c-0.01,0-0.021,0-0.033,0H44.104L42.457,44.836z"/>
		</g>
		<path display="inline" d="M29.118,34.239c0.336,0.336,0.611,0.222,0.611-0.253V21.878c0-0.476-0.275-0.589-0.611-0.253
			l-5.696,5.695c-0.336,0.336-0.336,0.887,0,1.224L29.118,34.239z"/>
		<path display="inline" d="M41.396,34.239c-0.336,0.336-0.61,0.222-0.61-0.253V21.878c0-0.476,0.274-0.589,0.61-0.253l5.696,5.695
			c0.335,0.336,0.335,0.887,0,1.224L41.396,34.239z"/>
	</g>
</g>
<g display="none">
	<path d="M42.965,33.305c-0.389,0.389-0.707,0.257-0.707-0.293V22.95c0-0.55,0.318-0.682,0.707-0.293l4.617,4.617
		c0.389,0.389,0.389,1.025,0,1.414L42.965,33.305z"/>
	<path d="M27.55,33.305c0.389,0.389,0.707,0.257,0.707-0.293V22.95c0-0.55-0.318-0.682-0.707-0.293l-4.617,4.617
		c-0.389,0.389-0.389,1.025,0,1.414L27.55,33.305z"/>
</g>
<g>
	<g>
		<g>
			<path d="M61.666,49.111H60.77l0.619-2.838h0.277c0.26,0,0.477-0.215,0.477-0.474V10.31c0-0.256-0.217-0.473-0.477-0.473H8.334
				c-0.258,0-0.477,0.216-0.477,0.473v35.493c0,0.258,0.219,0.473,0.477,0.473h30.469l0.561,2.836H8.334
				C6.496,49.111,5,47.629,5,45.803V10.31C5,8.485,6.496,7,8.334,7h53.332C63.504,7,65,8.485,65,10.31v35.493
				C65,47.627,63.504,49.111,61.666,49.111z"/>
			<path d="M57.871,53.217l1.828-8.359c0.133-0.459,0.053-0.93-0.223-1.293c-0.295-0.389-0.779-0.619-1.297-0.619H42.064
				l-0.101-0.481c-0.147-0.971-0.84-1.551-1.846-1.551h-3.897c-0.005,0-0.007-0.002-0.011-0.002c-0.524,0-0.953,0.426-0.953,0.946
				c0,0.521,0.429,0.947,0.953,0.947c0.004,0,0.006-0.002,0.011-0.002l3.872,0.006l2.779,13.461
				c0.203,0.793,0.631,1.232,1.274,1.371c-1.104,0.361-1.905,1.389-1.905,2.604c0,1.521,1.241,2.756,2.772,2.756
				c1.529,0,2.775-1.233,2.775-2.756c0-1.142-0.705-2.123-1.705-2.541h8.762c-0.998,0.418-1.703,1.399-1.703,2.541
				c0,1.521,1.244,2.756,2.775,2.756c1.529,0,2.773-1.233,2.773-2.756c0-1.142-0.705-2.123-1.705-2.541h0.385
				c0.008,0,0.012,0.004,0.02,0.004c0.525,0,0.953-0.424,0.953-0.944s-0.42-0.938-0.939-0.945v-0.004l-12.684-0.002l-0.229-1.104
				h11.48C56.525,54.705,57.547,54.705,57.871,53.217z M55.924,61.107c-0.48,0-0.871-0.387-0.871-0.863s0.391-0.865,0.871-0.865
				c0.479,0,0.869,0.389,0.869,0.865S56.402,61.107,55.924,61.107z M45.02,61.107c-0.479,0-0.871-0.387-0.871-0.863
				s0.394-0.865,0.871-0.865c0.48,0,0.869,0.389,0.869,0.865S45.498,61.107,45.02,61.107z M42.457,44.836h15.299l-1.746,7.979
				c-0.01,0-0.021,0-0.033,0H44.104L42.457,44.836z"/>
		</g>
	</g>
	<g>
		<rect x="34.03" y="20.057" transform="matrix(-0.9801 -0.1983 0.1983 -0.9801 63.8668 61.8463)" width="2" height="15.336"/>
		<polygon points="26.872,21.95 21.049,27.773 26.872,33.597 28.286,32.183 23.877,27.773 28.286,23.364 		"/>
		<polygon points="43.129,21.902 41.715,23.316 46.123,27.726 41.715,32.135 43.129,33.549 48.951,27.726 		"/>
	</g>
</g>
</svg>
