<?xml version="1.0" encoding="utf-8"?>
<!-- Generator: Adobe Illustrator 16.0.0, SVG Export Plug-In . SVG Version: 6.00 Build 0)  -->
<!DOCTYPE svg PUBLIC "-//W3C//DTD SVG 1.1//EN" "http://www.w3.org/Graphics/SVG/1.1/DTD/svg11.dtd">
<svg version="1.1" xmlns="http://www.w3.org/2000/svg" xmlns:xlink="http://www.w3.org/1999/xlink" x="0px" y="0px"
	 width="70px" height="70px" viewBox="0 0 70 70" enable-background="new 0 0 70 70" xml:space="preserve">
<g>
</g>
<g>
	<path d="M61.666,6.999H8.334C6.496,6.999,5,8.484,5,10.31v35.493c0,1.826,1.496,3.309,3.334,3.309h31.029l-0.561-2.836H8.334
		c-0.258,0-0.477-0.215-0.477-0.473V10.31c0-0.257,0.219-0.474,0.477-0.474h53.332c0.26,0,0.477,0.218,0.477,0.474v35.491
		c0,0.258-0.217,0.473-0.477,0.473h-0.277l-0.619,2.838h0.896c1.838,0,3.334-1.484,3.334-3.309V10.31
		C65,8.484,63.504,6.999,61.666,6.999z"/>
	<path d="M58.18,42.945H42.064l-0.1-0.481c-0.148-0.971-0.84-1.551-1.846-1.551h-3.898c-0.004,0-0.006-0.002-0.01-0.002
		c-0.525,0-0.953,0.425-0.953,0.946s0.428,0.947,0.953,0.947c0.004,0,0.006-0.002,0.01-0.002l3.873,0.006l2.779,13.461
		c0.203,0.793,0.631,1.232,1.275,1.371c-1.104,0.362-1.906,1.389-1.906,2.604c0,1.521,1.242,2.756,2.773,2.756
		c1.529,0,2.775-1.235,2.775-2.756c0-1.142-0.705-2.124-1.705-2.541h8.762c-0.998,0.417-1.703,1.399-1.703,2.541
		c0,1.521,1.244,2.756,2.775,2.756c1.529,0,2.773-1.235,2.773-2.756c0-1.142-0.705-2.124-1.705-2.541h0.385
		c0.008,0,0.012,0.004,0.02,0.004c0.525,0,0.953-0.425,0.953-0.946c0-0.52-0.42-0.938-0.939-0.945v-0.004l-12.684-0.002
		l-0.229-1.104h11.48c0.551-0.002,1.572-0.002,1.896-1.489l1.828-8.36c0.133-0.459,0.053-0.93-0.223-1.293
		C59.182,43.176,58.697,42.945,58.18,42.945z M55.924,59.38c0.479,0,0.869,0.388,0.869,0.864s-0.391,0.863-0.869,0.863
		c-0.48,0-0.871-0.387-0.871-0.863S55.443,59.38,55.924,59.38z M45.02,59.38c0.48,0,0.869,0.388,0.869,0.864
		s-0.391,0.863-0.869,0.863s-0.871-0.387-0.871-0.863S44.541,59.38,45.02,59.38z M56.01,52.814c-0.01,0-0.021,0-0.033,0H44.104
		l-1.646-7.979h15.299L56.01,52.814z"/>
</g>
<g>
	<path d="M40.52,33.94c-0.432,0.736-1.068,1.34-1.908,1.812c-0.84,0.473-1.828,0.74-2.964,0.805V38.5h-1.344v-1.943
		c-1.616-0.129-2.924-0.608-3.924-1.44s-1.517-1.96-1.548-3.384h3.6c0.048,0.576,0.231,1.044,0.552,1.404
		c0.32,0.359,0.76,0.596,1.32,0.708v-4.584c-1.216-0.32-2.172-0.62-2.868-0.9c-0.695-0.279-1.304-0.74-1.824-1.38
		c-0.52-0.64-0.779-1.512-0.779-2.616c0-1.407,0.508-2.552,1.523-3.432c1.017-0.88,2.332-1.376,3.948-1.488V17.5h1.344v1.944
		c1.552,0.112,2.8,0.572,3.745,1.38c0.943,0.809,1.471,1.916,1.584,3.324h-3.625c-0.048-0.48-0.22-0.896-0.516-1.248
		c-0.297-0.352-0.692-0.592-1.188-0.72v4.536c1.232,0.319,2.196,0.615,2.894,0.888c0.695,0.272,1.307,0.729,1.836,1.368
		c0.527,0.64,0.791,1.512,0.791,2.615C41.168,32.421,40.951,33.205,40.52,33.94z M32.84,25.504c0.336,0.328,0.824,0.604,1.464,0.828
		v-4.224c-0.608,0.08-1.088,0.296-1.439,0.648c-0.353,0.352-0.528,0.832-0.528,1.439C32.336,24.74,32.504,25.177,32.84,25.504z
		 M37.147,33.148c0.36-0.384,0.54-0.855,0.54-1.416c0-0.528-0.176-0.956-0.528-1.284c-0.352-0.328-0.855-0.604-1.512-0.828v4.248
		C36.287,33.772,36.787,33.532,37.147,33.148z"/>
</g>
</svg>
