<?xml version="1.0" encoding="utf-8"?>
<!-- Generator: Adobe Illustrator 16.0.0, SVG Export Plug-In . SVG Version: 6.00 Build 0)  -->
<!DOCTYPE svg PUBLIC "-//W3C//DTD SVG 1.1//EN" "http://www.w3.org/Graphics/SVG/1.1/DTD/svg11.dtd">
<svg version="1.1" xmlns="http://www.w3.org/2000/svg" xmlns:xlink="http://www.w3.org/1999/xlink" x="0px" y="0px" width="70px"
	 height="70px" viewBox="0 0 70 70" enable-background="new 0 0 70 70" xml:space="preserve">
<g display="none">
	<g>
		<path display="inline" d="M61.666,7H8.333C6.496,7,5,8.484,5,10.31v35.493c0,1.826,1.496,3.309,3.334,3.309h31.029l-0.561-2.836
			H8.333c-0.258,0-0.477-0.215-0.477-0.473v-5.531c4.701-6.399,11.865-14.804,14.208-14.804c1.786,0,4.258,3.069,6.245,5.536
			c2.342,2.907,4.363,5.403,6.451,5.208c1.484-0.147,3.047-1.369,4.557-2.548c1.174-0.918,2.506-1.959,3.225-1.986
			c1.451,0.125,11.046,5.988,19.602,11.655v2.469c0,0.259-0.217,0.474-0.477,0.474h-0.277l-0.619,2.838h0.896
			c1.838,0,3.334-1.484,3.334-3.309V10.31C65,8.484,63.504,7,61.666,7z M42.531,29.678c-0.012,0-0.023,0-0.035,0
			c-1.395,0.05-2.859,1.196-4.412,2.409c-1.225,0.958-2.615,2.043-3.523,2.134c-1.011,0.102-3.138-2.542-4.694-4.473
			c-2.487-3.088-5.06-6.281-7.802-6.281c-3.428,0-10.438,8.529-14.208,13.467V10.31c0-0.257,0.219-0.473,0.477-0.473h53.333
			c0.26,0,0.478,0.217,0.478,0.473v30.625C56.061,36.927,44.743,29.678,42.531,29.678z"/>
		<path display="inline" d="M58.18,42.945H42.064l-0.101-0.482c-0.147-0.971-0.84-1.551-1.846-1.551h-3.897
			c-0.005,0-0.007-0.002-0.011-0.002c-0.524,0-0.954,0.426-0.954,0.947c0,0.521,0.43,0.947,0.954,0.947
			c0.004,0,0.006-0.003,0.011-0.003l3.872,0.007l2.779,13.461c0.203,0.793,0.631,1.231,1.274,1.371
			c-1.104,0.36-1.905,1.389-1.905,2.604c0,1.521,1.241,2.756,2.772,2.756c1.529,0,2.775-1.234,2.775-2.756
			c0-1.141-0.705-2.123-1.705-2.541h8.762c-0.998,0.418-1.703,1.4-1.703,2.541c0,1.521,1.244,2.756,2.775,2.756
			c1.529,0,2.773-1.234,2.773-2.756c0-1.141-0.705-2.123-1.705-2.541h0.385c0.008,0,0.012,0.004,0.02,0.004
			c0.525,0,0.953-0.424,0.953-0.945c0-0.52-0.42-0.938-0.939-0.945v-0.004l-12.684-0.002l-0.229-1.104h11.48
			c0.551-0.002,1.571-0.002,1.896-1.49l1.827-8.359c0.134-0.459,0.054-0.93-0.223-1.293C59.182,43.176,58.697,42.945,58.18,42.945z
			 M55.924,59.379c0.479,0,0.869,0.389,0.869,0.865s-0.391,0.863-0.869,0.863c-0.48,0-0.871-0.387-0.871-0.863
			S55.443,59.379,55.924,59.379z M45.02,59.379c0.48,0,0.869,0.389,0.869,0.865s-0.391,0.863-0.869,0.863
			c-0.478,0-0.871-0.387-0.871-0.863S44.541,59.379,45.02,59.379z M56.01,52.814c-0.01,0-0.021,0-0.033,0H44.104l-1.646-7.979
			h15.299L56.01,52.814z"/>
		<path display="inline" d="M47.51,15.007c-3.033,0-5.5,2.467-5.5,5.5c0,3.033,2.467,5.5,5.5,5.5c3.031,0,5.5-2.467,5.5-5.5
			C53.01,17.474,50.541,15.007,47.51,15.007z M47.51,24.007c-1.93,0-3.5-1.57-3.5-3.5c0-1.93,1.57-3.5,3.5-3.5s3.5,1.57,3.5,3.5
			C51.01,22.437,49.439,24.007,47.51,24.007z"/>
	</g>
</g>
<g display="none">
</g>
<g>
	<g>
		<path d="M61.666,7H8.334C6.496,7,5,8.485,5,10.31v35.493c0,1.826,1.496,3.309,3.334,3.309h31.029l-0.561-2.836H8.334
			c-0.258,0-0.477-0.215-0.477-0.473V10.31c0-0.257,0.219-0.473,0.477-0.473h53.332c0.26,0,0.477,0.217,0.477,0.473v35.491
			c0,0.258-0.217,0.473-0.477,0.473h-0.277l-0.619,2.838h0.896c1.838,0,3.334-1.484,3.334-3.309V10.31C65,8.485,63.504,7,61.666,7z"
			/>
		<path d="M58.18,42.945H42.064l-0.1-0.481c-0.148-0.971-0.84-1.551-1.846-1.551h-3.898c-0.004,0-0.006-0.002-0.01-0.002
			c-0.525,0-0.953,0.425-0.953,0.946s0.428,0.947,0.953,0.947c0.004,0,0.006-0.002,0.01-0.002l3.873,0.006l2.779,13.461
			c0.203,0.793,0.631,1.232,1.275,1.371c-1.104,0.362-1.906,1.389-1.906,2.604c0,1.521,1.242,2.756,2.773,2.756
			c1.529,0,2.775-1.235,2.775-2.756c0-1.142-0.705-2.124-1.705-2.541h8.762c-0.998,0.417-1.703,1.399-1.703,2.541
			c0,1.521,1.244,2.756,2.775,2.756c1.529,0,2.773-1.235,2.773-2.756c0-1.142-0.705-2.124-1.705-2.541h0.385
			c0.008,0,0.012,0.004,0.02,0.004c0.525,0,0.953-0.425,0.953-0.946c0-0.52-0.42-0.938-0.939-0.945v-0.004l-12.684-0.002
			l-0.229-1.104h11.48c0.551-0.002,1.572-0.002,1.896-1.489l1.828-8.36c0.133-0.459,0.053-0.93-0.223-1.293
			C59.182,43.176,58.697,42.945,58.18,42.945z M55.924,59.38c0.479,0,0.869,0.388,0.869,0.864s-0.391,0.863-0.869,0.863
			c-0.48,0-0.871-0.387-0.871-0.863S55.443,59.38,55.924,59.38z M45.02,59.38c0.48,0,0.869,0.388,0.869,0.864
			s-0.391,0.863-0.869,0.863s-0.871-0.387-0.871-0.863S44.541,59.38,45.02,59.38z M56.01,52.814c-0.01,0-0.021,0-0.033,0H44.104
			l-1.646-7.979h15.299L56.01,52.814z"/>
	</g>
	<g>
		<path d="M49.529,38.969L29.981,23.723c-0.956-0.75-1.54-0.997-2.78-0.03L7.763,38.852l-1.229-1.576l19.438-15.16
			c2.298-1.792,3.941-0.989,5.243,0.032l21.62,16.821H49.529z"/>
	</g>
	<g>
		<path d="M62.755,39.386l-10.261-8.002c-1.129-0.883-1.843-1.063-3.345,0.124l-3.979,3.104l-1.23-1.577l3.974-3.1
			c2.084-1.644,3.823-1.684,5.812-0.127l10.26,8.002L62.755,39.386z"/>
	</g>
	<g>
		<path d="M47.51,24.625c-2.619,0-4.75-2.131-4.75-4.75s2.131-4.75,4.75-4.75s4.75,2.131,4.75,4.75S50.129,24.625,47.51,24.625z
			 M47.51,17.125c-1.517,0-2.75,1.233-2.75,2.75s1.233,2.75,2.75,2.75s2.75-1.233,2.75-2.75S49.026,17.125,47.51,17.125z"/>
	</g>
</g>
</svg>
