<?xml version="1.0" encoding="utf-8"?>
<!-- Generator: Adobe Illustrator 16.0.0, SVG Export Plug-In . SVG Version: 6.00 Build 0)  -->
<!DOCTYPE svg PUBLIC "-//W3C//DTD SVG 1.1//EN" "http://www.w3.org/Graphics/SVG/1.1/DTD/svg11.dtd">
<svg version="1.1" xmlns="http://www.w3.org/2000/svg" xmlns:xlink="http://www.w3.org/1999/xlink" x="0px" y="0px" width="70px"
	 height="70px" viewBox="0 0 70 70" enable-background="new 0 0 70 70" xml:space="preserve">
<g>
	<g>
		<path fill="#030303" d="M58.036,43.795H42.122l-0.101-0.477c-0.146-0.959-0.83-1.529-1.822-1.529h-3.85
			c-0.009,0-0.01-0.002-0.014-0.002c-0.52,0-0.941,0.418-0.941,0.934c0,0.514,0.423,0.938,0.941,0.938
			c0.004,0,0.005-0.005,0.014-0.005l3.821,0.009l2.745,13.291c0.2,0.782,0.623,1.217,1.26,1.354
			c-1.091,0.354-1.883,1.371-1.883,2.569c0,1.502,1.229,2.722,2.739,2.722c1.51,0,2.737-1.22,2.737-2.722
			c0-1.129-0.693-2.101-1.684-2.51h8.652c-0.986,0.409-1.684,1.381-1.684,2.51c0,1.502,1.229,2.722,2.739,2.722
			s2.739-1.22,2.739-2.722c0-1.129-0.696-2.101-1.688-2.51h0.381c0.01,0,0.014,0.004,0.021,0.004c0.521,0,0.939-0.42,0.939-0.937
			c0-0.513-0.416-0.927-0.928-0.935V56.5H44.745l-0.226-1.09h11.336c0.545-0.002,1.552-0.002,1.871-1.473l1.807-8.254
			c0.131-0.455,0.052-0.92-0.221-1.277C59.025,44.021,58.548,43.795,58.036,43.795z M55.809,60.023c0.476,0,0.858,0.385,0.858,0.854
			s-0.386,0.854-0.858,0.854c-0.475,0-0.857-0.381-0.857-0.854C54.948,60.408,55.334,60.023,55.809,60.023z M45.04,60.023
			c0.476,0,0.858,0.385,0.858,0.854s-0.387,0.854-0.858,0.854s-0.858-0.381-0.858-0.854C44.182,60.407,44.566,60.023,45.04,60.023z
			 M55.893,53.541c-0.009,0-0.021,0-0.031,0H44.135l-1.625-7.879h15.108L55.893,53.541z"/>
	</g>
	<g>
		<path d="M50.35,11.794L50.35,11.794l3.271,7.098l2.141-0.992l-3.205-6.915c-0.416-0.896-1.437-1.546-2.425-1.546h-29.38v2.357
			l14.1-0.001l3.392,7.109l2.128-1.015l-2.908-6.095H50.35z"/>
	</g>
	<g>
		<path d="M61.456,16.878H25.77c-0.517,0-1.219-0.466-1.418-0.941L21.418,9.95c-0.617-1.471-2.279-2.576-3.87-2.576H8.543
			c-1.783,0-3.232,1.45-3.232,3.233v35.334c0,1.783,1.449,3.231,3.232,3.231h30.848l-0.447-2.255l-0.135-0.4H8.543
			c-0.313,0-0.576-0.267-0.576-0.576V10.608c0-0.279,0.209-0.519,0.477-0.568v-0.009l0.1-0.001h9.006
			c0.516,0,1.219,0.467,1.418,0.942l2.934,5.987c0.617,1.471,2.279,2.576,3.869,2.576h35.688c0.313,0,0.577,0.264,0.577,0.576
			v25.831c0,0.313-0.265,0.576-0.577,0.576h-0.305v0.401l-0.438,2.254h0.742c0.862,0,1.674-0.336,2.285-0.946
			c0.61-0.611,0.946-1.422,0.946-2.285V20.111C64.689,18.329,63.238,16.878,61.456,16.878z"/>
	</g>
</g>
<g>
	<g display="none">
		<path display="inline" fill="#030303" d="M58.036,43.795H42.122l-0.101-0.477c-0.146-0.959-0.83-1.53-1.822-1.53h-3.85
			c-0.009,0-0.01-0.002-0.014-0.002c-0.52,0-0.941,0.419-0.941,0.935c0,0.514,0.421,0.938,0.941,0.938
			c0.004,0,0.005-0.005,0.014-0.005l3.821,0.009l2.745,13.292c0.2,0.781,0.623,1.217,1.26,1.354
			c-1.091,0.354-1.883,1.371-1.883,2.569c0,1.502,1.229,2.722,2.739,2.722c1.51,0,2.737-1.22,2.737-2.722
			c0-1.128-0.693-2.099-1.684-2.51h8.652c-0.986,0.411-1.684,1.382-1.684,2.51c0,1.502,1.229,2.722,2.739,2.722
			s2.739-1.22,2.739-2.722c0-1.128-0.696-2.099-1.688-2.51h0.381c0.01,0,0.014,0.005,0.021,0.005c0.521,0,0.939-0.42,0.939-0.936
			c0-0.515-0.416-0.927-0.928-0.936V56.5H44.745l-0.226-1.091h11.336c0.545-0.002,1.552-0.002,1.871-1.472l1.807-8.254
			c0.131-0.455,0.052-0.92-0.221-1.277C59.025,44.021,58.548,43.795,58.036,43.795z M55.809,60.023c0.476,0,0.858,0.384,0.858,0.854
			c0,0.473-0.386,0.854-0.858,0.854c-0.475,0-0.857-0.381-0.857-0.854C54.948,60.407,55.334,60.023,55.809,60.023z M45.04,60.023
			c0.476,0,0.858,0.384,0.858,0.854c0,0.473-0.387,0.854-0.858,0.854s-0.858-0.381-0.858-0.854
			C44.182,60.407,44.566,60.023,45.04,60.023z M55.893,53.541c-0.009,0-0.021,0-0.031,0H44.135l-1.625-7.88h15.108L55.893,53.541z"
			/>
		<g display="inline">
			<path d="M61.581,49.777h-1.019l0.584-2.889h0.435c0.293,0,0.53-0.238,0.53-0.531V18.749c0-0.293-0.237-0.532-0.53-0.532H23.187
				c-1.885,0-3.419-1.534-3.419-3.419V9.819c0-0.293-0.238-0.531-0.531-0.531H8.419c-0.293,0-0.531,0.238-0.531,0.531v36.539
				c0,0.293,0.238,0.531,0.531,0.531h30.497l0.596,2.889H8.419C6.534,49.777,5,48.243,5,46.357V9.819C5,7.934,6.534,6.4,8.419,6.4
				h10.818c1.885,0,3.419,1.534,3.419,3.419v4.979c0,0.293,0.238,0.531,0.531,0.531h38.395c1.885,0,3.419,1.534,3.419,3.419v27.609
				C65,48.243,63.466,49.777,61.581,49.777z"/>
		</g>
		<g display="inline">
			<g>
				<g>
					<path d="M39.648,10.818c0,0.814-0.674,1.481-1.5,1.481h-7.862c-0.825,0-1.5-0.667-1.5-1.481c0-0.815,0.675-1.481,1.5-1.481
						h7.862C38.975,9.337,39.648,10.003,39.648,10.818z"/>
				</g>
			</g>
		</g>
		<g display="inline">
			<g>
				<g>
					<path d="M57.607,10.818c0,0.814-0.674,1.481-1.5,1.481h-7.861c-0.825,0-1.5-0.667-1.5-1.481c0-0.815,0.675-1.481,1.5-1.481
						h7.861C56.934,9.337,57.607,10.003,57.607,10.818z"/>
				</g>
			</g>
		</g>
	</g>
	<g display="none">
		<path display="inline" fill="#030303" d="M58.932,44.426H42.398l-0.104-0.494c-0.149-0.996-0.862-1.591-1.894-1.591h-3.998
			c-0.008,0-0.01-0.002-0.014-0.002c-0.537,0-0.979,0.437-0.979,0.972c0,0.533,0.438,0.974,0.979,0.974
			c0.004,0,0.006-0.005,0.014-0.005l3.972,0.009L43.227,58.1c0.207,0.813,0.646,1.264,1.311,1.405
			c-1.135,0.37-1.956,1.427-1.956,2.671c0,1.563,1.272,2.827,2.846,2.827c1.568,0,2.849-1.269,2.849-2.827
			c0-1.172-0.725-2.18-1.748-2.605h8.988c-1.023,0.429-1.748,1.437-1.748,2.605c0,1.563,1.274,2.827,2.848,2.827
			c1.57,0,2.847-1.269,2.847-2.827c0-1.172-0.724-2.18-1.75-2.605h0.396c0.009,0,0.015,0.006,0.021,0.006
			c0.539,0,0.979-0.438,0.979-0.971s-0.432-0.963-0.963-0.973v-0.004l-13.014-0.002l-0.232-1.133h11.775
			c0.564-0.002,1.61-0.002,1.944-1.528l1.875-8.573c0.137-0.474,0.055-0.955-0.229-1.326C59.96,44.662,59.463,44.426,58.932,44.426z
			 M56.617,61.286c0.49,0,0.892,0.397,0.892,0.887c0,0.49-0.399,0.886-0.892,0.886c-0.493,0-0.895-0.396-0.895-0.886
			C55.723,61.684,56.124,61.286,56.617,61.286z M45.432,61.286c0.492,0,0.894,0.397,0.894,0.887c0,0.49-0.401,0.886-0.894,0.886
			s-0.895-0.396-0.895-0.886C44.537,61.684,44.939,61.286,45.432,61.286z M56.705,54.551c-0.01,0-0.021,0-0.033,0H44.49
			l-1.688-8.187h15.695L56.705,54.551z"/>
		<path display="inline" fill="none" stroke="#00993B" stroke-width="3" stroke-miterlimit="10" d="M39.309,49.141H7.386
			c-1.134,0-2.052-0.918-2.052-2.052V7.052C5.334,5.917,6.252,5,7.386,5h11.238c1.134,0,2.052,0.917,2.052,2.052v7.25
			c0,1.134,0.918,2.052,2.052,2.052h39.887c1.135,0,2.052,0.918,2.052,2.052v28.683c0,1.134-0.917,2.052-2.052,2.052h-0.676"/>
		<g display="inline">
			<g>
				<g>
					<path fill="#00993B" d="M39.83,8.491c0,0.825-0.676,1.5-1.5,1.5h-8.285c-0.825,0-1.5-0.675-1.5-1.5V8.414
						c0-0.825,0.675-1.5,1.5-1.5h8.285c0.824,0,1.5,0.675,1.5,1.5V8.491z"/>
				</g>
			</g>
		</g>
		<g display="inline">
			<g>
				<g>
					<path fill="#00993B" d="M58.486,8.491c0,0.825-0.674,1.5-1.5,1.5h-8.284c-0.825,0-1.5-0.675-1.5-1.5V8.414
						c0-0.825,0.675-1.5,1.5-1.5h8.284c0.826,0,1.5,0.675,1.5,1.5V8.491z"/>
				</g>
			</g>
		</g>
	</g>
</g>
</svg>
