<?xml version="1.0" encoding="utf-8"?>
<!-- Generator: Adobe Illustrator 16.0.0, SVG Export Plug-In . SVG Version: 6.00 Build 0)  -->
<!DOCTYPE svg PUBLIC "-//W3C//DTD SVG 1.1//EN" "http://www.w3.org/Graphics/SVG/1.1/DTD/svg11.dtd">
<svg version="1.1" xmlns="http://www.w3.org/2000/svg" xmlns:xlink="http://www.w3.org/1999/xlink" x="0px" y="0px"
	 width="70px" height="70px" viewBox="0 0 70 70" enable-background="new 0 0 70 70" xml:space="preserve">
<g display="none">
	<g display="inline">
		<path d="M61.666,49.111h-3.891v-2.838h3.891c0.259,0,0.477-0.215,0.477-0.472V10.31c0-0.256-0.218-0.473-0.477-0.473H8.333
			c-0.258,0-0.477,0.216-0.477,0.473v35.493c0,0.258,0.219,0.473,0.477,0.473h33.472v2.836H8.333c-1.838,0-3.334-1.483-3.334-3.309
			V10.31C4.999,8.485,6.495,7,8.333,7h53.333C63.504,7,65,8.485,65,10.31v35.493C65,47.627,63.504,49.111,61.666,49.111z"/>
	</g>
	<path display="inline" d="M57.871,53.218l1.827-8.36c0.133-0.459,0.053-0.93-0.222-1.293c-0.295-0.389-0.779-0.619-1.297-0.619
		H42.064l-0.1-0.482c-0.148-0.971-0.839-1.551-1.845-1.551h-3.899c-0.003,0-0.005-0.002-0.009-0.002
		c-0.526,0-0.954,0.425-0.954,0.947c0,0.521,0.428,0.947,0.954,0.947c0.004,0,0.006-0.002,0.009-0.002l3.873,0.006l2.78,13.461
		c0.202,0.793,0.631,1.232,1.276,1.371c-1.104,0.362-1.908,1.389-1.908,2.604c0,1.521,1.244,2.756,2.775,2.756
		c1.529,0,2.774-1.235,2.774-2.756c0-1.142-0.705-2.124-1.705-2.541h8.763c-0.998,0.417-1.703,1.399-1.703,2.541
		c0,1.521,1.244,2.756,2.774,2.756c1.529,0,2.774-1.235,2.774-2.756c0-1.142-0.704-2.124-1.704-2.541h0.384
		c0.007,0,0.012,0.004,0.02,0.004c0.525,0,0.953-0.425,0.953-0.946c0-0.52-0.421-0.938-0.94-0.945v-0.004l-12.683-0.002
		l-0.229-1.104h11.48C56.525,54.705,57.546,54.705,57.871,53.218z M55.923,61.107c-0.479,0-0.871-0.387-0.871-0.863
		s0.392-0.864,0.871-0.864s0.87,0.388,0.87,0.864S56.402,61.107,55.923,61.107z M45.02,61.107c-0.479,0-0.871-0.387-0.871-0.863
		s0.392-0.864,0.871-0.864c0.479,0,0.869,0.388,0.869,0.864S45.498,61.107,45.02,61.107z M42.456,44.836h15.3l-1.746,7.979
		c-0.011,0-0.021,0-0.033,0H44.104L42.456,44.836z"/>
</g>
<g display="none">
	<path display="inline" fill="none" stroke="#000000" stroke-width="2" stroke-miterlimit="10" d="M20.356,34.919
		c0,0.55-0.45,0.999-1,0.999h-4c-0.55,0-1-0.449-1-0.999v-3c0-0.55,0.45-1,1-1h4c0.55,0,1,0.45,1,1V34.919z"/>
	<path display="inline" fill="none" stroke="#000000" stroke-width="2" stroke-miterlimit="10" d="M30.356,34.919
		c0,0.55-0.45,0.999-1,0.999h-4c-0.55,0-1-0.449-1-0.999v-3c0-0.55,0.45-1,1-1h4c0.55,0,1,0.45,1,1V34.919z"/>
	<path display="inline" fill="none" stroke="#000000" stroke-width="2" stroke-miterlimit="10" d="M40.355,34.919
		c0,0.55-0.449,0.999-1,0.999h-4c-0.55,0-1-0.449-1-0.999v-3c0-0.55,0.45-1,1-1h4c0.551,0,1,0.45,1,1V34.919z"/>
</g>
<g>
	<g>
		<path d="M61.666,49.111h-0.897l0.619-2.838h0.278c0.259,0,0.477-0.215,0.477-0.472V10.31c0-0.256-0.218-0.473-0.477-0.473H8.333
			c-0.258,0-0.477,0.216-0.477,0.473v35.493c0,0.258,0.219,0.473,0.477,0.473h30.47l0.56,2.836H8.333
			c-1.838,0-3.334-1.483-3.334-3.309V10.31C4.999,8.485,6.495,7,8.333,7h53.333C63.504,7,65,8.485,65,10.31v35.493
			C65,47.627,63.504,49.111,61.666,49.111z"/>
	</g>
	<path d="M57.871,53.218l1.827-8.36c0.133-0.459,0.053-0.93-0.222-1.293c-0.295-0.389-0.779-0.619-1.297-0.619H42.064l-0.1-0.482
		c-0.148-0.971-0.839-1.551-1.845-1.551h-3.899c-0.003,0-0.005-0.002-0.009-0.002c-0.526,0-0.954,0.425-0.954,0.947
		c0,0.521,0.428,0.947,0.954,0.947c0.004,0,0.006-0.002,0.009-0.002l3.873,0.006l2.78,13.461c0.202,0.793,0.631,1.232,1.276,1.371
		c-1.104,0.362-1.908,1.389-1.908,2.604c0,1.521,1.244,2.756,2.775,2.756c1.529,0,2.774-1.235,2.774-2.756
		c0-1.142-0.705-2.124-1.705-2.541h8.763c-0.998,0.417-1.703,1.399-1.703,2.541c0,1.521,1.244,2.756,2.774,2.756
		c1.529,0,2.774-1.235,2.774-2.756c0-1.142-0.704-2.124-1.704-2.541h0.384c0.007,0,0.012,0.004,0.02,0.004
		c0.525,0,0.953-0.425,0.953-0.946c0-0.52-0.421-0.938-0.94-0.945v-0.004l-12.683-0.002l-0.229-1.104h11.48
		C56.525,54.705,57.546,54.705,57.871,53.218z M55.923,61.107c-0.479,0-0.871-0.387-0.871-0.863s0.392-0.864,0.871-0.864
		s0.87,0.388,0.87,0.864S56.402,61.107,55.923,61.107z M45.02,61.107c-0.479,0-0.871-0.387-0.871-0.863s0.392-0.864,0.871-0.864
		c0.479,0,0.869,0.388,0.869,0.864S45.498,61.107,45.02,61.107z M42.456,44.836h15.3l-1.746,7.979c-0.011,0-0.021,0-0.033,0H44.104
		L42.456,44.836z"/>
	<g>
		<path d="M17.856,20.75h-4c-1.103,0-2-0.896-2-1.999v-3c0-1.103,0.897-2,2-2h4c1.103,0,2,0.897,2,2v3
			C19.856,19.853,18.959,20.75,17.856,20.75z M17.856,18.75L17.856,18.75L17.856,18.75L17.856,18.75L17.856,18.75z M13.856,15.75v3
			l3.998-0.001l0.002-2.999H13.856z"/>
	</g>
	<g>
		<path d="M27.856,20.75h-4c-1.103,0-2-0.896-2-1.999v-3c0-1.103,0.897-2,2-2h4c1.103,0,2,0.897,2,2v3
			C29.856,19.853,28.959,20.75,27.856,20.75z M27.856,18.75L27.856,18.75L27.856,18.75L27.856,18.75L27.856,18.75z M23.856,15.75v3
			l3.998-0.001l0.002-2.999H23.856z"/>
	</g>
	<g>
		<path d="M37.855,20.75h-4c-1.103,0-2-0.896-2-1.999v-3c0-1.103,0.897-2,2-2h4c1.103,0,2,0.897,2,2v3
			C39.855,19.853,38.958,20.75,37.855,20.75z M37.855,18.75L37.855,18.75L37.855,18.75L37.855,18.75z M33.856,15.75v3l3.998-0.001
			l0.002-2.999H33.856z"/>
	</g>
</g>
</svg>
