<?xml version="1.0" encoding="utf-8"?>
<!-- Generator: Adobe Illustrator 16.0.0, SVG Export Plug-In . SVG Version: 6.00 Build 0)  -->
<!DOCTYPE svg PUBLIC "-//W3C//DTD SVG 1.1//EN" "http://www.w3.org/Graphics/SVG/1.1/DTD/svg11.dtd">
<svg version="1.1" xmlns="http://www.w3.org/2000/svg" xmlns:xlink="http://www.w3.org/1999/xlink" x="0px" y="0px"
	 width="70px" height="70px" viewBox="0 0 70 70" enable-background="new 0 0 70 70" xml:space="preserve">
<g>
	<path d="M38.702,15.907c0-1.522-1.238-2.76-2.761-2.76H8.009c-1.522,0-2.76,1.238-2.76,2.76v26.694c0,1.522,1.238,2.762,2.76,2.762
		h27.933c1.522,0,2.761-1.239,2.761-2.762V15.907z M36.443,42.604c0,0.272-0.23,0.502-0.504,0.502H8.009
		c-0.272,0-0.503-0.229-0.503-0.502v-6.46l0.076-0.072l8.086-7.926c0.408-0.387,0.739-0.566,1.043-0.566
		c0.305,0,0.576,0.154,1.033,0.59l13.619,12.863h2.03l-7.071-6.662l2.469-2.211c0.532-0.48,0.973-0.704,1.387-0.704
		c0.474,0,0.872,0.301,1.199,0.596l5.066,4.809V42.604z M36.443,34.967l-4.287-4.111c-0.704-0.634-1.356-0.944-1.99-0.944
		c-0.668,0-1.374,0.345-2.156,1.054l-2.717,2.434l-6.82-6.425c-0.441-0.418-1.04-0.898-1.762-0.898c-0.57,0-1.148,0.286-1.77,0.875
		l-7.435,7.311L7.505,15.908c0-0.273,0.231-0.504,0.504-0.504h27.933c0.272,0,0.502,0.23,0.502,0.503V34.967z"/>
	<path d="M27.22,19.157c-2.22,0-4.025,1.806-4.025,4.025S25,27.207,27.22,27.207c2.219,0,4.025-1.806,4.025-4.025
		S29.439,19.157,27.22,19.157z M27.22,25.496c-1.277,0-2.315-1.038-2.315-2.314c-0.001-0.618,0.239-1.199,0.677-1.637
		c0.438-0.438,1.019-0.678,1.638-0.678c1.276,0,2.315,1.039,2.315,2.315C29.535,24.458,28.497,25.496,27.22,25.496z"/>
</g>
<g>
	<path d="M13.025,47.264H6.812C5.813,47.264,5,48.076,5,49.076v6.213c0,1,0.813,1.814,1.813,1.814h6.213
		c1,0,1.813-0.814,1.813-1.814v-6.213C14.838,48.076,14.025,47.264,13.025,47.264z M12.766,49.336l-0.002,5.693H7.072v-5.693H12.766
		z"/>
	<path d="M25.062,47.264h-6.213c-0.999,0-1.813,0.813-1.813,1.813v6.213c0,1,0.813,1.813,1.813,1.813h6.213
		c0.999,0,1.813-0.813,1.813-1.813v-6.213C26.875,48.076,26.061,47.264,25.062,47.264z M24.802,49.336L24.8,55.029h-5.692v-5.693
		H24.802z"/>
	<path d="M37.139,47.223h-6.212c-1,0-1.813,0.813-1.813,1.813v6.213c0,1,0.813,1.813,1.813,1.813h6.212c1,0,1.813-0.813,1.813-1.813
		v-6.213C38.952,48.035,38.139,47.223,37.139,47.223z M36.879,49.295l-0.002,5.695h-5.691v-5.695H36.879z"/>
</g>
<path d="M61.938,17.051c0-0.434-0.354-0.788-0.787-0.788H42.717c-0.434,0-0.787,0.354-0.787,0.788v1.039
	c0,0.435,0.354,0.788,0.787,0.788H61.15c0.434,0,0.787-0.354,0.787-0.788V17.051z"/>
<path d="M64.75,28.474c0-0.435-0.354-0.789-0.789-0.789H42.717c-0.434,0-0.787,0.354-0.787,0.789v1.038
	c0,0.434,0.354,0.788,0.787,0.788h21.244c0.436,0,0.789-0.354,0.789-0.788V28.474z"/>
<path d="M64.75,40.936c0-0.436-0.354-0.789-0.789-0.789H42.717c-0.434,0-0.787,0.354-0.787,0.789v1.037
	c0,0.436,0.354,0.789,0.787,0.789h21.244c0.436,0,0.789-0.354,0.789-0.789V40.936z"/>
<path d="M55.736,52.357c0-0.436-0.354-0.789-0.787-0.789H42.717c-0.434,0-0.787,0.354-0.787,0.789v1.037
	c0,0.436,0.354,0.789,0.787,0.789h12.232c0.434,0,0.787-0.354,0.787-0.789V52.357z"/>
</svg>
