<?xml version="1.0" encoding="utf-8"?>
<!-- Generator: Adobe Illustrator 18.0.0, SVG Export Plug-In . SVG Version: 6.00 Build 0)  -->
<!DOCTYPE svg PUBLIC "-//W3C//DTD SVG 1.1//EN" "http://www.w3.org/Graphics/SVG/1.1/DTD/svg11.dtd">
<svg version="1.1" xmlns="http://www.w3.org/2000/svg" xmlns:xlink="http://www.w3.org/1999/xlink" x="0px" y="0px"
	 width="70px" height="70px" viewBox="0 0 70 70" enable-background="new 0 0 70 70" xml:space="preserve">
<g>
	<path d="M27.1,41.8l-0.7,0.1c-0.7,0.1-1.1,0.1-1.3,0.1c-0.1,0-0.2,0-0.3-0.2c-0.2-0.2-0.3-0.4-0.3-0.7c0-0.3,0.2-0.6,0.4-0.9
		c0.4-0.4,0.9-0.6,1.4-0.4l0.6,0.2l-0.1-0.6c-0.1-0.4-0.2-0.7-0.4-0.9c-0.3-0.3-0.6-0.3-1.1-0.1c-0.4,0.1-0.7,0.4-1.1,0.8
		c-0.7,0.7-1.1,1.4-1.1,2.2c-0.1,0.8,0.2,1.5,0.7,2.1c0.5,0.5,1.3,0.7,2.5,0.6l0.8-0.1c0.2,0,0.4,0,0.6,0c0.9,0,1.2,0.2,1.3,0.3
		c0.2,0.2,0.3,0.5,0.2,0.8c0,0.4-0.2,0.8-0.5,1.1c-0.3,0.4-0.7,0.5-1.1,0.5c-0.4,0-0.7-0.2-1.1-0.5l-0.5-0.5l-0.1,0.7
		c-0.1,0.8,0,1.3,0.3,1.6c0.3,0.3,0.7,0.5,1.1,0.5c0.1,0,0.3,0,0.4,0c0.6-0.1,1.1-0.4,1.6-0.9c0.7-0.7,1.1-1.6,1.2-2.5
		c0.1-0.9-0.2-1.7-0.8-2.3C29.4,41.9,28.5,41.7,27.1,41.8z"/>
	<path d="M45.1,23.9L45,23.5l-1.2,0.4l0.1,0.3c0.3,1.3,0.4,2.6,0.2,3.8c-0.1,1.1-0.5,2-1,2.5c-0.4,0.4-0.8,0.5-1.3,0.1
		c0.6-0.7,1.1-1.5,1.2-2.4c0.2-1.1,0.1-1.9-0.5-2.4c-0.4-0.4-0.8-0.5-1.3-0.4c-0.5,0.1-0.9,0.3-1.3,0.7c-0.8,0.8-1.1,1.8-1.1,2.9
		c0,0.8,0.3,1.5,0.7,2.1c0.1,0.8,0.2,1.4,0.2,1.7c0,0.6-0.1,1-0.3,1.2c-0.1,0.1-0.2,0.1-0.2,0.1c-0.1,0-0.2,0-0.4-0.2
		c-0.1-0.1-0.3-0.3-0.7-0.9l-4.3-6.2l-0.2,0.9c-0.1,0.4-0.3,0.8-0.7,1.2c-0.4,0.4-0.7,0.6-1.2,0.7l-0.6,0.2l0.5,0.5
		c0.6,0.6,1.4,0.6,2.1-0.2l2,2.9c0.2,0.9,0.2,1.7,0.2,2.5c0,1.1-0.2,1.5-0.4,1.6c0,0-0.2,0-0.7-0.4c-0.5-0.5-0.8-0.9-1.1-1.3
		L33.6,35c-0.3-0.4-0.5-0.8-0.5-1.1L33,33.3l-0.7,0.6c-0.4,0.5-0.7,0.9-0.7,1.2c-0.6,0.2-1.1,0.6-1.5,0.9c-0.7,0.8-1,1.8-0.9,3
		c0.1,1.2,0.6,2.2,1.5,3.1c0.5,0.4,0.9,0.7,1.4,0.8c0.1,0,0.2,0,0.3,0c0.4,0,0.8-0.2,1.1-0.5c0.4-0.5,0.7-1.2,0.7-2.3
		c0-0.6,0-1.1-0.1-1.7c1,0.9,1.9,0.9,2.6,0.3c0.5-0.5,0.8-1.4,0.9-2.7c0-0.2,0-0.5,0-0.7c0,0,0,0,0,0C38,35.7,38.5,36,39,36
		c0,0,0.1,0,0.1,0c0.5,0,0.9-0.2,1.3-0.5c0.5-0.5,0.7-1.4,0.7-2.6c0-0.1,0-0.2,0-0.3c0.3,0.1,0.6,0.2,1,0.2l0,0
		c0.7,0,1.3-0.3,1.8-0.8c0.8-0.8,1.3-2,1.5-3.5C45.6,26.9,45.5,25.4,45.1,23.9z M32.3,36.6c0.8,3.7,0.4,4.2,0.4,4.2
		c-0.1,0.1-0.2,0.1-0.2,0.1c-0.1,0-0.3,0-0.6-0.3c-0.6-0.6-1-1.2-1.1-1.9c-0.2-0.6-0.1-1.1,0.2-1.4C31.2,37,31.7,36.8,32.3,36.6z
		 M41,27c0.1,0,0.1,0.1,0.2,0.1c0.3,0.3,0.4,0.7,0.3,1.2c-0.1,0.5-0.3,0.9-0.6,1.3c-0.2-0.4-0.4-0.9-0.4-1.3c-0.1-0.6,0-1,0.3-1.3
		C40.8,27,40.9,27,41,27z M42.1,32.4L42.1,32.4L42.1,32.4L42.1,32.4z"/>
	<path d="M56.1,19.5c0-0.6-0.5-1.1-1.1-1.1c-0.6,0-1.1,0.5-1.1,1.1c0,0.1,0,0.2,0.1,0.3v11.9c0,0.8-0.2,1.1-0.4,1.4L31.4,55
		c-0.5,0.5-1,0.7-1.4,0.8c-0.6,0-1.1-0.5-1.2-0.7L15.2,41.5c-0.9-1.2-0.2-2.2,0-2.5l22.5-22.4c0.1-0.1,0.7-0.3,1.4-0.3h12.2v0
		c0.6-0.1,1-0.5,1-1.1c0-0.6-0.4-1.1-1-1.1v0H39.1c-1.2,0-2.5,0.4-3.1,1.1L13.6,37.4l-0.1,0.1c-0.8,0.9-1.8,3.2,0,5.4l13.6,13.6
		c0.3,0.3,1.3,1.4,2.9,1.5c0,0,0.1,0,0.1,0c0.8,0,1.9-0.3,3-1.5l22-21.9l0.1-0.1c0.7-0.8,1-1.7,1-2.9L56.1,19.5L56.1,19.5
		C56.1,19.6,56.1,19.5,56.1,19.5z"/>
	<path d="M58.5,13.1c0-0.6-0.5-1.1-1.1-1.1c-0.3,0-0.6,0.1-0.8,0.4L50.9,18c-0.5-0.2-1-0.4-1.6-0.4c-2,0-3.6,1.6-3.6,3.6
		c0,2,1.6,3.6,3.6,3.6c2,0,3.6-1.6,3.6-3.6c0-0.6-0.2-1.1-0.4-1.6l5.6-5.6l0,0C58.4,13.7,58.5,13.4,58.5,13.1z M49.4,22.5
		c-0.7,0-1.3-0.6-1.3-1.3c0-0.7,0.6-1.3,1.3-1.3c0.7,0,1.3,0.6,1.3,1.3C50.7,21.9,50.1,22.5,49.4,22.5z"/>
</g>
</svg>
