<?xml version="1.0" encoding="utf-8"?>
<!-- Generator: Adobe Illustrator 16.0.0, SVG Export Plug-In . SVG Version: 6.00 Build 0)  -->
<!DOCTYPE svg PUBLIC "-//W3C//DTD SVG 1.1//EN" "http://www.w3.org/Graphics/SVG/1.1/DTD/svg11.dtd">
<svg version="1.1" xmlns="http://www.w3.org/2000/svg" xmlns:xlink="http://www.w3.org/1999/xlink" x="0px" y="0px"
	 width="70px" height="70px" viewBox="0 0 70 70" enable-background="new 0 0 70 70" xml:space="preserve">
<path d="M58.171,18.717c0.69,0,1.378-0.106,2.042-0.315c3.59-1.13,5.598-4.983,4.475-8.59C63.791,6.934,61.173,5,58.173,5
	c-0.691,0-1.379,0.106-2.044,0.315c-3.464,1.089-5.444,4.715-4.572,8.209L26.04,26.669c-2.227-2.333-5.351-3.794-8.814-3.794
	C10.484,22.875,5,28.387,5,35.161c0,6.775,5.484,12.287,12.226,12.287c3.656,0,6.933-1.63,9.175-4.193l22.963,13.073
	c-0.832,3.045,0.527,6.377,3.426,7.896C53.76,64.731,54.85,65,55.939,65c2.56,0,4.884-1.416,6.063-3.696
	c1.735-3.354,0.432-7.5-2.903-9.243c-0.97-0.508-2.059-0.777-3.148-0.777c-2.074,0-3.984,0.942-5.265,2.51L28.03,40.895
	c0.904-1.713,1.421-3.662,1.421-5.733c0-2.251-0.616-4.356-1.673-6.173l25.035-12.897C54.078,17.713,56.021,18.717,58.171,18.717z
	 M55.95,54.141c0.64,0,1.252,0.151,1.824,0.451c1.945,1.018,2.703,3.439,1.69,5.398c-0.687,1.328-2.037,2.152-3.525,2.152
	c-0.639,0-1.254-0.151-1.825-0.451c-1.945-1.019-2.703-3.44-1.689-5.399C53.112,54.966,54.462,54.141,55.95,54.141z M17.226,44.591
	c-5.166,0-9.369-4.229-9.369-9.43c0-5.199,4.203-9.429,9.369-9.429s9.369,4.23,9.369,9.429
	C26.594,40.361,22.392,44.591,17.226,44.591z M56.986,8.041c0.387-0.122,0.786-0.184,1.187-0.184c1.742,0,3.264,1.127,3.786,2.804
	c0.656,2.107-0.512,4.357-2.604,5.016c-0.387,0.121-0.785,0.183-1.185,0.183c-1.743,0-3.266-1.127-3.787-2.804
	C53.728,10.949,54.896,8.699,56.986,8.041z"/>
</svg>
