<?xml version="1.0" encoding="utf-8"?>
<!-- Generator: Adobe Illustrator 16.0.0, SVG Export Plug-In . SVG Version: 6.00 Build 0)  -->
<!DOCTYPE svg PUBLIC "-//W3C//DTD SVG 1.1//EN" "http://www.w3.org/Graphics/SVG/1.1/DTD/svg11.dtd">
<svg version="1.1" xmlns="http://www.w3.org/2000/svg" xmlns:xlink="http://www.w3.org/1999/xlink" x="0px" y="0px" width="70px"
	 height="70px" viewBox="0 0 70 70" enable-background="new 0 0 70 70" xml:space="preserve">
<g display="none">
	<g display="inline">
	</g>
	<g>
		<g display="inline">
			<path d="M61.666,49.111h-3.891v-2.838h3.891c0.259,0,0.477-0.215,0.477-0.472V10.31c0-0.256-0.218-0.473-0.477-0.473H8.333
				c-0.258,0-0.477,0.216-0.477,0.473v35.493c0,0.258,0.219,0.473,0.477,0.473h33.472v2.836H8.333c-1.838,0-3.334-1.483-3.334-3.309
				V10.31C4.999,8.485,6.495,7,8.333,7h53.333C63.504,7,65,8.485,65,10.31v35.493C65,47.627,63.504,49.111,61.666,49.111z"/>
		</g>
		<path display="inline" d="M57.871,53.218l1.827-8.36c0.133-0.459,0.053-0.93-0.222-1.293c-0.295-0.389-0.779-0.619-1.297-0.619
			H42.064l-0.1-0.482c-0.148-0.971-0.839-1.551-1.845-1.551h-3.899c-0.003,0-0.005-0.002-0.009-0.002
			c-0.526,0-0.954,0.425-0.954,0.947c0,0.521,0.428,0.947,0.954,0.947c0.004,0,0.006-0.002,0.009-0.002l3.873,0.006l2.78,13.461
			c0.202,0.793,0.631,1.232,1.276,1.371c-1.104,0.362-1.908,1.389-1.908,2.604c0,1.521,1.244,2.756,2.775,2.756
			c1.529,0,2.774-1.235,2.774-2.756c0-1.142-0.705-2.124-1.705-2.541h8.763c-0.998,0.417-1.703,1.399-1.703,2.541
			c0,1.521,1.244,2.756,2.774,2.756c1.529,0,2.774-1.235,2.774-2.756c0-1.142-0.704-2.124-1.704-2.541h0.384
			c0.007,0,0.012,0.004,0.02,0.004c0.525,0,0.953-0.425,0.953-0.946c0-0.52-0.421-0.938-0.94-0.945v-0.004l-12.683-0.002
			l-0.229-1.104h11.48C56.525,54.705,57.546,54.705,57.871,53.218z M55.923,61.107c-0.479,0-0.871-0.387-0.871-0.863
			s0.392-0.864,0.871-0.864s0.87,0.388,0.87,0.864S56.402,61.107,55.923,61.107z M45.02,61.107c-0.479,0-0.871-0.387-0.871-0.863
			s0.392-0.864,0.871-0.864c0.479,0,0.869,0.388,0.869,0.864S45.498,61.107,45.02,61.107z M42.456,44.836h15.3l-1.746,7.979
			c-0.011,0-0.021,0-0.033,0H44.104L42.456,44.836z"/>
	</g>
	<g>
		<path display="inline" fill="none" stroke="#000000" stroke-width="2" stroke-miterlimit="10" d="M-11.089-9.456l0.844-0.075
			l1.471-3.255c0.083-0.184,0.221-0.341,0.393-0.449l0.027-0.014c0.343-0.201,0.8-0.191,1.134,0.017
			c0.178,0.116,0.31,0.272,0.391,0.452l1.466,3.25l3.695,0.334c0.203,0.019,0.393,0.092,0.552,0.215
			c0.162,0.124,0.282,0.29,0.344,0.481c0.064,0.189,0.072,0.388,0.021,0.575C-0.811-7.729-0.921-7.56-1.076-7.427l-2.782,2.341
			l0.808,3.461c0.046,0.197,0.032,0.397-0.042,0.58c-0.069,0.182-0.201,0.345-0.376,0.463c-0.167,0.116-0.365,0.183-0.573,0.19
			c-0.009-0.002-0.03-0.002-0.053-0.002c-0.185,0-0.369-0.051-0.531-0.141L-7.81-2.342l-3.189,1.805
			c-0.161,0.091-0.349,0.144-0.538,0.144l-0.046-0.002c-0.208-0.012-0.404-0.078-0.57-0.192c-0.17-0.118-0.299-0.279-0.371-0.466
			c-0.07-0.171-0.085-0.368-0.045-0.566l0.814-3.471l-0.549-0.463 M-12.304-5.553l-2.229-1.881c-0.16-0.133-0.269-0.304-0.324-0.496
			c-0.053-0.182-0.048-0.385,0.019-0.577c0.065-0.187,0.182-0.352,0.339-0.474c0.166-0.125,0.359-0.2,0.566-0.219l2.844-0.255"/>
	</g>
	<g>
		<path display="inline" fill="none" stroke="#000000" stroke-width="2" stroke-miterlimit="10" d="M-7.633-18.735
			c-0.156,0-0.313-0.043-0.449-0.119l-2.694-1.529l-2.697,1.526c-0.136,0.077-0.295,0.122-0.455,0.122l-0.039-0.002
			c-0.176-0.01-0.342-0.065-0.482-0.162c-0.144-0.1-0.253-0.236-0.313-0.395c-0.06-0.145-0.072-0.312-0.038-0.479l0.688-2.936
			l-2.35-1.982c-0.135-0.112-0.228-0.257-0.273-0.419c-0.045-0.154-0.041-0.326,0.016-0.488c0.055-0.158,0.153-0.297,0.287-0.401
			c0.14-0.106,0.304-0.169,0.479-0.186l3.119-0.279l1.244-2.753c0.07-0.156,0.187-0.288,0.332-0.379l0.022-0.012
			c0.29-0.169,0.677-0.162,0.959,0.014c0.151,0.098,0.262,0.23,0.331,0.382l1.24,2.749l3.125,0.283
			c0.172,0.016,0.332,0.078,0.467,0.182c0.137,0.105,0.238,0.246,0.291,0.407c0.055,0.16,0.061,0.328,0.018,0.486
			c-0.049,0.165-0.143,0.308-0.273,0.42l-2.354,1.98l0.684,2.928c0.039,0.167,0.027,0.336-0.035,0.49
			c-0.059,0.154-0.17,0.292-0.318,0.392c-0.141,0.098-0.309,0.154-0.484,0.161C-7.596-18.735-7.614-18.735-7.633-18.735z"/>
	</g>
	<g display="inline">
		<g display="none">
			<path fill="none" stroke="#000000" stroke-width="2" stroke-miterlimit="10" d="M18.48,16.994
				c0.086-0.172,0.211-0.286,0.376-0.344s0.33-0.058,0.494,0s0.29,0.172,0.376,0.344l1.396,2.836l3.137,0.451
				c0.186,0.028,0.333,0.114,0.44,0.258c0.107,0.144,0.158,0.301,0.15,0.473c-0.008,0.172-0.075,0.322-0.204,0.451l-2.277,2.213
				l0.537,3.137c0.029,0.172-0.003,0.333-0.097,0.483c-0.094,0.15-0.226,0.247-0.397,0.29s-0.336,0.021-0.494-0.064l-2.814-1.461
				l-2.814,1.461c-0.158,0.086-0.322,0.107-0.494,0.064s-0.304-0.14-0.397-0.29c-0.093-0.15-0.125-0.312-0.097-0.483l0.537-3.137
				l-2.277-2.213c-0.129-0.129-0.197-0.279-0.204-0.451c-0.007-0.172,0.043-0.329,0.15-0.473c0.107-0.144,0.254-0.229,0.44-0.258
				l3.137-0.451L18.48,16.994z"/>
		</g>
	</g>
	<g display="inline">
		<path display="none" d="M61.666,7H8.334C6.496,7,5,8.485,5,10.31v35.493c0,1.824,1.496,3.309,3.334,3.309h33.063l1.479,7.158
			c0.203,0.793,0.631,1.232,1.276,1.371c-1.104,0.362-1.907,1.389-1.907,2.604c0,1.521,1.243,2.756,2.774,2.756
			c1.529,0,2.775-1.235,2.775-2.756c0-1.142-0.705-2.124-1.705-2.541h8.762c-0.998,0.417-1.703,1.399-1.703,2.541
			c0,1.521,1.244,2.756,2.775,2.756c1.529,0,2.773-1.235,2.773-2.756c0-1.142-0.703-2.124-1.703-2.541h0.383
			c0.008,0,0.012,0.004,0.02,0.004c0.525,0,0.953-0.425,0.953-0.947c0-0.519-0.42-0.938-0.94-0.944v-0.004l-12.685-0.002
			l-0.229-1.104h11.48c0.549,0,1.569,0,1.895-1.487l0.898-4.105h2.896c1.838,0,3.334-1.484,3.334-3.309V10.31
			C65,8.485,63.504,7,61.666,7z M55.924,59.38c0.479,0,0.869,0.388,0.869,0.864s-0.391,0.863-0.869,0.863
			c-0.48,0-0.871-0.387-0.871-0.863S55.443,59.38,55.924,59.38z M45.02,59.38c0.479,0,0.869,0.388,0.869,0.864
			s-0.391,0.863-0.869,0.863c-0.479,0-0.871-0.387-0.871-0.863S44.539,59.38,45.02,59.38z M56.01,52.813c-0.01,0-0.021,0-0.033,0
			H44.105l-1.648-7.978h15.299L56.01,52.813z M62.143,45.803c0,0.258-0.217,0.473-0.477,0.473h-2.277l0.312-1.418
			c0.133-0.459,0.053-0.93-0.224-1.293c-0.295-0.389-0.778-0.619-1.295-0.619H42.066l-0.101-0.482
			c-0.149-0.971-0.84-1.551-1.846-1.551h-3.897c-0.005,0-0.007-0.002-0.011-0.002c-0.524,0-0.953,0.425-0.953,0.947
			c0,0.521,0.429,0.947,0.953,0.947c0.004,0,0.006-0.002,0.011-0.002l3.873,0.006l0.715,3.467H8.334
			c-0.258,0-0.477-0.215-0.477-0.473V10.31c0-0.256,0.219-0.473,0.477-0.473h53.332c0.26,0,0.477,0.216,0.477,0.473V45.803z"/>
		<g display="none">
			<path display="inline" d="M25.804,19.292l-2.615-0.376l-1.166-2.369c-0.203-0.405-0.528-0.696-0.94-0.84
				c-0.377-0.132-0.778-0.132-1.155,0c-0.412,0.145-0.737,0.435-0.942,0.846l-1.163,2.363L15.2,19.293
				c-0.448,0.068-0.825,0.292-1.091,0.647c-0.245,0.328-0.366,0.713-0.349,1.114c0.018,0.423,0.189,0.809,0.506,1.126l1.899,1.846
				l-0.448,2.621c-0.069,0.412,0.012,0.819,0.232,1.176c0.231,0.374,0.579,0.627,1.005,0.733c0.415,0.104,0.848,0.044,1.198-0.147
				l2.354-1.222l2.336,1.212c0.253,0.138,0.523,0.208,0.803,0.208c0.138,0,0.276-0.017,0.412-0.051
				c0.426-0.106,0.773-0.36,1.005-0.733c0.222-0.357,0.302-0.764,0.232-1.179l-0.448-2.618l1.91-1.856
				c0.307-0.307,0.478-0.692,0.496-1.116c0.017-0.401-0.104-0.787-0.349-1.114C26.636,19.584,26.259,19.361,25.804,19.292z
				 M22.695,23.326l0.517,3.013l-2.707-1.405l-2.707,1.405l0.516-3.014l-2.206-2.144l3.042-0.438l1.355-2.752l1.355,2.752
				l3.041,0.438L22.695,23.326z"/>
			<path display="inline" d="M56.242,21.057c0.018-0.402-0.104-0.788-0.35-1.117c-0.267-0.355-0.644-0.58-1.099-0.648l-2.614-0.376
				l-1.166-2.369c-0.203-0.405-0.527-0.695-0.939-0.84c-0.377-0.133-0.779-0.133-1.156,0c-0.412,0.145-0.738,0.435-0.943,0.845
				l-1.162,2.363l-2.623,0.377c-0.446,0.068-0.823,0.292-1.092,0.647c-0.246,0.329-0.367,0.715-0.348,1.117
				c0.02,0.423,0.189,0.808,0.506,1.123l1.9,1.846l-0.449,2.624c-0.068,0.413,0.012,0.819,0.234,1.175
				c0.231,0.373,0.578,0.625,1.004,0.731c0.412,0.104,0.848,0.043,1.197-0.147l2.354-1.222l2.334,1.212
				c0.254,0.138,0.523,0.208,0.805,0.208c0.137,0,0.275-0.017,0.412-0.051c0.424-0.106,0.771-0.359,1.004-0.731
				c0.221-0.355,0.303-0.762,0.232-1.181l-0.447-2.618l1.91-1.856C56.051,21.865,56.223,21.48,56.242,21.057z M51.688,23.326
				l0.517,3.013l-2.707-1.405l-2.707,1.405l0.517-3.014L45.1,21.182l3.041-0.438l1.355-2.752l1.355,2.752l3.041,0.438L51.688,23.326
				z"/>
		</g>
		<g>
			<path d="M61.666,49.11h-0.897l0.619-2.838h0.278c0.259,0,0.477-0.215,0.477-0.472V10.309c0-0.256-0.218-0.473-0.477-0.473H8.333
				c-0.258,0-0.477,0.216-0.477,0.473v35.493c0,0.258,0.219,0.473,0.477,0.473h30.47l0.56,2.836H8.333
				c-1.838,0-3.334-1.483-3.334-3.309V10.309c0-1.825,1.496-3.31,3.334-3.31h53.333c1.838,0,3.334,1.485,3.334,3.31v35.493
				C65,47.626,63.504,49.11,61.666,49.11z"/>
		</g>
		<path d="M57.871,53.217l1.827-8.36c0.133-0.459,0.053-0.93-0.222-1.293c-0.295-0.389-0.779-0.619-1.297-0.619H42.064l-0.1-0.482
			c-0.148-0.971-0.839-1.551-1.845-1.551h-3.899c-0.003,0-0.005-0.002-0.009-0.002c-0.526,0-0.954,0.425-0.954,0.947
			c0,0.521,0.428,0.947,0.954,0.947c0.004,0,0.006-0.002,0.009-0.002l3.873,0.006l2.78,13.461c0.202,0.793,0.631,1.232,1.276,1.371
			c-1.104,0.362-1.908,1.389-1.908,2.604c0,1.521,1.244,2.756,2.775,2.756c1.529,0,2.774-1.235,2.774-2.756
			c0-1.142-0.705-2.124-1.705-2.541h8.763c-0.998,0.417-1.703,1.399-1.703,2.541c0,1.521,1.244,2.756,2.774,2.756
			c1.529,0,2.774-1.235,2.774-2.756c0-1.142-0.704-2.124-1.704-2.541h0.384c0.007,0,0.012,0.004,0.02,0.004
			c0.525,0,0.953-0.425,0.953-0.946c0-0.52-0.421-0.938-0.94-0.945v-0.004L44.725,55.81l-0.229-1.104h11.48
			C56.525,54.704,57.546,54.704,57.871,53.217z M55.923,61.106c-0.479,0-0.871-0.387-0.871-0.863s0.392-0.864,0.871-0.864
			s0.87,0.388,0.87,0.864S56.402,61.106,55.923,61.106z M45.02,61.106c-0.479,0-0.871-0.387-0.871-0.863s0.392-0.864,0.871-0.864
			c0.479,0,0.869,0.388,0.869,0.864S45.498,61.106,45.02,61.106z M42.456,44.835h15.3l-1.746,7.979c-0.011,0-0.021,0-0.033,0H44.104
			L42.456,44.835z"/>
	</g>
	<g display="inline">
		<g>
			<path d="M46.376,30.773l-0.03-0.006c-0.303-0.01-0.592-0.091-0.852-0.237l-2.437-1.384l-2.438,1.379
				c-0.277,0.159-0.461,0.237-0.779,0.237l-0.133-1.734l3.351-1.882l3.369,1.869l0.063-0.028l-0.85-3.628l2.909-2.447l-3.88-0.404
				l-1.525-3.384c-0.048-0.043-0.11-0.043-0.136-0.029l-0.006,0.003l-0.775,1.69l-1.764-0.303l0.934-2.083
				c0.148-0.326,0.385-0.596,0.684-0.783l0.084-0.046c0.547-0.324,1.302-0.313,1.881,0.047c0.316,0.206,0.547,0.477,0.688,0.795
				l1.105,2.451l2.814,0.254c0.354,0.034,0.682,0.163,0.952,0.375c0.283,0.216,0.493,0.512,0.604,0.85
				c0.11,0.324,0.122,0.679,0.029,1.015c-0.102,0.35-0.294,0.649-0.563,0.879l-2.098,1.765l0.605,2.591
				c0.083,0.352,0.056,0.713-0.079,1.044c-0.118,0.314-0.347,0.601-0.655,0.81c-0.278,0.194-0.616,0.307-0.97,0.321L46.376,30.773z"
				/>
		</g>
	</g>
	<g display="inline">
		<g>
			<path d="M22.679,30.772l0.03-0.006c0.303-0.01,0.592-0.091,0.852-0.237l2.437-1.384l2.438,1.379
				c0.277,0.159,0.461,0.237,0.779,0.237l0.133-1.734l-3.351-1.882l-3.369,1.869l-0.063-0.028l0.85-3.628l-2.909-2.447l3.88-0.404
				l1.525-3.384c0.048-0.043,0.11-0.043,0.136-0.029l0.006,0.003l0.775,1.69l1.764-0.303l-0.934-2.083
				c-0.148-0.326-0.385-0.596-0.684-0.783l-0.084-0.046c-0.547-0.324-1.302-0.313-1.881,0.047c-0.316,0.206-0.547,0.477-0.688,0.795
				l-1.105,2.451l-2.814,0.254c-0.354,0.034-0.682,0.163-0.952,0.375c-0.283,0.216-0.493,0.512-0.604,0.85
				c-0.11,0.324-0.122,0.679-0.029,1.015c0.102,0.35,0.294,0.649,0.563,0.879l2.098,1.765l-0.605,2.591
				c-0.083,0.352-0.056,0.713,0.079,1.044c0.118,0.314,0.347,0.601,0.655,0.81c0.278,0.194,0.616,0.307,0.97,0.321L22.679,30.772z"
				/>
		</g>
	</g>
	<g display="inline">
		<path d="M38.908,32.594l-0.032-0.007c-0.354-0.011-0.692-0.105-0.998-0.274l-3.335-1.893l-3.33,1.884
			c-0.328,0.187-0.696,0.284-1.065,0.284l-0.096-0.002c-0.413-0.024-0.801-0.155-1.128-0.381c-0.346-0.238-0.607-0.568-0.756-0.953
			c-0.142-0.346-0.177-0.752-0.093-1.158l0.842-3.597l-2.867-2.419c-0.316-0.264-0.545-0.616-0.659-1.014
			c-0.111-0.381-0.099-0.813,0.038-1.206c0.131-0.382,0.371-0.716,0.691-0.963c0.327-0.25,0.713-0.4,1.122-0.437l3.843-0.345
			l1.525-3.374c0.167-0.375,0.444-0.69,0.795-0.911l0.091-0.05c0.591-0.349,1.546-0.356,2.202,0.053
			c0.364,0.237,0.635,0.552,0.798,0.921l1.518,3.362l3.85,0.349c0.412,0.04,0.793,0.189,1.108,0.435
			c0.331,0.254,0.576,0.597,0.701,0.989c0.129,0.372,0.144,0.784,0.038,1.174c-0.122,0.41-0.347,0.755-0.657,1.021l-2.877,2.422
			l0.83,3.562c0.096,0.408,0.065,0.826-0.091,1.208c-0.137,0.365-0.411,0.708-0.766,0.944c-0.323,0.225-0.717,0.356-1.129,0.372
			L38.908,32.594z M34.545,28.411l4.188,2.377c0.057,0.031,0.132,0.052,0.195,0.052h0.067c0.063-0.008,0.122-0.03,0.172-0.065
			c0.066-0.044,0.108-0.092,0.124-0.138c0.026-0.067,0.031-0.118,0.017-0.176l-1.075-4.605l3.693-3.106
			c0.047-0.042,0.086-0.1,0.106-0.167c0.007-0.031,0.005-0.088-0.014-0.146c-0.023-0.069-0.06-0.119-0.11-0.158
			c-0.061-0.045-0.127-0.071-0.205-0.078l-4.86-0.44l-1.939-4.298c-0.03-0.066-0.076-0.118-0.142-0.161
			c-0.086-0.053-0.301-0.066-0.418,0.002c-0.065,0.039-0.112,0.091-0.139,0.15l-1.946,4.305l-4.857,0.436
			c-0.081,0.007-0.153,0.035-0.216,0.083c-0.046,0.037-0.083,0.088-0.104,0.149c-0.019,0.053-0.022,0.108-0.009,0.151
			c0.019,0.067,0.052,0.117,0.103,0.159l3.689,3.114l-1.082,4.616c-0.014,0.067,0.004,0.121,0.01,0.135
			c0.028,0.074,0.069,0.125,0.126,0.163c0.063,0.044,0.139,0.069,0.225,0.074c0.063,0.008,0.146-0.02,0.21-0.056L34.545,28.411z"/>
	</g>
</g>
<g>
	<g>
		<g>
			<path d="M61.666,49.11H60.77l0.619-2.838h0.277c0.26,0,0.477-0.215,0.477-0.472V10.309c0-0.256-0.217-0.473-0.477-0.473H8.333
				c-0.258,0-0.477,0.216-0.477,0.473v35.493c0,0.258,0.219,0.473,0.477,0.473h30.469l0.561,2.836H8.333
				C6.496,49.11,5,47.627,5,45.802V10.309c0-1.825,1.496-3.31,3.334-3.31h53.333c1.838,0,3.334,1.485,3.334,3.31v35.493
				C65,47.626,63.504,49.11,61.666,49.11z"/>
		</g>
		<path d="M57.871,53.217l1.828-8.36c0.133-0.459,0.053-0.93-0.223-1.293c-0.295-0.389-0.779-0.619-1.297-0.619H42.064l-0.1-0.482
			c-0.148-0.971-0.838-1.551-1.844-1.551h-3.9c-0.002,0-0.004-0.002-0.008-0.002c-0.527,0-0.955,0.425-0.955,0.947
			c0,0.521,0.427,0.947,0.955,0.947c0.004,0,0.006-0.002,0.008-0.002l3.873,0.006l2.781,13.461c0.201,0.793,0.631,1.232,1.275,1.371
			c-1.104,0.362-1.908,1.389-1.908,2.604c0,1.521,1.244,2.756,2.775,2.756c1.529,0,2.775-1.235,2.775-2.756
			c0-1.142-0.705-2.124-1.705-2.541h8.762c-0.998,0.417-1.703,1.399-1.703,2.541c0,1.521,1.244,2.756,2.775,2.756
			c1.529,0,2.773-1.235,2.773-2.756c0-1.142-0.703-2.124-1.703-2.541h0.383c0.008,0,0.012,0.004,0.02,0.004
			c0.525,0,0.953-0.425,0.953-0.946c0-0.52-0.42-0.938-0.939-0.945v-0.004L44.725,55.81l-0.229-1.104h11.48
			C56.525,54.704,57.547,54.704,57.871,53.217z M55.924,61.106c-0.48,0-0.871-0.387-0.871-0.863s0.391-0.864,0.871-0.864
			c0.479,0,0.869,0.388,0.869,0.864S56.402,61.106,55.924,61.106z M45.02,61.106c-0.479,0-0.871-0.387-0.871-0.863
			s0.393-0.864,0.871-0.864s0.869,0.388,0.869,0.864S45.498,61.106,45.02,61.106z M42.457,44.835h15.299l-1.746,7.979
			c-0.01,0-0.021,0-0.033,0H44.104L42.457,44.835z"/>
	</g>
	<g>
		<g>
			<path d="M46.377,30.773l-0.031-0.006c-0.303-0.01-0.592-0.091-0.852-0.237l-2.436-1.384l-2.438,1.379
				c-0.277,0.159-0.461,0.237-0.779,0.237l-0.133-1.734l3.35-1.882l3.369,1.869l0.063-0.028l-0.85-3.628l2.91-2.447l-3.881-0.404
				l-1.525-3.384c-0.047-0.043-0.109-0.043-0.135-0.029l-0.006,0.003l-0.775,1.69l-1.764-0.303l0.934-2.083
				c0.148-0.326,0.385-0.596,0.684-0.783l0.084-0.046c0.547-0.324,1.301-0.313,1.881,0.047c0.316,0.206,0.547,0.477,0.688,0.795
				l1.105,2.451l2.814,0.254c0.354,0.034,0.682,0.163,0.951,0.375c0.283,0.216,0.494,0.512,0.604,0.85
				c0.111,0.324,0.123,0.679,0.029,1.015c-0.102,0.35-0.293,0.649-0.563,0.879l-2.098,1.765l0.605,2.591
				c0.082,0.352,0.055,0.713-0.08,1.044c-0.117,0.314-0.346,0.601-0.654,0.81c-0.279,0.194-0.617,0.307-0.971,0.321L46.377,30.773z"
				/>
		</g>
	</g>
	<g>
		<g>
			<path d="M22.68,30.772l0.03-0.006c0.303-0.01,0.592-0.091,0.852-0.237l2.437-1.384l2.438,1.379
				c0.277,0.159,0.461,0.237,0.779,0.237l0.133-1.734l-3.351-1.882l-3.369,1.869l-0.063-0.028l0.85-3.628l-2.909-2.447l3.88-0.404
				l1.525-3.384c0.048-0.043,0.11-0.043,0.136-0.029l0.006,0.003l0.775,1.69l1.764-0.303l-0.934-2.083
				c-0.148-0.326-0.385-0.596-0.684-0.783l-0.084-0.046c-0.547-0.324-1.302-0.313-1.881,0.047c-0.316,0.206-0.547,0.477-0.688,0.795
				l-1.105,2.451l-2.814,0.254c-0.354,0.034-0.682,0.163-0.952,0.375c-0.283,0.216-0.493,0.512-0.604,0.85
				c-0.11,0.324-0.122,0.679-0.029,1.015c0.102,0.35,0.294,0.649,0.563,0.879l2.098,1.765l-0.605,2.591
				c-0.083,0.352-0.056,0.713,0.079,1.044c0.118,0.314,0.347,0.601,0.655,0.81c0.278,0.194,0.616,0.307,0.97,0.321L22.68,30.772z"/>
		</g>
	</g>
	<g>
		<path d="M38.908,32.594l-0.031-0.007c-0.355-0.011-0.693-0.105-0.998-0.274l-3.335-1.893l-3.33,1.884
			c-0.328,0.187-0.696,0.284-1.065,0.284l-0.096-0.002c-0.413-0.024-0.801-0.155-1.128-0.381c-0.346-0.238-0.607-0.568-0.756-0.953
			c-0.142-0.346-0.177-0.752-0.093-1.158l0.842-3.597l-2.867-2.419c-0.316-0.264-0.545-0.616-0.659-1.014
			c-0.111-0.381-0.099-0.813,0.038-1.206c0.131-0.382,0.371-0.716,0.691-0.963c0.327-0.25,0.713-0.4,1.122-0.437l3.843-0.345
			l1.525-3.374c0.168-0.375,0.443-0.69,0.795-0.911l0.092-0.05c0.592-0.349,1.547-0.356,2.203,0.053
			c0.363,0.237,0.635,0.552,0.797,0.921l1.518,3.362l3.85,0.349c0.412,0.04,0.793,0.189,1.109,0.435
			c0.33,0.254,0.576,0.597,0.701,0.989c0.129,0.372,0.143,0.784,0.037,1.174c-0.121,0.41-0.346,0.755-0.656,1.021l-2.877,2.422
			l0.83,3.562c0.096,0.408,0.064,0.826-0.092,1.208c-0.137,0.365-0.41,0.708-0.766,0.944c-0.322,0.225-0.717,0.356-1.129,0.372
			L38.908,32.594z M34.545,28.411l4.187,2.377c0.057,0.031,0.133,0.052,0.195,0.052h0.068c0.063-0.008,0.121-0.03,0.172-0.065
			c0.066-0.044,0.107-0.092,0.123-0.138c0.027-0.067,0.031-0.118,0.018-0.176l-1.076-4.605l3.693-3.106
			c0.047-0.042,0.086-0.1,0.107-0.167c0.006-0.031,0.004-0.088-0.014-0.146c-0.023-0.069-0.061-0.119-0.111-0.158
			c-0.061-0.045-0.127-0.071-0.205-0.078l-4.859-0.44l-1.94-4.298c-0.03-0.066-0.075-0.118-0.142-0.161
			c-0.086-0.053-0.301-0.066-0.419,0.002c-0.065,0.039-0.112,0.091-0.14,0.15l-1.945,4.305l-4.857,0.436
			c-0.081,0.007-0.153,0.035-0.216,0.083c-0.046,0.037-0.083,0.088-0.104,0.149c-0.019,0.053-0.022,0.108-0.009,0.151
			c0.019,0.067,0.052,0.117,0.103,0.159l3.689,3.114l-1.082,4.616c-0.014,0.067,0.004,0.121,0.01,0.135
			c0.028,0.074,0.069,0.125,0.126,0.163c0.063,0.044,0.139,0.069,0.225,0.074c0.063,0.008,0.146-0.02,0.21-0.056L34.545,28.411z"/>
	</g>
</g>
</svg>
