<?xml version="1.0" encoding="utf-8"?>
<!-- Generator: Adobe Illustrator 16.0.0, SVG Export Plug-In . SVG Version: 6.00 Build 0)  -->
<!DOCTYPE svg PUBLIC "-//W3C//DTD SVG 1.1//EN" "http://www.w3.org/Graphics/SVG/1.1/DTD/svg11.dtd">
<svg version="1.1" xmlns="http://www.w3.org/2000/svg" xmlns:xlink="http://www.w3.org/1999/xlink" x="0px" y="0px"
	 width="70px" height="70px" viewBox="0 0 70 70" enable-background="new 0 0 70 70" xml:space="preserve">
<g display="none">
</g>
<g display="none">
	<circle display="inline" fill="none" stroke="#2D3437" stroke-width="3" stroke-miterlimit="10" cx="32.778" cy="29.1" r="24"/>
	
		<line display="inline" fill="none" stroke="#2D3437" stroke-width="2" stroke-miterlimit="10" x1="22.778" y1="29.1" x2="42.777" y2="29.1"/>
	
		<line display="inline" fill="none" stroke="#2D3437" stroke-width="2" stroke-miterlimit="10" x1="32.778" y1="19.101" x2="32.778" y2="39.1"/>
	<path display="inline" fill="#030303" d="M59.332,55.116l1.828-8.36c0.133-0.459,0.053-0.93-0.223-1.293
		c-0.295-0.389-0.779-0.619-1.297-0.619H43.525l-0.102-0.482c-0.146-0.971-0.838-1.551-1.844-1.551h-3.898
		c-0.002,0-0.006-0.002-0.01-0.002c-0.525,0-0.955,0.426-0.955,0.947s0.43,0.947,0.955,0.947c0.004,0,0.008-0.002,0.01-0.002
		l3.873,0.006l2.779,13.461c0.201,0.793,0.631,1.232,1.273,1.371c-1.104,0.361-1.906,1.389-1.906,2.604
		c0,1.521,1.242,2.756,2.773,2.756c1.529,0,2.775-1.233,2.775-2.756c0-1.142-0.705-2.123-1.705-2.541h8.762
		c-0.998,0.418-1.703,1.399-1.703,2.541c0,1.521,1.244,2.756,2.775,2.756c1.529,0,2.773-1.233,2.773-2.756
		c0-1.142-0.703-2.123-1.703-2.541h0.383c0.008,0,0.012,0.004,0.02,0.004c0.525,0,0.953-0.424,0.953-0.944s-0.42-0.938-0.938-0.945
		v-0.004L46.182,57.71l-0.229-1.104h11.48C57.986,56.604,59.008,56.604,59.332,55.116z M57.385,63.006
		c-0.48,0-0.871-0.387-0.871-0.863c0-0.476,0.391-0.863,0.871-0.863c0.479,0,0.869,0.389,0.869,0.863
		C58.254,62.619,57.863,63.006,57.385,63.006z M46.48,63.006c-0.479,0-0.871-0.387-0.871-0.863c0-0.476,0.393-0.863,0.871-0.863
		c0.478,0,0.869,0.389,0.869,0.863C47.35,62.619,46.959,63.006,46.48,63.006z M43.918,46.734h15.299l-1.746,7.979
		c-0.01,0-0.021,0-0.033,0H45.564L43.918,46.734z"/>
</g>
<g>
	<path fill="#1A1818" d="M61.667,59.286H8.333C6.495,59.286,5,57.79,5,55.952V14.048c0-1.838,1.495-3.333,3.333-3.333h53.333
		c1.838,0,3.333,1.495,3.333,3.333v41.904C65,57.79,63.505,59.286,61.667,59.286z M8.333,13.571c-0.258,0-0.477,0.218-0.477,0.477
		v41.904c0,0.259,0.218,0.477,0.477,0.477h53.333c0.258,0,0.476-0.218,0.476-0.477V14.048c0-0.258-0.218-0.477-0.476-0.477H8.333z"
		/>
</g>
<g>
	<g>
		<path d="M32.998,46.602c-1.53,0-2.775-1.245-2.775-2.775c0-1.529,1.245-2.773,2.775-2.773c1.529,0,2.773,1.244,2.773,2.773
			C35.771,45.356,34.528,46.602,32.998,46.602z M32.998,42.956c-0.48,0-0.871,0.391-0.871,0.87c0,0.48,0.391,0.871,0.871,0.871
			c0.479,0,0.87-0.391,0.87-0.871C33.868,43.347,33.478,42.956,32.998,42.956z"/>
	</g>
	<g>
		<path d="M43.902,46.602c-1.529,0-2.775-1.245-2.775-2.775c0-1.529,1.246-2.773,2.775-2.773s2.775,1.244,2.775,2.773
			C46.678,45.356,45.432,46.602,43.902,46.602z M43.902,42.956c-0.48,0-0.87,0.391-0.87,0.87c0,0.48,0.39,0.871,0.87,0.871
			s0.871-0.391,0.871-0.871C44.773,43.347,44.383,42.956,43.902,42.956z"/>
	</g>
	<g>
		<path d="M43.955,38.247H31.454v-1.905h12.501c0.012,0,0.021,0,0.033,0l1.843-8.484l1.862,0.405l-1.844,8.485
			C45.525,38.247,44.503,38.247,43.955,38.247z"/>
	</g>
	<g>
		<path d="M45.388,41.267H32.574c-0.912,0-1.476-0.473-1.72-1.445l-2.781-13.565h-3.882v-1.905H28.1
			c1.006,0,1.697,0.584,1.846,1.562l2.757,13.446l12.685,0.003V41.267z"/>
	</g>
	<g>
		<circle cx="45.376" cy="40.316" r="0.954"/>
	</g>
	<g>
		<circle cx="24.191" cy="25.304" r="0.954"/>
	</g>
</g>
<circle cx="46.749" cy="28.062" r="0.932"/>
<path d="M41.542,28.082h-2.829v-2.829c0-0.539-0.428-0.98-0.952-0.98s-0.953,0.441-0.953,0.98v2.829h-2.831
	c-0.538,0-0.979,0.428-0.979,0.953c0,0.525,0.441,0.952,0.979,0.952h2.831v2.83c0,0.539,0.429,0.979,0.953,0.979
	s0.952-0.441,0.952-0.979v-2.83h2.829c0.539,0,0.98-0.428,0.98-0.952C42.522,28.51,42.08,28.082,41.542,28.082z"/>
</svg>
