<?xml version="1.0" encoding="utf-8"?>
<!-- Generator: Adobe Illustrator 16.0.0, SVG Export Plug-In . SVG Version: 6.00 Build 0)  -->
<!DOCTYPE svg PUBLIC "-//W3C//DTD SVG 1.1//EN" "http://www.w3.org/Graphics/SVG/1.1/DTD/svg11.dtd">
<svg version="1.1" xmlns="http://www.w3.org/2000/svg" xmlns:xlink="http://www.w3.org/1999/xlink" x="0px" y="0px"
	 width="70px" height="70px" viewBox="0 0 70 70" enable-background="new 0 0 70 70" xml:space="preserve">
<g display="none">
	
		<image display="inline" overflow="visible" enable-background="new    " width="39" height="34" xlink:href="BFF9B0CB.jpg"  transform="matrix(2.1096 0 0 2.1651 -6.0625 1.9707)">
	</image>
</g>
<g display="none">
	
		<circle display="inline" fill="none" stroke="#000000" stroke-width="2" stroke-miterlimit="10" cx="33.875" cy="68.086" r="1.914"/>
	
		<circle display="inline" fill="none" stroke="#000000" stroke-width="2" stroke-miterlimit="10" cx="45.323" cy="68.086" r="1.914"/>
	<path display="inline" fill="none" stroke="#000000" stroke-width="2" stroke-miterlimit="10" d="M30.121,50.789h17.572
		c0.351,0,0.773,0.257,0.635,0.744l-1.936,8.908c-0.172,0.785-0.455,0.785-1.014,0.785H32.254"/>
	<path display="inline" fill="none" stroke="#000000" stroke-width="2" stroke-miterlimit="10" d="M24.628,48.639h4.104
		c0.524,0,0.86,0.204,0.95,0.791l2.912,14.207c0.155,0.617,0.375,0.762,0.836,0.762h13.454"/>
	<circle display="inline" cx="46.871" cy="64.4" r="1.002"/>
	<circle display="inline" cx="24.628" cy="48.639" r="1.002"/>
</g>
<g display="none">
	<g display="inline">
		<path fill="none" stroke="#000000" stroke-width="3" stroke-miterlimit="10" d="M41.682,54.813H6.536c-1.1,0-2-0.9-2-2v-37.54
			c0-1.1,0.9-2,2-2h56.001c1.1,0,2,0.9,2,2v37.538c0,1.101-0.9,2-2,2h-4.086"/>
	</g>
</g>
<g display="none">
	<polygon display="inline" points="23.814,22.292 45.258,22.292 45.258,29.841 43.713,29.841 39.596,24.522 36.51,24.522 
		36.51,43.907 39.938,43.907 39.938,45.793 29.132,45.793 29.132,43.907 32.563,43.907 32.563,24.522 28.79,24.522 25.359,29.841 
		23.814,29.841 	"/>
</g>
<g display="none">
	
		<circle display="inline" fill="none" stroke="#000000" stroke-width="2" stroke-miterlimit="10" cx="45.057" cy="68.086" r="1.914"/>
	
		<circle display="inline" fill="none" stroke="#000000" stroke-width="2" stroke-miterlimit="10" cx="56.505" cy="68.086" r="1.914"/>
	<path display="inline" fill="none" stroke="#000000" stroke-width="2" stroke-miterlimit="10" d="M41.303,50.789h17.573
		c0.351,0,0.772,0.257,0.634,0.744l-1.936,8.908c-0.172,0.785-0.454,0.785-1.014,0.785H43.436"/>
	<path display="inline" fill="none" stroke="#000000" stroke-width="2" stroke-miterlimit="10" d="M35.811,48.639h4.104
		c0.522,0,0.858,0.204,0.948,0.791l2.912,14.207c0.156,0.617,0.375,0.762,0.836,0.762h13.455"/>
	<circle display="inline" cx="58.053" cy="64.4" r="1.002"/>
	<circle display="inline" cx="35.811" cy="48.639" r="1.002"/>
</g>
<g>
	<g display="none">
		<path display="inline" d="M61.666,49.111h-3.891v-2.838h3.891c0.259,0,0.477-0.215,0.477-0.472V10.31
			c0-0.256-0.218-0.473-0.477-0.473H8.333c-0.258,0-0.477,0.216-0.477,0.473v35.493c0,0.258,0.219,0.473,0.477,0.473h33.472v2.836
			H8.333c-1.838,0-3.334-1.483-3.334-3.309V10.31C4.999,8.485,6.495,7,8.333,7h53.333C63.504,7,65,8.485,65,10.31v35.493
			C65,47.627,63.504,49.111,61.666,49.111z"/>
	</g>
	<polygon display="none" points="24.789,16.945 45.21,16.945 45.21,24.083 43.738,24.083 40.48,19.055 36.879,19.055 36.879,37.383 
		40.145,37.383 40.145,39.166 29.853,39.166 29.853,37.383 33.121,37.383 33.121,19.055 29.527,19.055 26.26,24.083 24.789,24.083 	
		"/>
	<path display="none" d="M57.871,53.218l1.827-8.36c0.133-0.459,0.053-0.93-0.222-1.293c-0.295-0.389-0.779-0.619-1.297-0.619
		H42.064l-0.1-0.482c-0.148-0.971-0.839-1.551-1.845-1.551h-3.899c-0.003,0-0.005-0.002-0.009-0.002
		c-0.526,0-0.954,0.425-0.954,0.947c0,0.521,0.428,0.947,0.954,0.947c0.004,0,0.006-0.002,0.009-0.002l3.873,0.006l2.78,13.461
		c0.202,0.793,0.631,1.232,1.276,1.371c-1.104,0.362-1.908,1.389-1.908,2.604c0,1.521,1.244,2.756,2.775,2.756
		c1.529,0,2.774-1.235,2.774-2.756c0-1.142-0.705-2.124-1.705-2.541h8.763c-0.998,0.417-1.703,1.399-1.703,2.541
		c0,1.521,1.244,2.756,2.774,2.756c1.529,0,2.774-1.235,2.774-2.756c0-1.142-0.704-2.124-1.704-2.541h0.384
		c0.007,0,0.012,0.004,0.02,0.004c0.525,0,0.953-0.425,0.953-0.946c0-0.52-0.421-0.938-0.94-0.945v-0.004l-12.683-0.002
		l-0.229-1.104h11.48C56.525,54.705,57.546,54.705,57.871,53.218z M55.923,61.107c-0.479,0-0.871-0.387-0.871-0.863
		s0.392-0.864,0.871-0.864s0.87,0.388,0.87,0.864S56.402,61.107,55.923,61.107z M45.02,61.107c-0.479,0-0.871-0.387-0.871-0.863
		s0.392-0.864,0.871-0.864c0.479,0,0.869,0.388,0.869,0.864S45.498,61.107,45.02,61.107z M42.456,44.836h15.3l-1.746,7.979
		c-0.011,0-0.021,0-0.033,0H44.104L42.456,44.836z"/>
</g>
<g>
	<path d="M61.795,6.999H8.462c-1.838,0-3.334,1.485-3.334,3.31v35.493c0,1.825,1.496,3.309,3.334,3.309h31.029l-0.56-2.836H8.462
		c-0.258,0-0.477-0.215-0.477-0.473V10.309c0-0.257,0.219-0.473,0.477-0.473h53.333c0.259,0,0.477,0.217,0.477,0.473v35.492
		c0,0.257-0.218,0.472-0.477,0.472h-0.278l-0.619,2.838h0.897c1.838,0,3.334-1.484,3.334-3.309V10.309
		C65.129,8.484,63.633,6.999,61.795,6.999z"/>
	<path d="M58.309,42.944H42.193l-0.1-0.482c-0.148-0.971-0.839-1.551-1.845-1.551H36.35c-0.003,0-0.005-0.002-0.009-0.002
		c-0.526,0-0.954,0.425-0.954,0.947c0,0.521,0.427,0.947,0.954,0.947c0.004,0,0.006-0.002,0.009-0.002l3.873,0.006l2.78,13.461
		c0.202,0.793,0.631,1.232,1.276,1.371c-1.104,0.362-1.908,1.389-1.908,2.604c0,1.521,1.244,2.756,2.775,2.756
		c1.529,0,2.774-1.235,2.774-2.756c0-1.142-0.705-2.124-1.705-2.541h8.763c-0.998,0.417-1.703,1.399-1.703,2.541
		c0,1.521,1.244,2.756,2.774,2.756c1.529,0,2.774-1.235,2.774-2.756c0-1.142-0.704-2.124-1.704-2.541h0.384
		c0.007,0,0.012,0.004,0.02,0.004c0.525,0,0.953-0.425,0.953-0.946c0-0.52-0.421-0.938-0.94-0.945v-0.004L44.854,55.81l-0.229-1.104
		h11.48c0.549-0.001,1.569-0.001,1.895-1.488l1.827-8.36c0.133-0.459,0.053-0.93-0.222-1.293
		C59.311,43.175,58.826,42.944,58.309,42.944z M56.052,59.379c0.479,0,0.87,0.388,0.87,0.864s-0.391,0.863-0.87,0.863
		s-0.871-0.387-0.871-0.863S55.572,59.379,56.052,59.379z M45.148,59.379c0.479,0,0.869,0.388,0.869,0.864s-0.391,0.863-0.869,0.863
		c-0.479,0-0.871-0.387-0.871-0.863S44.669,59.379,45.148,59.379z M56.139,52.813c-0.011,0-0.021,0-0.033,0H44.232l-1.647-7.979
		h15.3L56.139,52.813z"/>
</g>
<g>
	<path d="M43.517,16.775H26.741l-0.18,8.64l-0.001,0.069h1.903l0.604-2.479c0.605-1.803,1.562-2.728,2.921-2.833h1.153v15.786
		h-3.529v3.379h11.036v-3.379H36.99V20.171h1.28c1.429,0,2.368,0.847,2.868,2.573c0.007,0.106,0.025,0.197,0.055,0.273l0.602,2.465
		h1.903L43.517,16.775z M35.868,19.074v16.883h-1.607V19.074h0l0,0l-2.317,0.001c-0.116,0.009-0.223,0.034-0.334,0.051
		c-0.113,0.018-0.231,0.027-0.341,0.053c-1.518,0.358-2.617,1.535-3.275,3.509l-0.277,1.133l0.125-5.95h14.578l0.124,5.948
		l-0.128-0.525l-0.14-0.571l-0.001-0.002l-0.035-0.202c-0.644-2.286-1.979-3.446-3.968-3.446H35.868L35.868,19.074L35.868,19.074z
		 M30.732,38.236v-1.182h8.793v1.182H30.732z"/>
</g>
</svg>
