<?xml version="1.0" encoding="utf-8"?>
<!-- Generator: Adobe Illustrator 18.0.0, SVG Export Plug-In . SVG Version: 6.00 Build 0)  -->
<!DOCTYPE svg PUBLIC "-//W3C//DTD SVG 1.1//EN" "http://www.w3.org/Graphics/SVG/1.1/DTD/svg11.dtd">
<svg version="1.1" xmlns="http://www.w3.org/2000/svg" xmlns:xlink="http://www.w3.org/1999/xlink" x="0px" y="0px"
	 width="70px" height="70px" viewBox="0 0 70 70" enable-background="new 0 0 70 70" xml:space="preserve">
<g>
	<path d="M57.7,11H12.3c-1.6,0-2.8,1.3-2.8,2.8v30.4c0,1.6,1.3,2.8,2.8,2.8h26.4l-0.5-2.4H12.3c-0.2,0-0.4-0.2-0.4-0.4V13.8
		c0-0.2,0.2-0.4,0.4-0.4h45.3c0.2,0,0.4,0.2,0.4,0.4v30.4c0,0.2-0.2,0.4-0.4,0.4h-0.2l-0.5,2.4h0.8c1.6,0,2.8-1.3,2.8-2.8V13.8
		C60.5,12.3,59.2,11,57.7,11z"/>
	<path d="M54.7,41.8H41l-0.1-0.4c-0.1-0.8-0.7-1.3-1.6-1.3H36c0,0,0,0,0,0c-0.4,0-0.8,0.4-0.8,0.8s0.4,0.8,0.8,0.8c0,0,0,0,0,0
		l3.3,0l2.4,11.5c0.2,0.7,0.5,1.1,1.1,1.2c-0.9,0.3-1.6,1.2-1.6,2.2c0,1.3,1.1,2.4,2.4,2.4c1.3,0,2.4-1.1,2.4-2.4
		c0-1-0.6-1.8-1.4-2.2h7.4c-0.8,0.4-1.4,1.2-1.4,2.2c0,1.3,1.1,2.4,2.4,2.4s2.4-1.1,2.4-2.4c0-1-0.6-1.8-1.4-2.2H54c0,0,0,0,0,0
		c0.4,0,0.8-0.4,0.8-0.8c0-0.4-0.4-0.8-0.8-0.8v0H43.3l-0.2-0.9h9.8c0.5,0,1.3,0,1.6-1.3l1.6-7.2c0.1-0.4,0-0.8-0.2-1.1
		C55.6,42,55.1,41.8,54.7,41.8z M52.8,55.9c0.4,0,0.7,0.3,0.7,0.7c0,0.4-0.3,0.7-0.7,0.7c-0.4,0-0.7-0.3-0.7-0.7
		C52,56.2,52.4,55.9,52.8,55.9z M43.5,55.9c0.4,0,0.7,0.3,0.7,0.7c0,0.4-0.3,0.7-0.7,0.7c-0.4,0-0.7-0.3-0.7-0.7
		C42.8,56.2,43.1,55.9,43.5,55.9z M52.9,50.3C52.8,50.3,52.8,50.3,52.9,50.3H42.7l-1.4-6.8h13L52.9,50.3z"/>
	<path d="M20.8,26.6v-1.1h2.6v9.8h-1.3v-8.7H20.8z"/>
	<path d="M28.1,31.9c0.7-0.6,1.2-1.2,1.7-1.9c0.5-0.7,0.7-1.3,0.7-1.9c0-0.6-0.1-1-0.4-1.4c-0.3-0.3-0.8-0.5-1.4-0.5
		c-0.6,0-1.1,0.2-1.4,0.6c-0.3,0.4-0.5,0.9-0.6,1.6h-1.2c0-1,0.3-1.8,0.9-2.4c0.6-0.6,1.3-0.8,2.3-0.8c0.9,0,1.7,0.3,2.2,0.8
		c0.6,0.5,0.8,1.2,0.8,2.1c0,0.7-0.2,1.5-0.7,2.2c-0.5,0.7-1,1.3-1.5,1.9c-0.6,0.5-1.3,1.2-2.2,1.9H32v1.1h-6.6v-0.9
		C26.6,33.3,27.5,32.5,28.1,31.9z"/>
	<path d="M34.4,25.7c0.6-0.5,1.3-0.7,2.3-0.7c0.6,0,1.2,0.1,1.6,0.3c0.5,0.2,0.8,0.5,1,0.9c0.2,0.4,0.3,0.8,0.3,1.3
		c0,0.6-0.2,1.1-0.5,1.5c-0.3,0.4-0.7,0.7-1.3,0.8v0.1c0.6,0.1,1.1,0.4,1.4,0.9c0.3,0.4,0.5,1,0.5,1.7c0,0.5-0.1,1-0.4,1.4
		c-0.2,0.4-0.6,0.7-1.1,1c-0.5,0.2-1,0.4-1.7,0.4c-1,0-1.8-0.3-2.4-0.8c-0.6-0.5-1-1.2-1-2.2h1.2c0.1,0.6,0.3,1,0.7,1.4
		c0.4,0.4,0.9,0.5,1.5,0.5c0.6,0,1.1-0.2,1.5-0.5c0.3-0.3,0.5-0.8,0.5-1.3c0-0.7-0.2-1.2-0.7-1.5c-0.5-0.3-1.1-0.5-2.1-0.5h-0.3
		v-1.1h0.3c0.8,0,1.5-0.1,1.9-0.4c0.4-0.3,0.6-0.7,0.6-1.3c0-0.5-0.2-0.9-0.5-1.2c-0.3-0.3-0.8-0.4-1.4-0.4c-0.6,0-1,0.1-1.4,0.4
		c-0.3,0.3-0.6,0.7-0.6,1.2h-1.2C33.5,26.9,33.8,26.2,34.4,25.7z"/>
	<path d="M48.2,23.7l-3.7-4l-3.2,4l-1.1-0.9l4.2-5.3l4.8,5.2L48.2,23.7z"/>
	<path d="M43.7,19.3h1.4V38h-1.4V19.3z"/>
</g>
</svg>
