<?xml version="1.0" encoding="utf-8"?>
<!-- Generator: Adobe Illustrator 16.0.0, SVG Export Plug-In . SVG Version: 6.00 Build 0)  -->
<!DOCTYPE svg PUBLIC "-//W3C//DTD SVG 1.1//EN" "http://www.w3.org/Graphics/SVG/1.1/DTD/svg11.dtd">
<svg version="1.1" xmlns="http://www.w3.org/2000/svg" xmlns:xlink="http://www.w3.org/1999/xlink" x="0px" y="0px"
	 width="70px" height="70px" viewBox="0 0 70 70" enable-background="new 0 0 70 70" xml:space="preserve">
<g display="none">
	
		<image display="inline" overflow="visible" enable-background="new    " width="88" height="49" xlink:href="A8C2DDA7.jpg"  transform="matrix(2.179 0 0 2.179 -43.0005 -8.8164)">
	</image>
</g>
<g display="none">
	<g display="inline">
		<path fill="none" stroke="#000000" stroke-width="3" stroke-miterlimit="10" d="M31.515,5c-1.1,0-2.643,0.63-3.428,1.4
			L14.143,20.073c-0.786,0.77-1.428,2.3-1.428,3.4v38.36c0,1.101,0.9,2,2,2h40.57c1.1,0,2-0.899,2-2V7c0-1.1-0.9-2-2-2H31.515z"/>
	</g>
	
		<line display="inline" fill="none" stroke="#000000" stroke-width="3" stroke-miterlimit="10" x1="27.462" y1="21.8" x2="12.715" y2="21.8"/>
	<path display="inline" fill="none" stroke="#000000" stroke-width="3" stroke-miterlimit="10" d="M29.515,5v15.089
		c0,0.946-0.919,1.711-2.053,1.711"/>
	<g display="inline">
		<g>
			<g>
				<path d="M44.2,29.942c0,0.55-0.45,1-1,1H21.136c-0.55,0-1-0.45-1-1l0,0c0-0.55,0.45-1,1-1H43.2
					C43.75,28.942,44.2,29.393,44.2,29.942L44.2,29.942z"/>
			</g>
		</g>
	</g>
	<g display="inline">
		<g>
			<g>
				<path d="M50.616,38.557c0,0.549-0.45,1-1,1h-28.48c-0.55,0-1-0.451-1-1l0,0c0-0.551,0.45-1,1-1h28.48
					C50.166,37.557,50.616,38.006,50.616,38.557L50.616,38.557z"/>
			</g>
		</g>
	</g>
	<g display="inline">
		<g>
			<g>
				<path d="M45.95,45.05c0,0.55-0.45,1-1,1H21.136c-0.55,0-1-0.45-1-1l0,0c0-0.55,0.45-1,1-1H44.95
					C45.5,44.05,45.95,44.5,45.95,45.05L45.95,45.05z"/>
			</g>
		</g>
	</g>
	<g display="inline">
		<path d="M24.632,55.938c0,0.551-0.45,1-1,1h-2.307c-0.55,0-1-0.449-1-1v-2.307c0-0.55,0.45-1,1-1h2.307c0.55,0,1,0.45,1,1V55.938z
			"/>
	</g>
	<g display="inline">
		<path d="M33.245,55.938c0,0.551-0.45,1-1,1h-2.307c-0.55,0-1-0.449-1-1v-2.307c0-0.55,0.45-1,1-1h2.307c0.55,0,1,0.45,1,1V55.938z
			"/>
	</g>
	<g display="inline">
		<path d="M41.857,55.938c0,0.551-0.45,1-1,1H38.55c-0.55,0-1-0.449-1-1v-2.307c0-0.55,0.45-1,1-1h2.308c0.55,0,1,0.45,1,1V55.938z"
			/>
	</g>
	<rect x="74.084" y="22.467" display="inline" width="42.749" height="42.034"/>
</g>
<g>
	<g>
		<path d="M54.758,4.98H31.597c-1.418,0-3.252,0.749-4.266,1.743L13.736,20.056c-1.02,1-1.789,2.831-1.789,4.259v37.333
			c0,1.838,1.496,3.333,3.333,3.333h39.478c1.84,0,3.336-1.495,3.336-3.333V8.313C58.094,6.477,56.598,4.98,54.758,4.98z
			 M28.264,9.811l0.001,11.249c-0.02,0.065-0.222,0.238-0.565,0.238H16.55L28.264,9.811z M55.236,61.647
			c0,0.258-0.219,0.476-0.479,0.476H15.28c-0.257,0-0.476-0.218-0.476-0.476V24.313c0-0.049,0.007-0.105,0.013-0.159h12.882
			c1.887,0,3.421-1.386,3.421-3.091V7.897c0.17-0.036,0.334-0.06,0.477-0.06h23.161c0.26,0,0.479,0.218,0.479,0.477V61.647z"/>
		<path d="M49.346,38.274H21.171c-0.523,0-0.952,0.428-0.952,0.952v0.037c0,0.522,0.429,0.953,0.952,0.953h28.175
			c0.523,0,0.951-0.431,0.951-0.953v-0.037C50.297,38.702,49.869,38.274,49.346,38.274z"/>
		<path d="M49.346,30.332H21.171c-0.523,0-0.952,0.428-0.952,0.952v0.037c0,0.522,0.429,0.953,0.952,0.953h28.175
			c0.523,0,0.951-0.431,0.951-0.953v-0.037C50.297,30.76,49.869,30.332,49.346,30.332z"/>
		<path d="M49.346,22.39H37.171c-0.522,0-0.952,0.428-0.952,0.952v0.037c0,0.522,0.43,0.953,0.952,0.953h12.175
			c0.523,0,0.951-0.431,0.951-0.953v-0.037C50.297,22.817,49.869,22.39,49.346,22.39z"/>
		<path d="M44.336,46.217H21.171c-0.523,0-0.952,0.43-0.952,0.952v0.039c0,0.522,0.429,0.953,0.952,0.953h23.167
			c0.521,0,0.951-0.431,0.951-0.953v-0.039C45.289,46.646,44.859,46.217,44.336,46.217z"/>
		<path d="M23.336,53.161h-2.165c-0.523,0-0.952,0.43-0.952,0.952v0.039c0,0.522,0.429,0.953,0.952,0.953h2.167
			c0.521,0,0.951-0.431,0.951-0.953v-0.039C24.289,53.591,23.859,53.161,23.336,53.161z"/>
		<path d="M29.406,53.161h-2.165c-0.523,0-0.952,0.43-0.952,0.952v0.039c0,0.522,0.429,0.953,0.952,0.953h2.167
			c0.521,0,0.951-0.431,0.951-0.953v-0.039C30.359,53.591,29.929,53.161,29.406,53.161z"/>
		<path d="M35.476,53.161h-2.165c-0.523,0-0.952,0.43-0.952,0.952v0.039c0,0.522,0.429,0.953,0.952,0.953h2.167
			c0.521,0,0.951-0.431,0.951-0.953v-0.039C36.429,53.591,35.999,53.161,35.476,53.161z"/>
	</g>
</g>
</svg>
