<?xml version="1.0" encoding="utf-8"?>
<!-- Generator: Adobe Illustrator 16.0.0, SVG Export Plug-In . SVG Version: 6.00 Build 0)  -->
<!DOCTYPE svg PUBLIC "-//W3C//DTD SVG 1.1//EN" "http://www.w3.org/Graphics/SVG/1.1/DTD/svg11.dtd">
<svg version="1.1" xmlns="http://www.w3.org/2000/svg" xmlns:xlink="http://www.w3.org/1999/xlink" x="0px" y="0px"
	 width="70px" height="70px" viewBox="0 0 70 70" enable-background="new 0 0 70 70" xml:space="preserve">
<g display="none">
	<g display="inline">
		<path fill="#FFFFFF" d="M50.867,31.417c0,0.55-0.45,1-1,1H18.533c-0.55,0-1-0.45-1-1V7.491c0-0.55,0.45-1,1-1h31.334
			c0.55,0,1,0.45,1,1V31.417z"/>
		<path fill="none" stroke="#000000" stroke-width="3" stroke-miterlimit="10" d="M50.867,31.417c0,0.55-0.45,1-1,1H18.533
			c-0.55,0-1-0.45-1-1V7.491c0-0.55,0.45-1,1-1h31.334c0.55,0,1,0.45,1,1V31.417z"/>
	</g>
	<g display="inline">
		<path fill="#FFFFFF" d="M20.088,58.682c0,0.551-0.45,1-1,1H5.532c-0.55,0-1-0.449-1-1V48.583c0-0.55,0.45-1,1-1h13.556
			c0.55,0,1,0.45,1,1V58.682z"/>
		<path fill="none" stroke="#000000" stroke-width="2" stroke-miterlimit="10" d="M20.088,58.682c0,0.551-0.45,1-1,1H5.532
			c-0.55,0-1-0.449-1-1V48.583c0-0.55,0.45-1,1-1h13.556c0.55,0,1,0.45,1,1V58.682z"/>
	</g>
	<g display="inline">
		<path fill="#FFFFFF" d="M42.311,58.682c0,0.551-0.451,1-1,1H27.754c-0.55,0-1-0.449-1-1V48.583c0-0.55,0.45-1,1-1h13.557
			c0.549,0,1,0.45,1,1V58.682L42.311,58.682z"/>
		<path fill="none" stroke="#000000" stroke-width="2" stroke-miterlimit="10" d="M42.311,58.682c0,0.551-0.451,1-1,1H27.754
			c-0.55,0-1-0.449-1-1V48.583c0-0.55,0.45-1,1-1h13.557c0.549,0,1,0.45,1,1V58.682L42.311,58.682z"/>
	</g>
	<g display="inline">
		<path fill="#FFFFFF" d="M64.533,58.682c0,0.551-0.451,1-1,1H49.977c-0.549,0-1-0.449-1-1V48.583c0-0.55,0.451-1,1-1h13.559
			c0.549,0,1,0.45,1,1L64.533,58.682L64.533,58.682z"/>
		<path fill="none" stroke="#000000" stroke-width="2" stroke-miterlimit="10" d="M64.533,58.682c0,0.551-0.451,1-1,1H49.977
			c-0.549,0-1-0.449-1-1V48.583c0-0.55,0.451-1,1-1h13.559c0.549,0,1,0.45,1,1L64.533,58.682L64.533,58.682z"/>
	</g>
	
		<line display="inline" fill="none" stroke="#000000" stroke-width="2" stroke-miterlimit="10" x1="34.2" y1="35" x2="34.2" y2="45.193"/>
	<path display="inline" fill="none" stroke="#000000" stroke-width="2" stroke-miterlimit="10" d="M56.422,40.191"/>
	<path display="inline" fill="none" stroke="#000000" stroke-width="2" stroke-miterlimit="10" d="M56.422,45.587v-3.754
		c0-0.907-0.785-1.642-1.755-1.642H14.084c-1.164,0-2.106,0.771-2.106,1.726v3.67"/>
</g>
<g>
	<g>
		<path d="M56.004,8.255c0-1.265-1.029-2.294-2.294-2.294H15.646c-1.265,0-2.294,1.029-2.294,2.294v25.088
			c0,1.266,1.029,2.296,2.294,2.296H53.71c1.265,0,2.294-1.029,2.294-2.295V8.255z M53.352,32.985H16.005V8.614h37.347V32.985z"/>
		<path d="M20.054,48.021H6.936C5.869,48.021,5,48.889,5,49.956v9.772c0,1.065,0.868,1.937,1.936,1.937h13.118
			c1.067,0,1.936-0.869,1.936-1.937v-9.772C21.99,48.889,21.122,48.021,20.054,48.021z M20.051,59.729H6.936v-9.771h13.118
			L20.051,59.729z"/>
		<path d="M41.561,48.021h-13.12c-1.067,0-1.936,0.867-1.936,1.936v9.773c0,1.064,0.868,1.936,1.936,1.936h13.12
			c1.066,0,1.937-0.869,1.937-1.936v-9.773C43.495,48.889,42.627,48.021,41.561,48.021z M41.557,59.729H28.441v-9.771h13.12
			L41.557,59.729z"/>
		<path d="M63.064,48.021H49.945c-1.066,0-1.937,0.867-1.937,1.936v9.773c0,1.064,0.868,1.936,1.937,1.936h13.119
			c1.065,0,1.936-0.869,1.936-1.936v-9.773C65,48.889,64.132,48.021,63.064,48.021z M63.063,59.729H49.945v-9.771h13.119
			L63.063,59.729z"/>
		<path d="M14.141,43.505c0-0.332,0.44-0.7,1.071-0.7H33.71v3.872h1.937v-3.872h18.838c0.402,0,0.73,0.276,0.73,0.619v3.633h1.936
			v-3.633c0-1.408-1.194-2.556-2.666-2.556H35.646v-4.058H33.71v4.058H15.212c-1.658,0-3.006,1.184-3.006,2.637v3.552h1.936
			L14.141,43.505L14.141,43.505z"/>
	</g>
	<path d="M41.162,14.246H29.441l-0.073-0.35c-0.107-0.706-0.61-1.128-1.342-1.128H25.19c-0.002,0-0.003-0.001-0.007-0.001
		c-0.383,0-0.693,0.309-0.693,0.688s0.311,0.688,0.693,0.688c0.004,0,0.005-0.001,0.007-0.001l2.817,0.004l2.022,9.791
		c0.146,0.577,0.458,0.896,0.928,0.997c-0.803,0.264-1.388,1.01-1.388,1.895c0,1.106,0.905,2.004,2.019,2.004
		c1.112,0,2.018-0.898,2.018-2.004c0-0.831-0.513-1.545-1.24-1.849h6.375c-0.726,0.303-1.239,1.018-1.239,1.849
		c0,1.106,0.905,2.004,2.018,2.004c1.113,0,2.019-0.898,2.019-2.004c0-0.831-0.513-1.545-1.239-1.849h0.279
		c0.005,0,0.009,0.003,0.016,0.003c0.381,0,0.692-0.309,0.692-0.688c0-0.378-0.308-0.682-0.685-0.688v-0.003h-9.225L31.211,22.8
		h8.35c0.399,0,1.142,0,1.379-1.083l1.328-6.081c0.098-0.334,0.039-0.676-0.16-0.94C41.891,14.414,41.539,14.246,41.162,14.246z
		 M39.521,26.2c0.35,0,0.633,0.283,0.633,0.629c0,0.346-0.283,0.627-0.633,0.627c-0.349,0-0.633-0.281-0.633-0.627
		C38.889,26.483,39.172,26.2,39.521,26.2z M31.59,26.2c0.348,0,0.632,0.283,0.632,0.629c0,0.346-0.285,0.627-0.632,0.627
		c-0.349,0-0.634-0.281-0.634-0.627C30.957,26.483,31.241,26.2,31.59,26.2z M39.584,21.424c-0.008,0-0.016,0-0.023,0h-8.637
		l-1.198-5.804h11.129L39.584,21.424z"/>
</g>
</svg>
