<?xml version="1.0" encoding="utf-8"?>
<!-- Generator: Adobe Illustrator 16.0.0, SVG Export Plug-In . SVG Version: 6.00 Build 0)  -->
<!DOCTYPE svg PUBLIC "-//W3C//DTD SVG 1.1//EN" "http://www.w3.org/Graphics/SVG/1.1/DTD/svg11.dtd">
<svg version="1.1" xmlns="http://www.w3.org/2000/svg" xmlns:xlink="http://www.w3.org/1999/xlink" x="0px" y="0px"
	 width="70px" height="70px" viewBox="0 0 70 70" enable-background="new 0 0 70 70" xml:space="preserve">
<g display="none">
	<g display="inline">
		<g display="none">
			<path display="inline" d="M61.354,21.536H25.065c-0.707,0-1.281-0.574-1.281-1.279v-5.349c0-2.307-1.879-4.184-4.189-4.184
				h-8.944c-2.31,0-4.189,1.877-4.189,4.184v40.115c0,2.308,1.879,4.185,4.189,4.185h50.703c2.313,0,4.188-1.877,4.188-4.185V25.718
				C65.543,23.412,63.664,21.536,61.354,21.536z M9.371,14.908c0-0.705,0.575-1.279,1.281-1.279h8.944
				c0.706,0,1.281,0.574,1.281,1.279v5.349c0,2.307,1.879,4.184,4.189,4.184h36.288c0.707,0,1.281,0.573,1.281,1.277v29.306
				c0,0.705-0.574,1.279-1.281,1.279H10.651c-0.706,0-1.281-0.574-1.281-1.279L9.371,14.908L9.371,14.908z"/>
			<path display="inline" d="M30.421,17.496h9.341c0.611,0,1.11-0.498,1.11-1.11v-0.682c0-0.612-0.499-1.111-1.11-1.111h-9.341
				c-0.613,0-1.112,0.499-1.112,1.111v0.682C29.31,16.998,29.808,17.496,30.421,17.496z"/>
			<path display="inline" d="M48.193,17.496h9.34c0.613,0,1.113-0.498,1.113-1.11v-0.682c0-0.612-0.5-1.111-1.113-1.111h-9.34
				c-0.612,0-1.111,0.499-1.111,1.111v0.682C47.082,16.998,47.581,17.496,48.193,17.496z"/>
		</g>
		
			<image display="none" overflow="visible" enable-background="new    " width="69" height="61" xlink:href="36C51C96.jpg"  transform="matrix(0.9846 0 0 0.9846 0.0278 5.9673)">
		</image>
		<g>
			<path d="M61.456,61H8.543c-1.838,0-3.333-1.495-3.333-3.333V11.333C5.21,9.496,6.706,8,8.543,8h9.005
				c1.627,0,3.33,1.131,3.96,2.632l2.936,5.992c0.183,0.437,0.852,0.88,1.325,0.88h35.686c1.838,0,3.334,1.496,3.334,3.333v36.83
				C64.79,59.505,63.294,61,61.456,61z M8.543,10.857c-0.258,0-0.476,0.218-0.476,0.477v46.333c0,0.258,0.218,0.476,0.476,0.476
				h52.913c0.259,0,0.478-0.218,0.478-0.476v-36.83c0-0.258-0.219-0.476-0.478-0.476H25.77c-1.627,0-3.33-1.131-3.959-2.632
				l-2.937-5.992c-0.183-0.437-0.852-0.881-1.325-0.881L8.543,10.857L8.543,10.857z"/>
		</g>
		<path d="M50.35,12.521L50.35,12.521l3.271,7.098l2.139-0.992l-3.204-6.915c-0.416-0.896-1.436-1.546-2.424-1.546H20.752v2.357
			l14.1-0.001l3.391,7.109l2.128-1.015l-2.908-6.095H50.35z"/>
	</g>
</g>
<g>
	<g>
		<path d="M51.354,11.523L51.354,11.523l3.271,7.098l2.14-0.992l-3.205-6.915c-0.416-0.896-1.436-1.546-2.424-1.546H21.756v2.357
			l14.1-0.001l3.392,7.109l2.128-1.015l-2.908-6.095H51.354z"/>
		<path d="M65.693,19.84c0-1.783-1.45-3.233-3.233-3.233H26.773c-0.516,0-1.218-0.466-1.417-0.941l-2.934-5.987
			c-0.617-1.471-2.28-2.576-3.87-2.576H9.547c-1.783,0-3.233,1.45-3.233,3.233V52.67c0,1.782,1.45,3.232,3.233,3.232h52.914
			c0.862,0,1.674-0.336,2.285-0.947s0.947-1.423,0.947-2.285V19.84z M63.038,52.67c0,0.313-0.265,0.575-0.577,0.575H9.547
			c-0.313,0-0.576-0.265-0.576-0.575V10.337c0-0.279,0.209-0.519,0.476-0.568V9.76l0.1-0.001h9.006c0.516,0,1.218,0.467,1.417,0.942
			l2.935,5.987c0.616,1.471,2.279,2.576,3.869,2.576h35.687c0.313,0,0.577,0.264,0.577,0.576V52.67z"/>
	</g>
</g>
</svg>
