<?xml version="1.0" encoding="utf-8"?>
<!-- Generator: Adobe Illustrator 16.0.0, SVG Export Plug-In . SVG Version: 6.00 Build 0)  -->
<!DOCTYPE svg PUBLIC "-//W3C//DTD SVG 1.1//EN" "http://www.w3.org/Graphics/SVG/1.1/DTD/svg11.dtd">
<svg version="1.1" xmlns="http://www.w3.org/2000/svg" xmlns:xlink="http://www.w3.org/1999/xlink" x="0px" y="0px"
	 width="70px" height="70px" viewBox="0 0 70 70" enable-background="new 0 0 70 70" xml:space="preserve">
<g>
	<path d="M56.342,22.687H31.847c-0.479,0-0.853,0.491-0.853,1.118c0,0.629,0.375,1.122,0.853,1.122h24.495
		c0.479,0,0.854-0.493,0.854-1.122C57.193,23.178,56.818,22.687,56.342,22.687z"/>
	<path d="M56.342,27.865H26.426c-0.479,0-0.854,0.492-0.854,1.12c0,0.628,0.375,1.121,0.854,1.121h29.916
		c0.479,0,0.854-0.493,0.854-1.121C57.193,28.357,56.818,27.865,56.342,27.865z"/>
	<path d="M56.342,33.044h-20.88c-0.479,0-0.854,0.493-0.854,1.123c0,0.628,0.375,1.121,0.854,1.121h20.879
		c0.479,0,0.853-0.493,0.853-1.121C57.193,33.537,56.819,33.044,56.342,33.044z"/>
	<path d="M31.075,38.032c-0.297-0.921-1.075-1.579-2.032-1.719l-5.914-0.862l-0.058-0.119l-2.593-5.275
		c-0.421-0.855-1.307-1.408-2.256-1.408c-0.965,0-1.829,0.54-2.255,1.409l-2.638,5.383l-0.125,0.021l-5.802,0.849
		c-0.957,0.14-1.735,0.797-2.03,1.716c-0.297,0.905-0.047,1.922,0.636,2.593l4.285,4.189l-0.026,0.132l-0.99,5.794
		c-0.16,0.938,0.233,1.905,1.001,2.466c0.07,0.05,0.148,0.095,0.226,0.139c0.063,0.036,0.116,0.065,0.17,0.091
		c0.19,0.088,0.395,0.152,0.607,0.191l0.097,0.021c0.122,0.02,0.25,0.029,0.391,0.03c0.428-0.004,0.818-0.097,1.159-0.275
		l5.287-2.798l0.116,0.061l5.183,2.736c0.359,0.189,0.764,0.289,1.17,0.289c0.534,0,1.045-0.167,1.478-0.481
		c0.771-0.562,1.165-1.53,1.002-2.467l-1.015-5.916l0.084-0.09l4.204-4.112C31.118,39.949,31.368,38.934,31.075,38.032z
		 M23.552,44.029l1.28,7.386l-0.489-0.263l-6.123-3.233l-6.59,3.498l1.262-7.387L7.542,38.81l0.539-0.08l6.849-0.998l3.284-6.725
		l0.242,0.499l3.058,6.228l7.384,1.061L23.552,44.029z"/>
	<path d="M64.75,16.326c0-2.18-1.8-3.954-4.012-3.954H19.7c-2.194,0-3.979,1.774-3.979,3.954V25.6l0.427-0.022l0.253,0.003
		c0.194,0,0.388-0.014,0.561-0.026c0.407-0.032,0.679-0.026,0.855,0.018l0.41,0.099v-9.347c0-0.836,0.675-1.542,1.473-1.542h41.04
		c0.816,0,1.507,0.706,1.507,1.542v26.729c0,0.836-0.69,1.543-1.507,1.543h-4.264v6.819l-5.721-6.819H30.359l0.036,0.367
		c0.062,0.625,0.085,1.146,0.003,1.653l-0.066,0.389h19.703l0.075,0.088l8.468,10.095V47.01h2.161c2.212,0,4.012-1.773,4.012-3.953
		V16.326z"/>
</g>
</svg>
