<?xml version="1.0" encoding="utf-8"?>
<!DOCTYPE svg PUBLIC "-//W3C//DTD SVG 1.1//EN" "http://www.w3.org/Graphics/SVG/1.1/DTD/svg11.dtd">
<svg version="1.1" xmlns="http://www.w3.org/2000/svg" xmlns:xlink="http://www.w3.org/1999/xlink" x="0px" y="0px"
	 width="70px" height="70px" viewBox="0 0 70 70" enable-background="new 0 0 70 70" xml:space="preserve">
<g>
	<path d="M35,20.8c-10.2,0-18.5,8.2-18.5,18.2c0,10,8.3,18.2,18.5,18.2c10.2,0,18.5-8.2,18.5-18.2C53.5,28.9,45.2,20.8,35,20.8z
		 M35,55.5c-9.3,0-16.8-7.4-16.8-16.5c0-9.1,7.6-16.5,16.8-16.5c9.3,0,16.8,7.4,16.8,16.5C51.8,48,44.3,55.5,35,55.5z"/>
	<path d="M35.8,16.9l0-1h1.9c1.9,0,3.4-1.5,3.4-3.3v-0.2c0-1.8-1.5-3.3-3.4-3.3h-5.5c-1.9,0-3.4,1.5-3.4,3.3v0.2
		c0,1.8,1.5,3.3,3.4,3.3h1.9l0,1c-12,0.4-21.6,10.2-21.6,22C12.5,51.1,22.6,61,35,61c12.4,0,22.5-9.9,22.5-22.1
		C57.5,27,47.9,17.3,35.8,16.9z M32.2,14.2c-0.9,0-1.7-0.7-1.7-1.7v-0.2c0-0.9,0.8-1.7,1.7-1.7h5.5c0.9,0,1.7,0.7,1.7,1.7v0.2
		c0,0.9-0.8,1.7-1.7,1.7h-1.9l0-1.8l-1.7,0l0,1.8H32.2z M35,58.5c-11,0-20-8.8-20-19.6c0-10.8,9-19.6,20-19.6c11,0,20,8.8,20,19.6
		C55,49.7,46,58.5,35,58.5z"/>
	<path d="M15,23.3l1.1,1.1l1.2-1.2l-1.1-1.1C16,22,16,21.8,15.9,21.7c0-0.1,0-0.2,0.1-0.3l0.9-0.9c0.1-0.1,0.3-0.2,0.5-0.2
		c0,0,0,0,0,0c0.2,0,0.3,0.1,0.5,0.2l1,1l1.2-1.2l-1-1c-0.6-0.6-1.3-0.7-1.7-0.7c0,0,0,0,0,0c-0.6,0-1.2,0.3-1.7,0.7l-0.9,0.9
		c-0.5,0.5-0.7,1.1-0.6,1.8C14.3,22.4,14.6,22.9,15,23.3z"/>
	<path d="M52.1,20.5c0.2-0.2,0.3-0.2,0.5-0.2c0,0,0,0,0,0c0.2,0,0.4,0.1,0.5,0.2l0.9,0.9c0.3,0.3,0,0.7-0.1,0.7l-1.1,1.1l1.2,1.2
		l1.1-1.1c0.8-0.8,1.1-2.1,0.1-3.1l-0.9-0.9c-0.4-0.4-1.1-0.7-1.7-0.7c0,0,0,0,0,0c-0.4,0-1.1,0.1-1.7,0.7l-1,1l1.2,1.2L52.1,20.5z"
		/>
	<rect x="48.2" y="38.1" width="2" height="1.7"/>
	<rect x="34.1" y="51.9" width="1.7" height="2"/>
	<rect x="19.7" y="38.1" width="2" height="1.7"/>
	<polygon points="23.9,31.8 22.1,30.8 21.3,32.3 23.1,33.3 	"/>
	<polygon points="26.5,26.4 27.6,28.1 29,27.3 28,25.6 	"/>
	<polygon points="43.4,26.4 41.9,25.6 40.9,27.3 42.4,28.1 	"/>
	<polygon points="48.7,32.3 47.9,30.8 46.1,31.8 46.9,33.2 	"/>
	<polygon points="46.1,46 47.9,47 48.7,45.6 46.9,44.6 	"/>
	<polygon points="41,50.6 42,52.3 43.5,51.4 42.4,49.7 	"/>
	<polygon points="26.5,51.4 28,52.3 29,50.5 27.5,49.7 	"/>
	<polygon points="21.4,45.8 22.3,47.3 24,46.2 23.2,44.8 	"/>
	<rect x="34.1" y="24" width="1.7" height="2"/>
	<path d="M35.9,38.1h-1.7c-0.4,0-0.9-0.2-1.2-0.5c-0.3-0.3-0.5-0.7-0.5-1.2c0-0.4,0.2-0.8,0.5-1.1c0.3-0.3,0.7-0.5,1.2-0.5h1.7
		c0.4,0,0.9,0.2,1.2,0.5c0.4,0.4,0.5,0.8,0.5,1.2h1.7c0-0.9-0.3-1.7-1-2.3c-0.6-0.6-1.5-1-2.4-1v-1.7h-1.7v1.7c-0.9,0-1.7,0.3-2.4,1
		c-0.6,0.6-1,1.5-1,2.3c0,0.9,0.3,1.7,1,2.3c0.6,0.6,1.5,1,2.4,1h1.7c0.4,0,0.9,0.2,1.2,0.5c0.3,0.3,0.5,0.7,0.5,1.2
		c0,0.4-0.2,0.9-0.5,1.1c-0.3,0.3-0.8,0.5-1.2,0.5h-1.7c-0.4,0-0.9-0.2-1.2-0.5c-0.3-0.3-0.5-0.7-0.5-1.2h-1.7c0,0.9,0.3,1.7,1,2.3
		c0.6,0.6,1.5,1,2.4,1v1.7h1.7v-1.7c0.9,0,1.7-0.4,2.4-1c0.6-0.6,1-1.4,1-2.3c0-0.9-0.3-1.7-1-2.3C37.6,38.5,36.7,38.1,35.9,38.1z"
		/>
</g>
</svg>
