<?xml version="1.0" encoding="utf-8"?>
<!DOCTYPE svg PUBLIC "-//W3C//DTD SVG 1.1//EN" "http://www.w3.org/Graphics/SVG/1.1/DTD/svg11.dtd">
<svg version="1.1" xmlns="http://www.w3.org/2000/svg" xmlns:xlink="http://www.w3.org/1999/xlink" x="0px" y="0px"
	 width="70px" height="70px" viewBox="0 0 70 70" enable-background="new 0 0 70 70" xml:space="preserve">
<g>
	<path d="M15.7,50.9h24.2V37H15.7V50.9z M25.1,48.8v-9.7h5.8v9.7L25.1,48.8L25.1,48.8z M37.8,48.8H33v-9.7h4.8V48.8z M17.8,39.1H23
		v9.7h-5.3V39.1z"/>
	<path d="M62.2,25.6c-0.2-0.3-0.3-0.7-0.5-1.2l-3.9-8.5l-0.1-0.2c-1-1.4-2.2-1.7-3-1.7l-39.4,0c-1.3,0-2.8,1.3-3.2,2.2l-3.8,8.3
		c-0.2,0.4-0.3,0.7-0.5,1.1c-0.8,1.7-1.4,3-1.4,4.3l0,0.1c0.4,3.1,2.7,5.3,5.8,5.7v18.2c0,1.1,0.9,2.1,2.1,2.1h42.6
		c1.1,0,2.1-0.9,2.1-2.1V35.4c2.4-0.4,4.1-2.4,4.5-5.2l0-0.1C63.5,28.4,63,27.4,62.2,25.6z M34.4,28.8c0,2.5-2.7,4.5-6.1,4.5
		c-2.9,0-5.3-1.9-5.5-4.2l2.7-13.1l8.9,0L34.4,28.8L34.4,28.8L34.4,28.8z M36.5,16.1l8.4,0l2.7,13c-0.2,2.4-2.4,4.3-5.2,4.3
		c-3.3,0-5.9-2-5.9-4.6L36.5,16.1L36.5,16.1z M8.6,29.8c0-0.9,0.5-2,1.2-3.4c0.2-0.3,0.3-0.7,0.5-1.1L14,17c0.1-0.3,0.9-1,1.3-1
		l8.2,0l-2.6,12.8h-0.1c0,0.2,0,0.3,0,0.5l0,0.1h0c-0.4,2.4-3.6,4.3-7.4,4.3C10.8,33.7,9,32.2,8.6,29.8z M44.5,53.9V39.1h8.2v14.8
		L44.5,53.9L44.5,53.9z M54.8,53.9V37H42.5v16.9H14.4V35.7c3.2-0.3,5.9-1.7,7.4-3.7c1.3,2,3.8,3.4,6.6,3.4c3,0,5.7-1.4,7.1-3.4
		c1.4,2,4,3.4,7,3.4c2.8,0,5.2-1.4,6.4-3.5c1.6,1.9,4.5,3.2,8.1,3.4v18.5H54.8z M58,33.4c-4.5,0-8.2-2.1-8.2-4.5h0l-2.7-12.8l7.6,0
		c0.3,0,0.8,0.1,1.3,0.8l3.9,8.5c0.2,0.4,0.4,0.8,0.5,1.2c0.7,1.6,1.1,2.4,1.1,3.4C61.1,32.1,59.8,33.4,58,33.4z"/>
</g>
</svg>
