<?xml version="1.0" encoding="utf-8"?>
<!-- Generator: Adobe Illustrator 16.0.0, SVG Export Plug-In . SVG Version: 6.00 Build 0)  -->
<!DOCTYPE svg PUBLIC "-//W3C//DTD SVG 1.1//EN" "http://www.w3.org/Graphics/SVG/1.1/DTD/svg11.dtd">
<svg version="1.1" xmlns="http://www.w3.org/2000/svg" xmlns:xlink="http://www.w3.org/1999/xlink" x="0px" y="0px"
	 width="70px" height="70px" viewBox="0 0 70 70" enable-background="new 0 0 70 70" xml:space="preserve">
<image display="none" overflow="visible" width="35" height="35" xlink:href="195F8172.jpg"  transform="matrix(1.5435 0 0 1.5435 7.4858 4.4858)">
</image>
<g>
	<g>
		<g>
			<path d="M36.5,64c0,0.55-0.45,1-1,1h-1c-0.55,0-1-0.45-1-1V6c0-0.55,0.45-1,1-1h1c0.55,0,1,0.45,1,1V64z"/>
		</g>
	</g>
</g>
<g>
	<path d="M22.645,47.867L22.645,47.867c-0.335,0-0.846-0.094-1.376-0.538l-11.746-9.84c-0.54-0.451-0.852-1.103-0.854-1.786
		c-0.003-0.684,0.302-1.338,0.838-1.795l11.758-10.028c0.533-0.455,1.048-0.55,1.386-0.55c0.918,0,1.849,0.701,1.849,2.042v20.451
		c0,0.476-0.119,0.894-0.353,1.241C23.809,47.566,23.247,47.867,22.645,47.867z M12.043,35.688l9.456,7.921V27.623L12.043,35.688z"
		/>
</g>
<g>
	<path d="M47.355,47.867c-0.922,0-1.854-0.702-1.854-2.045V25.372c0-1.341,0.93-2.042,1.849-2.042c0.339,0,0.854,0.095,1.386,0.55
		l11.758,10.028c0.536,0.458,0.842,1.113,0.838,1.796c-0.003,0.683-0.314,1.334-0.854,1.786L48.73,47.329
		C48.2,47.774,47.69,47.867,47.355,47.867z M48.501,27.623v15.986l9.456-7.921L48.501,27.623z"/>
</g>
</svg>
