<?xml version="1.0" encoding="utf-8"?>
<!-- Generator: Adobe Illustrator 16.0.0, SVG Export Plug-In . SVG Version: 6.00 Build 0)  -->
<!DOCTYPE svg PUBLIC "-//W3C//DTD SVG 1.1//EN" "http://www.w3.org/Graphics/SVG/1.1/DTD/svg11.dtd">
<svg version="1.1" xmlns="http://www.w3.org/2000/svg" xmlns:xlink="http://www.w3.org/1999/xlink" x="0px" y="0px"
	 width="70px" height="70px" viewBox="0 0 70 70" enable-background="new 0 0 70 70" xml:space="preserve">
<g>
</g>
<g display="none">
	<circle display="inline" fill="none" stroke="#000000" stroke-width="3" stroke-miterlimit="10" cx="36.01" cy="34.915" r="30"/>
	<g display="inline">
		<path fill="none" stroke="#000000" stroke-width="3" stroke-miterlimit="10" d="M29.687,47.074c0,0.55,0.366,0.738,0.814,0.419
			l17.687-12.622c0.449-0.32,0.433-0.818-0.035-1.108L30.537,22.845c-0.468-0.29-0.85-0.077-0.85,0.473V47.074z"/>
	</g>
</g>
<g display="none">
	<g display="inline">
		<path d="M35,64.998C18.458,64.998,5,51.541,5,35S18.458,5.001,35,5.001S65,18.459,65,35S51.542,64.998,35,64.998z M35,7.858
			C20.034,7.858,7.857,20.034,7.857,35c0,14.967,12.177,27.141,27.143,27.141c14.967,0,27.143-12.174,27.143-27.141
			C62.143,20.034,49.967,7.858,35,7.858z"/>
	</g>
	<g display="inline">
		<path d="M29.366,48.557L29.366,48.557c-1.036,0-1.816-0.85-1.816-1.977V23.956c0-1.142,0.801-2.002,1.863-2.002
			c0.381,0,0.771,0.117,1.127,0.337L47.316,32.69c0.625,0.388,0.996,1.002,1.02,1.685c0.021,0.683-0.311,1.32-0.908,1.749
			L30.583,48.145C30.203,48.412,29.782,48.557,29.366,48.557z M30.406,25.57v19.188l14.391-10.269L30.406,25.57z"/>
	</g>
</g>
<g>
	<path d="M35,5C18.458,5,5,18.458,5,35c0,16.542,13.458,30,30,30s30-13.458,30-30C65,18.458,51.542,5,35,5z M35,62.078
		C20.068,62.078,7.92,49.931,7.92,35C7.92,20.068,20.068,7.92,35,7.92c14.931,0,27.079,12.148,27.079,27.08
		C62.079,49.931,49.931,62.078,35,62.078z"/>
	<g>
		<path d="M29.372,48.827L29.372,48.827c-1.197,0-2.099-0.971-2.099-2.259V23.967c0-1.304,0.924-2.285,2.146-2.285
			c0.434,0,0.875,0.131,1.277,0.38L47.455,32.45c0.706,0.438,1.126,1.137,1.152,1.916c0.024,0.778-0.35,1.503-1.025,1.986
			l-16.829,12.01C30.327,48.667,29.848,48.827,29.372,48.827z M30.696,26.093v18.101l13.575-9.688L30.696,26.093z"/>
	</g>
</g>
</svg>
