<?xml version="1.0" encoding="utf-8"?>
<!-- Generator: Adobe Illustrator 16.0.0, SVG Export Plug-In . SVG Version: 6.00 Build 0)  -->
<!DOCTYPE svg PUBLIC "-//W3C//DTD SVG 1.1//EN" "http://www.w3.org/Graphics/SVG/1.1/DTD/svg11.dtd">
<svg version="1.1" xmlns="http://www.w3.org/2000/svg" xmlns:xlink="http://www.w3.org/1999/xlink" x="0px" y="0px"
	 width="70px" height="70px" viewBox="0 0 70 70" enable-background="new 0 0 70 70" xml:space="preserve">
<path fill="#010101" d="M61.615,34.013c1.747-2.283,2.633-4.902,2.633-7.784c-0.002-4.244-1.649-8.027-4.897-11.245
	c-3.206-3.186-6.911-4.734-11.327-4.734c-4.658,0-9.006,1.641-12.241,4.621l-0.457,0.42l-0.498-0.37
	c-4.412-3.274-8.121-4.671-12.403-4.671c-4.602,0-8.834,1.681-11.918,4.734C7.35,18.116,5.75,21.9,5.75,26.229
	c0,2.447,1.067,5.139,3.086,7.786c6.267,8.186,25.391,25.148,25.583,25.318c0.606,0.543,1.614,0.537,2.216-0.011l0.17-0.156
	C41.241,55.076,56.14,41.176,61.615,34.013z M36.006,55.563l-0.504,0.467l-0.509-0.46c-4.257-3.841-18.535-16.882-23.547-23.423
	c-1.58-2.073-2.45-4.175-2.45-5.918c0-3.53,1.255-6.491,3.836-9.052c2.497-2.479,5.814-3.789,9.593-3.789
	c4.002,0,7.27,1.434,12.057,5.29c0.331,0.267,0.769,0.399,1.2,0.352c0.439-0.043,0.832-0.25,1.105-0.583
	c2.658-3.216,6.754-5.059,11.237-5.059c3.592,0,6.371,1.169,9.011,3.79c2.67,2.648,3.97,5.609,3.972,9.051
	c0,2.221-0.653,4.156-1.997,5.917C54.003,38.704,40.136,51.728,36.006,55.563z"/>
</svg>
